<svg width="22" height="22" viewBox="0 0 22 22" fill="none" xmlns="http://www.w3.org/2000/svg">
<circle cx="11" cy="11" r="11" fill="url(#paint0_linear)"/>
<path fill-rule="evenodd" clip-rule="evenodd" d="M8 10.5C8.27614 10.5 8.5 10.7239 8.5 11C8.5 11.9219 8.90831 12.5097 9.42329 12.8925C9.95823 13.2901 10.6136 13.4661 11.0415 13.5017C11.3007 13.5233 11.5 13.74 11.5 14C11.5 14.26 11.3007 14.4767 11.0415 14.4983C10.6136 14.5339 9.95823 14.7099 9.42329 15.1075C8.90831 15.4903 8.5 16.0781 8.5 17C8.5 17.2761 8.27614 17.5 8 17.5C7.72386 17.5 7.5 17.2761 7.5 17C7.5 16.0781 7.09169 15.4903 6.57671 15.1075C6.04177 14.7099 5.38638 14.5339 4.95848 14.4983C4.69933 14.4767 4.5 14.26 4.5 14C4.5 13.74 4.69933 13.5233 4.95848 13.5017C5.38638 13.4661 6.04177 13.2901 6.57671 12.8925C7.09169 12.5097 7.5 11.9219 7.5 11C7.5 10.7239 7.72386 10.5 8 10.5ZM8 12.8137C7.77356 13.1706 7.48643 13.4623 7.17329 13.695C7.0175 13.8108 6.85557 13.912 6.69165 14C6.85557 14.088 7.0175 14.1892 7.17329 14.305C7.48643 14.5377 7.77356 14.8294 8 15.1863C8.22644 14.8294 8.51357 14.5377 8.82671 14.305C8.9825 14.1892 9.14443 14.088 9.30836 14C9.14443 13.912 8.9825 13.8108 8.82671 13.695C8.51357 13.4623 8.22644 13.1706 8 12.8137Z" fill="#AAF5D4"/>
<path fill-rule="evenodd" clip-rule="evenodd" d="M13.5 3.5C13.7761 3.5 14 3.72386 14 4C14 5.47194 14.6583 6.42425 15.4858 7.03934C16.3332 7.66928 17.3636 7.94523 18.0415 8.00173C18.3007 8.02332 18.5 8.23996 18.5 8.5C18.5 8.76004 18.3007 8.97668 18.0415 8.99827C17.3636 9.05476 16.3332 9.33072 15.4858 9.96066C14.6583 10.5757 14 11.5281 14 13C14 13.2761 13.7761 13.5 13.5 13.5C13.2239 13.5 13 13.2761 13 13C13 11.5281 12.3417 10.5757 11.5142 9.96066C10.6668 9.33072 9.63638 9.05476 8.95848 8.99827C8.69933 8.97668 8.5 8.76004 8.5 8.5C8.5 8.23996 8.69933 8.02332 8.95848 8.00173C9.63638 7.94523 10.6668 7.66928 11.5142 7.03934C12.3417 6.42425 13 5.47194 13 4C13 3.72386 13.2239 3.5 13.5 3.5ZM13.5 6.21518C13.1555 6.89685 12.6616 7.43249 12.1108 7.84191C11.7441 8.11449 11.3529 8.33106 10.9641 8.5C11.3529 8.66894 11.7441 8.88551 12.1108 9.15809C12.6616 9.56751 13.1555 10.1031 13.5 10.7848C13.8445 10.1031 14.3384 9.56751 14.8892 9.15809C15.2559 8.88551 15.6471 8.66894 16.0359 8.5C15.6471 8.33106 15.2559 8.11449 14.8892 7.84191C14.3384 7.43249 13.8445 6.89685 13.5 6.21518Z" fill="#AAF5D4"/>
<defs>
<linearGradient id="paint0_linear" x1="22" y1="-4.80213e-06" x2="-0.548423" y2="0.577235" gradientUnits="userSpaceOnUse">
<stop stop-color="#05295D"/>
<stop offset="1" stop-color="#05295D"/>
</linearGradient>
</defs>
</svg>
