<svg width="22" height="22" viewBox="0 0 22 22" fill="none" xmlns="http://www.w3.org/2000/svg">
<circle cx="11" cy="11" r="11" fill="url(#paint0_linear)"/>
<path fill-rule="evenodd" clip-rule="evenodd" d="M15.7998 9.4783L15.9899 7.45983L13.9727 7.01031L12.9104 5.25689L11 6.0617L9.08957 5.25689L8.02651 7.01162L6.01032 7.45543L6.20009 9.47056L4.84072 10.9955L6.20009 12.5149L6.00988 14.5401L8.0273 14.9897L9.08846 16.7413L10.9987 15.931L12.9104 16.7364L13.9727 14.983L15.9899 14.5335L15.7998 12.515L17.1582 10.9967L15.7998 9.4783ZM18.5 10.9967L16.8364 12.8562L17.0682 15.3177L14.6068 15.8662L13.3182 17.9933L11 17.0167L8.68182 18L7.39318 15.8729L4.93182 15.3244L5.16364 12.8562L3.5 10.9967L5.16364 9.13043L4.93182 6.6689L7.39318 6.12709L8.68182 4L11 4.97659L13.3182 4L14.6068 6.12709L17.0682 6.67559L16.8364 9.13712L18.5 10.9967Z" fill="#AAF5D4"/>
<path d="M10.3 13.1H11.7V14.5H10.3V13.1ZM10.3 7.5H11.7V11.7H10.3V7.5Z" fill="#AAF5D4"/>
<defs>
<linearGradient id="paint0_linear" x1="22" y1="-4.80213e-06" x2="-0.548423" y2="0.577235" gradientUnits="userSpaceOnUse">
<stop stop-color="#05295D"/>
<stop offset="1" stop-color="#05295D"/>
</linearGradient>
</defs>
</svg>
