<svg width="24" height="24" fill="none" xmlns="http://www.w3.org/2000/svg"><circle cx="12" cy="12" r="12" fill="url(#a)"/><path d="M15.23 12.638a.467.467 0 0 0-.466.467v4.251a.467.467 0 0 0 .934 0v-4.251a.467.467 0 0 0-.467-.467z" fill="#fff"/><path d="M17.356 14.764h-4.251a.467.467 0 0 0 0 .934h4.251a.467.467 0 0 0 0-.934z" fill="#fff"/><rect x="6" y="6" width="5.538" height="5.538" rx="2.769" fill="url(#b)" fill-opacity=".9"/><rect x="6" y="12.461" width="5.538" height="5.538" rx="2.769" fill="url(#c)" fill-opacity=".9"/><rect x="12.461" y="6" width="5.538" height="5.538" rx="2.769" fill="url(#d)" fill-opacity=".9"/><defs><linearGradient id="a" x1="24" y1="0" x2="-.598" y2=".63" gradientUnits="userSpaceOnUse"><stop stop-color="#B3FCB6"/><stop offset="1" stop-color="#8DE995"/></linearGradient><linearGradient id="b" x1="12.33" y1="10.352" x2="-3.692" y2="1.253" gradientUnits="userSpaceOnUse"><stop stop-color="#F4FFFB"/><stop offset="1" stop-color="#F4FFFB" stop-opacity="0"/></linearGradient><linearGradient id="c" x1="12.33" y1="16.813" x2="-3.692" y2="7.714" gradientUnits="userSpaceOnUse"><stop stop-color="#F4FFFB"/><stop offset="1" stop-color="#F4FFFB" stop-opacity="0"/></linearGradient><linearGradient id="d" x1="18.791" y1="10.352" x2="2.769" y2="1.253" gradientUnits="userSpaceOnUse"><stop stop-color="#F4FFFB"/><stop offset="1" stop-color="#F4FFFB" stop-opacity="0"/></linearGradient></defs></svg>