<svg width="24" height="24" fill="none" xmlns="http://www.w3.org/2000/svg"><circle cx="12" cy="12" r="12" fill="url(#a)"/><rect x="6" y="6" width="12" height="12" rx=".984" fill="url(#b)" fill-opacity=".6"/><path d="M14.993 9.457a.646.646 0 0 0-.914 0l-4.622 4.622a.646.646 0 1 0 .914.914l4.622-4.622a.646.646 0 0 0 0-.914z" fill="#fff"/><path d="m14.993 14.08-4.622-4.623a.646.646 0 0 0-.914.914l4.622 4.622a.646.646 0 1 0 .914-.914z" fill="#fff"/><defs><linearGradient id="a" x1="24" y1="0" x2="-.598" y2=".63" gradientUnits="userSpaceOnUse"><stop stop-color="#B3FCB6"/><stop offset="1" stop-color="#8DE995"/></linearGradient><linearGradient id="b" x1="19.714" y1="15.429" x2="-15" y2="-4.286" gradientUnits="userSpaceOnUse"><stop stop-color="#F9FFF4"/><stop offset="1" stop-color="#F4FFFB" stop-opacity="0"/></linearGradient></defs></svg>