<svg width="24" height="24" fill="none" xmlns="http://www.w3.org/2000/svg"><circle cx="12" cy="12" r="12" fill="url(#a)"/><path d="M17.719 11.638a.187.187 0 0 1 0 .325l-3.188 1.84a.187.187 0 0 1-.281-.162v-3.68c0-.145.156-.235.281-.163l3.188 1.84z" fill="#fff"/><path d="M18 5.955v1.6h-6.923a1.76 1.76 0 0 1-3.131 0H6.007v-1.6h1.939a1.761 1.761 0 0 1 3.13 0H18zm-5 6.646V11H6.006v1.601H13zm-.232 3.356H18v1.6h-5.232a1.76 1.76 0 0 1-3.131 0H6v-1.6h3.632a1.76 1.76 0 0 1 3.131 0h.005z" fill="#fff" fill-opacity=".7"/><defs><linearGradient id="a" x1="24" y1="0" x2="-.598" y2=".63" gradientUnits="userSpaceOnUse"><stop stop-color="#B3FCB6"/><stop offset="1" stop-color="#8DE995"/></linearGradient></defs></svg>