<svg width="24" height="24" fill="none" xmlns="http://www.w3.org/2000/svg"><circle cx="12" cy="12" r="12" fill="url(#a)"/><path d="M17.388 14.764h-3.962c-.24 0-.435.209-.435.467s.195.467.435.467h3.962c.24 0 .435-.21.435-.467 0-.258-.195-.467-.435-.467z" fill="#fff"/><rect x="6" y="6" width="5.538" height="5.538" rx="2.769" fill="url(#b)" fill-opacity=".9"/><rect x="6" y="12.461" width="5.538" height="5.538" rx="2.769" fill="url(#c)" fill-opacity=".9"/><rect x="12.461" y="6" width="5.538" height="5.538" rx="2.769" fill="url(#d)" fill-opacity=".9"/><defs><linearGradient id="a" x1="24" y1="0" x2="-.598" y2=".63" gradientUnits="userSpaceOnUse"><stop stop-color="#B3FCB6"/><stop offset="1" stop-color="#8DE995"/></linearGradient><linearGradient id="b" x1="12.33" y1="10.352" x2="-3.692" y2="1.253" gradientUnits="userSpaceOnUse"><stop stop-color="#F4FFFB"/><stop offset="1" stop-color="#F4FFFB" stop-opacity="0"/></linearGradient><linearGradient id="c" x1="12.33" y1="16.813" x2="-3.692" y2="7.714" gradientUnits="userSpaceOnUse"><stop stop-color="#FAFFF4"/><stop offset="1" stop-color="#F4FFFB" stop-opacity="0"/></linearGradient><linearGradient id="d" x1="18.791" y1="10.352" x2="2.769" y2="1.253" gradientUnits="userSpaceOnUse"><stop stop-color="#F4FFFB"/><stop offset="1" stop-color="#F4FFFB" stop-opacity="0"/></linearGradient></defs></svg>