<svg width="114" height="42" viewBox="0 0 114 42" fill="none" xmlns="http://www.w3.org/2000/svg">
<path d="M59.6255 17.0523C60.0512 16.8838 60.4858 16.6887 60.9559 16.467C61.4171 16.2364 61.8694 16.0058 62.304 15.7397C62.7386 15.4736 63.1643 15.1987 63.5634 14.906C63.9714 14.6133 64.3262 14.3118 64.6543 13.9747H66.9337V28.5291H63.661V18.1166C63.2264 18.4005 62.7297 18.6665 62.1975 18.8971C61.6565 19.1277 61.1244 19.3406 60.6188 19.5002L59.6255 17.0523Z" fill="white"/>
<path d="M88.3528 14.0101C88.3528 14.5955 88.1665 15.0567 87.7763 15.3849C87.3861 15.713 86.9426 15.8815 86.4193 15.8815C85.896 15.8815 85.4437 15.713 85.0623 15.3849C84.6721 15.0567 84.4858 14.5955 84.4858 14.0101C84.4858 13.4248 84.6721 12.9636 85.0623 12.6354C85.4615 12.2895 85.9049 12.1299 86.4282 12.1299C86.9515 12.1299 87.4038 12.2984 87.7852 12.6266C88.1577 12.9636 88.3528 13.4248 88.3528 14.0101ZM88.1133 28.5379H84.8406V17.3095H88.1133V28.5379Z" fill="white"/>
<path d="M94.5079 28.5379C93.7629 27.11 93.0179 25.4514 92.2551 23.5357C91.4924 21.6288 90.7651 19.5534 90.0911 17.3007H93.5146C93.6653 17.8594 93.8339 18.4537 94.029 19.11C94.2241 19.7574 94.4281 20.4049 94.641 21.0701C94.8449 21.7352 95.0578 22.3827 95.2795 23.0035C95.4835 23.6244 95.6964 24.192 95.9004 24.7153C96.0866 24.2098 96.2906 23.6333 96.5035 23.0035C96.7252 22.3827 96.9381 21.7352 97.1509 21.0701C97.3549 20.4049 97.5678 19.7486 97.754 19.11C97.9492 18.4625 98.1177 17.8594 98.2684 17.3007H101.612C100.929 19.5446 100.211 21.6288 99.448 23.5357C98.6853 25.4426 97.9403 27.11 97.1953 28.5379H94.5079Z" fill="white"/>
<path d="M102.481 22.9855C102.481 21.9922 102.641 21.1141 102.952 20.3691C103.262 19.6152 103.679 19.0033 104.184 18.4977C104.69 18.001 105.275 17.6197 105.932 17.3625C106.588 17.1052 107.271 16.9811 107.963 16.9811C109.577 16.9811 110.872 17.4689 111.803 18.4445C112.743 19.4201 113.213 20.8569 113.213 22.7549C113.213 22.9412 113.204 23.1452 113.195 23.358C113.187 23.5797 113.169 23.7749 113.151 23.9434H105.816C105.887 24.5997 106.206 25.1141 106.748 25.5044C107.289 25.8857 108.034 26.0809 108.956 26.0809C109.55 26.0809 110.136 26.0276 110.703 25.9212C111.28 25.8148 111.741 25.6906 112.104 25.531L112.539 28.1208C112.362 28.2095 112.131 28.2982 111.847 28.378C111.563 28.4667 111.235 28.5376 110.889 28.5997C110.535 28.6707 110.153 28.715 109.745 28.7593C109.337 28.7948 108.929 28.8303 108.521 28.8303C107.493 28.8303 106.597 28.6795 105.843 28.378C105.08 28.0764 104.459 27.6684 103.963 27.1452C103.466 26.6307 103.093 26.0099 102.854 25.3004C102.597 24.582 102.481 23.8103 102.481 22.9855ZM110.073 21.6995C110.065 21.4245 110.011 21.1585 109.932 20.9101C109.852 20.6529 109.736 20.4223 109.568 20.2272C109.399 20.0321 109.195 19.8636 108.947 19.7394C108.69 19.6152 108.379 19.5443 108.007 19.5443C107.652 19.5443 107.333 19.6064 107.076 19.7305C106.818 19.8458 106.597 20.0143 106.419 20.2095C106.242 20.4046 106.109 20.6352 106.02 20.9013C105.923 21.1673 105.861 21.4245 105.816 21.6995H110.073Z" fill="white"/>
<path d="M78.6941 13.9834H82.0644V28.5377H78.6941V22.3825H73.142V28.5377H69.7717V13.9834H73.142V19.5532H78.6941V13.9834Z" fill="white"/>
<path d="M53.8997 28.982C53.8663 28.9569 53.8246 28.9403 53.7912 28.9152L42.2632 22.2503C42.1047 22.1502 42.1131 21.9834 42.1131 21.9834V20.9824C42.0797 19.1973 41.0954 17.5207 39.5439 16.6115L39.3187 16.478C39.2853 16.4697 39.2436 16.4446 39.2019 16.4279L30.3765 11.3396C30.2431 11.2645 30.1013 11.1978 29.9594 11.1311C29.9594 11.1311 29.801 11.0477 29.8427 10.9309C29.876 10.8224 29.9678 10.7974 29.9678 10.7974C31.2524 10.6723 32.2867 9.59622 32.3201 8.24489C32.3201 6.89357 33.4212 5.79248 34.7809 5.79248C36.2073 5.79248 37.3751 4.63301 37.3751 3.20661C37.3751 1.7802 36.2156 0.612386 34.7809 0.612386C31.6945 0.612386 29.0335 2.45587 27.824 5.09179C26.6228 2.43918 23.9619 0.595703 20.8672 0.595703C19.4408 0.595703 18.2729 1.75518 18.2729 3.18158C18.2729 4.60798 19.4324 5.7758 20.8672 5.7758C22.2268 5.7758 23.3279 6.87688 23.3279 8.22821C23.3279 9.5712 24.3623 10.6723 25.6802 10.7974C25.6802 10.7974 25.7887 10.8141 25.8054 10.9309C25.8304 11.056 25.6969 11.1311 25.6969 11.1311C25.5551 11.1978 25.4216 11.2562 25.2882 11.3396L16.5129 16.4029C16.4545 16.4279 16.3961 16.453 16.3377 16.4863L16.1208 16.6115C14.5443 17.5123 13.5683 19.1973 13.5683 21.0158V21.9584C13.5683 21.9918 13.56 22.1336 13.4015 22.2253L1.8568 28.9069C1.82343 28.9236 1.79007 28.9403 1.7567 28.9653C0.0967338 29.9746 -0.462149 31.9349 0.405371 33.7283C1.43972 35.8387 4.53443 37.1233 7.0786 37.6238C8.12964 37.8323 9.23906 37.9408 10.3652 37.9408C12.584 37.9408 14.8279 37.5237 17.0384 36.7062V36.7146C17.0384 36.7146 17.1885 36.6228 17.3637 36.7313L25.2798 41.2941C26.0473 41.7445 26.9315 41.9781 27.8324 41.9781C28.7332 41.9781 29.6258 41.7445 30.3765 41.3024L38.2843 36.7479C38.4511 36.6478 38.6013 36.7313 38.6013 36.7313C40.8118 37.5404 43.0473 37.9658 45.2745 37.9658C46.4006 37.9658 47.51 37.8574 48.5527 37.6572C51.1053 37.165 54.2 35.8888 55.2427 33.7533C56.1018 31.9599 55.5513 30.008 53.8997 28.982Z" fill="white"/>
<path d="M23.4364 19.0545C22.8692 18.8627 22.2436 18.9211 21.7097 19.2213L2.5909 30.2822C2.58256 30.2822 2.58256 30.2906 2.56588 30.2906C1.59826 30.8828 1.28962 31.9922 1.79846 33.0349C2.43242 34.3279 4.67629 35.5541 7.37895 36.0879C8.2131 36.2548 9.22243 36.3716 10.3652 36.3716C12.5173 36.3716 15.1533 35.9461 18.0978 34.5781C20.3751 33.5187 22.5355 31.2081 23.8785 28.3887C25.2966 25.4191 25.5802 22.4328 24.6459 20.1806C24.4374 19.6551 23.987 19.2464 23.4364 19.0545Z" fill="#7CE0D6"/>
<path d="M53.0821 30.3084C53.0738 30.3084 53.0738 30.3 53.0571 30.3L33.9383 19.2391C33.4211 18.9305 32.7955 18.8721 32.2116 19.0723C31.6611 19.2642 31.2106 19.6729 30.9937 20.2067C30.0595 22.459 30.3431 25.4536 31.7612 28.4148C33.1041 31.2343 35.2646 33.5449 37.5418 34.6042C40.4697 35.9723 43.114 36.3977 45.2744 36.3977C46.4172 36.3977 47.4266 36.2809 48.2607 36.1141C50.9634 35.5969 53.2073 34.3707 53.8412 33.0611C54.3584 32.0017 54.0497 30.9089 53.0821 30.3084Z" fill="#7CE0D6"/>
<path d="M20.884 2.14709C20.3084 2.14709 19.8496 2.61422 19.8496 3.18145C19.8496 3.74867 20.3167 4.2158 20.884 4.2158C23.0945 4.2158 24.8962 6.01757 24.8962 8.22808C24.8962 8.7953 25.3634 9.26243 25.9306 9.26243C26.2059 9.26243 26.4728 9.15399 26.6646 8.95379C26.8565 8.7536 26.9649 8.49501 26.9566 8.21139C26.9566 4.87478 24.2373 2.14709 20.884 2.14709Z" fill="#2C3437"/>
<path d="M34.7893 2.16284C31.436 2.16284 28.7 4.88218 28.7 8.23548C28.7 8.80271 29.1671 9.26983 29.7343 9.26983C30.2932 9.26983 30.7603 8.81105 30.7687 8.25217C30.7687 6.04166 32.5704 4.23989 34.7809 4.23989C35.3565 4.23989 35.8153 3.77276 35.8153 3.20553C35.8153 2.63831 35.3565 2.16284 34.7893 2.16284Z" fill="#2C3437"/>
<path d="M36.8414 34.7621H36.7496H34.9228H20.7422H18.9154H18.6318H17.0886L26.0725 39.9338C26.6147 40.2508 27.2319 40.4093 27.8409 40.4093C28.4581 40.4093 29.0671 40.2592 29.6093 39.9338L38.5931 34.7621H36.8414Z" fill="#2C3437"/>
<path d="M39.6189 23.3435H38.7097H16.955H16.0374H15.1282V29.2743H16.0374H16.955H38.7097H39.6189H40.5365V23.3435H39.6189Z" fill="#2C3437"/>
<path d="M38.7681 17.9621L38.5429 17.8286H36.7161H36.2656H34.8809H20.7754H19.5492H18.9486H17.1218L16.8966 17.9621C15.8122 18.5877 15.1282 19.7639 15.1282 21.0151V23.334H16.0457H16.9633H38.718H39.6356H40.5532V21.0151C40.5365 19.7639 39.8525 18.596 38.7681 17.9621Z" fill="#FFDD0F"/>
<path d="M39.619 29.2654H38.7014H16.955H16.0374H15.1199V31.6011C15.1199 32.8523 15.7955 34.0284 16.8883 34.6541L17.0801 34.7625H18.6233H18.9069H20.7337H34.906H36.7328H36.8246H38.5596L38.7598 34.6457C39.8442 34.0118 40.5199 32.8439 40.5199 31.5927V29.2571H39.619V29.2654Z" fill="#FFDD0F"/>
<path d="M29.5925 12.682C28.4914 12.0481 27.1484 12.0481 26.064 12.682L17.1135 17.8454H18.9403H19.5409H20.7671H34.881H36.249H36.7078H38.5346L29.5925 12.682Z" fill="#2C3437"/>
</svg>
