<svg width="143" height="39" viewBox="0 0 143 39" fill="none" xmlns="http://www.w3.org/2000/svg">
<path d="M49.5127 27.7969L48.6694 29.7998C49.9607 30.4586 51.6209 30.9066 53.2285 30.9066C56.6017 30.9066 59.9485 29.22 59.9485 24.819V12.0377H57.4977V13.2763C57.4977 13.5135 57.524 13.698 57.524 13.698H57.4713C57.4713 13.698 56.4963 11.7215 53.2812 11.7215C49.5918 11.7215 47.4572 14.5676 47.4572 18.3888C47.4572 22.2364 49.6972 25.2143 53.413 25.2143C55.3367 25.2143 56.5753 24.4501 57.3659 23.1324H57.4186C57.4186 23.1324 57.3923 23.5541 57.3923 23.9757V24.9508C57.3923 27.6652 55.4949 28.6929 53.1758 28.6929C51.1729 28.6929 49.5127 27.7969 49.5127 27.7969ZM53.9137 23.0006C51.5155 23.0006 50.0398 21.1032 50.0398 18.3361C50.0398 15.6218 51.3574 13.9352 53.6765 13.9352C55.7584 13.9352 57.445 14.9366 57.445 18.4152C57.445 21.8938 55.7584 23.0006 53.9137 23.0006Z" fill="white"/>
<path d="M62.8678 21.6303C62.8678 24.292 65.1078 25.6887 67.4005 25.6887C70.5892 25.6887 71.6697 23.0534 71.6697 23.0534H71.7224C71.7224 23.0534 71.6697 23.5014 71.6697 24.1075V25.3724H74.0415V16.9394C74.0415 13.5662 72.1441 11.7215 68.7709 11.7215C65.7139 11.7215 63.7901 13.3027 63.7901 13.3027L64.8442 15.1738C64.8442 15.1738 66.5045 13.8825 68.56 13.8825C70.2466 13.8825 71.4852 14.6204 71.4852 16.8077V17.0448H70.9055C68.6655 17.0448 62.8678 17.2293 62.8678 21.6303ZM65.4504 21.4985C65.4504 19.1004 68.929 18.9686 70.8528 18.9686H71.5116V19.3903C71.5116 21.3668 70.1149 23.6331 67.9539 23.6331C66.2937 23.6331 65.4504 22.579 65.4504 21.4985Z" fill="white"/>
<path d="M77.8711 25.3724H80.4274V19.9173C80.4274 19.1004 80.5064 18.2834 80.7436 17.5192C81.3497 15.5427 82.8519 14.3832 84.4858 14.3832C84.8811 14.3832 85.2237 14.4622 85.2237 14.4622V11.9323C85.2237 11.9323 84.9074 11.8796 84.5648 11.8796C82.5093 11.8796 80.9544 13.4081 80.3483 15.3582H80.2956C80.2956 15.3582 80.3483 14.9102 80.3483 14.3568V12.0377H77.8711V25.3724Z" fill="white"/>
<path d="M86.8839 18.7051C86.8839 22.8425 89.1503 25.6887 92.7607 25.6887C96.0548 25.6887 97.1353 23.2115 97.1353 23.2115H97.188C97.188 23.2115 97.1616 23.5804 97.1616 24.1075V25.3724H99.5861V6.76712H97.0299V12.9338C97.0299 13.4345 97.0826 13.8298 97.0826 13.8298H97.0299C97.0299 13.8298 96.0021 11.7215 92.9188 11.7215C89.3875 11.7215 86.8839 14.4622 86.8839 18.7051ZM89.4929 18.7051C89.4929 15.6745 91.2322 13.9352 93.3404 13.9352C95.8703 13.9352 97.1089 16.307 97.1089 18.6787C97.1089 22.0783 95.2378 23.475 93.2614 23.475C91.0477 23.475 89.4929 21.6039 89.4929 18.7051Z" fill="white"/>
<path d="M102.659 18.7051C102.659 22.6581 105.531 25.6887 109.721 25.6887C112.91 25.6887 114.886 23.7912 114.886 23.7912L113.832 21.9202C113.832 21.9202 112.172 23.475 109.879 23.475C107.507 23.475 105.426 21.9992 105.294 19.074H115.018C115.018 19.074 115.097 18.3098 115.097 17.9672C115.097 14.5149 113.094 11.7215 109.326 11.7215C105.531 11.7215 102.659 14.4622 102.659 18.7051ZM105.373 17.1503C105.742 14.9629 107.323 13.7507 109.273 13.7507C110.986 13.7507 112.409 14.8575 112.488 17.1503H105.373Z" fill="white"/>
<path d="M118.199 25.3724H120.755V19.1267C120.755 18.4679 120.808 17.8618 120.966 17.3347C121.519 15.4109 123.153 14.0669 125.182 14.0669C127.317 14.0669 127.712 15.5427 127.712 17.4138V25.3724H130.268V16.834C130.268 13.4345 128.819 11.7215 125.683 11.7215C122.784 11.7215 121.203 13.6189 120.676 14.7785H120.623C120.623 14.7785 120.676 14.3305 120.676 13.8034V12.0377H118.199V25.3724Z" fill="white"/>
<path d="M132.997 23.7385C132.997 23.7385 134.789 25.6887 138.057 25.6887C140.982 25.6887 142.879 24.0284 142.879 21.8148C142.879 17.4401 136.028 17.9672 136.028 15.5691C136.028 14.4095 137.108 13.9352 138.215 13.9352C140.323 13.9352 141.509 15.1211 141.509 15.1211L142.537 13.1973C142.537 13.1973 141.166 11.7215 138.241 11.7215C135.58 11.7215 133.419 13.0919 133.419 15.5164C133.419 19.8646 140.27 19.3639 140.27 21.8148C140.27 22.8952 139.164 23.475 138.057 23.475C135.738 23.475 134.236 21.9202 134.236 21.9202L132.997 23.7385Z" fill="white"/>
<path d="M2.12452 22.5006C2.35388 20.533 2.89708 18.662 3.75413 16.8996C3.79034 16.8271 3.74206 16.7426 3.66963 16.7306C2.52287 16.4892 1.38818 16.1512 0.277637 15.7287C0.0965693 16.7909 0 17.8894 0 19.012C0 22.3074 0.844981 25.4097 2.31766 28.1137C2.32973 28.1378 2.36595 28.1257 2.36595 28.1016C1.99174 26.2668 1.90724 24.3716 2.12452 22.5006Z" fill="#8DE995"/>
<path d="M5.49237 15.8373C5.57687 15.8494 5.62516 15.946 5.57687 16.0184L5.25095 16.6099C4.2249 18.4809 3.57306 20.5089 3.31957 22.6455C3.00571 25.2649 3.34371 27.9206 4.26112 30.371C4.27319 30.4072 4.29733 30.4314 4.33354 30.4434C5.41995 30.8297 6.54256 31.0953 7.70139 31.2039C6.3615 28.4879 5.86658 25.3856 6.31321 22.3678C6.57878 20.5692 7.15819 18.8551 8.03939 17.2738C7.21855 16.0305 6.60292 14.7147 6.1925 13.3507C4.51461 13.1817 2.86086 12.7592 1.29161 12.1074C0.989832 12.892 0.736338 13.7008 0.531128 14.5337C1.91931 15.0889 3.36785 15.4873 4.82846 15.7287L5.49237 15.8373Z" fill="#8DE995"/>
<path d="M16.0546 2.19695C17.6238 2.43837 19.1448 2.87294 20.5692 3.50064C20.6416 3.53685 20.7261 3.48856 20.7382 3.41614C20.9313 2.30559 21.209 1.23126 21.559 0.168996C20.7261 0.0603558 19.8691 0 19 0C15.7045 0 12.6143 0.83291 9.91038 2.30559C9.88623 2.31766 9.89831 2.35388 9.92245 2.35388C11.9383 1.95553 14.0146 1.89517 16.0546 2.19695Z" fill="#8DE995"/>
<path d="M35.7306 15.7046C35.5374 17.3704 35.1149 18.9879 34.4631 20.5089C34.4269 20.5934 34.4752 20.6779 34.5597 20.6899C35.6702 20.871 36.7566 21.1486 37.8189 21.4987C37.8309 21.4987 37.843 21.4987 37.843 21.4866C37.9517 20.6779 37.9999 19.845 37.9999 19C37.9999 15.4631 37.0342 12.1436 35.3443 9.30684C35.3322 9.2827 35.296 9.29477 35.296 9.33098C35.8392 11.4072 35.9841 13.568 35.7306 15.7046Z" fill="#8DE995"/>
<path d="M21.7039 5.21473C21.6919 5.29922 21.6074 5.34751 21.5349 5.3113L20.9314 4.99745C19.3621 4.18868 17.6601 3.64548 15.8856 3.37991C13.0851 2.95742 10.2243 3.27127 7.60483 4.2611C7.20648 5.35958 6.94092 6.50634 6.83228 7.66517C9.56036 6.32527 12.6506 5.84243 15.6684 6.28906C17.467 6.55462 19.1811 7.14611 20.7503 8.02731C21.8367 7.30304 22.9956 6.73569 24.2027 6.32527C24.2992 4.53874 24.6855 2.76428 25.3253 1.06225C24.5044 0.772541 23.6474 0.531118 22.7783 0.362122C22.3075 1.71409 21.9816 3.10227 21.8005 4.52667L21.7039 5.21473Z" fill="#8DE995"/>
<path d="M14.0509 21.052C13.8819 16.3684 15.934 11.8417 19.5915 8.88431C19.6277 8.86017 19.6157 8.79981 19.5794 8.78774C18.2878 8.14797 16.9117 7.71341 15.4752 7.49613C12.5299 7.0495 9.50003 7.5927 6.88059 9.00502C6.79609 9.05331 6.7478 9.13781 6.7478 9.22231C6.78402 12.0107 7.65314 14.7992 9.4276 17.2134C10.6468 18.8672 12.204 20.195 13.9543 21.1365C14.0026 21.1365 14.0509 21.1003 14.0509 21.052Z" fill="#8DE995"/>
<path d="M21.8246 22.5127C22.5609 20.6175 22.8869 18.5654 22.742 16.4892C22.7299 16.3564 22.6454 16.2357 22.5127 16.1753C20.6296 15.439 18.5654 15.113 16.4892 15.2579C16.3564 15.27 16.2357 15.3545 16.1753 15.4872C15.439 17.3824 15.113 19.4345 15.2579 21.5108C15.27 21.6435 15.3545 21.7642 15.4872 21.8246C17.3703 22.5609 19.4345 22.8869 21.5108 22.742C21.6556 22.7299 21.7763 22.6454 21.8246 22.5127Z" fill="#8DE995"/>
<path d="M21.1125 24.0579C21.1366 24.0216 21.1004 23.9613 21.0521 23.9734C20.8832 23.9854 20.7021 23.9854 20.5331 23.9854C16.0305 23.9854 11.7211 21.9454 8.87235 18.4327C8.84821 18.3965 8.78785 18.4086 8.77578 18.4448C8.13601 19.7364 7.70145 21.1125 7.48417 22.549C7.03754 25.5305 7.59281 28.5845 9.04135 31.216C9.06549 31.2523 9.1017 31.2764 9.14999 31.2764C10.3812 31.2643 11.6366 31.0953 12.8558 30.7332C14.413 30.2745 15.8736 29.5623 17.1894 28.5845C18.8431 27.3653 20.171 25.8082 21.1125 24.0579Z" fill="#8DE995"/>
<path d="M20.8228 9.43958C19.169 10.6588 17.8533 12.2159 16.8997 13.9663C16.8755 14.0025 16.9117 14.0628 16.96 14.0508C21.5953 13.8818 26.0858 15.8976 29.0432 19.4828C29.0674 19.519 29.1277 19.5069 29.1398 19.4707C29.7675 18.1791 30.19 16.7909 30.3952 15.3544C30.8056 12.397 30.2866 9.48786 28.8742 6.88049C28.826 6.796 28.7415 6.74771 28.657 6.74771C25.8444 6.80807 23.1284 7.73755 20.8228 9.43958Z" fill="#8DE995"/>
<path d="M32.7853 21.6677C32.7008 21.6556 32.6525 21.5711 32.6887 21.4987L32.9905 20.8951C33.8114 19.2293 34.3304 17.4428 34.5477 15.5717C34.8736 12.8437 34.4994 10.0673 33.4854 7.54442C33.4734 7.5082 33.4492 7.48406 33.413 7.47199C32.6525 7.21849 31.8679 7.02536 31.0591 6.90464C30.8056 6.86843 30.5521 6.83222 30.2987 6.80807C30.2504 6.80807 30.2142 6.85636 30.2383 6.89257C31.542 9.57237 32.0128 12.5177 31.5903 15.5114C31.3368 17.31 30.7694 19.012 29.9124 20.5813C29.9003 20.6054 29.9003 20.6295 29.9124 20.6416C30.6729 21.7642 31.2523 22.9593 31.6748 24.1905C31.6868 24.1905 31.6868 24.1905 31.6989 24.1905C33.4975 24.275 35.2599 24.6372 36.9499 25.2769C37.2396 24.444 37.481 23.587 37.65 22.7058C36.2859 22.235 34.8857 21.9212 33.4492 21.7522L32.7853 21.6677Z" fill="#8DE995"/>
<path d="M23.9733 16.96C24.1302 21.5833 22.1385 26.0617 18.5654 29.0312C18.5292 29.0553 18.5413 29.1157 18.5775 29.1277C19.8691 29.7554 21.2573 30.1779 22.7059 30.3831C25.6512 30.7936 28.5604 30.2624 31.1436 28.8622C31.2281 28.8139 31.2764 28.7294 31.2764 28.6449C31.2039 25.9168 30.3348 23.1887 28.5966 20.8469C27.3774 19.1932 25.8202 17.8654 24.0699 16.9238C24.0095 16.8755 23.9613 16.9117 23.9733 16.96Z" fill="#8DE995"/>
<path d="M22.3316 35.7186C20.5571 35.5134 18.8309 35.0426 17.2255 34.3304C17.1531 34.2942 17.0686 34.3425 17.0565 34.4149C16.8513 35.5737 16.5616 36.6963 16.1753 37.7948C17.1048 37.9397 18.0463 38.0121 19.012 38.0121C22.573 38.0121 25.9046 37.0343 28.7414 35.3323C28.7655 35.3202 28.7534 35.284 28.7172 35.284C26.641 35.8152 24.4802 35.9721 22.3316 35.7186Z" fill="#8DE995"/>
<path d="M16.1029 32.6162C16.1149 32.5317 16.1994 32.4834 16.2839 32.5197L16.8996 32.8456C18.6378 33.7388 20.5209 34.3062 22.4764 34.5355C25.2166 34.8615 27.993 34.4752 30.54 33.4491C30.9021 32.3869 31.1315 31.2763 31.228 30.1537C29.1639 31.1798 26.9307 31.6988 24.6372 31.6988C23.937 31.6988 23.2369 31.6505 22.5368 31.554C20.7261 31.3005 19.012 30.7331 17.4307 29.8761C16.2477 30.6848 14.9682 31.3125 13.6162 31.7471C13.6162 31.7833 13.6162 31.8316 13.6041 31.8437C13.5076 33.5698 13.1575 35.2598 12.5419 36.8773C13.3265 37.167 14.1473 37.3964 14.9802 37.5775C15.4752 36.1893 15.8252 34.7649 16.0184 33.2922L16.1029 32.6162Z" fill="#8DE995"/>
<path d="M11.4314 36.4428C11.9626 35.0426 12.2764 33.594 12.3851 32.0851C11.2745 32.3386 10.164 32.4714 9.05343 32.4714C7.70146 32.4714 6.36156 32.2904 5.06995 31.9282C6.84441 33.8355 9.00514 35.3926 11.4314 36.4428Z" fill="#8DE995"/>
<path d="M25.4098 5.97519C27.2929 5.51649 29.2605 5.41992 31.2281 5.70963C31.8075 5.79413 32.3748 5.91484 32.9301 6.07176C31.1194 4.12831 28.9104 2.55906 26.4238 1.4968C25.8806 2.95741 25.5305 4.4663 25.4098 5.97519Z" fill="#8DE995"/>
<path d="M1.76233 11.0089C3.07809 11.5521 4.46627 11.9142 5.86652 12.1074C5.76995 11.6487 5.69753 11.1779 5.63717 10.7071C5.41989 8.82403 5.57681 6.90471 6.07173 5.08197C4.27313 6.74779 2.80045 8.76367 1.76233 11.0089Z" fill="#8DE995"/>
<path d="M31.9282 32.9422C33.8838 31.1194 35.4651 28.8983 36.5273 26.3875C35.0788 25.8323 33.582 25.5184 32.0248 25.4098C32.6404 27.9085 32.5921 30.5038 31.9282 32.9422Z" fill="#8DE995"/>
</svg>
