<svg width="85" height="84" viewBox="0 0 85 84" fill="none" xmlns="http://www.w3.org/2000/svg">
<g clip-path="url(#clip0)">
<path d="M62.0674 26.825L45.4501 17.3097C44.4779 16.7508 43.3754 16.4584 42.2539 16.462C41.1325 16.4656 40.0319 16.7651 39.0633 17.3303L22.507 26.9602C21.5402 27.5245 20.7381 28.3322 20.1805 29.3029C19.6229 30.2736 19.3294 31.3735 19.3291 32.4929L19.394 51.6496C19.4008 52.7713 19.7015 53.8717 20.2661 54.841C20.8307 55.8103 21.6396 56.6146 22.612 57.1738L39.2245 66.6866C40.1972 67.2464 41.3004 67.5395 42.4227 67.5363C43.545 67.5331 44.6466 67.2338 45.6161 66.6686L62.1772 57.0358C63.1411 56.4672 63.9398 55.6567 64.4943 54.6847C65.0488 53.7126 65.3399 52.6126 65.3387 51.4935L65.2735 32.3371C65.2655 31.2187 64.9654 30.1218 64.4031 29.1549C63.8407 28.1881 63.0356 27.385 62.0674 26.825Z" fill="#FFDD0F" fill-opacity="0.2"/>
<path fill-rule="evenodd" clip-rule="evenodd" d="M44.9518 18.1766C44.1321 17.7055 43.2026 17.459 42.2572 17.462C41.3117 17.4651 40.3838 17.7176 39.5672 18.194L39.5661 18.1947L23.0111 27.8239C22.1955 28.3001 21.518 28.9821 21.0476 29.801C20.5774 30.6197 20.3296 31.5473 20.3291 32.4914L20.3291 32.4932L20.394 51.6436L20.394 51.6448C20.3999 52.5913 20.6537 53.5197 21.1302 54.3376C21.6067 55.1556 22.2892 55.8345 23.1098 56.3065L39.7232 65.8199C40.5434 66.2918 41.4736 66.539 42.4199 66.5363C43.3662 66.5336 44.295 66.2812 45.1125 65.8046L61.6691 56.1744L61.6719 56.1728C62.4846 55.6928 63.158 55.0091 63.6257 54.1892C64.0936 53.3688 64.3394 52.4406 64.3387 51.4962V51.4945L64.2736 32.3443L64.2736 32.3428C64.2665 31.3991 64.0132 30.4735 63.5387 29.6577C63.0642 28.8421 62.3852 28.1644 61.5686 27.6917L61.5668 27.6907L44.9518 18.1766ZM62.0674 26.825C63.0356 27.385 63.8407 28.1881 64.4031 29.1549C64.9654 30.1218 65.2655 31.2187 65.2735 32.3371L65.3387 51.4935C65.3399 52.6126 65.0488 53.7126 64.4943 54.6847C63.9398 55.6567 63.1411 56.4672 62.1772 57.0358L45.6161 66.6686C44.6466 67.2338 43.545 67.5331 42.4227 67.5363C41.3004 67.5395 40.1972 67.2464 39.2245 66.6866L22.612 57.1738C21.6396 56.6146 20.8307 55.8103 20.2661 54.841C19.7015 53.8717 19.4008 52.7713 19.394 51.6496L19.3291 32.4929C19.3294 31.3735 19.6229 30.2736 20.1805 29.3029C20.7381 28.3322 21.5402 27.5245 22.507 26.9602L39.0633 17.3303C40.0319 16.7651 41.1325 16.4656 42.2539 16.462C43.3754 16.4584 44.4779 16.7508 45.4501 17.3097L62.0674 26.825Z" fill="url(#paint0_linear)"/>
<path d="M54.5303 32.6211L44.2599 26.7401C43.659 26.3947 42.9776 26.214 42.2845 26.2163C41.5914 26.2185 40.9111 26.4036 40.3124 26.7528L30.0801 32.7047C29.4824 33.0535 28.9865 33.5528 28.6419 34.153C28.2972 34.7531 28.1159 35.4331 28.116 36.1251L28.1561 47.9648C28.1599 48.6582 28.3456 49.3386 28.6944 49.9379C29.0433 50.5372 29.5433 51.0346 30.1444 51.3803L40.4118 57.26C41.0131 57.6059 41.695 57.787 42.3886 57.785C43.0823 57.783 43.763 57.598 44.3623 57.2487L54.5978 51.2951C55.1938 50.9436 55.6876 50.4425 56.0304 49.8414C56.3732 49.2404 56.553 48.5602 56.552 47.8682L56.5119 36.0286C56.507 35.3372 56.3217 34.6591 55.9741 34.0614C55.6265 33.4638 55.1288 32.9673 54.5303 32.6211Z" fill="#FFDD0F" fill-opacity="0.2"/>
<path d="M113.267 26.6513L96.6499 17.1362C95.6776 16.5772 94.5751 16.2848 93.4537 16.2884C92.3323 16.2919 91.2317 16.5914 90.263 17.1565L73.7067 26.7867C72.7397 27.3512 71.9375 28.1591 71.38 29.1301C70.8224 30.1011 70.529 31.2012 70.5291 32.3208L70.594 51.4772C70.6006 52.599 70.9013 53.6994 71.466 54.6688C72.0306 55.6381 72.8395 56.4425 73.812 57.0017L90.4248 66.5145C91.3975 67.0743 92.5007 67.3674 93.623 67.3642C94.7453 67.361 95.8468 67.0617 96.8164 66.4965L113.377 56.8637C114.341 56.295 115.14 55.4846 115.694 54.5125C116.249 53.5405 116.54 52.4405 116.539 51.3214L116.474 32.165C116.466 31.0463 116.166 29.949 115.604 28.9819C115.041 28.0148 114.236 27.2114 113.267 26.6513Z" fill="#FFDD0F" fill-opacity="0.2"/>
<path fill-rule="evenodd" clip-rule="evenodd" d="M96.1515 18.0031C95.3318 17.5319 94.4023 17.2853 93.4569 17.2884C92.5114 17.2914 91.5836 17.5438 90.7669 18.0202L90.7658 18.0209L74.2108 27.6504C74.2106 27.6505 74.211 27.6503 74.2108 27.6504C73.395 28.1267 72.7176 28.8088 72.2472 29.628C71.7769 30.447 71.5293 31.3749 71.5291 32.3192C71.5291 32.3197 71.5291 32.3203 71.5291 32.3208L71.594 51.4712C71.594 51.4717 71.594 51.4721 71.594 51.4725C71.5998 52.419 71.8536 53.3475 72.3301 54.1654C72.8065 54.9833 73.4889 55.6621 74.3093 56.1341C74.3097 56.1343 74.3101 56.1346 74.3105 56.1348L90.9235 65.6478C91.7437 66.1197 92.6739 66.3669 93.6202 66.3642C94.5665 66.3615 95.4952 66.1091 96.3127 65.6326L112.869 56.0024C112.87 56.0019 112.871 56.0014 112.872 56.0009C113.684 55.5208 114.358 54.837 114.826 54.017C115.294 53.1967 115.539 52.2685 115.539 51.3241C115.539 51.3235 115.539 51.3229 115.539 51.3224L115.474 32.1721C115.474 32.1715 115.474 32.1709 115.474 32.1703C115.467 31.2264 115.214 30.3006 114.739 29.4846C114.265 28.6687 113.585 27.9908 112.769 27.5179C112.768 27.5176 112.767 27.5172 112.767 27.5169L96.1515 18.0031ZM113.267 26.6513C114.236 27.2114 115.041 28.0148 115.604 28.9819C116.166 29.949 116.466 31.0463 116.474 32.165L116.539 51.3214C116.54 52.4405 116.249 53.5405 115.694 54.5125C115.14 55.4846 114.341 56.295 113.377 56.8637L96.8164 66.4965C95.8468 67.0617 94.7453 67.361 93.623 67.3642C92.5007 67.3674 91.3975 67.0743 90.4248 66.5145L73.812 57.0017C72.8395 56.4425 72.0306 55.6381 71.466 54.6688C70.9013 53.6994 70.6006 52.599 70.594 51.4772L70.5291 32.3208C70.529 31.2012 70.8224 30.1011 71.38 29.1301C71.9375 28.1591 72.7397 27.3512 73.7067 26.7867L90.263 17.1565C91.2317 16.5914 92.3323 16.2919 93.4537 16.2884C94.5751 16.2848 95.6776 16.5772 96.6499 17.1362L113.267 26.6513Z" fill="url(#paint1_linear)"/>
<path d="M105.729 32.4472L95.4586 26.5665C94.8577 26.221 94.1763 26.0403 93.4832 26.0426C92.7901 26.0448 92.1099 26.2299 91.5112 26.5792L81.2786 32.531C80.6809 32.8799 80.1851 33.3792 79.8405 33.9793C79.4959 34.5795 79.3145 35.2594 79.3145 35.9514L79.3548 47.7908C79.3587 48.4843 79.5443 49.1646 79.8932 49.764C80.2421 50.3633 80.742 50.8606 81.3432 51.2064L91.6106 57.0857C92.2117 57.4317 92.8935 57.613 93.5872 57.611C94.2808 57.6091 94.9616 57.4241 95.5608 57.0747L105.796 51.1211C106.392 50.7697 106.886 50.2689 107.229 49.6681C107.571 49.0673 107.751 48.3874 107.751 47.6957L107.71 35.856C107.706 35.1644 107.52 34.4861 107.173 33.8881C106.825 33.2902 106.327 32.7935 105.729 32.4472Z" fill="#FFDD0F" fill-opacity="0.2"/>
<path d="M10.0679 27.0015L-6.5496 17.4861C-7.52185 16.9272 -8.62436 16.6348 -9.74578 16.6385C-10.8672 16.6421 -11.9678 16.9416 -12.9365 17.5067L-29.4928 27.1367C-30.4595 27.701 -31.2616 28.5087 -31.8192 29.4794C-32.3767 30.4501 -32.6702 31.55 -32.6704 32.6694L-32.6054 51.826C-32.5987 52.9478 -32.2981 54.0482 -31.7334 55.0175C-31.1688 55.9867 -30.3599 56.7911 -29.3875 57.3502L-12.7747 66.8631C-11.802 67.4228 -10.6987 67.7159 -9.57646 67.7127C-8.45417 67.7095 -7.35265 67.4102 -6.3831 66.845L10.1778 57.2125C11.1416 56.6438 11.9403 55.8333 12.4948 54.8612C13.0493 53.8891 13.3404 52.7891 13.3393 51.6699L13.2744 32.5136C13.2662 31.3951 12.9661 30.2982 12.4037 29.3314C11.8413 28.3646 11.0361 27.5615 10.0679 27.0015Z" fill="#FFDD0F" fill-opacity="0.2"/>
<path fill-rule="evenodd" clip-rule="evenodd" d="M-7.04796 18.3531C-7.86763 17.8819 -8.79712 17.6354 -9.74256 17.6385C-10.688 17.6415 -11.6159 17.894 -12.4325 18.3705L-12.4337 18.3711L-28.9887 28.0003C-28.989 28.0005 -28.9884 28.0002 -28.9887 28.0003C-29.8042 28.4766 -30.4817 29.1585 -30.952 29.9775C-31.4222 30.7962 -31.6699 31.7238 -31.6704 32.6679C-31.6704 32.6685 -31.6704 32.669 -31.6704 32.6696L-31.6054 51.82C-31.6054 51.8205 -31.6054 51.8209 -31.6054 51.8213C-31.5996 52.7678 -31.3458 53.6962 -30.8693 54.5141C-30.3927 55.3323 -29.71 56.0112 -28.8891 56.4832C-28.8891 56.4833 -28.8892 56.4832 -28.8891 56.4832L-12.276 65.9963C-11.4558 66.4683 -10.5256 66.7154 -9.57928 66.7127C-8.63301 66.7101 -7.70425 66.4577 -6.88674 65.9811L9.66961 56.3512C9.67044 56.3507 9.67126 56.3502 9.67208 56.3498C10.4849 55.8696 11.1584 55.1858 11.6262 54.3657C12.0944 53.5449 12.3402 52.616 12.3393 51.6711C12.3393 51.671 12.3393 51.6712 12.3393 51.6711L12.2744 32.5208C12.2744 32.5204 12.2744 32.5199 12.2744 32.5194C12.2673 31.5756 12.0139 30.6501 11.5393 29.8342C11.0648 29.0186 10.3857 28.3409 9.56902 27.8682C9.56843 27.8678 9.56784 27.8675 9.56725 27.8671L-7.04796 18.3531ZM13.2744 32.5136L13.3393 51.6699C13.3404 52.7891 13.0493 53.8891 12.4948 54.8612C11.9403 55.8333 11.1416 56.6438 10.1778 57.2125L-6.3831 66.845C-7.35265 67.4102 -8.45417 67.7095 -9.57646 67.7127C-10.6987 67.7159 -11.802 67.4228 -12.7747 66.8631L-29.3875 57.3502C-30.3599 56.7911 -31.1688 55.9867 -31.7334 55.0175C-32.2981 54.0482 -32.5987 52.9478 -32.6054 51.826L-32.6704 32.6694C-32.6702 31.55 -32.3767 30.4501 -31.8192 29.4794C-31.2616 28.5087 -30.4595 27.701 -29.4928 27.1367L-12.9365 17.5067C-11.9678 16.9416 -10.8672 16.6421 -9.74578 16.6385C-8.62436 16.6348 -7.52185 16.9272 -6.5496 17.4861L10.0679 27.0015C11.0361 27.5615 11.8413 28.3646 12.4037 29.3314C12.9661 30.2982 13.2662 31.3951 13.2744 32.5136Z" fill="url(#paint2_linear)"/>
<path d="M2.53054 32.7976L-7.73967 26.9169C-8.34052 26.5713 -9.0219 26.3905 -9.71501 26.3927C-10.4081 26.3949 -11.0884 26.58 -11.687 26.9293L-21.9197 32.8812C-22.5173 33.23 -23.0132 33.7293 -23.3578 34.3295C-23.7024 34.9296 -23.8837 35.6095 -23.8838 36.3015L-23.8435 48.1412C-23.8396 48.8347 -23.654 49.515 -23.3051 50.1144C-22.9562 50.7137 -22.4562 51.211 -21.855 51.5568L-11.5877 57.4364C-10.9865 57.7823 -10.3047 57.9634 -9.61108 57.9614C-8.91748 57.9594 -8.23667 57.7744 -7.63747 57.4251L2.59801 51.4715C3.19375 51.1202 3.6874 50.6193 4.03015 50.0186C4.3729 49.4178 4.55284 48.738 4.55219 48.0464L4.51215 36.2067C4.50754 35.515 4.32226 34.8366 3.97467 34.2386C3.62708 33.6407 3.12926 33.1439 2.53054 32.7976Z" fill="#FFDD0F" fill-opacity="0.2"/>
<path d="M87.5481 -18.775L70.9308 -28.2909C69.9586 -28.8499 68.8561 -29.1423 67.7346 -29.1387C66.6132 -29.1351 65.5126 -28.8355 64.544 -28.2703L47.9877 -18.6403C47.0208 -18.0761 46.2187 -17.2684 45.6611 -16.2976C45.1036 -15.3269 44.8101 -14.2271 44.8098 -13.1076L44.875 6.04872C44.8817 7.17051 45.1823 8.27095 45.7469 9.2403C46.3116 10.2097 47.1205 11.014 48.093 11.5732L64.7057 21.086C65.6784 21.6458 66.7817 21.9389 67.904 21.9357C69.0263 21.9326 70.1279 21.6332 71.0974 21.068L87.6582 11.4352C88.622 10.8665 89.4207 10.0561 89.9752 9.08404C90.5297 8.11198 90.8208 7.01199 90.8197 5.8929L90.7548 -13.2635C90.7465 -14.3818 90.4462 -15.4786 89.8838 -16.4453C89.3213 -17.412 88.5162 -18.215 87.5481 -18.775Z" fill="#FFDD0F" fill-opacity="0.2"/>
<path fill-rule="evenodd" clip-rule="evenodd" d="M70.4324 -27.424C69.6128 -27.8952 68.6833 -28.1418 67.7379 -28.1387C66.7924 -28.1357 65.8646 -27.8831 65.048 -27.4066L65.0468 -27.4059L48.4917 -17.7767C48.4914 -17.7765 48.492 -17.7768 48.4917 -17.7767C47.6761 -17.3005 46.9987 -16.6185 46.5283 -15.7996C46.058 -14.9809 45.8103 -14.0533 45.8098 -13.1091C45.8098 -13.1086 45.8098 -13.108 45.8098 -13.1074L45.875 6.04279C45.875 6.04319 45.875 6.0436 45.875 6.04401C45.8808 6.99055 46.1346 7.91905 46.611 8.73697C47.0876 9.5552 47.7704 10.2342 48.5912 10.7062C48.5913 10.7062 48.5912 10.7062 48.5912 10.7062L65.2045 20.2193C66.0247 20.6913 66.9549 20.9384 67.9011 20.9358C68.8474 20.9331 69.7763 20.6807 70.5937 20.2041L70.5946 20.2036L87.1501 10.5739C87.1508 10.5735 87.1515 10.5731 87.1522 10.5726C87.9651 10.0925 88.6388 9.40866 89.1066 8.58855C89.5746 7.7682 89.8204 6.83997 89.8197 5.89558C89.8197 5.89502 89.8197 5.89445 89.8197 5.89389L89.7548 -13.256C89.7548 -13.2567 89.7548 -13.2575 89.7548 -13.2582C89.7474 -14.2016 89.4939 -15.1269 89.0194 -15.9424C88.5449 -16.7579 87.8659 -17.4355 87.0494 -17.9082C87.0487 -17.9086 87.0481 -17.909 87.0474 -17.9093L70.4324 -27.424ZM87.5481 -18.775C88.5162 -18.215 89.3213 -17.412 89.8838 -16.4453C90.4462 -15.4786 90.7465 -14.3818 90.7548 -13.2635L90.8197 5.8929C90.8208 7.01199 90.5297 8.11198 89.9752 9.08404C89.4207 10.0561 88.622 10.8665 87.6582 11.4352L71.0974 21.068C70.1279 21.6332 69.0263 21.9326 67.904 21.9357C66.7817 21.9389 65.6784 21.6458 64.7057 21.086L48.093 11.5732C47.1205 11.014 46.3116 10.2097 45.7469 9.2403C45.1823 8.27095 44.8817 7.17051 44.875 6.04872L44.8098 -13.1076C44.8101 -14.2271 45.1036 -15.3269 45.6611 -16.2976C46.2187 -17.2684 47.0208 -18.0761 47.9877 -18.6403L64.544 -28.2703C65.5126 -28.8355 66.6132 -29.1351 67.7346 -29.1387C68.8561 -29.1423 69.9586 -28.8499 70.9308 -28.2909L87.5481 -18.775Z" fill="url(#paint3_linear)"/>
<path d="M80.0108 -12.9787L69.7403 -18.8597C69.1394 -19.2051 68.4581 -19.3858 67.765 -19.3836C67.072 -19.3814 66.3918 -19.1962 65.7932 -18.847L55.5605 -12.8951C54.9628 -12.5463 54.4669 -12.047 54.1223 -11.4469C53.7776 -10.8467 53.5964 -10.1668 53.5964 -9.47471L53.6365 2.36495C53.6404 3.05842 53.826 3.73875 54.1749 4.33807C54.5238 4.93739 55.0238 5.43475 55.6249 5.78054L65.8926 11.6599C66.4937 12.0059 67.1755 12.1871 67.8692 12.1852C68.5628 12.1833 69.2436 11.9983 69.8428 11.6489L80.0782 5.69529C80.674 5.34389 81.1677 4.843 81.5105 4.2422C81.8532 3.64141 82.0332 2.96152 82.0325 2.26982L81.9924 -9.56956C81.9878 -10.2612 81.8025 -10.9397 81.4549 -11.5376C81.1073 -12.1356 80.6095 -12.6324 80.0108 -12.9787Z" fill="#FFDD0F" fill-opacity="0.2"/>
<path d="M75.3526 -9.39654L69.0044 -13.0312C68.6331 -13.2447 68.212 -13.3564 67.7836 -13.355C67.3553 -13.3536 66.9349 -13.2392 66.5649 -13.0233L60.2419 -9.34488C59.8725 -9.12928 59.5661 -8.82064 59.3531 -8.44974C59.1401 -8.07883 59.0281 -7.65859 59.0281 -7.23088L59.0529 0.0866575C59.0554 0.515113 59.1703 0.935416 59.386 1.30565C59.6016 1.67589 59.9105 1.98311 60.2819 2.19669L66.6276 5.83048C66.9992 6.04432 67.4207 6.15629 67.8494 6.15511C68.2781 6.15392 68.6989 6.0396 69.0693 5.82371L75.3952 2.1442C75.7634 1.92696 76.0685 1.61737 76.2804 1.24607C76.4922 0.874757 76.6034 0.454588 76.6031 0.0270967L76.5783 -7.29045C76.5751 -7.71785 76.4604 -8.13701 76.2454 -8.50642C76.0304 -8.87583 75.7227 -9.18267 75.3526 -9.39654Z" fill="#FFDD0F"/>
<path d="M35.4507 -18.5986L18.8331 -28.1137C17.861 -28.6727 16.7585 -28.9651 15.6371 -28.9615C14.5157 -28.9579 13.4151 -28.6583 12.4466 -28.0931L-4.10968 -18.4631C-5.07651 -17.8989 -5.87864 -17.0912 -6.43621 -16.1205C-6.99378 -15.1497 -7.28733 -14.0499 -7.2876 -12.9304L-7.22268 6.22591C-7.216 7.3477 -6.91532 8.44814 -6.35068 9.41748C-5.78605 10.3868 -4.97714 11.1912 -4.00465 11.7504L12.608 21.2632C13.5808 21.823 14.684 22.1161 15.8063 22.1129C16.9286 22.1097 18.0302 21.8104 18.9997 21.2452L35.5605 11.6124C36.5244 11.0438 37.3232 10.2334 37.8777 9.2613C38.4322 8.28923 38.7232 7.18921 38.722 6.0701L38.6571 -13.0863C38.6491 -14.2048 38.349 -15.3018 37.7866 -16.2686C37.2242 -17.2355 36.419 -18.0387 35.4507 -18.5986Z" fill="#FFDD0F" fill-opacity="0.2"/>
<path fill-rule="evenodd" clip-rule="evenodd" d="M18.3347 -27.2468C17.5151 -27.718 16.5857 -27.9646 15.6403 -27.9615C14.6949 -27.9585 13.7671 -27.7059 12.9506 -27.2294L12.9493 -27.2287L-3.60562 -17.5995C-3.60591 -17.5993 -3.60534 -17.5996 -3.60562 -17.5995C-4.42119 -17.1233 -5.09868 -16.4413 -5.56907 -15.6224C-6.03935 -14.8036 -6.28707 -13.8761 -6.2876 -12.9319C-6.2876 -12.9314 -6.2876 -12.9308 -6.2876 -12.9302L-6.2227 6.21996C-6.22269 6.22038 -6.22269 6.2208 -6.22269 6.22121C-6.21684 7.16772 -5.96303 8.09622 -5.48659 8.91415C-5.01025 9.73192 -4.32795 10.4106 -3.50769 10.8826C-3.50718 10.8829 -3.50667 10.8832 -3.50616 10.8835L13.1068 20.3965C13.927 20.8685 14.8572 21.1156 15.8035 21.1129C16.7497 21.1102 17.6786 20.8579 18.4961 20.3813L35.0524 10.7511C35.0534 10.7505 35.0543 10.75 35.0552 10.7494C35.8679 10.2694 36.5414 9.58569 37.009 8.76581C37.4772 7.94503 37.723 7.01622 37.722 6.07126C37.722 6.07123 37.722 6.0713 37.722 6.07126L37.6571 -13.0791C37.6571 -13.0799 37.6571 -13.0807 37.6571 -13.0816C37.6499 -14.025 37.3966 -14.9503 36.9222 -15.7658C36.4478 -16.5815 35.7686 -17.2592 34.9519 -17.7319C34.9513 -17.7323 34.9507 -17.7326 34.9501 -17.733L18.3347 -27.2468ZM35.4507 -18.5986C36.419 -18.0387 37.2242 -17.2355 37.7866 -16.2686C38.349 -15.3018 38.6491 -14.2048 38.6571 -13.0863L38.722 6.0701C38.7232 7.18921 38.4322 8.28923 37.8777 9.2613C37.3232 10.2334 36.5244 11.0438 35.5605 11.6124L18.9997 21.2452C18.0302 21.8104 16.9286 22.1097 15.8063 22.1129C14.684 22.1161 13.5808 21.823 12.608 21.2632L-4.00465 11.7504C-4.97714 11.1912 -5.78605 10.3868 -6.35068 9.41748C-6.91532 8.44814 -7.216 7.3477 -7.22268 6.22591L-7.2876 -12.9304C-7.28733 -14.0499 -6.99378 -15.1497 -6.43621 -16.1205C-5.87864 -17.0912 -5.07651 -17.8989 -4.10968 -18.4631L12.4466 -28.0931C13.4151 -28.6583 14.5157 -28.9579 15.6371 -28.9615C16.7585 -28.9651 17.861 -28.6727 18.8331 -28.1137L35.4507 -18.5986Z" fill="url(#paint4_linear)"/>
<path d="M87.5481 72.4251L70.9308 62.91C69.9586 62.3511 68.8561 62.0586 67.7346 62.0622C66.6132 62.0658 65.5126 62.3654 64.544 62.9306L47.9877 72.5606C47.0206 73.125 46.2184 73.9329 45.6608 74.9039C45.1032 75.8749 44.8098 76.975 44.8098 78.0947L44.875 97.251C44.8817 98.3728 45.1823 99.4733 45.7469 100.443C46.3116 101.412 47.1205 102.216 48.093 102.776L64.7057 112.288C65.6785 112.848 66.7817 113.141 67.904 113.138C69.0263 113.135 70.1278 112.836 71.0974 112.27L87.6582 102.638C88.6221 102.069 89.4208 101.258 89.9753 100.286C90.5298 99.3143 90.8209 98.2143 90.8197 97.0952L90.7548 77.9389C90.7469 76.8201 90.4468 75.7229 89.8843 74.7557C89.3219 73.7886 88.5165 72.9852 87.5481 72.4251Z" fill="#FFDD0F" fill-opacity="0.2"/>
<path fill-rule="evenodd" clip-rule="evenodd" d="M71.0974 112.27L87.6582 102.638C88.6221 102.069 89.4208 101.258 89.9753 100.286C90.5298 99.3143 90.8209 98.2143 90.8197 97.0952L90.7548 77.9389C90.7469 76.8201 90.4468 75.7229 89.8843 74.7557C89.3219 73.7886 88.5165 72.9852 87.5481 72.4251L70.9308 62.91C69.9586 62.3511 68.8561 62.0586 67.7346 62.0622C66.6132 62.0658 65.5126 62.3654 64.544 62.9306L47.9877 72.5606C47.0206 73.125 46.2184 73.9329 45.6608 74.9039C45.1032 75.8749 44.8098 76.975 44.8098 78.0947L44.875 97.251C44.8817 98.3728 45.1823 99.4733 45.7469 100.443C46.3116 101.412 47.1205 102.216 48.093 102.776L64.7057 112.288C65.6785 112.848 66.7817 113.141 67.904 113.138C69.0263 113.135 70.1278 112.836 71.0974 112.27ZM48.5914 101.909C48.5915 101.909 48.5914 101.909 48.5914 101.909L65.2045 111.422C66.0247 111.894 66.9549 112.141 67.9011 112.138C68.8474 112.135 69.7763 111.883 70.5938 111.406L87.1501 101.776C87.1509 101.776 87.1517 101.775 87.1525 101.775C87.9653 101.295 88.6389 100.611 89.1067 99.7909C89.5746 98.9706 89.8204 98.0423 89.8197 97.0979C89.8197 97.0974 89.8197 97.0968 89.8197 97.0962L89.7548 77.946C89.7548 77.9454 89.7548 77.9448 89.7548 77.9443C89.7478 77.0003 89.4945 76.0745 89.0199 75.2585C88.5454 74.4426 87.8662 73.7648 87.0494 73.2919C87.0488 73.2915 87.0481 73.2911 87.0474 73.2907L70.4324 63.7769C69.6128 63.3057 68.6833 63.0592 67.7379 63.0622C66.7924 63.0653 65.8646 63.3178 65.048 63.7943L65.0468 63.795L48.4917 73.4243C48.4915 73.4244 48.492 73.4241 48.4917 73.4243C47.676 73.9005 46.9984 74.5827 46.528 75.4019C46.0577 76.2208 45.8101 77.1487 45.8098 78.0931C45.8098 78.0936 45.8098 78.0942 45.8098 78.0947L45.875 97.2451C45.875 97.2455 45.875 97.2459 45.875 97.2463C45.8808 98.1929 46.1346 99.1214 46.611 99.9393C47.0876 100.758 47.7706 101.437 48.5914 101.909Z" fill="url(#paint5_linear)"/>
<path d="M80.0108 78.1027L69.7403 72.2231C69.1394 71.8777 68.4581 71.6969 67.765 71.6992C67.072 71.7014 66.3918 71.8865 65.7932 72.2358L55.5605 78.1877C54.9628 78.5364 54.4669 79.0358 54.1223 79.6359C53.7776 80.236 53.5964 80.916 53.5964 81.6081L53.6365 93.4477C53.6406 94.1409 53.8264 94.821 54.1753 95.42C54.5241 96.0191 55.024 96.5162 55.6249 96.8619L65.8926 102.741C66.4937 103.087 67.1755 103.268 67.8692 103.267C68.5628 103.265 69.2436 103.08 69.8428 102.73L80.0782 96.7766C80.674 96.4252 81.1677 95.9244 81.5105 95.3236C81.8532 94.7228 82.0332 94.0429 82.0325 93.3512L81.9924 81.5118C81.9878 80.8201 81.8025 80.1417 81.4549 79.5437C81.1073 78.9457 80.6095 78.449 80.0108 78.1027Z" fill="#FFDD0F" fill-opacity="0.2"/>
<path d="M75.3526 81.8037L69.0044 78.169C68.6331 77.9555 68.212 77.8438 67.7836 77.8452C67.3553 77.8466 66.9349 77.961 66.5649 78.1769L60.2419 81.8553C59.8725 82.071 59.5661 82.3796 59.3532 82.7505C59.1402 83.1214 59.0281 83.5416 59.0281 83.9693L59.0529 91.2868C59.0555 91.7153 59.1703 92.1356 59.386 92.5058C59.6016 92.876 59.9105 93.1833 60.2819 93.3969L66.6276 97.0307C66.9992 97.2445 67.4207 97.3565 67.8494 97.3553C68.2781 97.3541 68.6989 97.2398 69.0693 97.0239L75.3952 93.3444C75.7634 93.1272 76.0685 92.8176 76.2804 92.4463C76.4922 92.0749 76.6034 91.6548 76.6031 91.2273L76.5783 83.9097C76.5751 83.4823 76.4604 83.0632 76.2454 82.6938C76.0304 82.3244 75.7227 82.0175 75.3526 81.8037Z" fill="#FFDD0F"/>
<path d="M35.5486 72.6016L18.931 63.0865C17.9589 62.5275 16.8564 62.2351 15.735 62.2387C14.6136 62.2423 13.513 62.5418 12.5445 63.1071L-4.01177 72.7371C-4.97882 73.3014 -5.78108 74.1094 -6.33865 75.0803C-6.89623 76.0513 -7.18968 77.1515 -7.1897 78.2712L-7.12478 97.4275C-7.1181 98.5493 -6.81742 99.6497 -6.25278 100.619C-5.68815 101.588 -4.87924 102.393 -3.90675 102.952L12.7059 112.465C13.6787 113.025 14.7819 113.318 15.9042 113.315C17.0265 113.311 18.1281 113.012 19.0976 112.447L35.6584 102.814C36.6223 102.245 37.4211 101.435 37.9756 100.463C38.5302 99.4908 38.8212 98.3908 38.8199 97.2717L38.755 78.1153C38.7472 76.9966 38.4473 75.8993 37.8849 74.9322C37.3225 73.965 36.5171 73.1616 35.5486 72.6016Z" fill="#FFDD0F" fill-opacity="0.2"/>
<path fill-rule="evenodd" clip-rule="evenodd" d="M18.4326 63.9534C17.613 63.4822 16.6836 63.2356 15.7382 63.2387C14.7928 63.2417 13.865 63.4943 13.0485 63.9708L13.0473 63.9715L-3.50772 73.6007C-3.50796 73.6009 -3.50748 73.6006 -3.50772 73.6007C-4.32351 74.077 -5.00103 74.7591 -5.47146 75.5783C-5.94176 76.3973 -6.1894 77.3252 -6.1897 78.2695C-6.1897 78.2701 -6.1897 78.2706 -6.1897 78.2712L-6.1248 97.4216C-6.12479 97.422 -6.12479 97.4224 -6.12479 97.4228C-6.11894 98.3693 -5.86513 99.2978 -5.38869 100.116C-4.91205 100.934 -4.2292 101.613 -3.40826 102.085L13.2047 111.598C14.0249 112.07 14.9551 112.317 15.9014 112.315C16.8476 112.312 17.7765 112.059 18.594 111.583L35.1504 101.953C35.1514 101.952 35.1524 101.951 35.1534 101.951C35.966 101.471 36.6394 100.787 37.107 99.9674C37.575 99.1471 37.8207 98.2188 37.8199 97.2744C37.8199 97.2739 37.8199 97.2733 37.8199 97.2728L37.755 78.1223C37.755 78.1217 37.755 78.1211 37.755 78.1204C37.7481 77.1766 37.4949 76.2508 37.0204 75.4349C36.546 74.619 35.8667 73.9411 35.0498 73.4683C35.0492 73.4679 35.0486 73.4676 35.048 73.4672L18.4326 63.9534ZM35.5486 72.6016C36.5171 73.1616 37.3225 73.965 37.8849 74.9322C38.4473 75.8993 38.7472 76.9966 38.755 78.1153L38.8199 97.2717C38.8212 98.3908 38.5302 99.4908 37.9756 100.463C37.4211 101.435 36.6223 102.245 35.6584 102.814L19.0976 112.447C18.1281 113.012 17.0265 113.311 15.9042 113.315C14.7819 113.318 13.6787 113.025 12.7059 112.465L-3.90675 102.952C-4.87924 102.393 -5.68815 101.588 -6.25278 100.619C-6.81742 99.6497 -7.1181 98.5493 -7.12478 97.4275L-7.1897 78.2712C-7.18968 77.1515 -6.89623 76.0513 -6.33865 75.0803C-5.78108 74.1094 -4.97882 73.3014 -4.01177 72.7371L12.5445 63.1071C13.513 62.5418 14.6136 62.2423 15.735 62.2387C16.8564 62.2351 17.9589 62.5275 18.931 63.0865L35.5486 72.6016Z" fill="url(#paint6_linear)"/>
<path d="M2.41106 -2.40247L-7.86052 -8.2832C-8.46142 -8.62862 -9.14283 -8.80934 -9.83593 -8.80711C-10.529 -8.80488 -11.2092 -8.61978 -11.8079 -8.2705L-22.0405 -2.31863C-22.6383 -1.96987 -23.1342 -1.47053 -23.4788 -0.870399C-23.8234 -0.270264 -24.0047 0.409709 -24.0046 1.10175L-23.9643 12.9414C-23.9606 13.6349 -23.775 14.3153 -23.4261 14.9146C-23.0772 15.514 -22.5771 16.0113 -21.9759 16.357L-11.7086 22.2363C-11.1075 22.5824 -10.4256 22.7636 -9.73194 22.7617C-9.03831 22.7598 -8.35751 22.5747 -7.75832 22.2253L2.47715 16.2718C3.07293 15.9204 3.5666 15.4195 3.90936 14.8187C4.25211 14.2179 4.43203 13.538 4.43133 12.8463L4.39129 1.00691C4.38687 0.315352 4.20184 -0.36304 3.8545 -0.961058C3.50717 -1.55908 3.00955 -2.05596 2.41106 -2.40247Z" fill="#FFDD0F"/>
<path d="M27.8775 -12.9787L17.607 -18.8597C17.0061 -19.2051 16.3248 -19.3858 15.6317 -19.3836C14.9387 -19.3814 14.2585 -19.1962 13.6599 -18.847L3.42724 -12.8951C2.8295 -12.5463 2.33358 -12.047 1.98896 -11.4469C1.64435 -10.8467 1.46306 -10.1668 1.46313 -9.47471L1.50317 2.36495C1.50706 3.05842 1.69272 3.73875 2.04162 4.33807C2.39051 4.93739 2.89049 5.43475 3.49161 5.78054L13.7593 11.6599C14.3604 12.0059 15.0422 12.1871 15.7358 12.1852C16.4295 12.1833 17.1103 11.9983 17.7095 11.6489L27.9449 5.69529C28.5407 5.34389 29.0344 4.843 29.3771 4.2422C29.7199 3.64141 29.8999 2.96152 29.8992 2.26982L29.8591 -9.56956C29.8545 -10.2612 29.6692 -10.9397 29.3216 -11.5376C28.974 -12.1356 28.4762 -12.6324 27.8775 -12.9787Z" fill="#FFDD0F" fill-opacity="0.2"/>
<path d="M27.8775 77.9852L17.607 72.1042C17.0061 71.7588 16.3248 71.5781 15.6317 71.5803C14.9387 71.5825 14.2585 71.7676 13.6599 72.1169L3.42724 78.0688C2.8295 78.4175 2.33358 78.9169 1.98896 79.517C1.64435 80.1171 1.46306 80.7971 1.46313 81.4891L1.50317 93.3288C1.50706 94.0223 1.69272 94.7026 2.04162 95.3019C2.39051 95.9012 2.89049 96.3986 3.49161 96.7444L13.7593 102.624C14.3604 102.97 15.0422 103.151 15.7358 103.149C16.4295 103.147 17.1103 102.962 17.7095 102.613L27.9449 96.6591C28.5407 96.3077 29.0344 95.8069 29.3771 95.2061C29.7199 94.6053 29.8999 93.9254 29.8992 93.2337L29.8591 81.3943C29.8545 80.7027 29.6692 80.0242 29.3216 79.4262C28.974 78.8282 28.4762 78.3315 27.8775 77.9852Z" fill="#FFDD0F" fill-opacity="0.2"/>
</g>
<defs>
<linearGradient id="paint0_linear" x1="42.3339" y1="24.5874" x2="42.3339" y2="88.4304" gradientUnits="userSpaceOnUse">
<stop stop-color="#FFDD0F" stop-opacity="0.8"/>
<stop offset="1" stop-color="#FFDD0F" stop-opacity="0"/>
</linearGradient>
<linearGradient id="paint1_linear" x1="93.5339" y1="24.414" x2="93.5339" y2="88.2589" gradientUnits="userSpaceOnUse">
<stop stop-color="#FFDD0F" stop-opacity="0.8"/>
<stop offset="1" stop-color="#FFDD0F" stop-opacity="0"/>
</linearGradient>
<linearGradient id="paint2_linear" x1="-9.66556" y1="24.7639" x2="-9.66556" y2="88.6068" gradientUnits="userSpaceOnUse">
<stop stop-color="#FFDD0F" stop-opacity="0.8"/>
<stop offset="1" stop-color="#FFDD0F" stop-opacity="0"/>
</linearGradient>
<linearGradient id="paint3_linear" x1="67.8148" y1="-21.0132" x2="67.8148" y2="42.8299" gradientUnits="userSpaceOnUse">
<stop stop-color="#FFDD0F"/>
<stop offset="1" stop-color="#FFDD0F" stop-opacity="0"/>
</linearGradient>
<linearGradient id="paint4_linear" x1="15.7172" y1="-20.8361" x2="15.7172" y2="43.007" gradientUnits="userSpaceOnUse">
<stop stop-color="#FFDD0F"/>
<stop offset="1" stop-color="#FFDD0F" stop-opacity="0"/>
</linearGradient>
<linearGradient id="paint5_linear" x1="67.8148" y1="70.1879" x2="67.8148" y2="134.033" gradientUnits="userSpaceOnUse">
<stop stop-color="#FFDD0F" stop-opacity="0.8"/>
<stop offset="1" stop-color="#FFDD0F" stop-opacity="0"/>
</linearGradient>
<linearGradient id="paint6_linear" x1="15.8151" y1="70.3644" x2="15.8151" y2="87.9999" gradientUnits="userSpaceOnUse">
<stop stop-color="#FFDD0F" stop-opacity="0.8"/>
<stop offset="1" stop-color="#FFDD0F" stop-opacity="0"/>
</linearGradient>
<clipPath id="clip0">
<rect x="0.333984" width="84" height="84" rx="42" fill="white"/>
</clipPath>
</defs>
</svg>
