<svg width="726" height="64" viewBox="0 0 726 64" fill="none" xmlns="http://www.w3.org/2000/svg">
<mask id="mask0_63_7015" style="mask-type:alpha" maskUnits="userSpaceOnUse" x="0" y="0" width="726" height="64">
<path d="M0 12C0 5.37258 5.37258 0 12 0H714C720.627 0 726 5.37258 726 12V64H0V12Z" fill="url(#paint0_linear_63_7015)"/>
</mask>
<g mask="url(#mask0_63_7015)">
<path d="M726 0L0 0L0 64L726 64V0Z" fill="#B9E9E4"/>
<path opacity="0.6" d="M726 0L0 0L0 64L726 64V0Z" fill="#309F9D"/>
<mask id="mask1_63_7015" style="mask-type:alpha" maskUnits="userSpaceOnUse" x="0" y="0" width="726" height="64">
<path d="M0 12C0 5.37258 5.37258 0 12 0H714C720.627 0 726 5.37258 726 12V64H0V12Z" fill="url(#paint1_linear_63_7015)"/>
</mask>
<g mask="url(#mask1_63_7015)">
<path d="M726 0L0 0L0 64L726 64V0Z" fill="#13325A"/>
<mask id="mask2_63_7015" style="mask-type:alpha" maskUnits="userSpaceOnUse" x="19" y="-1681" width="2212" height="2212">
<rect x="2230.45" y="-1418.39" width="2756.09" height="371.382" transform="rotate(135 2230.45 -1418.39)" fill="url(#paint2_linear_63_7015)"/>
</mask>
<g mask="url(#mask2_63_7015)">
<path opacity="0.2" d="M2004.67 -1612.62L95.2712 296.776L302.571 504.076L2211.97 -1405.32L2004.67 -1612.62Z" fill="#B0ECE6"/>
<path opacity="0.4" d="M2109.87 -1507.42L2004.67 -1612.62L95.2709 296.776L200.472 401.977L2109.87 -1507.42Z" fill="#173961"/>
<path opacity="0.4" d="M2004.67 -1612.62L95.2712 296.776L161.022 362.527L2070.42 -1546.87L2004.67 -1612.62Z" fill="#13325A"/>
</g>
</g>
</g>
<defs>
<linearGradient id="paint0_linear_63_7015" x1="401.985" y1="-110.663" x2="394.944" y2="61.5374" gradientUnits="userSpaceOnUse">
<stop stop-color="#32FFF5"/>
<stop offset="1" stop-color="#01BFE3"/>
</linearGradient>
<linearGradient id="paint1_linear_63_7015" x1="401.985" y1="-110.663" x2="394.944" y2="61.5374" gradientUnits="userSpaceOnUse">
<stop stop-color="#32FFF5"/>
<stop offset="1" stop-color="#01BFE3"/>
</linearGradient>
<linearGradient id="paint2_linear_63_7015" x1="5053.71" y1="-1047.01" x2="2167.37" y2="-1067.44" gradientUnits="userSpaceOnUse">
<stop offset="0.139976"/>
<stop offset="1" stop-opacity="0.2"/>
</linearGradient>
</defs>
</svg>