<svg width="172" height="148" viewBox="0 0 172 148" fill="none" xmlns="http://www.w3.org/2000/svg">
<g clip-path="url(#clip0)">
<path opacity="0.1" fill-rule="evenodd" clip-rule="evenodd" d="M171.868 73.9293C171.868 114.381 139.278 147.165 99.075 147.165C58.8722 147.165 26.281 114.381 26.281 73.9293C26.281 33.4804 58.8722 0.690308 99.075 0.690308C139.278 0.690308 171.868 33.4804 171.868 73.9293Z" fill="url(#paint0_linear)"/>
<mask id="mask0" mask-type="alpha" maskUnits="userSpaceOnUse" x="53" y="70" width="103" height="78">
<path d="M155.671 128.283L146.416 87.2977C143.989 93.0999 138.039 97.8274 127.66 98.2976C101.825 99.4648 105.689 71.0078 105.714 70.8314H105.705L91.0767 82.587V70.8314H69.624C64.3599 70.8314 59.6586 74.1398 57.8602 79.1191L53.0479 92.4282H75.4967L87.5251 139.862H117.153V147.587L132.443 142.725L144.789 142.213C153.877 141.76 156.99 134.816 155.671 128.283Z" fill="white"/>
</mask>
<g mask="url(#mask0)">
<path d="M155.671 128.283L146.416 87.2977C143.989 93.0999 138.039 97.8274 127.66 98.2976C101.825 99.4648 105.689 71.0078 105.714 70.8314H105.705L91.0767 82.587V70.8314H69.624C64.3599 70.8314 59.6586 74.1398 57.8602 79.1191L53.0479 92.4282H75.4967L87.5251 139.862H117.153V147.001L132.443 142.725L144.789 142.213C153.877 141.76 156.99 134.816 155.671 128.283Z" fill="#418C7D"/>
</g>
<path fill-rule="evenodd" clip-rule="evenodd" d="M106.325 39.9402C106.131 39.8562 105.921 39.8042 105.716 39.7454C105.272 39.6186 104.813 39.5287 104.331 39.5287C103.329 39.5287 102.4 39.8302 101.613 40.334C98.0774 37.778 96.9811 33.2554 96.9811 33.2554C85.5054 33.2554 78.8337 41.9647 78.8337 41.9647V54.083C78.8337 57.3704 81.8753 59.8063 85.0596 59.0624L91.0767 57.4787V82.5871L105.705 70.8314L105.716 70.823V49.5269C105.724 49.5244 105.734 49.521 105.744 49.5185C107.856 48.8996 109.409 46.96 109.409 44.6366C109.409 42.5281 108.138 40.7194 106.325 39.9402Z" fill="#9B6E60"/>
<path fill-rule="evenodd" clip-rule="evenodd" d="M107.297 122.741L98.3962 128.375V139.862H117.153L121.611 126.595L107.297 122.741Z" fill="#9B6E60"/>
<path fill-rule="evenodd" clip-rule="evenodd" d="M121.818 127.661L121.581 126.436L141.239 122.581L141.476 123.807L121.818 127.661Z" fill="#01050C"/>
<path fill-rule="evenodd" clip-rule="evenodd" d="M132.573 125.083L125.614 91.8066L126.827 91.5463L133.786 124.823L132.573 125.083Z" fill="#01050C"/>
<path d="M96.895 47.6841C94.5382 50.3231 91.4124 51.5789 87.1582 51.5789" stroke="#01050C" stroke-width="2"/>
<path fill-rule="evenodd" clip-rule="evenodd" d="M136.532 64.7185C123.177 60.646 119.463 43.3518 111.248 32.0631C110.173 30.2031 108.755 28.6371 107.116 27.3734C107.107 27.365 107.099 27.3558 107.089 27.3474V27.3516C103.952 24.9417 99.8301 23.3683 95.9211 23.3683C87.34 23.3683 75.4424 27.3474 78.8338 41.9646C78.8338 41.9646 85.5055 33.2554 96.9812 33.2554C96.9812 33.2554 98.0774 37.778 101.613 40.334C102.401 39.8302 103.329 39.5287 104.331 39.5287C104.813 39.5287 105.272 39.6186 105.716 39.7454C105.921 39.8041 106.131 39.8562 106.325 39.9402C108.138 40.7194 109.409 42.5281 109.409 44.6365C109.409 46.9599 107.856 48.8996 105.744 49.5185C105.734 49.521 105.724 49.5244 105.716 49.5269V70.823L105.714 70.8314C105.689 71.0077 101.731 100.97 127.566 99.8025C137.945 99.3323 143.989 93.0999 146.416 87.2977C150.047 78.6153 144.119 67.0319 136.532 64.7185Z" fill="#01050C"/>
<mask id="mask1" mask-type="alpha" maskUnits="userSpaceOnUse" x="0" y="92" width="118" height="56">
<path fill-rule="evenodd" clip-rule="evenodd" d="M87.525 139.434L75.4966 92H0.5L14.4888 147.159H117.153V139.434H87.525Z" fill="#7CE0D6"/>
</mask>
<g mask="url(#mask1)">
<path d="M121.5 92L-46.5 92L-46.5 148L121.5 148V92Z" fill="#418C7D"/>
<path opacity="0.4" d="M-9.5 113L-9.5 148H121.5V113H-9.5Z" fill="#5ABE93"/>
<path opacity="0.4" d="M-12.0469 148H9.28123L9.28123 126.562H9.26853C3.61366 126.564 -1.80892 128.824 -5.80633 132.844C-9.80373 136.864 -12.0485 142.316 -12.0469 148Z" fill="#5ABE93"/>
<path opacity="0.4" d="M121.5 92L-2.5 92L-2.5 148H121.5L121.5 92Z" fill="#5ABE93"/>
<path opacity="0.4" d="M121.5 127L-9.5 127L-9.5 148H121.5V127Z" fill="#5ABE93"/>
</g>
</g>
<defs>
<linearGradient id="paint0_linear" x1="171.868" y1="0.690276" x2="22.6506" y2="4.48712" gradientUnits="userSpaceOnUse">
<stop stop-color="#AAF5D4"/>
<stop offset="1" stop-color="#7CE0D6"/>
</linearGradient>
<clipPath id="clip0">
<rect width="171.368" height="148" fill="white" transform="translate(0.5)"/>
</clipPath>
</defs>
</svg>
