<svg width="89" height="138" viewBox="0 0 89 138" fill="none" xmlns="http://www.w3.org/2000/svg">
<path fill-rule="evenodd" clip-rule="evenodd" d="M26.343 132.692L19.4414 135.894C19.0526 136.075 18.8042 136.462 18.8042 136.887C18.8042 137.493 19.2994 137.984 19.9103 137.984H35.4263V132.692H26.343Z" fill="#01050C"/>
<path fill-rule="evenodd" clip-rule="evenodd" d="M52.9462 132.692L46.0445 135.894C45.6558 136.075 45.4074 136.462 45.4074 136.887C45.4074 137.493 45.9025 137.984 46.5135 137.984H62.0295V132.692H52.9462Z" fill="#01050C"/>
<path fill-rule="evenodd" clip-rule="evenodd" d="M29.5998 58.126L26.343 132.692H35.4263L42.91 70.2458H45.8055L52.9462 132.692H62.0295L59.5417 68.4895C59.4049 64.9615 58.7577 61.4714 57.6193 58.126H29.5998Z" fill="#1F4782"/>
<path d="M9.18497 24.0974L15.326 37.7571L23.0905 26.4088C24.7876 23.9286 27.6204 22.4424 30.6521 22.4424H57.5253C60.557 22.4424 63.3899 23.9286 65.0869 26.4088L72.8515 37.7571L78.9925 24.0974L85.4085 27.1028L77.5974 46.9583C76.7891 49.0128 74.7864 50.3665 72.5537 50.3665C70.8637 50.3665 69.2712 49.5867 68.2473 48.2587L63.4275 42.0024L60.7978 38.2411L60.6648 39.6406L58.2293 58.4171H29.9482L27.5127 39.6406L27.3796 38.2411L24.7499 42.0024L19.9302 48.2587C18.9063 49.5867 17.3138 50.3665 15.6237 50.3665C13.3911 50.3665 11.3884 49.0128 10.58 46.9583L2.76898 27.1028L9.18497 24.0974Z" fill="#68BEBE"/>
<path fill-rule="evenodd" clip-rule="evenodd" d="M9.23083 24.4484V20.1417L4.18206 17.8271L1.90735e-06 21.1378L2.9274 27.5195L9.23083 24.4484Z" fill="#E4B9AB"/>
<path fill-rule="evenodd" clip-rule="evenodd" d="M78.9472 24.4484V20.1417L83.996 17.8271L88.178 21.1378L85.2506 27.5195L78.9472 24.4484Z" fill="#E4B9AB"/>
<path fill-rule="evenodd" clip-rule="evenodd" d="M60.0189 43.266L61.143 33.7633L61.6266 33.8697L60.5027 43.3725L60.0189 43.266Z" fill="#2C3437"/>
<path fill-rule="evenodd" clip-rule="evenodd" d="M27.8634 41.9461L26.6858 32.4499L27.181 32.4377L28.3586 41.934L27.8634 41.9461Z" fill="#2C3437"/>
<path fill-rule="evenodd" clip-rule="evenodd" d="M43.2106 1.78692C42.1408 -0.0313197 36.7393 -1.10069 34.6537 1.78692C32.2044 5.17861 35.1157 8.0972 35.1157 8.0972V5.49108H40.985L43.5315 7.68413V10.7714H44.4693C44.4693 9.48631 45.5107 8.44486 46.7954 8.44486C46.9958 8.44486 47.1867 8.47775 47.3718 8.52556C47.5879 8.58101 47.7898 8.6663 47.9769 8.77722C48.3662 7.09705 48.606 4.74222 47.4299 3.28426C45.988 1.49663 43.2106 1.78692 43.2106 1.78692Z" fill="#01050C"/>
<path fill-rule="evenodd" clip-rule="evenodd" d="M47.977 8.77734C47.79 8.66643 47.5881 8.58114 47.372 8.52568C47.1869 8.47787 46.996 8.44498 46.7956 8.44498C45.5109 8.44498 44.4695 9.48643 44.4695 10.7715H43.5317V7.68426L40.9852 5.49121H35.1159V14.9779C35.1159 16.4752 36.5092 17.5832 37.9679 17.2463L40.7244 16.5245V22.4527L44.0484 25.7465L47.372 22.4527V13.017C48.3763 12.7596 49.1221 11.8562 49.1221 10.7715C49.1221 9.91977 48.6594 9.18276 47.977 8.77734Z" fill="#E4B9AB"/>
<path d="M38 14.3333C38.9682 13.4299 40.2523 13 42 13" stroke="#01050C" stroke-width="0.888889"/>
</svg>
