<svg width="1534" height="198" viewBox="0 0 1534 198" fill="none" xmlns="http://www.w3.org/2000/svg">
<rect x="-4.00061" y="-608.781" width="1534" height="938" fill="url(#paint0_linear_63_4893)" fill-opacity="0.3"/>
<rect x="-4.00049" y="-612.781" width="1534" height="942" fill="url(#paint1_linear_63_4893)"/>
<g opacity="0.2">
<path opacity="0.4" d="M686.015 -619.996L686.021 349.987L831.012 349.983L831.006 -620L686.015 -619.996Z" fill="#B0ECE6"/>
<path opacity="0.35" d="M686.015 -22.1065L686.017 346.47L830.993 346.466L830.991 -22.1106L686.015 -22.1065Z" fill="#B0ECE6"/>
<path opacity="0.4" d="M-273.882 346.907L686.029 346.894L686.016 -616.781L685.45 -616.781C155.618 -616.778 -273.889 -185.317 -273.882 346.907Z" fill="#B0ECE6"/>
<path opacity="0.2" d="M93.1431 347.41L686.029 347.402L686.021 -249.248L685.669 -249.248C528.474 -249.197 377.737 -186.306 266.617 -74.4118C155.498 37.4827 93.0973 189.216 93.1431 347.41Z" fill="#B0ECE6"/>
<path opacity="0.2" d="M319.004 346.805L686.029 346.8L686.024 -22.1065L685.805 -22.1065C588.494 -22.0755 495.18 16.8092 426.391 85.9934C357.603 155.178 318.975 248.994 319.004 346.805Z" fill="#B0ECE6"/>
<path opacity="0.4" d="M1418.66 -614.641L1782.46 -614.645C1782.47 -86.9478 1356.73 340.845 831.545 340.847H830.984L830.98 -23.0567H831.329C987.145 -23.1071 1136.56 -85.4633 1246.7 -196.406C1356.85 -307.349 1418.7 -457.792 1418.66 -614.641Z" fill="#B0ECE6"/>
<path opacity="0.2" d="M1418.66 -614.641L1782.46 -614.645C1782.47 -86.9478 1356.73 340.845 831.545 340.847H830.984L830.98 -23.0567H831.329C987.145 -23.1071 1136.56 -85.4633 1246.7 -196.406C1356.85 -307.349 1418.7 -457.792 1418.66 -614.641Z" fill="#B0ECE6"/>
<path opacity="0.2" d="M1418.66 -614.641L1782.46 -614.645C1782.47 -86.9478 1356.73 340.845 831.545 340.847H830.984L830.98 -23.0567H831.329C987.145 -23.1071 1136.56 -85.4633 1246.7 -196.406C1356.85 -307.349 1418.7 -457.792 1418.66 -614.641Z" fill="#B0ECE6"/>
</g>
<defs>
<linearGradient id="paint0_linear_63_4893" x1="1599.73" y1="-629.719" x2="150.799" y2="1071.08" gradientUnits="userSpaceOnUse">
<stop stop-color="#FFFAF1"/>
<stop offset="1" stop-color="#FFEBEB"/>
</linearGradient>
<linearGradient id="paint1_linear_63_4893" x1="763.007" y1="329.213" x2="763.007" y2="-612.781" gradientUnits="userSpaceOnUse">
<stop offset="0.000490735" stop-color="#05295D"/>
<stop offset="1" stop-color="#041F46"/>
</linearGradient>
</defs>
</svg>
