<svg width="85" height="84" viewBox="0 0 85 84" fill="none" xmlns="http://www.w3.org/2000/svg">
<g clip-path="url(#clip0)">
<path d="M62.0108 26.825L45.3935 17.3097C44.4212 16.7508 43.3187 16.4584 42.1973 16.462C41.0759 16.4656 39.9753 16.7651 39.0066 17.3303L22.4504 26.9602C21.4835 27.5245 20.6814 28.3322 20.1238 29.3029C19.5663 30.2736 19.2727 31.3735 19.2725 32.4929L19.3374 51.6496C19.3441 52.7713 19.6448 53.8717 20.2094 54.841C20.7741 55.8103 21.5829 56.6146 22.5553 57.1738L39.1678 66.6866C40.1406 67.2464 41.2438 67.5395 42.3661 67.5363C43.4884 67.5331 44.5899 67.2338 45.5595 66.6686L62.1206 57.0358C63.0845 56.4672 63.8832 55.6567 64.4377 54.6847C64.9922 53.7126 65.2833 52.6126 65.2821 51.4935L65.2169 32.3371C65.2088 31.2187 64.9088 30.1218 64.3464 29.1549C63.7841 28.1881 62.979 27.385 62.0108 26.825Z" fill="#FF7272" fill-opacity="0.2"/>
<path fill-rule="evenodd" clip-rule="evenodd" d="M44.8951 18.1766C44.0755 17.7055 43.146 17.459 42.2005 17.462C41.2551 17.4651 40.3272 17.7176 39.5106 18.194L39.5094 18.1947L22.9544 27.8239C22.9542 27.8241 22.9547 27.8238 22.9544 27.8239C22.1389 28.3001 21.4614 28.9821 20.991 29.801C20.5207 30.6197 20.273 31.5473 20.2725 32.4914C20.2725 32.492 20.2725 32.4926 20.2725 32.4932L20.3374 51.6436C20.3374 51.644 20.3374 51.6444 20.3374 51.6448C20.3433 52.5913 20.5971 53.5197 21.0735 54.3376C21.55 55.1556 22.2326 55.8345 23.0532 56.3065C23.0534 56.3067 23.053 56.3064 23.0532 56.3065L39.6666 65.8199C40.4868 66.2918 41.417 66.539 42.3632 66.5363C43.3095 66.5336 44.2384 66.2812 45.0559 65.8046L61.6125 56.1744C61.6134 56.1739 61.6143 56.1734 61.6152 56.1728C62.4279 55.6928 63.1013 55.0091 63.569 54.1892C64.037 53.3688 64.2828 52.4406 64.2821 51.4962C64.2821 51.4956 64.2821 51.4951 64.2821 51.4945L64.2169 32.3443C64.2169 32.3438 64.2169 32.3433 64.2169 32.3428C64.2098 31.3991 63.9565 30.4735 63.482 29.6577C63.0076 28.8421 62.3285 28.1644 61.5119 27.6917C61.5113 27.6914 61.5107 27.691 61.5101 27.6907L44.8951 18.1766ZM62.0108 26.825C62.979 27.385 63.7841 28.1881 64.3464 29.1549C64.9088 30.1218 65.2088 31.2187 65.2169 32.3371L65.2821 51.4935C65.2833 52.6126 64.9922 53.7126 64.4377 54.6847C63.8832 55.6567 63.0845 56.4672 62.1206 57.0358L45.5595 66.6686C44.5899 67.2338 43.4884 67.5331 42.3661 67.5363C41.2438 67.5395 40.1406 67.2464 39.1678 66.6866L22.5553 57.1738C21.5829 56.6146 20.7741 55.8103 20.2094 54.841C19.6448 53.8717 19.3441 52.7713 19.3374 51.6496L19.2725 32.4929C19.2727 31.3735 19.5663 30.2736 20.1238 29.3029C20.6814 28.3322 21.4835 27.5245 22.4504 26.9602L39.0066 17.3303C39.9753 16.7651 41.0759 16.4656 42.1973 16.462C43.3187 16.4584 44.4212 16.7508 45.3935 17.3097L62.0108 26.825Z" fill="url(#paint0_linear)"/>
<path d="M54.4736 32.6211L44.2032 26.7401C43.6023 26.3947 42.9209 26.214 42.2278 26.2163C41.5347 26.2185 40.8545 26.4036 40.2558 26.7528L30.0234 32.7047C29.4257 33.0535 28.9298 33.5528 28.5852 34.153C28.2406 34.7531 28.0593 35.4331 28.0593 36.1251L28.0994 47.9648C28.1033 48.6582 28.2889 49.3386 28.6378 49.9379C28.9867 50.5372 29.4867 51.0346 30.0878 51.3803L40.3552 57.26C40.9564 57.6059 41.6383 57.787 42.332 57.785C43.0256 57.783 43.7064 57.598 44.3056 57.2487L54.5411 51.2951C55.1371 50.9436 55.631 50.4425 55.9737 49.8414C56.3165 49.2404 56.4963 48.5602 56.4954 47.8682L56.4553 36.0286C56.4504 35.3372 56.265 34.6591 55.9174 34.0614C55.5699 33.4638 55.0721 32.9673 54.4736 32.6211Z" fill="#FF6D6D" fill-opacity="0.2"/>
<path d="M113.211 26.6513L96.5932 17.1362C95.621 16.5772 94.5185 16.2848 93.397 16.2884C92.2756 16.2919 91.175 16.5914 90.2064 17.1565L73.6501 26.7867C72.6831 27.3512 71.8808 28.1591 71.3233 29.1301C70.7658 30.1011 70.4724 31.2012 70.4724 32.3208L70.5373 51.4772C70.544 52.599 70.8447 53.6994 71.4093 54.6688C71.974 55.6381 72.7829 56.4425 73.7554 57.0017L90.3681 66.5145C91.3409 67.0743 92.4441 67.3674 93.5664 67.3642C94.6887 67.361 95.7902 67.0617 96.7597 66.4965L113.321 56.8637C114.284 56.295 115.083 55.4846 115.638 54.5125C116.192 53.5405 116.483 52.4405 116.482 51.3214L116.417 32.165C116.409 31.0463 116.109 29.949 115.547 28.9819C114.985 28.0148 114.179 27.2114 113.211 26.6513Z" fill="#FF7272" fill-opacity="0.2"/>
<path fill-rule="evenodd" clip-rule="evenodd" d="M96.0948 18.0031C95.2752 17.5319 94.3457 17.2853 93.4002 17.2884C92.4548 17.2914 91.5269 17.5438 90.7103 18.0202L90.7092 18.0209L74.1542 27.6504C74.1539 27.6505 74.1544 27.6503 74.1542 27.6504C73.3384 28.1267 72.6609 28.8088 72.1905 29.628C71.7203 30.447 71.4727 31.3749 71.4724 32.3192C71.4724 32.3197 71.4724 32.3203 71.4724 32.3208L71.5373 51.4712C71.5373 51.4717 71.5373 51.4721 71.5373 51.4725C71.5432 52.419 71.797 53.3475 72.2734 54.1654C72.7498 54.9833 73.4323 55.6621 74.2527 56.1341C74.2531 56.1343 74.2535 56.1346 74.2539 56.1348L90.8669 65.6478C91.6871 66.1197 92.6173 66.3669 93.5635 66.3642C94.5098 66.3615 95.4386 66.1091 96.2561 65.6326L112.812 56.0024C112.813 56.0019 112.814 56.0014 112.815 56.0009C113.628 55.5208 114.301 54.837 114.769 54.017C115.237 53.1967 115.483 52.2685 115.482 51.3241C115.482 51.3235 115.482 51.3229 115.482 51.3224L115.417 32.1721C115.417 32.1715 115.417 32.1709 115.417 32.1703C115.41 31.2264 115.157 30.3006 114.682 29.4846C114.208 28.6687 113.529 27.9908 112.712 27.5179C112.711 27.5176 112.711 27.5172 112.71 27.5169L96.0948 18.0031ZM113.211 26.6513C114.179 27.2114 114.985 28.0148 115.547 28.9819C116.109 29.949 116.409 31.0463 116.417 32.165L116.482 51.3214C116.483 52.4405 116.192 53.5405 115.638 54.5125C115.083 55.4846 114.284 56.295 113.321 56.8637L96.7597 66.4965C95.7902 67.0617 94.6887 67.361 93.5664 67.3642C92.4441 67.3674 91.3409 67.0743 90.3681 66.5145L73.7554 57.0017C72.7829 56.4425 71.974 55.6381 71.4093 54.6688C70.8447 53.6994 70.544 52.599 70.5373 51.4772L70.4724 32.3208C70.4724 31.2012 70.7658 30.1011 71.3233 29.1301C71.8808 28.1591 72.6831 27.3512 73.6501 26.7867L90.2064 17.1565C91.175 16.5914 92.2756 16.2919 93.397 16.2884C94.5185 16.2848 95.621 16.5772 96.5932 17.1362L113.211 26.6513Z" fill="url(#paint1_linear)"/>
<path d="M105.672 32.4472L95.402 26.5665C94.8011 26.221 94.1197 26.0403 93.4266 26.0426C92.7335 26.0448 92.0532 26.2299 91.4546 26.5792L81.2219 32.531C80.6243 32.8799 80.1285 33.3792 79.7838 33.9793C79.4392 34.5795 79.2579 35.2594 79.2578 35.9514L79.2982 47.7908C79.302 48.4843 79.4877 49.1646 79.8366 49.764C80.1855 50.3633 80.6854 50.8606 81.2866 51.2064L91.5539 57.0857C92.1551 57.4317 92.8369 57.613 93.5305 57.611C94.2241 57.6091 94.9049 57.4241 95.5041 57.0747L105.74 51.1211C106.335 50.7697 106.829 50.2689 107.172 49.6681C107.515 49.0673 107.695 48.3874 107.694 47.6957L107.654 35.856C107.649 35.1644 107.464 34.4861 107.116 33.8881C106.769 33.2902 106.271 32.7935 105.672 32.4472Z" fill="#FF6D6D" fill-opacity="0.2"/>
<path d="M10.0113 27.0015L-6.60624 17.4861C-7.57849 16.9272 -8.681 16.6348 -9.80242 16.6385C-10.9239 16.6421 -12.0245 16.9416 -12.9931 17.5067L-29.5494 27.1367C-30.5162 27.701 -31.3183 28.5087 -31.8758 29.4794C-32.4333 30.4501 -32.7268 31.55 -32.7271 32.6694L-32.6621 51.826C-32.6554 52.9478 -32.3547 54.0482 -31.7901 55.0175C-31.2254 55.9867 -30.4166 56.7911 -29.4441 57.3502L-12.8314 66.8631C-11.8586 67.4228 -10.7554 67.7159 -9.6331 67.7127C-8.51081 67.7095 -7.40929 67.4102 -6.43974 66.845L10.1211 57.2125C11.085 56.6438 11.8836 55.8333 12.4381 54.8612C12.9926 53.8891 13.2838 52.7891 13.2826 51.6699L13.2177 32.5136C13.2096 31.3951 12.9094 30.2982 12.347 29.3314C11.7846 28.3646 10.9795 27.5615 10.0113 27.0015Z" fill="#FF7272" fill-opacity="0.2"/>
<path fill-rule="evenodd" clip-rule="evenodd" d="M-7.1046 18.3531C-7.92427 17.8819 -8.85376 17.6354 -9.7992 17.6385C-10.7446 17.6415 -11.6725 17.894 -12.4892 18.3705L-12.4903 18.3711L-29.0453 28.0003C-29.0456 28.0005 -29.045 28.0002 -29.0453 28.0003C-29.8608 28.4766 -30.5383 29.1585 -31.0086 29.9775C-31.4789 30.7962 -31.7266 31.7238 -31.7271 32.6679C-31.7271 32.6685 -31.7271 32.669 -31.7271 32.6696L-31.6621 51.82C-31.6621 51.8205 -31.6621 51.8209 -31.6621 51.8213C-31.6562 52.7678 -31.4024 53.6962 -30.926 54.5141C-30.4494 55.3323 -29.7666 56.0112 -28.9458 56.4832C-28.9457 56.4833 -28.9458 56.4832 -28.9458 56.4832L-12.3326 65.9963C-11.5124 66.4683 -10.5822 66.7154 -9.63592 66.7127C-8.68965 66.7101 -7.76089 66.4577 -6.94338 65.9811L9.61297 56.3512C9.6138 56.3507 9.61462 56.3502 9.61544 56.3498C10.4282 55.8696 11.1017 55.1858 11.5695 54.3657C12.0377 53.5449 12.2836 52.616 12.2826 51.6711C12.2826 51.671 12.2826 51.6712 12.2826 51.6711L12.2177 32.5208C12.2177 32.5204 12.2177 32.5199 12.2177 32.5194C12.2106 31.5756 11.9572 30.6501 11.4826 29.8342C11.0082 29.0186 10.329 28.3409 9.51237 27.8682C9.51179 27.8678 9.5112 27.8675 9.51061 27.8671L-7.1046 18.3531ZM13.2177 32.5136L13.2826 51.6699C13.2838 52.7891 12.9926 53.8891 12.4381 54.8612C11.8836 55.8333 11.085 56.6438 10.1211 57.2125L-6.43974 66.845C-7.40929 67.4102 -8.51081 67.7095 -9.6331 67.7127C-10.7554 67.7159 -11.8586 67.4228 -12.8314 66.8631L-29.4441 57.3502C-30.4166 56.7911 -31.2254 55.9867 -31.7901 55.0175C-32.3547 54.0482 -32.6554 52.9478 -32.6621 51.826L-32.7271 32.6694C-32.7268 31.55 -32.4333 30.4501 -31.8758 29.4794C-31.3183 28.5087 -30.5162 27.701 -29.5494 27.1367L-12.9931 17.5067C-12.0245 16.9416 -10.9239 16.6421 -9.80242 16.6385C-8.681 16.6348 -7.57849 16.9272 -6.60624 17.4861L10.0113 27.0015C10.9795 27.5615 11.7846 28.3646 12.347 29.3314C12.9094 30.2982 13.2096 31.3951 13.2177 32.5136Z" fill="url(#paint2_linear)"/>
<path d="M2.47377 32.7976L-7.79643 26.9169C-8.39728 26.5713 -9.07866 26.3905 -9.77177 26.3927C-10.4649 26.3949 -11.1451 26.58 -11.7438 26.9293L-21.9764 32.8812C-22.5741 33.23 -23.07 33.7293 -23.4146 34.3295C-23.7592 34.9296 -23.9405 35.6095 -23.9406 36.3015L-23.9002 48.1412C-23.8964 48.8347 -23.7108 49.515 -23.3619 50.1144C-23.013 50.7137 -22.513 51.211 -21.9118 51.5568L-11.6445 57.4364C-11.0433 57.7823 -10.3614 57.9634 -9.66784 57.9614C-8.97425 57.9594 -8.29343 57.7744 -7.69423 57.4251L2.54124 51.4715C3.13699 51.1202 3.63063 50.6193 3.97339 50.0186C4.31614 49.4178 4.49607 48.738 4.49542 48.0464L4.45539 36.2067C4.45077 35.515 4.2655 34.8366 3.91791 34.2386C3.57032 33.6407 3.07249 33.1439 2.47377 32.7976Z" fill="#FF6D6D" fill-opacity="0.2"/>
<path d="M87.4914 -18.775L70.8742 -28.2909C69.902 -28.8499 68.7995 -29.1423 67.678 -29.1387C66.5566 -29.1351 65.4559 -28.8355 64.4873 -28.2703L47.931 -18.6403C46.9642 -18.0761 46.1621 -17.2684 45.6045 -16.2976C45.0469 -15.3269 44.7534 -14.2271 44.7532 -13.1076L44.8184 6.04872C44.825 7.17051 45.1257 8.27095 45.6903 9.2403C46.2549 10.2097 47.0638 11.014 48.0363 11.5732L64.6491 21.086C65.6218 21.6458 66.725 21.9389 67.8473 21.9357C68.9696 21.9326 70.0712 21.6332 71.0408 21.068L87.6016 11.4352C88.5654 10.8665 89.3641 10.0561 89.9186 9.08404C90.4731 8.11198 90.7642 7.01199 90.7631 5.8929L90.6982 -13.2635C90.6898 -14.3818 90.3896 -15.4786 89.8271 -16.4453C89.2647 -17.412 88.4596 -18.215 87.4914 -18.775Z" fill="#FF7272" fill-opacity="0.2"/>
<path fill-rule="evenodd" clip-rule="evenodd" d="M70.3758 -27.424C69.5561 -27.8952 68.6267 -28.1418 67.6812 -28.1387C66.7358 -28.1357 65.8079 -27.8831 64.9913 -27.4066L64.9901 -27.4059L48.4351 -17.7767C48.4348 -17.7765 48.4354 -17.7768 48.4351 -17.7767C47.6195 -17.3005 46.942 -16.6185 46.4716 -15.7996C46.0014 -14.9809 45.7537 -14.0533 45.7532 -13.1091C45.7532 -13.1086 45.7532 -13.108 45.7532 -13.1074L45.8184 6.04279C45.8184 6.04319 45.8184 6.0436 45.8184 6.04401C45.8242 6.99055 46.0779 7.91905 46.5544 8.73697C47.031 9.5552 47.7137 10.2342 48.5346 10.7062C48.5347 10.7062 48.5345 10.7062 48.5346 10.7062L65.1479 20.2193C65.968 20.6913 66.8982 20.9384 67.8445 20.9358C68.7908 20.9331 69.7196 20.6807 70.5371 20.2041L70.538 20.2036L87.0934 10.5739C87.0941 10.5735 87.0949 10.5731 87.0956 10.5726C87.9085 10.0925 88.5821 9.40866 89.05 8.58855C89.5179 7.7682 89.7637 6.83997 89.7631 5.89558C89.7631 5.89502 89.7631 5.89445 89.7631 5.89389L89.6982 -13.256C89.6982 -13.2567 89.6982 -13.2575 89.6982 -13.2582C89.6908 -14.2016 89.4373 -15.1269 88.9628 -15.9424C88.4883 -16.7579 87.8092 -17.4355 86.9927 -17.9082C86.9921 -17.9086 86.9914 -17.909 86.9908 -17.9093L70.3758 -27.424ZM87.4914 -18.775C88.4596 -18.215 89.2647 -17.412 89.8271 -16.4453C90.3896 -15.4786 90.6898 -14.3818 90.6982 -13.2635L90.7631 5.8929C90.7642 7.01199 90.4731 8.11198 89.9186 9.08404C89.3641 10.0561 88.5654 10.8665 87.6016 11.4352L71.0408 21.068C70.0712 21.6332 68.9696 21.9326 67.8473 21.9357C66.725 21.9389 65.6218 21.6458 64.6491 21.086L48.0363 11.5732C47.0638 11.014 46.2549 10.2097 45.6903 9.2403C45.1257 8.27095 44.825 7.17051 44.8184 6.04872L44.7532 -13.1076C44.7534 -14.2271 45.0469 -15.3269 45.6045 -16.2976C46.1621 -17.2684 46.9642 -18.0761 47.931 -18.6403L64.4873 -28.2703C65.4559 -28.8355 66.5566 -29.1351 67.678 -29.1387C68.7995 -29.1423 69.902 -28.8499 70.8742 -28.2909L87.4914 -18.775Z" fill="url(#paint3_linear)"/>
<path d="M79.9541 -12.9787L69.6836 -18.8597C69.0828 -19.2051 68.4014 -19.3858 67.7084 -19.3836C67.0153 -19.3814 66.3352 -19.1962 65.7366 -18.847L55.5039 -12.8951C54.9062 -12.5463 54.4102 -12.047 54.0656 -11.4469C53.721 -10.8467 53.5397 -10.1668 53.5398 -9.47471L53.5798 2.36495C53.5837 3.05842 53.7694 3.73875 54.1183 4.33807C54.4672 4.93739 54.9672 5.43475 55.5683 5.78054L65.8359 11.6599C66.4371 12.0059 67.1189 12.1871 67.8125 12.1852C68.5061 12.1833 69.1869 11.9983 69.7861 11.6489L80.0216 5.69529C80.6174 5.34389 81.1111 4.843 81.4538 4.2422C81.7966 3.64141 81.9766 2.96152 81.9759 2.26982L81.9357 -9.56956C81.9312 -10.2612 81.7459 -10.9397 81.3983 -11.5376C81.0507 -12.1356 80.5529 -12.6324 79.9541 -12.9787Z" fill="#FF6D6D" fill-opacity="0.2"/>
<path d="M75.296 -9.39654L68.9478 -13.0312C68.5764 -13.2447 68.1553 -13.3564 67.727 -13.355C67.2987 -13.3536 66.8782 -13.2392 66.5083 -13.0233L60.1853 -9.34488C59.8159 -9.12928 59.5094 -8.82064 59.2964 -8.44974C59.0835 -8.07883 58.9714 -7.65859 58.9714 -7.23088L58.9962 0.0866575C58.9988 0.515113 59.1137 0.935416 59.3293 1.30565C59.545 1.67589 59.8539 1.98311 60.2253 2.19669L66.5709 5.83048C66.9425 6.04432 67.364 6.15629 67.7927 6.15511C68.2215 6.15392 68.6423 6.0396 69.0127 5.82371L75.3386 2.1442C75.7067 1.92696 76.0119 1.61737 76.2237 1.24607C76.4356 0.874757 76.5468 0.454588 76.5465 0.0270967L76.5216 -7.29045C76.5185 -7.71785 76.4038 -8.13701 76.1888 -8.50642C75.9738 -8.87583 75.666 -9.18267 75.296 -9.39654Z" fill="#FFDD0F"/>
<path d="M35.3941 -18.5986L18.7765 -28.1137C17.8043 -28.6727 16.7019 -28.9651 15.5805 -28.9615C14.4591 -28.9579 13.3585 -28.6583 12.3899 -28.0931L-4.16632 -18.4631C-5.13315 -17.8989 -5.93528 -17.0912 -6.49285 -16.1205C-7.05042 -15.1497 -7.34397 -14.0499 -7.34424 -12.9304L-7.27932 6.22591C-7.27264 7.3477 -6.97196 8.44814 -6.40733 9.41748C-5.84269 10.3868 -5.03378 11.1912 -4.06129 11.7504L12.5514 21.2632C13.5241 21.823 14.6274 22.1161 15.7496 22.1129C16.8719 22.1097 17.9735 21.8104 18.9431 21.2452L35.5039 11.6124C36.4678 11.0438 37.2665 10.2334 37.821 9.2613C38.3755 8.28923 38.6666 7.18921 38.6654 6.0701L38.6005 -13.0863C38.5924 -14.2048 38.2924 -15.3018 37.73 -16.2686C37.1676 -17.2355 36.3624 -18.0387 35.3941 -18.5986Z" fill="#FF7272" fill-opacity="0.2"/>
<path fill-rule="evenodd" clip-rule="evenodd" d="M18.2781 -27.2468C17.4585 -27.718 16.5291 -27.9646 15.5837 -27.9615C14.6383 -27.9585 13.7105 -27.7059 12.894 -27.2294L12.8927 -27.2287L-3.66226 -17.5995C-3.66255 -17.5993 -3.66198 -17.5996 -3.66226 -17.5995C-4.47783 -17.1233 -5.15532 -16.4413 -5.62571 -15.6224C-6.09599 -14.8036 -6.34371 -13.8761 -6.34424 -12.9319C-6.34424 -12.9314 -6.34424 -12.9308 -6.34424 -12.9302L-6.27934 6.21996C-6.27933 6.22038 -6.27933 6.2208 -6.27933 6.22121C-6.27348 7.16772 -6.01967 8.09622 -5.54323 8.91415C-5.06689 9.73192 -4.38459 10.4106 -3.56433 10.8826C-3.56382 10.8829 -3.56331 10.8832 -3.5628 10.8835L13.0501 20.3965C13.8703 20.8685 14.8005 21.1156 15.7468 21.1129C16.6931 21.1102 17.6219 20.8579 18.4394 20.3813L34.9958 10.7511C34.9967 10.7505 34.9977 10.75 34.9986 10.7494C35.8113 10.2694 36.4847 9.58569 36.9524 8.76581C37.4206 7.94503 37.6664 7.01622 37.6654 6.07126C37.6654 6.07123 37.6654 6.0713 37.6654 6.07126L37.6005 -13.0791C37.6005 -13.0799 37.6005 -13.0807 37.6005 -13.0816C37.5933 -14.025 37.34 -14.9503 36.8656 -15.7658C36.3911 -16.5815 35.712 -17.2592 34.8953 -17.7319C34.8947 -17.7323 34.8941 -17.7326 34.8935 -17.733L18.2781 -27.2468ZM35.3941 -18.5986C36.3624 -18.0387 37.1676 -17.2355 37.73 -16.2686C38.2924 -15.3018 38.5924 -14.2048 38.6005 -13.0863L38.6654 6.0701C38.6666 7.18921 38.3755 8.28923 37.821 9.2613C37.2665 10.2334 36.4678 11.0438 35.5039 11.6124L18.9431 21.2452C17.9735 21.8104 16.8719 22.1097 15.7496 22.1129C14.6274 22.1161 13.5241 21.823 12.5514 21.2632L-4.06129 11.7504C-5.03378 11.1912 -5.84269 10.3868 -6.40733 9.41748C-6.97196 8.44814 -7.27264 7.3477 -7.27932 6.22591L-7.34424 -12.9304C-7.34397 -14.0499 -7.05042 -15.1497 -6.49285 -16.1205C-5.93528 -17.0912 -5.13315 -17.8989 -4.16632 -18.4631L12.3899 -28.0931C13.3585 -28.6583 14.4591 -28.9579 15.5805 -28.9615C16.7019 -28.9651 17.8043 -28.6727 18.7765 -28.1137L35.3941 -18.5986Z" fill="url(#paint4_linear)"/>
<path d="M87.4914 72.4251L70.8742 62.91C69.902 62.3511 68.7995 62.0586 67.678 62.0622C66.5566 62.0658 65.4559 62.3654 64.4873 62.9306L47.931 72.5606C46.964 73.125 46.1617 73.9329 45.6041 74.9039C45.0466 75.8749 44.7532 76.975 44.7532 78.0947L44.8184 97.251C44.825 98.3728 45.1257 99.4733 45.6903 100.443C46.2549 101.412 47.0638 102.216 48.0363 102.776L64.6491 112.288C65.6218 112.848 66.7251 113.141 67.8473 113.138C68.9696 113.135 70.0712 112.836 71.0408 112.27L87.6016 102.638C88.5654 102.069 89.3641 101.258 89.9186 100.286C90.4731 99.3143 90.7642 98.2143 90.7631 97.0952L90.6982 77.9389C90.6902 76.8201 90.3901 75.7229 89.8277 74.7557C89.2652 73.7886 88.4599 72.9852 87.4914 72.4251Z" fill="#FF7272" fill-opacity="0.2"/>
<path fill-rule="evenodd" clip-rule="evenodd" d="M71.0408 112.27L87.6016 102.638C88.5654 102.069 89.3641 101.258 89.9186 100.286C90.4731 99.3143 90.7642 98.2143 90.7631 97.0952L90.6982 77.9389C90.6902 76.8201 90.3901 75.7229 89.8277 74.7557C89.2652 73.7886 88.4599 72.9852 87.4914 72.4251L70.8742 62.91C69.902 62.3511 68.7995 62.0586 67.678 62.0622C66.5566 62.0658 65.4559 62.3654 64.4873 62.9306L47.931 72.5606C46.964 73.125 46.1617 73.9329 45.6041 74.9039C45.0466 75.8749 44.7532 76.975 44.7532 78.0947L44.8184 97.251C44.825 98.3728 45.1257 99.4733 45.6903 100.443C46.2549 101.412 47.0638 102.216 48.0363 102.776L64.6491 112.288C65.6218 112.848 66.7251 113.141 67.8473 113.138C68.9696 113.135 70.0712 112.836 71.0408 112.27ZM48.5348 101.909C48.5348 101.909 48.5347 101.909 48.5348 101.909L65.1478 111.422C65.968 111.894 66.8982 112.141 67.8445 112.138C68.7908 112.135 69.7196 111.883 70.5371 111.406L87.0934 101.776C87.0942 101.776 87.095 101.775 87.0958 101.775C87.9087 101.295 88.5823 100.611 89.05 99.7909C89.518 98.9706 89.7637 98.0423 89.7631 97.0979C89.7631 97.0974 89.7631 97.0968 89.7631 97.0962L89.6982 77.946C89.6982 77.9454 89.6982 77.9448 89.6982 77.9443C89.6912 77.0003 89.4378 76.0745 88.9632 75.2585C88.4888 74.4426 87.8096 73.7648 86.9928 73.2919C86.9921 73.2915 86.9914 73.2911 86.9908 73.2907L70.3758 63.7769C69.5561 63.3057 68.6267 63.0592 67.6812 63.0622C66.7358 63.0653 65.8079 63.3178 64.9913 63.7943L64.9901 63.795L48.4351 73.4243C48.4348 73.4244 48.4353 73.4241 48.4351 73.4243C47.6193 73.9005 46.9418 74.5827 46.4713 75.4019C46.0011 76.2208 45.7535 77.1487 45.7532 78.0931C45.7532 78.0936 45.7532 78.0942 45.7532 78.0947L45.8184 97.2451C45.8184 97.2455 45.8184 97.2459 45.8184 97.2463C45.8242 98.1929 46.0779 99.1214 46.5544 99.9393C47.031 100.758 47.7139 101.437 48.5348 101.909Z" fill="url(#paint5_linear)"/>
<path d="M79.9541 78.1027L69.6836 72.2231C69.0828 71.8777 68.4014 71.6969 67.7084 71.6992C67.0153 71.7014 66.3352 71.8865 65.7366 72.2358L55.5039 78.1877C54.9062 78.5364 54.4102 79.0358 54.0656 79.6359C53.721 80.236 53.5397 80.916 53.5398 81.6081L53.5798 93.4477C53.584 94.1409 53.7697 94.821 54.1186 95.42C54.4675 96.0191 54.9674 96.5162 55.5683 96.8619L65.8359 102.741C66.4371 103.087 67.1189 103.268 67.8125 103.267C68.5061 103.265 69.1869 103.08 69.7861 102.73L80.0216 96.7766C80.6174 96.4252 81.1111 95.9244 81.4538 95.3236C81.7966 94.7228 81.9766 94.0429 81.9759 93.3512L81.9357 81.5118C81.9312 80.8201 81.7459 80.1417 81.3983 79.5437C81.0507 78.9457 80.5529 78.449 79.9541 78.1027Z" fill="#FF6D6D" fill-opacity="0.2"/>
<path d="M75.296 81.8037L68.9478 78.169C68.5764 77.9555 68.1553 77.8438 67.727 77.8452C67.2987 77.8466 66.8782 77.961 66.5083 78.1769L60.1853 81.8553C59.8159 82.071 59.5095 82.3796 59.2965 82.7505C59.0836 83.1214 58.9715 83.5416 58.9714 83.9693L58.9962 91.2868C58.9988 91.7153 59.1137 92.1356 59.3293 92.5058C59.545 92.876 59.8539 93.1833 60.2253 93.3969L66.5709 97.0307C66.9425 97.2445 67.364 97.3565 67.7927 97.3553C68.2215 97.3541 68.6423 97.2398 69.0127 97.0239L75.3386 93.3444C75.7067 93.1272 76.0119 92.8176 76.2237 92.4463C76.4356 92.0749 76.5468 91.6548 76.5465 91.2273L76.5216 83.9097C76.5185 83.4823 76.4038 83.0632 76.1888 82.6938C75.9738 82.3244 75.666 82.0175 75.296 81.8037Z" fill="#FFDD0F"/>
<path d="M35.492 72.6016L18.8744 63.0865C17.9022 62.5275 16.7998 62.2351 15.6784 62.2387C14.557 62.2423 13.4564 62.5418 12.4878 63.1071L-4.06841 72.7371C-5.03546 73.3014 -5.83772 74.1094 -6.39529 75.0803C-6.95287 76.0513 -7.24632 77.1515 -7.24634 78.2712L-7.18142 97.4275C-7.17474 98.5493 -6.87406 99.6497 -6.30942 100.619C-5.74479 101.588 -4.93588 102.393 -3.96339 102.952L12.6493 112.465C13.622 113.025 14.7253 113.318 15.8475 113.315C16.9698 113.311 18.0714 113.012 19.041 112.447L35.6018 102.814C36.5657 102.245 37.3645 101.435 37.919 100.463C38.4735 99.4908 38.7645 98.3908 38.7633 97.2717L38.6984 78.1153C38.6906 76.9966 38.3907 75.8993 37.8282 74.9322C37.2658 73.965 36.4605 73.1616 35.492 72.6016Z" fill="#FF7272" fill-opacity="0.2"/>
<path fill-rule="evenodd" clip-rule="evenodd" d="M18.376 63.9534C17.5564 63.4822 16.627 63.2356 15.6816 63.2387C14.7362 63.2417 13.8084 63.4943 12.9919 63.9708L12.9906 63.9715L-3.56436 73.6007C-3.5646 73.6009 -3.56412 73.6006 -3.56436 73.6007C-4.38016 74.077 -5.05768 74.7591 -5.5281 75.5783C-5.9984 76.3973 -6.24604 77.3252 -6.24634 78.2695C-6.24634 78.2701 -6.24634 78.2706 -6.24634 78.2712L-6.18144 97.4216C-6.18143 97.422 -6.18143 97.4224 -6.18143 97.4228C-6.17558 98.3693 -5.92177 99.2978 -5.44533 100.116C-4.96869 100.934 -4.28584 101.613 -3.4649 102.085L13.148 111.598C13.9682 112.07 14.8985 112.317 15.8447 112.315C16.791 112.312 17.7198 112.059 18.5373 111.583L35.0937 101.953C35.0947 101.952 35.0957 101.951 35.0967 101.951C35.9093 101.471 36.5827 100.787 37.0504 99.9674C37.5183 99.1471 37.764 98.2188 37.7633 97.2744C37.7633 97.2739 37.7633 97.2733 37.7633 97.2728L37.6984 78.1223C37.6984 78.1217 37.6984 78.1211 37.6984 78.1204C37.6915 77.1766 37.4383 76.2508 36.9638 75.4349C36.4893 74.619 35.8101 73.9411 34.9932 73.4683C34.9926 73.4679 34.992 73.4676 34.9914 73.4672L18.376 63.9534ZM35.492 72.6016C36.4605 73.1616 37.2658 73.965 37.8282 74.9322C38.3907 75.8993 38.6906 76.9966 38.6984 78.1153L38.7633 97.2717C38.7645 98.3908 38.4735 99.4908 37.919 100.463C37.3645 101.435 36.5657 102.245 35.6018 102.814L19.041 112.447C18.0714 113.012 16.9698 113.311 15.8475 113.315C14.7253 113.318 13.622 113.025 12.6493 112.465L-3.96339 102.952C-4.93588 102.393 -5.74479 101.588 -6.30942 100.619C-6.87406 99.6497 -7.17474 98.5493 -7.18142 97.4275L-7.24634 78.2712C-7.24632 77.1515 -6.95287 76.0513 -6.39529 75.0803C-5.83772 74.1094 -5.03546 73.3014 -4.06841 72.7371L12.4878 63.1071C13.4564 62.5418 14.557 62.2423 15.6784 62.2387C16.7998 62.2351 17.9022 62.5275 18.8744 63.0865L35.492 72.6016Z" fill="url(#paint6_linear)"/>
<path d="M2.35429 -2.40247L-7.91729 -8.2832C-8.51818 -8.62862 -9.1996 -8.80934 -9.89269 -8.80711C-10.5858 -8.80488 -11.266 -8.61978 -11.8647 -8.2705L-22.0973 -2.31863C-22.695 -1.96987 -23.191 -1.47053 -23.5356 -0.870399C-23.8802 -0.270264 -24.0615 0.409709 -24.0614 1.10175L-24.0211 12.9414C-24.0173 13.6349 -23.8318 14.3153 -23.4829 14.9146C-23.1339 15.514 -22.6339 16.0113 -22.0327 16.357L-11.7653 22.2363C-11.1642 22.5824 -10.4823 22.7636 -9.7887 22.7617C-9.09508 22.7598 -8.41428 22.5747 -7.81508 22.2253L2.42039 16.2718C3.01617 15.9204 3.50984 15.4195 3.8526 14.8187C4.19535 14.2179 4.37527 13.538 4.37457 12.8463L4.33453 1.00691C4.33011 0.315352 4.14507 -0.36304 3.79774 -0.961058C3.45041 -1.55908 2.95279 -2.05596 2.35429 -2.40247Z" fill="#FFDD0F"/>
<path d="M27.8208 -12.9787L17.5503 -18.8597C16.9495 -19.2051 16.2681 -19.3858 15.5751 -19.3836C14.882 -19.3814 14.2019 -19.1962 13.6032 -18.847L3.3706 -12.8951C2.77286 -12.5463 2.27694 -12.047 1.93232 -11.4469C1.5877 -10.8467 1.40642 -10.1668 1.40649 -9.47471L1.44653 2.36495C1.45042 3.05842 1.63608 3.73875 1.98497 4.33807C2.33387 4.93739 2.83385 5.43475 3.43497 5.78054L13.7026 11.6599C14.3038 12.0059 14.9856 12.1871 15.6792 12.1852C16.3728 12.1833 17.0536 11.9983 17.6528 11.6489L27.8883 5.69529C28.4841 5.34389 28.9777 4.843 29.3205 4.2422C29.6633 3.64141 29.8432 2.96152 29.8425 2.26982L29.8024 -9.56956C29.7978 -10.2612 29.6125 -10.9397 29.265 -11.5376C28.9174 -12.1356 28.4196 -12.6324 27.8208 -12.9787Z" fill="#FF6D6D" fill-opacity="0.2"/>
<path d="M27.8208 77.9852L17.5503 72.1042C16.9495 71.7588 16.2681 71.5781 15.5751 71.5803C14.882 71.5825 14.2019 71.7676 13.6032 72.1169L3.3706 78.0688C2.77286 78.4175 2.27694 78.9169 1.93232 79.517C1.5877 80.1171 1.40642 80.7971 1.40649 81.4891L1.44653 93.3288C1.45042 94.0223 1.63608 94.7026 1.98497 95.3019C2.33387 95.9012 2.83385 96.3986 3.43497 96.7444L13.7026 102.624C14.3038 102.97 14.9856 103.151 15.6792 103.149C16.3728 103.147 17.0536 102.962 17.6528 102.613L27.8883 96.6591C28.4841 96.3077 28.9777 95.8069 29.3205 95.2061C29.6633 94.6053 29.8432 93.9254 29.8425 93.2337L29.8024 81.3943C29.7978 80.7027 29.6125 80.0242 29.265 79.4262C28.9174 78.8282 28.4196 78.3315 27.8208 77.9852Z" fill="#FF6D6D" fill-opacity="0.2"/>
</g>
<defs>
<linearGradient id="paint0_linear" x1="42.2773" y1="0.691297" x2="42.2773" y2="88.4303" gradientUnits="userSpaceOnUse">
<stop stop-color="#FF6D6D"/>
<stop offset="1" stop-color="#FF6D6D" stop-opacity="0"/>
</linearGradient>
<linearGradient id="paint1_linear" x1="93.4773" y1="-19.5" x2="93.4773" y2="88.2589" gradientUnits="userSpaceOnUse">
<stop stop-color="#FF7163"/>
<stop offset="1" stop-color="#FF7C7C" stop-opacity="0"/>
</linearGradient>
<linearGradient id="paint2_linear" x1="-9.7222" y1="-17.5" x2="-9.7222" y2="88.6068" gradientUnits="userSpaceOnUse">
<stop stop-color="#FF7163"/>
<stop offset="1" stop-color="#FF7C7C" stop-opacity="0"/>
</linearGradient>
<linearGradient id="paint3_linear" x1="67.7581" y1="-21.0132" x2="67.7581" y2="42.8299" gradientUnits="userSpaceOnUse">
<stop stop-color="#FF6D6D"/>
<stop offset="1" stop-color="#FF6D6D" stop-opacity="0"/>
</linearGradient>
<linearGradient id="paint4_linear" x1="15.6606" y1="-20.8361" x2="15.6606" y2="43.007" gradientUnits="userSpaceOnUse">
<stop stop-color="#FF7163"/>
<stop offset="1" stop-color="#FF7C7C" stop-opacity="0"/>
</linearGradient>
<linearGradient id="paint5_linear" x1="67.7581" y1="30" x2="67.7581" y2="134.033" gradientUnits="userSpaceOnUse">
<stop stop-color="#FF7163"/>
<stop offset="1" stop-color="#FF7C7C" stop-opacity="0"/>
</linearGradient>
<linearGradient id="paint6_linear" x1="15.7585" y1="13" x2="15.7585" y2="134.209" gradientUnits="userSpaceOnUse">
<stop stop-color="#FF7163"/>
<stop offset="1" stop-color="#FF7C7C" stop-opacity="0"/>
</linearGradient>
<clipPath id="clip0">
<rect x="0.277344" width="84" height="84" rx="42" fill="white"/>
</clipPath>
</defs>
</svg>
