<svg width="85" height="85" viewBox="0 0 85 85" fill="none" xmlns="http://www.w3.org/2000/svg">
<g clip-path="url(#clip0)">
<path d="M62.6475 27.452L46.0302 17.9366C45.058 17.3777 43.9554 17.0853 42.834 17.089C41.7126 17.0926 40.612 17.3921 39.6433 17.9572L23.0871 27.5872C22.1203 28.1515 21.3181 28.9592 20.7606 29.9299C20.203 30.9006 19.9094 32.0004 19.9092 33.1199L19.9741 52.2765C19.9809 53.3983 20.2815 54.4986 20.8462 55.4679C21.4108 56.4372 22.2196 57.2415 23.1921 57.8008L39.8045 67.3136C40.7773 67.8733 41.8805 68.1664 43.0028 68.1632C44.1251 68.1601 45.2267 67.8607 46.1962 67.2955L62.7573 57.6627C63.7212 57.0941 64.5199 56.2837 65.0744 55.3116C65.6289 54.3395 65.92 53.2395 65.9188 52.1204L65.8536 32.9641C65.8456 31.8456 65.5455 30.7487 64.9831 29.7819C64.4208 28.8151 63.6157 28.012 62.6475 27.452Z" fill="#38CCB6" fill-opacity="0.2"/>
<path fill-rule="evenodd" clip-rule="evenodd" d="M45.5318 18.8036C44.7122 18.3324 43.7827 18.0859 42.8372 18.089C41.8918 18.092 40.9639 18.3445 40.1473 18.821L40.1461 18.8216L23.5912 28.4509C22.7756 28.9271 22.0981 29.609 21.6277 30.428C21.1574 31.2467 20.9097 32.1743 20.9092 33.1184L20.9092 33.1201L20.9741 52.2705L20.9741 52.2718C20.98 53.2183 21.2338 54.1467 21.7102 54.9646C22.1868 55.7826 22.8693 56.4614 23.6899 56.9335L40.3033 66.4468C41.1235 66.9188 42.0537 67.1659 43 67.1632C43.9462 67.1606 44.8751 66.9082 45.6926 66.4316L62.2492 56.8014L62.252 56.7998C63.0646 56.3197 63.7381 55.636 64.2058 54.8161C64.6737 53.9958 64.9195 53.0675 64.9188 52.1231V52.1215L64.8536 32.9713L64.8536 32.9697C64.8466 32.026 64.5932 31.1005 64.1187 30.2847C63.6443 29.469 62.9652 28.7914 62.1487 28.3187L62.1469 28.3176L45.5318 18.8036ZM62.6475 27.452C63.6157 28.012 64.4208 28.8151 64.9831 29.7819C65.5455 30.7487 65.8456 31.8456 65.8536 32.9641L65.9188 52.1204C65.92 53.2395 65.6289 54.3395 65.0744 55.3116C64.5199 56.2837 63.7212 57.0941 62.7573 57.6627L46.1962 67.2955C45.2267 67.8607 44.1251 68.1601 43.0028 68.1632C41.8805 68.1664 40.7773 67.8733 39.8045 67.3136L23.1921 57.8008C22.2196 57.2415 21.4108 56.4372 20.8462 55.4679C20.2815 54.4986 19.9809 53.3983 19.9741 52.2765L19.9092 33.1199C19.9094 32.0004 20.203 30.9006 20.7606 29.9299C21.3181 28.9592 22.1203 28.1515 23.0871 27.5872L39.6433 17.9572C40.612 17.3921 41.7126 17.0926 42.834 17.089C43.9554 17.0853 45.058 17.3777 46.0302 17.9366L62.6475 27.452Z" fill="url(#paint0_linear)"/>
<path d="M55.1104 33.2481L44.84 27.3671C44.2391 27.0217 43.5576 26.841 42.8645 26.8432C42.1715 26.8455 41.4912 27.0305 40.8925 27.3798L30.6602 33.3317C30.0624 33.6804 29.5666 34.1798 29.2219 34.7799C28.8773 35.38 28.696 36.06 28.696 36.752L28.7362 48.5917C28.74 49.2852 28.9256 49.9655 29.2745 50.5649C29.6234 51.1642 30.1234 51.6615 30.7245 52.0073L40.9919 57.8869C41.5931 58.2328 42.275 58.414 42.9687 58.412C43.6623 58.41 44.3431 58.225 44.9424 57.8756L55.1778 51.9221C55.7738 51.5706 56.2677 51.0695 56.6105 50.4684C56.9532 49.8673 57.1331 49.1871 57.1321 48.4952L57.092 36.6555C57.0871 35.9641 56.9017 35.2861 56.5542 34.6884C56.2066 34.0907 55.7089 33.5942 55.1104 33.2481Z" fill="#2BC58E" fill-opacity="0.2"/>
<path d="M113.847 27.2782L97.2299 17.7631C96.2577 17.2042 95.1552 16.9117 94.0338 16.9153C92.9123 16.9189 91.8117 17.2183 90.8431 17.7834L74.2868 27.4137C73.3198 27.9781 72.5176 28.7861 71.96 29.757C71.4025 30.728 71.1091 31.8281 71.1091 32.9478L71.174 52.1042C71.1807 53.2259 71.4814 54.3264 72.046 55.2957C72.6107 56.2651 73.4196 57.0694 74.3921 57.6286L91.0048 67.1415C91.9776 67.7012 93.0808 67.9943 94.2031 67.9911C95.3254 67.988 96.4269 67.6886 97.3965 67.1234L113.957 57.4906C114.921 56.922 115.72 56.1115 116.274 55.1395C116.829 54.1674 117.12 53.0674 117.119 51.9483L117.054 32.792C117.046 31.6732 116.746 30.576 116.184 29.6089C115.621 28.6418 114.816 27.8383 113.847 27.2782Z" fill="#2BC58E" fill-opacity="0.2"/>
<path fill-rule="evenodd" clip-rule="evenodd" d="M96.7316 18.6301C95.9119 18.1589 94.9824 17.9123 94.0369 17.9153C93.0915 17.9183 92.1636 18.1708 91.347 18.6472L91.3459 18.6478L74.7909 28.2773C74.7907 28.2775 74.7911 28.2772 74.7909 28.2773C73.9751 28.7537 73.2976 29.4358 72.8272 30.255C72.357 31.074 72.1094 32.0018 72.1091 32.9462C72.1091 32.9467 72.1091 32.9472 72.1091 32.9478L72.174 52.0982C72.174 52.0986 72.174 52.099 72.174 52.0995C72.1799 53.046 72.4337 53.9745 72.9101 54.7924C73.3865 55.6103 74.069 56.289 74.8894 56.7611C74.8898 56.7613 74.8902 56.7615 74.8906 56.7617L91.5036 66.2747C92.3238 66.7467 93.254 66.9938 94.2003 66.9911C95.1465 66.9885 96.0753 66.7361 96.8928 66.2595L113.449 56.6293C113.45 56.6288 113.451 56.6283 113.452 56.6278C114.264 56.1477 114.938 55.464 115.406 54.644C115.874 53.8236 116.119 52.8954 116.119 51.951C116.119 51.9505 116.119 51.9499 116.119 51.9493L116.054 32.799C116.054 32.7984 116.054 32.7978 116.054 32.7973C116.047 31.8533 115.794 30.9276 115.319 30.1116C114.845 29.2957 114.165 28.6178 113.349 28.1449C113.348 28.1445 113.347 28.1442 113.347 28.1438L96.7316 18.6301ZM113.847 27.2782C114.816 27.8383 115.621 28.6418 116.184 29.6089C116.746 30.576 117.046 31.6732 117.054 32.792L117.119 51.9483C117.12 53.0674 116.829 54.1674 116.274 55.1395C115.72 56.1115 114.921 56.922 113.957 57.4906L97.3965 67.1234C96.4269 67.6886 95.3254 67.988 94.2031 67.9911C93.0808 67.9943 91.9776 67.7012 91.0048 67.1415L74.3921 57.6286C73.4196 57.0694 72.6107 56.2651 72.046 55.2957C71.4814 54.3264 71.1807 53.2259 71.174 52.1042L71.1091 32.9478C71.1091 31.8281 71.4025 30.728 71.96 29.757C72.5176 28.7861 73.3198 27.9781 74.2868 27.4137L90.8431 17.7834C91.8117 17.2183 92.9123 16.9189 94.0338 16.9153C95.1552 16.9117 96.2577 17.2042 97.2299 17.7631L113.847 27.2782Z" fill="url(#paint1_linear)"/>
<path d="M106.309 33.0742L96.0387 27.1934C95.4378 26.848 94.7564 26.6673 94.0633 26.6695C93.3702 26.6717 92.6899 26.8568 92.0913 27.2061L81.8586 33.158C81.261 33.5068 80.7652 34.0062 80.4206 34.6063C80.076 35.2064 79.8946 35.8864 79.8945 36.5784L79.9349 48.4178C79.9387 49.1112 80.1244 49.7916 80.4733 50.3909C80.8222 50.9902 81.3221 51.4876 81.9233 51.8333L92.1907 57.7127C92.7918 58.0587 93.4736 58.2399 94.1672 58.238C94.8609 58.236 95.5417 58.051 96.1409 57.7017L106.376 51.7481C106.972 51.3967 107.466 50.8958 107.809 50.295C108.151 49.6942 108.331 49.0143 108.331 48.3226L108.29 36.483C108.286 35.7914 108.101 35.113 107.753 34.5151C107.405 33.9172 106.908 33.4205 106.309 33.0742Z" fill="#2BC58E" fill-opacity="0.2"/>
<path d="M10.648 27.6284L-5.96952 18.1131C-6.94177 17.5542 -8.04428 17.2618 -9.1657 17.2654C-10.2871 17.269 -11.3878 17.5685 -12.3564 18.1337L-28.9127 27.7637C-29.8795 28.3279 -30.6816 29.1357 -31.2391 30.1064C-31.7966 31.0771 -32.0901 32.1769 -32.0903 33.2963L-32.0253 52.453C-32.0186 53.5747 -31.718 54.6751 -31.1534 55.6444C-30.5887 56.6137 -29.7798 57.418 -28.8074 57.9772L-12.1946 67.49C-11.2219 68.0498 -10.1187 68.3428 -8.99638 68.3397C-7.8741 68.3365 -6.77258 68.0372 -5.80302 67.472L10.7578 57.8394C11.7217 57.2708 12.5204 56.4603 13.0749 55.4882C13.6294 54.516 13.9205 53.416 13.9194 52.2969L13.8544 33.1405C13.8463 32.0221 13.5462 30.9251 12.9838 29.9584C12.4214 28.9916 11.6162 28.1884 10.648 27.6284Z" fill="#2BC58E" fill-opacity="0.2"/>
<path fill-rule="evenodd" clip-rule="evenodd" d="M-6.46788 18.98C-7.28755 18.5089 -8.21704 18.2624 -9.16248 18.2654C-10.1079 18.2685 -11.0358 18.521 -11.8524 18.9974L-11.8536 18.9981L-28.4086 28.6273C-28.4089 28.6275 -28.4083 28.6271 -28.4086 28.6273C-29.2241 29.1035 -29.9016 29.7855 -30.3719 30.6044C-30.8422 31.4232 -31.0898 32.3507 -31.0903 33.2948C-31.0903 33.2954 -31.0903 33.296 -31.0903 33.2966L-31.0254 52.447C-31.0254 52.4474 -31.0254 52.4478 -31.0254 52.4483C-31.0195 53.3948 -30.7657 54.3232 -30.2893 55.1411C-29.8126 55.9593 -29.1299 56.6382 -28.3091 57.1102C-28.309 57.1102 -28.3091 57.1102 -28.3091 57.1102L-11.6959 66.6233C-10.8757 67.0952 -9.94548 67.3424 -8.9992 67.3397C-8.05293 67.337 -7.12417 67.0846 -6.30666 66.608L10.2497 56.9782C10.2505 56.9777 10.2513 56.9772 10.2522 56.9767C11.065 56.4966 11.7385 55.8128 12.2062 54.9927C12.6745 54.1718 12.9203 53.243 12.9194 52.2981C12.9194 52.298 12.9194 52.2981 12.9194 52.2981L12.8545 33.1478C12.8545 33.1473 12.8545 33.1468 12.8545 33.1463C12.8473 32.2026 12.5939 31.277 12.1194 30.4612C11.6449 29.6455 10.9657 28.9678 10.1491 28.4951C10.1485 28.4948 10.1479 28.4944 10.1473 28.4941L-6.46788 18.98ZM13.8544 33.1405L13.9194 52.2969C13.9205 53.416 13.6294 54.516 13.0749 55.4882C12.5204 56.4603 11.7217 57.2708 10.7578 57.8394L-5.80302 67.472C-6.77258 68.0372 -7.8741 68.3365 -8.99638 68.3397C-10.1187 68.3428 -11.2219 68.0498 -12.1946 67.49L-28.8074 57.9772C-29.7798 57.418 -30.5887 56.6137 -31.1534 55.6444C-31.718 54.6751 -32.0186 53.5747 -32.0253 52.453L-32.0903 33.2963C-32.0901 32.1769 -31.7966 31.0771 -31.2391 30.1064C-30.6816 29.1357 -29.8795 28.3279 -28.9127 27.7637L-12.3564 18.1337C-11.3878 17.5685 -10.2871 17.269 -9.1657 17.2654C-8.04428 17.2618 -6.94177 17.5542 -5.96952 18.1131L10.648 27.6284C11.6162 28.1884 12.4214 28.9916 12.9838 29.9584C13.5462 30.9251 13.8463 32.0221 13.8544 33.1405Z" fill="url(#paint2_linear)"/>
<path d="M3.11061 33.4245L-7.15959 27.5438C-7.76044 27.1983 -8.44182 27.0175 -9.13493 27.0197C-9.82804 27.0219 -10.5083 27.2069 -11.107 27.5562L-21.3396 33.5081C-21.9373 33.857 -22.4331 34.3563 -22.7777 34.9564C-23.1224 35.5565 -23.3037 36.2365 -23.3037 36.9285L-23.2634 48.7682C-23.2596 49.4616 -23.0739 50.142 -22.725 50.7413C-22.3761 51.3406 -21.8761 51.838 -21.275 52.1837L-11.0077 58.0633C-10.4065 58.4092 -9.7246 58.5904 -9.031 58.5884C-8.3374 58.5864 -7.65659 58.4014 -7.05739 58.052L3.17808 52.0985C3.77383 51.7471 4.26747 51.2463 4.61023 50.6455C4.95298 50.0448 5.13292 49.365 5.13227 48.6733L5.09223 36.8336C5.08761 36.142 4.90234 35.4636 4.55475 34.8656C4.20716 34.2676 3.70933 33.7708 3.11061 33.4245Z" fill="#2BC58E" fill-opacity="0.2"/>
<path d="M88.1281 -18.148L71.5109 -27.664C70.5387 -28.2229 69.4362 -28.5154 68.3147 -28.5117C67.1933 -28.5081 66.0926 -28.2086 65.1241 -27.6434L48.5677 -18.0134C47.6009 -17.4491 46.7988 -16.6414 46.2412 -15.6707C45.6836 -14.7 45.3902 -13.6001 45.3899 -12.4807L45.4551 6.67567C45.4617 7.79746 45.7624 8.89791 46.327 9.86726C46.8917 10.8366 47.7005 11.641 48.6731 12.2002L65.2858 21.713C66.2585 22.2728 67.3618 22.5659 68.4841 22.5627C69.6063 22.5595 70.7079 22.2602 71.6775 21.6949L88.2383 12.0621C89.2021 11.4935 90.0008 10.683 90.5553 9.71099C91.1098 8.73893 91.4009 7.63894 91.3998 6.51985L91.3349 -12.6365C91.3265 -13.7549 91.0263 -14.8517 90.4638 -15.8184C89.9014 -16.785 89.0963 -17.5881 88.1281 -18.148Z" fill="#2BC58E" fill-opacity="0.2"/>
<path fill-rule="evenodd" clip-rule="evenodd" d="M71.0125 -26.797C70.1929 -27.2683 69.2634 -27.5148 68.318 -27.5118C67.3725 -27.5087 66.4446 -27.2562 65.6281 -26.7797L65.6268 -26.7789L49.0718 -17.1497C49.0715 -17.1495 49.0721 -17.1499 49.0718 -17.1497C48.2562 -16.6735 47.5787 -15.9916 47.1083 -15.1726C46.6381 -14.3539 46.3904 -13.4264 46.3899 -12.4822C46.3899 -12.4816 46.3899 -12.481 46.3899 -12.4805L46.4551 6.66974C46.4551 6.67015 46.4551 6.67056 46.4551 6.67096C46.4609 7.6175 46.7147 8.546 47.1911 9.36393C47.6677 10.1822 48.3505 10.8611 49.1713 11.3331C49.1714 11.3332 49.1713 11.3331 49.1713 11.3331L65.7846 20.8463C66.6047 21.3182 67.535 21.5654 68.4812 21.5627C69.4275 21.56 70.3563 21.3076 71.1738 20.831L71.1747 20.8305L87.7301 11.2009C87.7309 11.2004 87.7316 11.2 87.7323 11.1996C88.5452 10.7195 89.2189 10.0356 89.6867 9.2155C90.1546 8.39516 90.4004 7.46693 90.3998 6.52253C90.3998 6.52197 90.3998 6.5214 90.3998 6.52084L90.3349 -12.6291C90.3349 -12.6298 90.3349 -12.6305 90.3349 -12.6312C90.3275 -13.5747 90.074 -14.4999 89.5995 -15.3155C89.125 -16.131 88.446 -16.8086 87.6294 -17.2812C87.6288 -17.2816 87.6281 -17.282 87.6275 -17.2824L71.0125 -26.797ZM88.1281 -18.148C89.0963 -17.5881 89.9014 -16.785 90.4638 -15.8184C91.0263 -14.8517 91.3265 -13.7549 91.3349 -12.6365L91.3998 6.51985C91.4009 7.63894 91.1098 8.73893 90.5553 9.71099C90.0008 10.683 89.2021 11.4935 88.2383 12.0621L71.6775 21.6949C70.7079 22.2602 69.6063 22.5595 68.4841 22.5627C67.3618 22.5659 66.2585 22.2728 65.2858 21.713L48.6731 12.2002C47.7005 11.641 46.8917 10.8366 46.327 9.86726C45.7624 8.89791 45.4617 7.79746 45.4551 6.67567L45.3899 -12.4807C45.3902 -13.6001 45.6836 -14.7 46.2412 -15.6707C46.7988 -16.6414 47.6009 -17.4491 48.5677 -18.0134L65.1241 -27.6434C66.0926 -28.2086 67.1933 -28.5081 68.3147 -28.5117C69.4362 -28.5154 70.5387 -28.2229 71.5109 -27.664L88.1281 -18.148Z" fill="url(#paint3_linear)"/>
<path d="M80.5909 -12.3517L70.3204 -18.2327C69.7195 -18.5781 69.0382 -18.7589 68.3451 -18.7566C67.652 -18.7544 66.9719 -18.5693 66.3733 -18.22L56.1406 -12.2681C55.5429 -11.9194 55.047 -11.4201 54.7023 -10.8199C54.3577 -10.2198 54.1764 -9.5398 54.1765 -8.84776L54.2166 2.9919C54.2204 3.68537 54.4061 4.3657 54.755 4.96502C55.1039 5.56434 55.6039 6.0617 56.205 6.40749L66.4726 12.2868C67.0738 12.6329 67.7556 12.8141 68.4492 12.8122C69.1429 12.8102 69.8237 12.6252 70.4228 12.2758L80.6583 6.32224C81.2541 5.97084 81.7478 5.46996 82.0905 4.86916C82.4333 4.26836 82.6133 3.58847 82.6126 2.89677L82.5725 -8.94261C82.5679 -9.63426 82.3826 -10.3127 82.035 -10.9107C81.6874 -11.5087 81.1896 -12.0054 80.5909 -12.3517Z" fill="#2BC58E" fill-opacity="0.2"/>
<path d="M75.9327 -8.76958L69.5845 -12.4042C69.2132 -12.6177 68.7921 -12.7294 68.3637 -12.728C67.9354 -12.7266 67.515 -12.6122 67.145 -12.3963L60.822 -8.71793C60.4526 -8.50233 60.1461 -8.19369 59.9332 -7.82278C59.7202 -7.45187 59.6081 -7.03163 59.6082 -6.60393L59.633 0.713611C59.6355 1.14207 59.7504 1.56237 59.966 1.9326C60.1817 2.30284 60.4906 2.61006 60.862 2.82365L67.2077 6.45744C67.5793 6.67127 68.0007 6.78325 68.4295 6.78206C68.8582 6.78087 69.279 6.66655 69.6494 6.45066L75.9753 2.77115C76.3435 2.55392 76.6486 2.24433 76.8604 1.87302C77.0723 1.50171 77.1835 1.08154 77.1832 0.65405L77.1584 -6.6635C77.1552 -7.0909 77.0405 -7.51006 76.8255 -7.87947C76.6105 -8.24888 76.3027 -8.55572 75.9327 -8.76958Z" fill="#FFDD0F"/>
<path d="M36.0308 -17.9717L19.4132 -27.4868C18.4411 -28.0457 17.3386 -28.3382 16.2172 -28.3346C15.0958 -28.3309 13.9952 -28.0314 13.0266 -27.4662L-3.5296 -17.8362C-4.49643 -17.2719 -5.29857 -16.4642 -5.85613 -15.4935C-6.4137 -14.5228 -6.70725 -13.4229 -6.70752 -12.3035L-6.6426 6.85287C-6.63592 7.97465 -6.33525 9.07509 -5.77061 10.0444C-5.20597 11.0138 -4.39706 11.8182 -3.42457 12.3774L13.1881 21.8902C14.1608 22.4499 15.2641 22.743 16.3864 22.7399C17.5086 22.7367 18.6102 22.4374 19.5798 21.8721L36.1406 12.2393C37.1045 11.6708 37.9032 10.8603 38.4577 9.88826C39.0122 8.91618 39.3033 7.81616 39.3021 6.69705L39.2372 -12.4593C39.2291 -13.5778 38.9291 -14.6748 38.3667 -15.6417C37.8043 -16.6085 36.9991 -17.4117 36.0308 -17.9717Z" fill="#2BC58E" fill-opacity="0.2"/>
<path fill-rule="evenodd" clip-rule="evenodd" d="M18.9148 -26.6198C18.0952 -27.0911 17.1658 -27.3376 16.2204 -27.3346C15.275 -27.3315 14.3472 -27.079 13.5307 -26.6025L13.5294 -26.6017L-3.02554 -16.9725C-3.02583 -16.9723 -3.02526 -16.9727 -3.02554 -16.9725C-3.84111 -16.4963 -4.51861 -15.8144 -4.989 -14.9954C-5.45927 -14.1767 -5.70699 -13.2491 -5.70752 -12.305C-5.70752 -12.3044 -5.70752 -12.3038 -5.70752 -12.3033L-5.64262 6.84692C-5.64262 6.84733 -5.64261 6.84775 -5.64261 6.84817C-5.63676 7.79468 -5.38296 8.72317 -4.90651 9.54111C-4.43017 10.3589 -3.74787 11.0376 -2.92761 11.5096C-2.9271 11.5099 -2.92659 11.5102 -2.92608 11.5105L13.6869 21.0235C14.507 21.4954 15.4373 21.7425 16.3835 21.7399C17.3298 21.7372 18.2586 21.4848 19.0762 21.0082L35.6325 11.378C35.6334 11.3775 35.6344 11.3769 35.6353 11.3764C36.448 10.8963 37.1214 10.2126 37.5891 9.39277C38.0573 8.57199 38.3031 7.64317 38.3021 6.69822C38.3021 6.69818 38.3021 6.69825 38.3021 6.69822L38.2372 -12.4521C38.2372 -12.453 38.2372 -12.4538 38.2372 -12.4546C38.23 -13.3981 37.9767 -14.3233 37.5023 -15.1389C37.0278 -15.9546 36.3487 -16.6322 35.532 -17.1049C35.5314 -17.1053 35.5308 -17.1057 35.5302 -17.106L18.9148 -26.6198ZM36.0308 -17.9717C36.9991 -17.4117 37.8043 -16.6085 38.3667 -15.6417C38.9291 -14.6748 39.2291 -13.5778 39.2372 -12.4593L39.3021 6.69705C39.3033 7.81616 39.0122 8.91618 38.4577 9.88826C37.9032 10.8603 37.1045 11.6708 36.1406 12.2393L19.5798 21.8721C18.6102 22.4374 17.5086 22.7367 16.3864 22.7399C15.2641 22.743 14.1608 22.4499 13.1881 21.8902L-3.42457 12.3774C-4.39706 11.8182 -5.20597 11.0138 -5.77061 10.0444C-6.33525 9.07509 -6.63592 7.97465 -6.6426 6.85287L-6.70752 -12.3035C-6.70725 -13.4229 -6.4137 -14.5228 -5.85613 -15.4935C-5.29857 -16.4642 -4.49643 -17.2719 -3.5296 -17.8362L13.0266 -27.4662C13.9952 -28.0314 15.0958 -28.3309 16.2172 -28.3346C17.3386 -28.3382 18.4411 -28.0457 19.4132 -27.4868L36.0308 -17.9717Z" fill="url(#paint4_linear)"/>
<path d="M88.1281 73.0521L71.5109 63.537C70.5387 62.978 69.4362 62.6856 68.3147 62.6892C67.1933 62.6928 66.0926 62.9924 65.1241 63.5576L48.5677 73.1875C47.6007 73.7519 46.7984 74.5599 46.2409 75.5308C45.6833 76.5018 45.3899 77.602 45.3899 78.7217L45.4551 97.878C45.4617 98.9998 45.7624 100.1 46.327 101.07C46.8917 102.039 47.7005 102.843 48.6731 103.402L65.2858 112.915C66.2585 113.475 67.3618 113.768 68.4841 113.765C69.6063 113.762 70.7079 113.462 71.6775 112.897L88.2383 103.264C89.2021 102.696 90.0009 101.885 90.5554 100.913C91.1099 99.9413 91.4009 98.8413 91.3998 97.7222L91.3349 78.5658C91.3269 77.4471 91.0268 76.3498 90.4644 75.3827C89.9019 74.4156 89.0966 73.6122 88.1281 73.0521Z" fill="#2BC58E" fill-opacity="0.2"/>
<path fill-rule="evenodd" clip-rule="evenodd" d="M71.6775 112.897L88.2383 103.264C89.2021 102.696 90.0009 101.885 90.5554 100.913C91.1099 99.9413 91.4009 98.8413 91.3998 97.7222L91.3349 78.5658C91.3269 77.4471 91.0268 76.3498 90.4644 75.3827C89.9019 74.4156 89.0966 73.6122 88.1281 73.0521L71.5109 63.537C70.5387 62.978 69.4362 62.6856 68.3147 62.6892C67.1933 62.6928 66.0926 62.9924 65.1241 63.5576L48.5677 73.1875C47.6007 73.7519 46.7984 74.5599 46.2409 75.5308C45.6833 76.5018 45.3899 77.602 45.3899 78.7217L45.4551 97.878C45.4617 98.9998 45.7624 100.1 46.327 101.07C46.8917 102.039 47.7005 102.843 48.6731 103.402L65.2858 112.915C66.2585 113.475 67.3618 113.768 68.4841 113.765C69.6063 113.762 70.7079 113.462 71.6775 112.897ZM49.1715 102.536C49.1716 102.536 49.1715 102.536 49.1715 102.536L65.7845 112.049C66.6047 112.521 67.535 112.768 68.4812 112.765C69.4275 112.762 70.3563 112.51 71.1738 112.033L87.7302 102.403C87.731 102.403 87.7317 102.402 87.7325 102.402C88.5454 101.922 89.219 101.238 89.6867 100.418C90.1547 99.5975 90.4005 98.6693 90.3998 97.7249C90.3998 97.7243 90.3998 97.7238 90.3998 97.7232L90.3349 78.5729C90.3349 78.5724 90.3349 78.5718 90.3349 78.5712C90.3279 77.6273 90.0746 76.7015 89.6 75.8854C89.1255 75.0696 88.4463 74.3917 87.6295 73.9189C87.6288 73.9185 87.6282 73.9181 87.6275 73.9177L71.0125 64.4039C70.1929 63.9327 69.2634 63.6861 68.318 63.6892C67.3725 63.6922 66.4446 63.9448 65.6281 64.4213L65.6268 64.422L49.0718 74.0512C49.0715 74.0514 49.0721 74.0511 49.0718 74.0512C48.256 74.5275 47.5785 75.2096 47.1081 76.0288C46.6378 76.8478 46.3902 77.7756 46.3899 78.72C46.3899 78.7206 46.3899 78.7211 46.3899 78.7217L46.4551 97.8721C46.4551 97.8725 46.4551 97.8729 46.4551 97.8733C46.4609 98.8198 46.7147 99.7483 47.1911 100.566C47.6677 101.384 48.3506 102.064 49.1715 102.536Z" fill="url(#paint5_linear)"/>
<path d="M80.5909 78.7296L70.3204 72.85C69.7195 72.5046 69.0382 72.3239 68.3451 72.3261C67.652 72.3284 66.9719 72.5135 66.3733 72.8627L56.1406 78.8146C55.5429 79.1634 55.047 79.6627 54.7023 80.2628C54.3577 80.863 54.1764 81.543 54.1765 82.235L54.2166 94.0747C54.2207 94.7679 54.4065 95.4479 54.7553 96.047C55.1042 96.646 55.6041 97.1432 56.205 97.4888L66.4726 103.368C67.0738 103.714 67.7556 103.895 68.4492 103.894C69.1429 103.892 69.8237 103.707 70.4228 103.357L80.6583 97.4036C81.2541 97.0522 81.7478 96.5513 82.0905 95.9505C82.4333 95.3497 82.6133 94.6698 82.6126 93.9781L82.5725 82.1388C82.5679 81.4471 82.3826 80.7686 82.035 80.1707C81.6874 79.5727 81.1896 79.0759 80.5909 78.7296Z" fill="#2BC58E" fill-opacity="0.2"/>
<path d="M75.9327 82.4306L69.5845 78.796C69.2132 78.5825 68.7921 78.4708 68.3637 78.4722C67.9354 78.4736 67.515 78.588 67.145 78.8039L60.822 82.4823C60.4526 82.6979 60.1462 83.0065 59.9332 83.3774C59.7203 83.7483 59.6082 84.1686 59.6082 84.5963L59.633 91.9138C59.6355 92.3423 59.7504 92.7625 59.966 93.1328C60.1817 93.503 60.4906 93.8102 60.862 94.0238L67.2077 97.6576C67.5793 97.8714 68.0007 97.9834 68.4295 97.9822C68.8582 97.9811 69.279 97.8667 69.6494 97.6508L75.9753 93.9713C76.3435 93.7541 76.6486 93.4445 76.8604 93.0732C77.0723 92.7019 77.1835 92.2817 77.1832 91.8542L77.1584 84.5367C77.1552 84.1093 77.0405 83.6901 76.8255 83.3207C76.6105 82.9513 76.3027 82.6445 75.9327 82.4306Z" fill="#FFDD0F"/>
<path d="M36.1287 73.2285L19.5111 63.7134C18.539 63.1545 17.4365 62.862 16.3151 62.8656C15.1937 62.8693 14.0931 63.1688 13.1245 63.734L-3.4317 73.364C-4.39874 73.9284 -5.201 74.7363 -5.75858 75.7073C-6.31615 76.6783 -6.6096 77.7784 -6.60962 78.8981L-6.5447 98.0545C-6.53802 99.1763 -6.23734 100.277 -5.67271 101.246C-5.10807 102.215 -4.29916 103.02 -3.32667 103.579L13.286 113.092C14.2588 113.652 15.362 113.945 16.4843 113.941C17.6066 113.938 18.7081 113.639 19.6777 113.074L36.2385 103.441C37.2024 102.872 38.0012 102.062 38.5557 101.09C39.1102 100.118 39.4012 99.0178 39.4 97.8986L39.3351 78.7423C39.3273 77.6235 39.0274 76.5262 38.465 75.5591C37.9025 74.592 37.0972 73.7886 36.1287 73.2285Z" fill="#2BC58E" fill-opacity="0.2"/>
<path fill-rule="evenodd" clip-rule="evenodd" d="M19.0127 64.5803C18.1931 64.1091 17.2637 63.8626 16.3183 63.8656C15.3729 63.8687 14.4451 64.1212 13.6286 64.5977L13.6273 64.5984L-2.92764 74.2277C-2.92788 74.2278 -2.9274 74.2275 -2.92764 74.2277C-3.74344 74.704 -4.42096 75.3861 -4.89139 76.2053C-5.36168 77.0243 -5.60932 77.9521 -5.60962 78.8965C-5.60962 78.897 -5.60962 78.8976 -5.60962 78.8981L-5.54472 98.0485C-5.54472 98.0489 -5.54471 98.0494 -5.54471 98.0498C-5.53886 98.9963 -5.28506 99.9248 -4.80861 100.743C-4.33197 101.561 -3.64912 102.24 -2.82818 102.712L13.7848 112.225C14.605 112.697 15.5352 112.944 16.4814 112.941C17.4277 112.939 18.3566 112.686 19.1741 112.21L35.7304 102.58C35.7315 102.579 35.7325 102.578 35.7335 102.578C36.5461 102.098 37.2195 101.414 37.6871 100.594C38.155 99.7741 38.4008 98.8458 38.4 97.9014C38.4 97.9008 38.4 97.9003 38.4 97.8997L38.3351 78.7493C38.3351 78.7486 38.3351 78.748 38.3351 78.7474C38.3282 77.8035 38.075 76.8778 37.6005 76.0618C37.126 75.2459 36.4468 74.568 35.6299 74.0952C35.6293 74.0949 35.6287 74.0945 35.6281 74.0942L19.0127 64.5803ZM36.1287 73.2285C37.0972 73.7886 37.9025 74.592 38.465 75.5591C39.0274 76.5262 39.3273 77.6235 39.3351 78.7423L39.4 97.8986C39.4012 99.0178 39.1102 100.118 38.5557 101.09C38.0012 102.062 37.2024 102.872 36.2385 103.441L19.6777 113.074C18.7081 113.639 17.6066 113.938 16.4843 113.941C15.362 113.945 14.2588 113.652 13.286 113.092L-3.32667 103.579C-4.29916 103.02 -5.10807 102.215 -5.67271 101.246C-6.23734 100.277 -6.53802 99.1763 -6.5447 98.0545L-6.60962 78.8981C-6.6096 77.7784 -6.31615 76.6783 -5.75858 75.7073C-5.201 74.7363 -4.39874 73.9284 -3.4317 73.364L13.1245 63.734C14.0931 63.1688 15.1937 62.8693 16.3151 62.8656C17.4365 62.862 18.539 63.1545 19.5111 63.7134L36.1287 73.2285Z" fill="url(#paint6_linear)"/>
<path d="M2.99113 -1.77552L-7.28045 -7.65625C-7.88134 -8.00167 -8.56275 -8.18239 -9.25585 -8.18016C-9.94895 -8.17793 -10.6292 -7.99283 -11.2278 -7.64355L-21.4605 -1.69167C-22.0582 -1.34291 -22.5541 -0.843581 -22.8987 -0.243446C-23.2434 0.356689 -23.4246 1.03666 -23.4246 1.72871L-23.3842 13.5684C-23.3805 14.2619 -23.1949 14.9423 -22.846 15.5416C-22.4971 16.1409 -21.997 16.6383 -21.3958 16.984L-11.1285 22.8633C-10.5274 23.2093 -9.84548 23.3906 -9.15186 23.3886C-8.45824 23.3867 -7.77743 23.2017 -7.17824 22.8523L3.05723 16.8987C3.65301 16.5473 4.14668 16.0464 4.48944 15.4456C4.83219 14.8448 5.01211 14.1649 5.01141 13.4732L4.97137 1.63386C4.96695 0.942306 4.78191 0.263913 4.43458 -0.334105C4.08725 -0.932123 3.58963 -1.42901 2.99113 -1.77552Z" fill="#FFDD0F"/>
<path d="M28.4575 -12.3517L18.1871 -18.2327C17.5862 -18.5781 16.9048 -18.7589 16.2118 -18.7566C15.5187 -18.7544 14.8386 -18.5693 14.24 -18.22L4.00732 -12.2681C3.40958 -11.9194 2.91366 -11.4201 2.56904 -10.8199C2.22442 -10.2198 2.04314 -9.5398 2.04321 -8.84776L2.08325 2.9919C2.08714 3.68537 2.2728 4.3657 2.62169 4.96502C2.97059 5.56434 3.47057 6.0617 4.07169 6.40749L14.3393 12.2868C14.9405 12.6329 15.6223 12.8141 16.3159 12.8122C17.0095 12.8102 17.6903 12.6252 18.2895 12.2758L28.525 6.32224C29.1208 5.97084 29.6145 5.46996 29.9572 4.86916C30.3 4.26836 30.48 3.58847 30.4793 2.89677L30.4391 -8.94261C30.4346 -9.63426 30.2493 -10.3127 29.9017 -10.9107C29.5541 -11.5087 29.0563 -12.0054 28.4575 -12.3517Z" fill="#2BC58E" fill-opacity="0.2"/>
<path d="M28.4575 78.6122L18.1871 72.7311C17.5862 72.3857 16.9048 72.205 16.2118 72.2072C15.5187 72.2095 14.8386 72.3946 14.24 72.7438L4.00732 78.6957C3.40958 79.0445 2.91366 79.5438 2.56904 80.1439C2.22442 80.7441 2.04314 81.4241 2.04321 82.1161L2.08325 93.9558C2.08714 94.6492 2.2728 95.3296 2.62169 95.9289C2.97059 96.5282 3.47057 97.0256 4.07169 97.3713L14.3393 103.251C14.9405 103.597 15.6223 103.778 16.3159 103.776C17.0095 103.774 17.6903 103.589 18.2895 103.24L28.525 97.2861C29.1208 96.9347 29.6145 96.4338 29.9572 95.833C30.3 95.2322 30.48 94.5523 30.4793 93.8606L30.4391 82.0213C30.4346 81.3296 30.2493 80.6512 29.9017 80.0532C29.5541 79.4552 29.0563 78.9584 28.4575 78.6122Z" fill="#2BC58E" fill-opacity="0.2"/>
</g>
<defs>
<linearGradient id="paint0_linear" x1="42.914" y1="25.2144" x2="42.914" y2="89.0573" gradientUnits="userSpaceOnUse">
<stop stop-color="#2BC58E" stop-opacity="0.8"/>
<stop offset="1" stop-color="#2BC58E" stop-opacity="0"/>
</linearGradient>
<linearGradient id="paint1_linear" x1="94.114" y1="25.041" x2="94.114" y2="88.8858" gradientUnits="userSpaceOnUse">
<stop stop-color="#2BC58E" stop-opacity="0.8"/>
<stop offset="1" stop-color="#2BC58E" stop-opacity="0"/>
</linearGradient>
<linearGradient id="paint2_linear" x1="-9.08548" y1="25.3908" x2="-9.08548" y2="89.2337" gradientUnits="userSpaceOnUse">
<stop stop-color="#2BC58E" stop-opacity="0.8"/>
<stop offset="1" stop-color="#2BC58E" stop-opacity="0"/>
</linearGradient>
<linearGradient id="paint3_linear" x1="68.3948" y1="-20.3863" x2="68.3948" y2="43.4569" gradientUnits="userSpaceOnUse">
<stop stop-color="#2BC58E"/>
<stop offset="1" stop-color="#2BC58E" stop-opacity="0"/>
</linearGradient>
<linearGradient id="paint4_linear" x1="16.2973" y1="-20.2091" x2="16.2973" y2="43.634" gradientUnits="userSpaceOnUse">
<stop stop-color="#2BC58E"/>
<stop offset="1" stop-color="#2BC58E" stop-opacity="0"/>
</linearGradient>
<linearGradient id="paint5_linear" x1="68.3948" y1="70.8149" x2="68.3948" y2="134.66" gradientUnits="userSpaceOnUse">
<stop stop-color="#2BC58E" stop-opacity="0.8"/>
<stop offset="1" stop-color="#2BC58E" stop-opacity="0"/>
</linearGradient>
<linearGradient id="paint6_linear" x1="16.3952" y1="70.9913" x2="16.3952" y2="134.836" gradientUnits="userSpaceOnUse">
<stop stop-color="#2BC58E" stop-opacity="0.8"/>
<stop offset="1" stop-color="#2BC58E" stop-opacity="0"/>
</linearGradient>
<clipPath id="clip0">
<rect x="0.914062" y="0.626953" width="84" height="84" rx="42" fill="white"/>
</clipPath>
</defs>
</svg>
