<svg width="204" height="229" viewBox="0 0 204 229" fill="none" xmlns="http://www.w3.org/2000/svg">
<path d="M12.4565 173.406C16.7216 173.686 19.9698 177.334 19.768 181.588L11.9566 181.079C7.69149 180.799 4.44329 177.151 4.64503 172.897L12.4565 173.406C12.4565 173.406 12.4565 173.406 12.4565 173.406Z" fill="#418C7D" stroke="#418C7D" stroke-width="0.281327"/>
<path d="M21.7416 154.816C18.6284 156.171 17.1756 159.765 18.4539 162.893L24.1723 160.407C27.2856 159.052 28.7384 155.458 27.4602 152.33L21.7417 154.816C21.7417 154.816 21.7417 154.816 21.7416 154.816Z" fill="#418C7D" stroke="#418C7D" stroke-width="0.281327"/>
<path d="M34.5617 198.991C31.969 195.612 32.5551 190.763 35.8982 188.099L42.0286 183.223C44.6215 186.602 44.0404 191.45 40.6868 194.116L40.6867 194.116L34.5617 198.991Z" fill="#71EEB8" stroke="#71EEB8" stroke-width="0.281327"/>
<path fill-rule="evenodd" clip-rule="evenodd" d="M15.2871 143.559C15.2871 143.559 15.2871 143.558 16.5569 143.558C17.8268 143.558 17.8268 143.558 17.8268 143.558L17.8268 143.567L17.8268 143.597L17.8274 143.719C17.828 143.827 17.8293 143.989 17.8318 144.201C17.8368 144.626 17.8468 145.252 17.8669 146.053C17.9072 147.654 17.9878 149.954 18.1492 152.739C18.4721 158.313 19.1175 165.816 20.4058 173.553C21.6962 181.303 23.6216 189.226 26.4802 195.671C29.357 202.156 33.0669 206.892 37.777 208.676L36.8778 211.051C31.2026 208.902 27.1236 203.384 24.1587 196.701C21.1756 189.976 19.2066 181.814 17.9006 173.97C16.5926 166.115 15.9399 158.516 15.6137 152.886C15.4506 150.069 15.3689 147.742 15.328 146.117C15.3076 145.304 15.2974 144.667 15.2922 144.231C15.2897 144.014 15.2884 143.847 15.2877 143.733L15.2871 143.604L15.2871 143.571L15.2871 143.559Z" fill="#418C7D"/>
<path d="M27.7135 117.541L27.7132 117.541L27.7146 117.55C27.781 117.964 28.0255 120.646 28.2766 123.401L28.2937 123.588C28.5491 126.39 28.8074 129.215 28.8854 129.71C29.622 137.272 24.094 144.005 16.5318 144.744L16.5318 144.744L16.5317 144.744L16.5317 144.744L16.5317 144.744L16.5316 144.744L16.5316 144.744L16.5316 144.744L16.5315 144.744L16.5315 144.744L16.5315 144.744L16.5314 144.744L16.5314 144.744L16.5314 144.744L16.5314 144.744L16.5313 144.744L16.5313 144.744L16.5313 144.744L16.5312 144.744L16.5312 144.744L16.5312 144.744L16.5311 144.744L16.5311 144.744L16.5311 144.744L16.531 144.744L16.531 144.744L16.531 144.744L16.531 144.744L16.5309 144.744L16.5309 144.744L16.5309 144.744L16.5308 144.744L16.5308 144.744L16.5308 144.744L16.5308 144.744L16.5307 144.744L16.5307 144.744L16.5307 144.744L16.5306 144.744L16.5306 144.744L16.5306 144.744L16.5306 144.744L16.5305 144.744L16.5305 144.744L16.5305 144.744L16.5304 144.744L16.5304 144.744L16.5304 144.744L16.5304 144.744L16.5303 144.744L16.5303 144.744L16.5303 144.744L16.5303 144.744L16.5302 144.744L16.5302 144.744L16.5302 144.744L16.5302 144.744L16.5301 144.744L16.5301 144.744L16.5301 144.744L16.53 144.744L16.53 144.744L16.53 144.744L16.53 144.744L16.5299 144.744L16.5299 144.744L16.5299 144.744L16.5299 144.744L16.5298 144.744L16.5298 144.744L16.5298 144.744L16.5298 144.744L16.5297 144.744L16.5297 144.744L16.5297 144.744L16.5297 144.744L16.5296 144.744L16.5296 144.744L16.5296 144.744L16.5296 144.744L16.5296 144.744L16.5295 144.744L16.5295 144.744L16.5295 144.744L16.5295 144.744L16.5294 144.744L16.5294 144.744L16.5294 144.744L16.5294 144.744L16.5293 144.744L16.5293 144.744L16.5293 144.744L16.5293 144.744L16.5293 144.744L16.5292 144.744L16.5292 144.744L16.5292 144.744L16.5292 144.744L16.5291 144.744L16.5291 144.744L16.5291 144.744L16.5291 144.744L16.5291 144.744L16.529 144.744L16.529 144.744L16.529 144.744L16.529 144.744L16.5289 144.744L16.5289 144.744L16.5289 144.744L16.5289 144.744L16.5289 144.744L16.5288 144.744L16.5288 144.744L16.5288 144.744L16.5288 144.744L16.5288 144.744L16.5287 144.744L16.5287 144.744L16.5287 144.744L16.5287 144.744L16.5287 144.744L16.5286 144.744L16.5286 144.744L16.5286 144.744L16.5286 144.744L16.5286 144.744L16.5285 144.744L16.5285 144.744L16.5285 144.744L16.5285 144.744L16.5285 144.744L16.5284 144.744L16.5284 144.744L16.5284 144.744L16.5284 144.744L16.5284 144.744L16.5283 144.744L16.5283 144.744L16.5283 144.744L16.5283 144.744L16.5283 144.744L16.5283 144.744L16.5282 144.744L16.5282 144.744L16.5282 144.744L16.5282 144.744L16.5282 144.744L16.5281 144.744L16.5281 144.744L16.5281 144.744L16.5281 144.744L16.5281 144.744L16.5281 144.744L16.528 144.744L16.528 144.744L16.528 144.744L16.528 144.744L16.528 144.744L16.528 144.744L16.5279 144.744L16.5279 144.744L16.5279 144.744L16.5279 144.744L16.5279 144.744L16.5278 144.744L16.5278 144.744L16.5278 144.744L16.5278 144.744L16.5278 144.744L16.5278 144.744L16.5277 144.744L16.5277 144.744L16.5277 144.744L16.5277 144.744L16.5277 144.744L16.5277 144.744L16.5277 144.744L16.5276 144.744L16.5276 144.744L16.5276 144.744L16.5276 144.744L16.5276 144.744L16.5276 144.744L16.5275 144.744L16.5275 144.744L16.5275 144.744L16.5275 144.744L16.5275 144.744L16.5275 144.744L16.5274 144.744L16.5274 144.744L16.5274 144.744L16.5274 144.744L16.5274 144.744L16.5274 144.744L16.5274 144.744L16.5273 144.744L16.5273 144.744L16.5273 144.744L16.5273 144.744L16.5273 144.744L16.5273 144.744L16.5273 144.744L16.5272 144.744L16.5272 144.744L16.5272 144.744L16.5272 144.744L16.5272 144.744L16.5272 144.744L16.5272 144.744L16.5271 144.744L16.5271 144.744L16.5271 144.744L16.5271 144.744L16.5271 144.744L16.527 144.744L16.527 144.744L16.527 144.744L16.527 144.744L16.5269 144.744L16.5269 144.744L16.5269 144.744L16.5269 144.744L16.5268 144.744L16.5268 144.744L16.5268 144.744L16.5268 144.744L16.5267 144.744L16.5267 144.744L16.5267 144.744L16.5266 144.744L16.5266 144.744L16.5266 144.744L16.5266 144.744L16.5265 144.744L16.5265 144.744L16.5265 144.744L16.5265 144.744L16.5265 144.744L16.5264 144.744L16.5264 144.744L16.5264 144.744L16.5264 144.744L16.5263 144.744L16.5263 144.744L16.5263 144.744L16.5263 144.744L16.5262 144.744L16.5262 144.744L16.5262 144.744L16.5262 144.744L16.5261 144.744L16.5261 144.744L16.5261 144.744L16.5261 144.744L16.5261 144.744L16.526 144.744L16.526 144.744L16.526 144.744L16.526 144.744L16.5259 144.744L16.5259 144.744L16.5259 144.744L16.5259 144.744L16.5259 144.744L16.5258 144.744L16.5258 144.744L16.5258 144.744L16.5258 144.744L16.5257 144.744L16.5257 144.744L16.5257 144.744L16.5257 144.744L16.5257 144.744L16.5256 144.744L16.5256 144.744L16.5256 144.744L16.5256 144.744L16.5255 144.744L16.5255 144.744L16.5255 144.744L16.5255 144.744L16.5255 144.744L16.5254 144.744L16.5254 144.744L16.5254 144.744L16.5254 144.744L16.5254 144.744L16.5253 144.744L16.5253 144.744L16.5253 144.744L16.5253 144.744L16.5252 144.744L16.5252 144.744L16.5252 144.744L16.5252 144.744L16.5252 144.744L16.5251 144.744L16.5251 144.744L16.5251 144.744L16.5251 144.744L16.525 144.744L16.525 144.744L16.525 144.744L16.525 144.744L16.5249 144.744L16.5249 144.744L16.5249 144.744L16.5249 144.744L16.5249 144.744L16.5248 144.744L16.5248 144.744L16.5248 144.744L16.5248 144.744L16.5247 144.744L16.5247 144.744L16.5247 144.744L16.5247 144.744L16.5246 144.744L16.5246 144.744L16.5246 144.744L16.5246 144.744L16.5245 144.744L16.5245 144.744L16.5245 144.744L16.5245 144.744L16.5244 144.744L16.5244 144.744L16.5244 144.744L16.5244 144.744L16.5243 144.744L16.5243 144.744L16.5243 144.744L16.5243 144.744L16.5242 144.744L16.5242 144.744L16.5242 144.744L16.5242 144.744L16.5241 144.744L16.5241 144.744L16.5241 144.744L16.5241 144.744L16.5241 144.744L16.524 144.744L16.524 144.744L16.524 144.744L16.524 144.744L16.524 144.744L16.524 144.744L16.5239 144.744L16.5239 144.744L16.5239 144.744L16.5239 144.744L16.5239 144.744L16.5239 144.744L16.5238 144.744L16.5238 144.744L16.5238 144.744L16.5238 144.744L16.5238 144.744L16.5238 144.744L16.5238 144.744L16.5237 144.744L16.5237 144.744L16.5237 144.744L16.5237 144.744L16.5237 144.744L16.5237 144.744L16.5237 144.744L16.5236 144.744L16.5236 144.744L16.5236 144.744L16.5236 144.744L16.5236 144.744L16.5236 144.744L16.5235 144.744L16.5235 144.744L16.5235 144.744L16.5235 144.744L16.5235 144.744L16.5235 144.744L16.5234 144.744L16.5234 144.744L16.5234 144.744L16.5234 144.744L16.5234 144.744L16.5233 144.744L16.5233 144.744L16.5233 144.744L16.5232 144.744L16.5232 144.744L16.5232 144.744L16.5231 144.744L16.5231 144.744L16.5231 144.744L16.523 144.744L16.523 144.744L16.523 144.744L16.523 144.744L16.5229 144.744L16.5229 144.744L16.5229 144.744L16.5228 144.744L16.5228 144.744L16.5228 144.744L16.5227 144.744L16.5227 144.744L16.5227 144.744L16.5226 144.744L16.5226 144.744L16.5226 144.744L16.5226 144.744L16.5225 144.744L16.5225 144.744L16.5225 144.744L16.5224 144.744L16.5224 144.744L16.5224 144.744L16.5224 144.744L16.5223 144.744L16.5223 144.744L16.5223 144.744L16.5222 144.744L16.5222 144.744L16.5222 144.744L16.5222 144.744L16.5221 144.744L16.5221 144.744L16.5221 144.744L16.522 144.744L16.522 144.744L16.522 144.744L16.522 144.744L16.5219 144.745L16.5219 144.745L16.5219 144.745L16.5219 144.745L16.5218 144.745L16.5218 144.745L16.5218 144.745L16.5218 144.745L16.5217 144.745L16.5217 144.745L16.5217 144.745L16.5216 144.745L16.5216 144.745L16.5216 144.745L16.5216 144.745L16.5215 144.745L16.5215 144.745L16.5215 144.745L16.5215 144.745L16.5214 144.745L16.5214 144.745L16.5214 144.745L16.5214 144.745L16.5213 144.745L16.5213 144.745L16.5213 144.745L16.5213 144.745L16.5212 144.745L16.5212 144.745L16.5212 144.745L16.5212 144.745L16.5212 144.745L16.5211 144.745L16.5211 144.745L16.5211 144.745L16.5211 144.745L16.521 144.745L16.521 144.745L16.521 144.745L16.521 144.745L16.5209 144.745L16.5209 144.745L16.5209 144.745L16.5209 144.745L16.5209 144.745L16.5208 144.745L16.5208 144.745L16.5208 144.745L16.5208 144.745L16.5207 144.745L16.5207 144.745L16.5207 144.745L16.5207 144.745L16.5207 144.745L16.5206 144.745L16.5206 144.745L16.5206 144.745L16.5206 144.745L16.5205 144.745L16.5205 144.745L16.5205 144.745L16.5205 144.745L16.5205 144.745L16.5204 144.745L16.5204 144.745L16.5204 144.745L16.5204 144.745L16.5204 144.745L16.5203 144.745L16.5203 144.745L16.5203 144.745L16.5203 144.745L16.5203 144.745L16.5202 144.745L16.5202 144.745L16.5202 144.745L16.5202 144.745L16.5202 144.745L16.5201 144.745L16.5201 144.745L16.5201 144.745L16.5201 144.745L16.5201 144.745L16.52 144.745L16.52 144.745L16.52 144.745L16.52 144.745L16.52 144.745L16.5199 144.745L16.5199 144.745L16.5199 144.745L16.5199 144.745L16.5199 144.745L16.5199 144.745L16.5198 144.745L16.5198 144.745L16.5198 144.745L16.5198 144.745L16.5198 144.745L16.5197 144.745L16.5197 144.745L16.5197 144.745L16.5197 144.745L16.5197 144.745L16.5197 144.745L16.5196 144.745L16.5196 144.745L16.5196 144.745L16.5196 144.745L16.5196 144.745L16.5196 144.745L16.5195 144.745L16.5195 144.745L16.5195 144.745L16.5195 144.745L16.5195 144.745L16.5194 144.745L16.5194 144.745L16.5194 144.745L16.5194 144.745L16.5194 144.745L16.5194 144.745L16.5193 144.745L16.5193 144.745L16.5193 144.745L16.5193 144.745L16.5193 144.745L16.5193 144.745L16.5193 144.745L16.5192 144.745L16.5192 144.745L16.5192 144.745L16.5192 144.745L16.5192 144.745L16.5192 144.745L16.5191 144.745L16.5191 144.745L16.5191 144.745L16.5191 144.745L16.5191 144.745L16.5191 144.745L16.519 144.745L16.519 144.745L16.519 144.745L16.519 144.745L16.519 144.745L16.519 144.745L16.519 144.745L16.5189 144.745L16.5189 144.745L16.5189 144.745L16.5189 144.745L16.5189 144.745L16.5189 144.745L16.5189 144.745L16.5188 144.745L16.5188 144.745L16.5188 144.745L16.5188 144.745L16.5188 144.745L16.5188 144.745L16.5188 144.745L16.5187 144.745L16.5187 144.745L16.5187 144.745L16.5187 144.745L16.5187 144.745L16.5186 144.745L16.5186 144.745L16.5186 144.745L16.5186 144.745L16.5185 144.745L16.5185 144.745L16.5185 144.745L16.5185 144.745L16.5184 144.745L16.5184 144.745L16.5184 144.745L16.5184 144.745L16.5183 144.745L16.5183 144.745L16.5183 144.745L16.5183 144.745L16.5182 144.745L16.5182 144.745L16.5182 144.745L16.5182 144.745L16.5181 144.745L16.5181 144.745L16.5181 144.745L16.5181 144.745L16.518 144.745L16.518 144.745L16.518 144.745L16.518 144.745L16.5179 144.745L16.5179 144.745L16.5179 144.745L16.5179 144.745L16.5179 144.745L16.5178 144.745L16.5178 144.745L16.5178 144.745L16.5178 144.745L16.5177 144.745L16.5177 144.745L16.5177 144.745L16.5177 144.745L16.5176 144.745L16.5176 144.745L16.5176 144.745L16.5176 144.745L16.5176 144.745L16.5175 144.745L16.5175 144.745L16.5175 144.745L16.5175 144.745L16.5174 144.745L16.5174 144.745L16.5174 144.745L16.5174 144.745L16.5174 144.745L16.5173 144.745L16.5173 144.745L16.5173 144.745L16.5173 144.745L16.5172 144.745L16.5172 144.745L16.5172 144.745L16.5172 144.745L16.5172 144.745L16.5171 144.745L16.5171 144.745L16.5171 144.745L16.5171 144.745L16.517 144.745L16.517 144.745L16.517 144.745L16.517 144.745L16.517 144.745L16.5169 144.745L16.5169 144.745L16.5169 144.745L16.5169 144.745L16.5169 144.745L16.5168 144.745L16.5168 144.745L16.5168 144.745L16.5168 144.745L16.5167 144.745L16.5167 144.745L16.5167 144.745L16.5167 144.745L16.5166 144.745L16.5166 144.745L16.5166 144.745L16.5166 144.745L16.5166 144.745L16.5165 144.745L16.5165 144.745L16.5165 144.745L16.5165 144.745L16.5164 144.745L16.5164 144.745L16.5164 144.745L16.5164 144.745L16.5163 144.745L16.5163 144.745L16.5163 144.745L16.5163 144.745L16.5163 144.745L16.5162 144.745L16.5162 144.745L16.5162 144.745L16.5162 144.745L16.5161 144.745L16.5161 144.745L16.5161 144.745L16.5161 144.745L16.516 144.745L16.516 144.745L16.516 144.745L16.5159 144.745L16.5159 144.745L16.5159 144.745L16.5159 144.745L16.5158 144.745L16.5158 144.745L16.5158 144.745L16.5158 144.745L16.5157 144.745L16.5157 144.745L16.5157 144.745L16.5157 144.745L16.5156 144.745L16.5156 144.745L16.5156 144.745L16.5156 144.745L16.5156 144.745L16.5156 144.745L16.5156 144.745L16.5155 144.745L16.5155 144.745L16.5155 144.745L16.5155 144.745L16.5155 144.745L16.5155 144.745L16.5155 144.745L16.5154 144.745L16.5154 144.745L16.5154 144.745L16.5154 144.745L16.5154 144.745L16.5154 144.745L16.5153 144.745L16.5153 144.745L16.5153 144.745L16.5153 144.745L16.5153 144.745L16.5153 144.745L16.5153 144.745L16.5152 144.745L16.5152 144.745L16.5152 144.745L16.5152 144.745L16.5152 144.745L16.5152 144.745L16.5151 144.745L16.5151 144.745L16.5151 144.745L16.5151 144.745L16.5151 144.745L16.5151 144.745L16.5151 144.745L16.515 144.745L16.515 144.745L16.515 144.745C8.95414 145.484 2.22433 139.952 1.48482 132.383L1.48464 132.381C1.47724 132.314 1.46967 132.246 1.46211 132.178C1.41575 131.764 1.36922 131.348 1.35834 130.918L1.35871 130.918L1.35772 130.908L0.313295 120.218C0.231855 119.385 0.90101 118.669 1.741 118.69L1.74163 118.69C7.93341 118.815 13.4696 123.322 14.7985 129.422L14.7986 129.423C14.9179 129.957 15.0048 130.502 15.0621 131.06L15.342 131.032C15.2876 130.475 15.27 129.923 15.2837 129.376L15.2837 129.375C15.4068 123.133 19.9654 117.634 26.0162 116.318L26.017 116.318C26.8371 116.135 27.6321 116.708 27.7135 117.541Z" fill="#418C7D" stroke="#418C7D" stroke-width="0.281327"/>
<path d="M74.3324 18.1321L41.6843 18.1321C42.188 12.088 42.2462 -7.61957e-05 56.4497 -7.37123e-05C70.6533 -7.12289e-05 74.2065 12.088 74.3324 18.1321Z" fill="#021530"/>
<path d="M74.3324 18.1321L41.6843 18.1321C42.188 12.088 42.2462 -7.61957e-05 56.4497 -7.37123e-05C70.6533 -7.12289e-05 74.2065 12.088 74.3324 18.1321Z" fill="url(#paint0_linear)"/>
<path d="M158.99 210.412L200.921 21.913C202.684 14.6097 201.45 0.0032959 182.411 0.0032959H125.37C125.37 0.0032959 68.5781 0.00116746 56.7965 0.000396605C56.7592 0.000216339 56.7219 0.000124715 56.6843 0.00012207C53.787 0.00012207 54.1913 0.000226146 56.7965 0.000396605C70.1704 0.0650145 67.6819 11.5186 66.8186 18.1354C65.953 24.7708 24.888 203.234 24.888 203.234C22.7475 211.671 23.3015 228.544 42.6424 228.544H155.123L170.701 216.834L158.99 210.412Z" fill="url(#paint1_linear)"/>
<path d="M172.185 46.0891H145.185M168.812 58.555H141.685M166.545 71.0208H136.185M163.901 83.4867H74.6847M160.879 95.9525H71.1838M158.235 108.796H68.3295M155.591 121.64H65.6852M152.946 133.728H63.0409M149.547 146.571H59.6411M146.147 158.66H56.2414M143.125 171.881H53.2193M140.858 183.969H50.9528M138.545 196.766H71.3044M177.685 21.0342H142.858M174.685 33.5H145.185" stroke="white" stroke-opacity="0.67" stroke-width="2" stroke-linecap="round"/>
<ellipse cx="42.1846" cy="211.5" rx="18.5" ry="17.5" fill="url(#paint2_linear)"/>
<path d="M41.6846 228.51C41.8923 228.514 42.107 228.514 42.3279 228.51L153.877 228.51C173.823 228.51 178.809 216.17 178.809 210L60.1945 210C60.1945 224.602 48.6713 228.385 42.3279 228.51L41.6846 228.51Z" fill="#2C5079"/>
<circle cx="107.184" cy="44.5" r="26.5" fill="#E1E6EC"/>
<circle cx="107.184" cy="44.5" r="27.5" stroke="white" stroke-opacity="0.87" stroke-width="2"/>
<path d="M103.95 41.6536C103.48 41.4948 102.962 41.5431 102.521 41.7917L86.6965 50.9464C86.6896 50.9464 86.6896 50.9533 86.6758 50.9533C85.8749 51.4435 85.6194 52.3618 86.0406 53.2248C86.5653 54.2949 88.4225 55.3098 90.6594 55.7517C91.3498 55.8897 92.1852 55.9864 93.1311 55.9864C94.9123 55.9864 97.094 55.6343 99.5311 54.502C101.416 53.6252 103.204 51.7128 104.316 49.3792C105.489 46.9214 105.724 44.4497 104.951 42.5856C104.778 42.1507 104.405 41.8124 103.95 41.6536Z" fill="#7CE0D6"/>
<path d="M128.488 50.9678C128.481 50.9678 128.481 50.9609 128.467 50.9609L112.643 41.8061C112.215 41.5507 111.697 41.5023 111.214 41.668C110.758 41.8268 110.386 42.1651 110.206 42.607C109.433 44.4711 109.667 46.9496 110.841 49.4006C111.953 51.7341 113.741 53.6466 115.626 54.5234C118.049 55.6556 120.238 56.0077 122.026 56.0077C122.972 56.0077 123.807 55.9111 124.497 55.773C126.734 55.345 128.592 54.3301 129.116 53.2461C129.544 52.3693 129.289 51.4649 128.488 50.9678Z" fill="#7CE0D6"/>
<path d="M101.837 27.6602C101.361 27.6602 100.981 28.0468 100.981 28.5163C100.981 28.9857 101.368 29.3724 101.837 29.3724C103.667 29.3724 105.158 30.8636 105.158 32.6932C105.158 33.1627 105.545 33.5493 106.014 33.5493C106.242 33.5493 106.463 33.4596 106.622 33.2939C106.781 33.1282 106.87 32.9141 106.864 32.6794C106.864 29.9178 104.613 27.6602 101.837 27.6602Z" fill="#2C3437"/>
<path d="M113.346 27.673C110.57 27.673 108.306 29.9237 108.306 32.6991C108.306 33.1686 108.692 33.5552 109.162 33.5552C109.624 33.5552 110.011 33.1755 110.018 32.7129C110.018 30.8834 111.509 29.3921 113.339 29.3921C113.815 29.3921 114.195 29.0055 114.195 28.536C114.195 28.0665 113.815 27.673 113.346 27.673Z" fill="#2C3437"/>
<path d="M115.046 54.6554H114.97H113.458H101.721H100.209H99.9746H98.6973L106.133 58.9359C106.582 59.1983 107.093 59.3294 107.597 59.3294C108.108 59.3294 108.612 59.2052 109.06 58.9359L116.496 54.6554H115.046Z" fill="#2C3437"/>
<path d="M117.344 45.2048H116.591H98.5857H97.8263H97.0737V50.1136H97.8263H98.5857H116.591H117.344H118.103V45.2048H117.344Z" fill="#2C3437"/>
<path d="M116.64 40.7496L116.453 40.6392H114.941H114.569H113.423H101.748H100.733H100.236H98.7238L98.5374 40.7496C97.6399 41.2674 97.0737 42.2409 97.0737 43.2765V45.1958H97.8332H98.5926H116.598H117.358H118.117V43.2765C118.103 42.2409 117.537 41.2743 116.64 40.7496Z" fill="#FFDD0F"/>
<path d="M117.344 50.1038H116.584H98.5855H97.826H97.0666V52.037C97.0666 53.0726 97.6258 54.046 98.5302 54.5638L98.689 54.6536H99.9663H100.201H101.713H113.443H114.955H115.031H116.467L116.633 54.5569C117.53 54.0322 118.089 53.0657 118.089 52.0301V50.0969H117.344V50.1038Z" fill="#FFDD0F"/>
<path d="M109.045 36.379C108.133 35.8543 107.022 35.8543 106.124 36.379L98.7164 40.6526H100.228H100.725H101.74H113.422H114.554H114.934H116.446L109.045 36.379Z" fill="#2C3437"/>
<g clip-path="url(#clip0)">
<path d="M181.81 185.957L173.626 183.308L170.978 191.492C175.496 192.957 180.346 190.485 181.81 185.957Z" fill="#418C7D"/>
<path d="M173.679 183.298L168.579 176.37L161.641 181.47C164.466 185.302 169.846 186.112 173.679 183.298Z" fill="#418C7D"/>
<path d="M168.527 176.36L168.6 167.75L160 167.677C159.959 172.434 163.781 176.318 168.527 176.36Z" fill="#418C7D"/>
<path d="M168.611 167.729L173.711 160.791L166.762 155.692C163.948 159.524 164.779 164.914 168.611 167.729Z" fill="#418C7D"/>
<path d="M173.689 160.843L181.873 158.184L179.224 150C174.696 151.465 172.224 156.325 173.689 160.843Z" fill="#418C7D"/>
<path d="M181.905 158.143L190.047 160.926L192.831 152.784C188.323 151.246 183.442 153.646 181.905 158.143Z" fill="#418C7D"/>
<path d="M190.057 160.843L195.063 167.843L202.063 162.837C199.301 158.974 193.921 158.08 190.057 160.843Z" fill="#418C7D"/>
<path d="M195.011 167.822L194.99 176.432L203.6 176.453C203.611 171.696 199.768 167.833 195.011 167.822Z" fill="#418C7D"/>
<path d="M195.021 176.464L189.838 183.339L196.714 188.522C199.581 184.71 198.822 179.32 195.021 176.464Z" fill="#418C7D"/>
<path d="M189.933 183.401L181.707 185.946L184.251 194.172C188.79 192.759 191.335 187.94 189.933 183.401Z" fill="#418C7D"/>
<path d="M195.739 172.091H181.811V186.019H181.822C189.507 186.019 195.739 179.777 195.739 172.091Z" fill="#418C7D"/>
<path d="M167.894 172.091H181.821V186.019H181.811C174.125 186.019 167.894 179.777 167.894 172.091Z" fill="#418C7D"/>
<path d="M167.894 172.101H181.821V158.174H181.811C174.125 158.174 167.894 164.405 167.894 172.101Z" fill="#418C7D"/>
<path d="M195.739 172.101H181.811V158.174H181.822C189.507 158.174 195.739 164.405 195.739 172.101Z" fill="#418C7D"/>
<path d="M191.014 159.553L181.812 172.091" stroke="#041F46" stroke-width="0.538946" stroke-miterlimit="10"/>
<path d="M196.623 167.333L181.812 172.091" stroke="#041F46" stroke-width="0.538946" stroke-miterlimit="10"/>
<path d="M196.589 176.927L181.811 172.091" stroke="#041F46" stroke-width="0.538946" stroke-miterlimit="10"/>
<path d="M190.946 184.674L181.811 172.091" stroke="#041F46" stroke-width="0.538946" stroke-miterlimit="10"/>
<path d="M181.822 187.641L181.811 172.091" stroke="#041F46" stroke-width="0.538946" stroke-miterlimit="10"/>
<path d="M172.697 184.686L181.81 172.091" stroke="#041F46" stroke-width="0.538946" stroke-miterlimit="10"/>
<path d="M167.033 176.939L181.81 172.091" stroke="#041F46" stroke-width="0.538946" stroke-miterlimit="10"/>
<path d="M167 167.356L181.811 172.091" stroke="#041F46" stroke-width="0.538946" stroke-miterlimit="10"/>
<path d="M172.598 159.564L181.811 172.091" stroke="#041F46" stroke-width="0.538946" stroke-miterlimit="10"/>
<path d="M181.699 156.541L181.811 172.091" stroke="#041F46" stroke-width="0.538946" stroke-miterlimit="10"/>
</g>
<g clip-path="url(#clip1)">
<path d="M29.4266 89.4866L24.7636 87.9777L23.2546 92.6407C25.8287 93.4751 28.5922 92.0667 29.4266 89.4866Z" fill="#418C7D"/>
<path d="M24.7938 87.9715L21.8883 84.0245L17.9353 86.9301C19.5449 89.1136 22.6102 89.5752 24.7938 87.9715Z" fill="#418C7D"/>
<path d="M21.8585 84.0187L21.8999 79.1131L17.0002 79.0717C16.9765 81.7819 19.1542 83.9951 21.8585 84.0187Z" fill="#418C7D"/>
<path d="M21.9064 79.1011L24.8119 75.1482L20.8531 72.2427C19.2494 74.4262 19.7228 77.4975 21.9064 79.1011Z" fill="#418C7D"/>
<path d="M24.799 75.1779L29.462 73.663L27.953 69C25.373 69.8344 23.9646 72.6038 24.799 75.1779Z" fill="#418C7D"/>
<path d="M29.4802 73.6393L34.1195 75.2252L35.7055 70.5858C33.1372 69.71 30.356 71.077 29.4802 73.6393Z" fill="#418C7D"/>
<path d="M34.1256 75.1778L36.9779 79.1662L40.9663 76.314C39.3923 74.1127 36.327 73.6038 34.1256 75.1778Z" fill="#418C7D"/>
<path d="M36.9479 79.1544L36.936 84.0601L41.8417 84.0719C41.8476 81.3617 39.6581 79.1603 36.9479 79.1544Z" fill="#418C7D"/>
<path d="M36.9538 84.0779L34.001 87.9953L37.9184 90.9481C39.5516 88.7764 39.1197 85.7052 36.9538 84.0779Z" fill="#418C7D"/>
<path d="M34.0545 88.0308L29.3678 89.4806L30.8176 94.1673C33.4036 93.3625 34.8534 90.6167 34.0545 88.0308Z" fill="#418C7D"/>
<path d="M37.3628 81.5865H29.4273V89.522H29.4333C33.8122 89.522 37.3628 85.9655 37.3628 81.5865Z" fill="#418C7D"/>
<path d="M21.4974 81.5865H29.4329V89.522H29.4269C25.048 89.522 21.4974 85.9655 21.4974 81.5865Z" fill="#418C7D"/>
<path d="M21.4974 81.5924H29.4329V73.657H29.4269C25.048 73.657 21.4974 77.2075 21.4974 81.5924Z" fill="#418C7D"/>
<path d="M37.3628 81.5924H29.4273V73.657H29.4333C33.8122 73.657 37.3628 77.2075 37.3628 81.5924Z" fill="#418C7D"/>
<path d="M34.6704 74.4427L29.4273 81.5866" stroke="#041F46" stroke-width="0.30707" stroke-miterlimit="10"/>
<path d="M37.8661 78.8757L29.4273 81.5866" stroke="#041F46" stroke-width="0.30707" stroke-miterlimit="10"/>
<path d="M37.8469 84.342L29.4273 81.5865" stroke="#041F46" stroke-width="0.30707" stroke-miterlimit="10"/>
<path d="M34.6322 88.756L29.4273 81.5865" stroke="#041F46" stroke-width="0.30707" stroke-miterlimit="10"/>
<path d="M29.4337 90.4462L29.4273 81.5865" stroke="#041F46" stroke-width="0.30707" stroke-miterlimit="10"/>
<path d="M24.2344 88.7623L29.4265 81.5865" stroke="#041F46" stroke-width="0.30707" stroke-miterlimit="10"/>
<path d="M21.0067 84.3484L29.4263 81.5865" stroke="#041F46" stroke-width="0.30707" stroke-miterlimit="10"/>
<path d="M20.9883 78.8884L29.427 81.5865" stroke="#041F46" stroke-width="0.30707" stroke-miterlimit="10"/>
<path d="M24.1776 74.4492L29.4271 81.5867" stroke="#041F46" stroke-width="0.30707" stroke-miterlimit="10"/>
<path d="M29.3633 72.7267L29.4271 81.5864" stroke="#041F46" stroke-width="0.30707" stroke-miterlimit="10"/>
</g>
<defs>
<linearGradient id="paint0_linear" x1="57.1843" y1="11" x2="74.9903" y2="-0.600288" gradientUnits="userSpaceOnUse">
<stop stop-color="#021530" stop-opacity="0"/>
<stop offset="1" stop-color="#021530"/>
</linearGradient>
<linearGradient id="paint1_linear" x1="162.564" y1="14.7158" x2="205.234" y2="207.147" gradientUnits="userSpaceOnUse">
<stop stop-color="#1B416D"/>
<stop offset="1" stop-color="#13355B"/>
</linearGradient>
<linearGradient id="paint2_linear" x1="83.6846" y1="244.5" x2="52.6846" y2="212" gradientUnits="userSpaceOnUse">
<stop stop-color="#051A37" stop-opacity="0.8"/>
<stop offset="1" stop-color="#041F46" stop-opacity="0"/>
</linearGradient>
<clipPath id="clip0">
<rect width="43.6006" height="44.1614" fill="white" transform="translate(160 150)"/>
</clipPath>
<clipPath id="clip1">
<rect width="24.8418" height="25.1614" fill="white" transform="translate(17 69)"/>
</clipPath>
</defs>
</svg>
