<svg width="60" height="55" viewBox="0 0 60 55" fill="none" xmlns="http://www.w3.org/2000/svg">
<circle cx="30" cy="30.46" r="23" fill="#1D4166" stroke="#7CE0D6" stroke-width="2" stroke-dasharray="6 6"/>
<g filter="url(#filter0_d)">
<path d="M23.1368 25.7495C24.9756 26.3765 27.4131 26.7218 30.0003 26.7218C32.5875 26.7218 35.025 26.3765 36.8638 25.7495C38.8237 25.0813 39.9029 24.1438 39.9029 23.1097C39.9029 22.0756 38.8237 21.138 36.8638 20.4698C35.025 19.843 32.5875 19.4977 30.0003 19.4977C27.4131 19.4977 24.9756 19.843 23.1368 20.4699C21.1769 21.138 20.0976 22.0756 20.0976 23.1097C20.0976 24.1439 21.1769 25.0813 23.1368 25.7495Z" fill="url(#paint0_linear)"/>
</g>
<path opacity="0.7" fill-rule="evenodd" clip-rule="evenodd" d="M39.2269 27.1293C39.0715 27.1293 38.9033 27.1818 38.7123 27.2898C38.4304 27.4494 38.0744 27.5719 37.6975 27.7017L37.5883 27.7394C35.5306 28.4509 32.8356 28.8427 29.9998 28.8427C27.164 28.8427 24.469 28.4509 22.4113 27.7394C21.8293 27.5382 21.6676 27.4749 21.4526 27.3644C21.234 27.2498 21.0306 27.1917 20.8477 27.1917C20.4517 27.1917 20.2084 27.4574 20.143 27.7208C20.1125 27.8435 20.0971 27.9688 20.0971 28.093C20.0971 29.1417 21.1764 30.0925 23.1362 30.77C24.975 31.4058 27.4125 31.7559 29.9997 31.7559C32.5869 31.7559 35.0244 31.4058 36.8632 30.77C38.8231 30.0925 39.9024 29.1417 39.9024 28.093C39.9024 27.9298 39.8758 27.7659 39.8226 27.6036C39.6875 27.1909 39.3914 27.1293 39.2269 27.1293Z" fill="url(#paint1_linear)"/>
<path opacity="0.7" fill-rule="evenodd" clip-rule="evenodd" d="M39.2269 31.8689C39.0715 31.8689 38.9033 31.9214 38.7123 32.0295C38.4304 32.1891 38.0744 32.3115 37.6975 32.4413L37.5883 32.479C35.5306 33.1905 32.8356 33.5823 29.9998 33.5823C27.164 33.5823 24.469 33.1905 22.4113 32.479C21.8293 32.2778 21.6676 32.2145 21.4526 32.104C21.234 31.9895 21.0306 31.9313 20.8477 31.9313C20.4517 31.9313 20.2084 32.197 20.143 32.4604C20.1125 32.5832 20.0971 32.7084 20.0971 32.8327C20.0971 33.8813 21.1764 34.8321 23.1362 35.5097C24.975 36.1454 27.4125 36.4955 29.9997 36.4955C32.5869 36.4955 35.0244 36.1454 36.8632 35.5097C38.8231 34.8321 39.9024 33.8813 39.9024 32.8327C39.9024 32.6694 39.8758 32.5055 39.8226 32.3432C39.6875 31.9306 39.3914 31.8689 39.2269 31.8689Z" fill="url(#paint2_linear)"/>
<path opacity="0.7" fill-rule="evenodd" clip-rule="evenodd" d="M39.2269 36.7957C39.0715 36.7957 38.9033 36.8482 38.7123 36.9562C38.4304 37.1158 38.0744 37.2383 37.6975 37.368L37.5883 37.4058C35.5306 38.1173 32.8356 38.5091 29.9998 38.5091C27.164 38.5091 24.469 38.1173 22.4113 37.4058C21.8293 37.2046 21.6676 37.1413 21.4526 37.0308C21.234 36.9162 21.0306 36.8581 20.8477 36.8581C20.4517 36.8581 20.2084 37.1238 20.143 37.3872C20.1125 37.5099 20.0971 37.6351 20.0971 37.7594C20.0971 38.8081 21.1764 39.7589 23.1362 40.4364C24.975 41.0721 27.4125 41.4223 29.9997 41.4223C32.5869 41.4223 35.0244 41.0721 36.8632 40.4364C38.8231 39.7589 39.9024 38.8081 39.9024 37.7594C39.9024 37.5962 39.8758 37.4323 39.8226 37.27C39.6875 36.8573 39.3914 36.7957 39.2269 36.7957Z" fill="url(#paint3_linear)"/>
<defs>
<filter id="filter0_d" x="0.0976257" y="0.497681" width="59.8053" height="47.2241" filterUnits="userSpaceOnUse" color-interpolation-filters="sRGB">
<feFlood flood-opacity="0" result="BackgroundImageFix"/>
<feColorMatrix in="SourceAlpha" type="matrix" values="0 0 0 0 0 0 0 0 0 0 0 0 0 0 0 0 0 0 127 0" result="hardAlpha"/>
<feOffset dy="1"/>
<feGaussianBlur stdDeviation="10"/>
<feColorMatrix type="matrix" values="0 0 0 0 1 0 0 0 0 1 0 0 0 0 1 0 0 0 0.4 0"/>
<feBlend mode="normal" in2="BackgroundImageFix" result="effect1_dropShadow"/>
<feBlend mode="normal" in="SourceGraphic" in2="effect1_dropShadow" result="shape"/>
</filter>
<linearGradient id="paint0_linear" x1="31.0638" y1="7.0065" x2="27.8614" y2="25.9345" gradientUnits="userSpaceOnUse">
<stop stop-color="#B0ECE6"/>
<stop offset="1" stop-color="#7CE0D6"/>
</linearGradient>
<linearGradient id="paint1_linear" x1="31.0632" y1="19.1293" x2="29.7278" y2="31.454" gradientUnits="userSpaceOnUse">
<stop stop-color="#B0ECE6"/>
<stop offset="1" stop-color="#7CE0D6"/>
</linearGradient>
<linearGradient id="paint2_linear" x1="31.0632" y1="23.8689" x2="29.7278" y2="36.1936" gradientUnits="userSpaceOnUse">
<stop stop-color="#B0ECE6"/>
<stop offset="1" stop-color="#7CE0D6"/>
</linearGradient>
<linearGradient id="paint3_linear" x1="31.0632" y1="28.7957" x2="29.7278" y2="41.1204" gradientUnits="userSpaceOnUse">
<stop stop-color="#B0ECE6"/>
<stop offset="1" stop-color="#7CE0D6"/>
</linearGradient>
</defs>
</svg>
