<svg width="27" height="27" fill="none" xmlns="http://www.w3.org/2000/svg"><circle cx="13.5" cy="13.5" r="13.5" fill="#FFEB6F"/><g filter="url(#a)"><path d="M13.5 26.208c7.019 0 12.708-5.69 12.708-12.707C26.208 6.483 20.518.794 13.5.794 6.483.794.794 6.484.794 13.501c0 7.018 5.69 12.707 12.707 12.707z" fill="url(#b)"/><path d="M13.5 26.208c7.019 0 12.708-5.69 12.708-12.707C26.208 6.483 20.518.794 13.5.794 6.483.794.794 6.484.794 13.501c0 7.018 5.69 12.707 12.707 12.707z" fill="url(#c)" fill-opacity=".2" style="mix-blend-mode:soft-light"/></g><path opacity=".4" d="M23.492 21.346a7.851 7.851 0 0 1 0-15.69 12.647 12.647 0 0 1 2.716 7.845c0 2.96-1.018 5.684-2.716 7.845z" fill="#FFEB6F"/><path opacity=".2" d="M11.09 13.5c0-5.184 3.106-9.64 7.557-11.615a12.743 12.743 0 0 1 4.843 3.771 7.851 7.851 0 0 0 0 15.69 12.74 12.74 0 0 1-4.843 3.77c-4.451-1.976-7.558-6.432-7.558-11.615z" fill="#FFEB6F"/><path opacity=".2" d="M15.91 13.5c0-5.184-3.106-9.64-7.557-11.615A12.738 12.738 0 0 0 3.51 5.656a7.851 7.851 0 0 1 0 15.69 12.74 12.74 0 0 0 4.843 3.77c4.451-1.976 7.558-6.432 7.558-11.615z" fill="#FFEB6F"/><path opacity=".4" d="M3.51 21.346a7.851 7.851 0 0 0 0-15.692 12.648 12.648 0 0 0-2.716 7.847 12.64 12.64 0 0 0 2.716 7.845z" fill="#FFEB6F"/><defs><linearGradient id="b" x1="13.501" y1=".794" x2="13.501" y2="26.208" gradientUnits="userSpaceOnUse"><stop stop-color="#FFFEEB"/><stop offset="1" stop-color="#FD1"/></linearGradient><linearGradient id="c" x1="13.501" y1=".794" x2="13.501" y2="26.208" gradientUnits="userSpaceOnUse"><stop offset=".328" stop-color="#fff"/><stop offset="1" stop-opacity=".1"/></linearGradient><filter id="a" x=".794" y=".794" width="25.758" height="25.758" filterUnits="userSpaceOnUse" color-interpolation-filters="sRGB"><feFlood flood-opacity="0" result="BackgroundImageFix"/><feBlend in="SourceGraphic" in2="BackgroundImageFix" result="shape"/><feColorMatrix in="SourceAlpha" values="0 0 0 0 0 0 0 0 0 0 0 0 0 0 0 0 0 0 127 0" result="hardAlpha"/><feOffset dx=".344" dy=".344"/><feGaussianBlur stdDeviation=".172"/><feComposite in2="hardAlpha" operator="arithmetic" k2="-1" k3="1"/><feColorMatrix values="0 0 0 0 1 0 0 0 0 1 0 0 0 0 1 0 0 0 0.2 0"/><feBlend in2="shape" result="effect1_innerShadow"/></filter></defs></svg>