<svg width="89" height="138" fill="none" xmlns="http://www.w3.org/2000/svg"><path fill-rule="evenodd" clip-rule="evenodd" d="m26.343 132.692-6.902 3.202a1.097 1.097 0 0 0-.637.993c0 .606.495 1.097 1.106 1.097h15.516v-5.292h-9.083zm26.603 0-6.901 3.202a1.097 1.097 0 0 0-.638.993c0 .606.496 1.097 1.107 1.097h15.515v-5.292h-9.083z" fill="#2C3437"/><path fill-rule="evenodd" clip-rule="evenodd" d="m29.6 58.126-3.257 74.566h9.083l7.484-62.446h2.896l7.14 62.446h9.084L59.541 68.49a36.565 36.565 0 0 0-1.923-10.364H29.6z" fill="#C8C8C9"/><path fill-rule="evenodd" clip-rule="evenodd" d="m9.185 24.098 6.14 13.66 7.765-11.35a9.157 9.157 0 0 1 7.562-3.966h26.874a9.157 9.157 0 0 1 7.561 3.967l7.765 11.348 6.14-13.66 6.417 3.006-7.811 19.855c-.808 2.055-2.811 3.409-5.044 3.409-1.69 0-3.282-.78-4.306-2.108l-4.82-6.257-2.63-3.761-.133 1.4-2.436 18.777H29.948L27.514 39.64l-.133-1.4-2.63 3.761-4.82 6.257a5.437 5.437 0 0 1-4.306 2.108c-2.233 0-4.236-1.354-5.044-3.409L2.769 27.103l6.416-3.006z" fill="#EFEFEF"/><path fill-rule="evenodd" clip-rule="evenodd" d="M9.23 24.448v-4.306l-5.048-2.315L0 21.137l2.927 6.382 6.304-3.07zm69.717 0v-4.306l5.049-2.315 4.182 3.31-2.927 6.382-6.304-3.07z" fill="#F5C5B6"/><path fill-rule="evenodd" clip-rule="evenodd" d="m60.019 43.266 1.124-9.503.484.107-1.124 9.503-.484-.107zm-32.156-1.32-1.177-9.496.495-.013 1.178 9.497-.496.012zM43.21 1.787c-1.07-1.818-6.47-2.888-8.556 0-2.45 3.392.462 6.31.462 6.31V5.491h5.869l2.547 2.193v3.087h.937a2.326 2.326 0 0 1 2.326-2.326c.2 0 .392.033.577.08.216.056.418.141.605.252.39-1.68.629-4.035-.547-5.493-1.442-1.787-4.22-1.497-4.22-1.497z" fill="#2C3437"/><path fill-rule="evenodd" clip-rule="evenodd" d="M47.977 8.777a2.305 2.305 0 0 0-.605-.251 2.292 2.292 0 0 0-.576-.081 2.326 2.326 0 0 0-2.327 2.326h-.937V7.684l-2.547-2.193h-5.87v9.487a2.328 2.328 0 0 0 2.853 2.268l2.756-.722v5.929l3.324 3.293 3.324-3.293v-9.436a2.32 2.32 0 0 0 1.75-2.246 2.32 2.32 0 0 0-1.145-1.994z" fill="#F5C5B6"/><path d="M38 14.333C38.968 13.43 40.252 13 42 13" stroke="#2C3437" stroke-width=".889"/></svg>