<svg width="24" height="24" fill="none" xmlns="http://www.w3.org/2000/svg"><circle cx="12" cy="12" r="12" fill="url(#a)"/><path d="M7.367 10.586h1.02l-.833 3.021a.367.367 0 0 0 .64.326l3.86-4.841a.366.366 0 0 0-.287-.596h-1.335l.828-1.988A.366.366 0 0 0 10.922 6h-1.73a.367.367 0 0 0-.332.21l-1.825 3.852a.367.367 0 0 0 .332.524zm2.057-3.852h.948l-.828 1.988a.367.367 0 0 0 .338.508h1.123l-2.269 2.846.485-1.76a.367.367 0 0 0-.353-.464h-.922l1.478-3.118z" fill="#fff"/><path d="M16.527 8.201h-3.885c.045.058.084.12.117.185a1.106 1.106 0 0 1-.132 1.163l-.388.487H14.7a.367.367 0 0 1 0 .734h-3.046l-.585.733H14.7a.367.367 0 0 1 0 .734h-4.216l-.585.734h4.802a.367.367 0 0 1 0 .733H9.314l-.547.686a1.095 1.095 0 0 1-.862.414 1.1 1.1 0 0 1-.353-.06H7.55v1.573a.777.777 0 0 0 .122.446c.215.315.62.29.898.078l2.02-1.302h5.76c.514 0 1.1-.586 1.1-1.1V9.141a.933.933 0 0 0-.924-.94z" fill="#fff" fill-opacity=".8"/><defs><linearGradient id="a" x1="24" y1="0" x2="-.598" y2=".63" gradientUnits="userSpaceOnUse"><stop stop-color="#B3FCB6"/><stop offset="1" stop-color="#8DE995"/></linearGradient></defs></svg>