<svg width="24" height="24" fill="none" xmlns="http://www.w3.org/2000/svg"><circle cx="12" cy="12" r="12" fill="url(#a)"/><path fill-rule="evenodd" clip-rule="evenodd" d="M7.597 12.252v4.065a.776.776 0 0 0 .123.446c.215.314.62.29.898.078l2.02-1.302h5.76c.514 0 1.1-.587 1.1-1.101V9.142a.933.933 0 0 0-.924-.94H11.85l-1.624 1.815h4.624a.37.37 0 0 1 0 .738H9.567l-1.012 1.13-.014.015a1.21 1.21 0 0 1-.944.352zm1.549 1.086a.37.37 0 0 1 .369-.369h5.336a.37.37 0 0 1 0 .739H9.515a.37.37 0 0 1-.37-.37zm.369-1.845a.37.37 0 0 0 0 .738h5.336a.37.37 0 0 0 0-.738H9.515z" fill="#fff" fill-opacity=".8"/><path d="M11.77 6.516a.48.48 0 0 0-.678 0l-3.408 3.85-1.22-1.22a.48.48 0 1 0-.679.678l1.56 1.56a.478.478 0 0 0 .678 0l3.747-4.19a.48.48 0 0 0 0-.678z" fill="#fff"/><defs><linearGradient id="a" x1="24" y1="0" x2="-.598" y2=".63" gradientUnits="userSpaceOnUse"><stop stop-color="#B3FCB6"/><stop offset="1" stop-color="#8DE995"/></linearGradient></defs></svg>