<svg width="24" height="24" fill="none" xmlns="http://www.w3.org/2000/svg"><circle cx="12" cy="12" r="12" fill="url(#a)"/><path d="M9.075 10.096H6.131V7.152a.566.566 0 0 0-1.131 0v3.51c0 .312.253.565.566.565h3.51a.566.566 0 1 0 0-1.13zm9.359 2.34h-3.51a.566.566 0 1 0 0 1.131h2.945v2.945a.566.566 0 0 0 1.13 0v-3.51a.565.565 0 0 0-.565-.566z" fill="#F4FFFB"/><path d="M17.5 9.888a5.792 5.792 0 0 0-2.985-3.316 5.792 5.792 0 0 0-4.456-.235 5.866 5.866 0 0 0-2.173 1.368L5.18 10.25a.566.566 0 0 0 .774.824l2.714-2.55a4.728 4.728 0 0 1 1.769-1.12 4.704 4.704 0 0 1 5.997 2.862.566.566 0 1 0 1.067-.378zm1.347 2.727a.565.565 0 0 0-.8-.025l-2.714 2.55a4.668 4.668 0 0 1-3.335 1.39h-.001a4.669 4.669 0 0 1-3.322-1.376 4.727 4.727 0 0 1-1.108-1.756.566.566 0 1 0-1.066.377 5.865 5.865 0 0 0 1.374 2.179 5.792 5.792 0 0 0 4.122 1.707h.001a5.792 5.792 0 0 0 4.116-1.703l2.708-2.544a.565.565 0 0 0 .025-.8z" fill="#F4FFFB"/><defs><linearGradient id="a" x1="24" y1="0" x2="-.598" y2=".63" gradientUnits="userSpaceOnUse"><stop stop-color="#B3FCB6"/><stop offset="1" stop-color="#8DE995"/></linearGradient></defs></svg>