<svg width="24" height="24" fill="none" xmlns="http://www.w3.org/2000/svg"><circle cx="12" cy="12" r="12" fill="url(#a)"/><circle cx="12" cy="12" r="11.25" stroke="#fff" stroke-opacity=".7" stroke-width="1.5" stroke-dasharray="4 4"/><path d="M8.613 9.319c.976.333 2.27.516 3.644.516 1.373 0 2.667-.183 3.643-.516 1.04-.355 1.614-.853 1.614-1.402 0-.549-.573-1.046-1.614-1.401C14.924 6.183 13.63 6 12.257 6c-1.374 0-2.668.183-3.644.516C7.573 6.871 7 7.368 7 7.917c0 .55.573 1.047 1.613 1.402z" fill="#fff"/><path opacity=".668" fill-rule="evenodd" clip-rule="evenodd" d="M17.155 10.05a.56.56 0 0 0-.273.085c-.15.085-.339.15-.539.22l-.058.02c-1.092.377-2.523.585-4.028.585-1.506 0-2.936-.208-4.029-.586-.308-.107-.394-.14-.508-.199a.704.704 0 0 0-.322-.092.376.376 0 0 0-.374.281.82.82 0 0 0-.024.198c0 .557.573 1.061 1.613 1.421.976.337 2.27.523 3.644.523 1.373 0 2.667-.186 3.643-.523 1.04-.36 1.614-.864 1.614-1.421a.83.83 0 0 0-.043-.26c-.072-.219-.229-.252-.316-.252z" fill="url(#b)"/><path opacity=".668" fill-rule="evenodd" clip-rule="evenodd" d="M17.155 12.636a.56.56 0 0 0-.273.085 3.34 3.34 0 0 1-.538.218l-.059.02c-1.092.378-2.523.586-4.028.586-1.506 0-2.936-.208-4.028-.586-.31-.107-.395-.14-.51-.199a.704.704 0 0 0-.32-.091c-.21 0-.34.14-.375.28a.821.821 0 0 0-.024.198c0 .557.573 1.061 1.613 1.421.976.338 2.27.524 3.644.524 1.373 0 2.667-.186 3.643-.524 1.04-.36 1.614-.864 1.614-1.421a.83.83 0 0 0-.043-.26c-.072-.219-.229-.252-.316-.252z" fill="url(#c)"/><path opacity=".668" fill-rule="evenodd" clip-rule="evenodd" d="M17.155 15.22a.56.56 0 0 0-.273.086c-.15.085-.34.15-.54.219l-.057.02c-1.092.377-2.523.585-4.028.585-1.506 0-2.936-.208-4.029-.585-.308-.107-.394-.14-.508-.2a.704.704 0 0 0-.322-.091.375.375 0 0 0-.374.28.82.82 0 0 0-.024.198c0 .557.573 1.062 1.613 1.422.976.337 2.27.523 3.644.523 1.373 0 2.667-.186 3.643-.523 1.04-.36 1.614-.865 1.614-1.422a.832.832 0 0 0-.043-.26c-.072-.218-.229-.251-.316-.251z" fill="url(#d)"/><defs><linearGradient id="a" x1="24" y1="0" x2="-.598" y2=".63" gradientUnits="userSpaceOnUse"><stop stop-color="#B3FCB6"/><stop offset="1" stop-color="#8DE995"/></linearGradient><linearGradient id="b" x1="26.084" y1="12.682" x2="23.184" y2="4.975" gradientUnits="userSpaceOnUse"><stop stop-color="#fff" stop-opacity=".5"/><stop offset="1" stop-color="#fff"/></linearGradient><linearGradient id="c" x1="26.084" y1="15.268" x2="22.798" y2="7.238" gradientUnits="userSpaceOnUse"><stop stop-color="#fff" stop-opacity=".5"/><stop offset="1" stop-color="#fff"/></linearGradient><linearGradient id="d" x1="26.084" y1="17.853" x2="22.509" y2="9.188" gradientUnits="userSpaceOnUse"><stop stop-color="#fff" stop-opacity=".5"/><stop offset="1" stop-color="#fff"/></linearGradient></defs></svg>