<svg width="22" height="22" fill="none" xmlns="http://www.w3.org/2000/svg"><circle cx="11" cy="11" r="11" fill="url(#paint0_linear)"/><path fill-rule="evenodd" clip-rule="evenodd" d="M8 10.5a.5.5 0 01.5.5c0 .922.408 1.51.923 1.893.535.397 1.19.573 1.618.609a.5.5 0 010 .996 3.335 3.335 0 00-1.618.61c-.515.382-.923.97-.923 1.892a.5.5 0 01-1 0c0-.922-.408-1.51-.923-1.893a3.335 3.335 0 00-1.619-.609.5.5 0 010-.996 3.335 3.335 0 001.619-.61c.515-.382.923-.97.923-1.892a.5.5 0 01.5-.5zm0 2.314a3.31 3.31 0 01-.827.881 3.897 3.897 0 01-.481.305c.164.088.325.19.481.305.313.233.6.524.827.881a3.31 3.31 0 01.827-.881c.155-.116.317-.217.481-.305a3.896 3.896 0 01-.481-.305A3.31 3.31 0 018 12.814zM13.5 3.5a.5.5 0 01.5.5c0 1.472.658 2.424 1.486 3.04.847.63 1.878.905 2.555.962a.5.5 0 010 .996c-.677.057-1.708.333-2.555.963C14.658 10.576 14 11.528 14 13a.5.5 0 01-1 0c0-1.472-.658-2.424-1.486-3.04-.847-.63-1.878-.905-2.556-.962a.5.5 0 010-.996c.678-.057 1.709-.333 2.556-.963C12.342 6.424 13 5.472 13 4a.5.5 0 01.5-.5zm0 2.715a4.631 4.631 0 01-1.39 1.627c-.366.272-.757.49-1.146.658.389.169.78.386 1.147.658a4.63 4.63 0 011.389 1.627 4.63 4.63 0 011.39-1.627c.366-.272.757-.49 1.146-.658a5.792 5.792 0 01-1.147-.658A4.631 4.631 0 0113.5 6.215z" fill="#fff"/><defs><linearGradient id="paint0_linear" x1="22" y1="0" x2="-.548" y2=".577" gradientUnits="userSpaceOnUse"><stop stop-color="#AAF5D4"/><stop offset="1" stop-color="#7CE0D6"/></linearGradient></defs></svg>