<svg width="22" height="22" fill="none" xmlns="http://www.w3.org/2000/svg"><circle cx="11" cy="11" r="11" fill="url(#paint0_linear)"/><path fill-rule="evenodd" clip-rule="evenodd" d="M15.8 9.478l.19-2.018-2.017-.45-1.063-1.753-1.91.805-1.91-.805-1.063 1.755-2.017.443.19 2.016-1.36 1.524 1.36 1.52-.19 2.025 2.017.45 1.061 1.751 1.91-.81 1.912.805 1.063-1.753 2.017-.45-.19-2.018 1.358-1.518L15.8 9.478zm2.7 1.519l-1.664 1.86.232 2.46-2.461.55-1.289 2.126L11 17.017 8.682 18l-1.289-2.127-2.461-.549.232-2.468-1.664-1.86L5.164 9.13 4.932 6.67l2.461-.542L8.682 4 11 4.977 13.318 4l1.289 2.127 2.461.549-.232 2.461 1.664 1.86z" fill="#fff"/><path d="M10.3 13.1h1.4v1.4h-1.4v-1.4zm0-5.6h1.4v4.2h-1.4V7.5z" fill="#fff"/><defs><linearGradient id="paint0_linear" x1="22" y1="0" x2="-.548" y2=".577" gradientUnits="userSpaceOnUse"><stop stop-color="#AAF5D4"/><stop offset="1" stop-color="#7CE0D6"/></linearGradient></defs></svg>