<svg width="22" height="22" fill="none" xmlns="http://www.w3.org/2000/svg"><circle cx="11" cy="11" r="11" fill="url(#paint0_linear)"/><path fill-rule="evenodd" clip-rule="evenodd" d="M15.18 11.783l-.005-.013c-.195-.506-.521-.918-.957-1.331-.22-.21-.458-.41-.718-.626l-.068-.056c-.234-.195-.489-.406-.73-.628-.534-.49-1.086-1.098-1.412-1.931a4.31 4.31 0 01-.288-1.438 5.407 5.407 0 00-1.32 1.89c-.464 1.141-.548 2.567.114 4.265a1.34 1.34 0 01-.422 1.543 1.319 1.319 0 01-1.628.018 4.137 4.137 0 01-1.178-1.369c-.018.204-.028.42-.029.649.117 1.583.827 2.575 1.613 3.205.824.661 1.742.93 2.164.985 1.475.188 2.937-.103 3.94-1.02 1.127-1.047 1.524-2.707.93-4.13l-.006-.013zm-.246 4.878c-1.29 1.181-3.086 1.489-4.745 1.277-1.16-.15-4.39-1.325-4.65-5.148 0-1.207.23-2.13.527-2.82a5.354 5.354 0 01.314-.614c.032-.053.063-.103.095-.15.198-.294.662-.123.62.232a4.913 4.913 0 00-.015.163v.012a4.625 4.625 0 00-.01.566c.03.615.2 1.29.658 1.887a3.12 3.12 0 00.454.478h.001c.054.047.11.092.17.137.265.205.634-.09.511-.403a9.3 9.3 0 01-.24-.698c-.957-3.24.444-5.765 2.506-7.208a.344.344 0 011.011.054c-.027.122-.05.24-.07.354l-.002.015a5.434 5.434 0 00-.026.174c-.281 2.1.852 3.041 2.03 4.02.8.666 1.622 1.348 2.035 2.422.765 1.83.246 3.933-1.174 5.25z" fill="#fff"/><defs><linearGradient id="paint0_linear" x1="22" y1="0" x2="-.548" y2=".577" gradientUnits="userSpaceOnUse"><stop stop-color="#AAF5D4"/><stop offset="1" stop-color="#7CE0D6"/></linearGradient></defs></svg>