<svg width="16" height="16" viewBox="0 0 16 16" fill="none" xmlns="http://www.w3.org/2000/svg">
<path d="M13 12.9C12.2 13.3 11.3 13.5 10.4 13.5C10.1 13.5 9.80005 13.5 9.50005 13.4C8.70005 13.3 8.00005 13 7.30005 12.7C6.80005 13.1 6.20005 13.4 5.60005 13.5C5.00005 13.7 4.40005 13.8 3.80005 13.8C3.30005 13.8 2.80005 13.7 2.30005 13.6C3.70005 15.1 5.70005 16 8.00005 16C9.70005 16 11.2 15.5 12.5 14.6C12.7 14.1 12.9 13.6 13 13V12.9Z" fill="#3DCB60"/>
<path d="M9.1 9.5C9.4 8.7 9.6 7.8 9.5 7C8.7 6.6 7.8 6.5 6.9 6.5C6.6 7.3 6.5 8.2 6.5 9.1C7.3 9.4 8.2 9.5 9.1 9.5Z" fill="#3DCB60"/>
<path d="M5.7999 8.69997C5.7999 6.79997 6.5999 4.99997 8.0999 3.69997C7.5999 3.49997 7.0999 3.29997 6.4999 3.19997C5.2999 3.09997 3.9999 3.29997 2.8999 3.89997C2.9999 5.09997 3.2999 6.19997 3.9999 7.19997C4.4999 7.79997 5.0999 8.29997 5.7999 8.69997Z" fill="#3DCB60"/>
<path d="M3 3.1C4.1 2.6 5.4 2.4 6.6 2.6C7.4 2.7 8.1 3 8.7 3.3C10 2.4 11.6 2.1 13.1 2.3C13.3 2.3 13.5 2.4 13.7 2.4C12.3 0.9 10.2 0 8 0C6.3 0 4.7 0.5 3.5 1.4L3.4 1.6C3.2 2.1 3 2.6 3 3.1Z" fill="#3DCB60"/>
<path d="M2.6 9.40005C2.7 8.60005 3 7.90005 3.3 7.30005C2.3 5.80005 2 4.00005 2.4 2.30005C0.9 3.70005 0 5.70005 0 8.00005C0 9.70005 0.5 11.2 1.4 12.5C1.9 12.8 2.5 12.9 3.1 13C2.6 11.9 2.4 10.6 2.6 9.40005Z" fill="#3DCB60"/>
<path d="M12.9 3C13.4 4.1 13.6 5.3 13.4 6.6C13.3 7.3 13 8 12.7 8.7C13.6 10 13.9 11.6 13.7 13.2C13.7 13.4 13.6 13.6 13.6 13.8C15.1 12.3 16 10.2 16 8C16 6.3 15.5 4.8 14.6 3.5C14.1 3.3 13.6 3.1 13 3H12.9Z" fill="#3DCB60"/>
<path d="M8.80005 4.10002C8.20005 4.50002 7.70005 5.10002 7.30005 5.80002C9.20005 5.80002 11 6.60002 12.2 8.00002C12.4 7.50002 12.6 7.00002 12.7 6.40002C12.9 5.20002 12.6 4.00002 12.1 2.90002C10.9 3.00002 9.80005 3.30002 8.80005 4.10002Z" fill="#3DCB60"/>
<path d="M10.2 7.30005C10.2 9.20005 9.4 11 8 12.2C8.5 12.4 9 12.6 9.6 12.7C10.8 12.9 12 12.6 13.1 12.1C13.1 10.9 12.7 9.80005 12 8.90005C11.5 8.20005 10.9 7.60005 10.2 7.30005Z" fill="#3DCB60"/>
<path d="M8.70009 10.2C6.70009 10.2 4.90009 9.40002 3.70009 7.90002C3.50009 8.40002 3.30009 8.90002 3.20009 9.50002C3.10009 10.7 3.30009 12 3.90009 13C4.40009 13 4.90009 12.9 5.40009 12.8C6.00009 12.6 6.60009 12.3 7.20009 11.9C7.80009 11.5 8.30009 10.9 8.70009 10.2Z" fill="#3DCB60"/>
</svg>
