<svg width="447" height="240" viewBox="0 0 447 240" fill="#fff" xmlns="http://www.w3.org/2000/svg">
<path d="M186.323 58.232C183.932 57.4209 181.396 57.1303 178.884 57.3795C176.372 57.6287 173.942 58.4121 171.757 59.6771L9.73914 153.525C9.67914 153.56 9.61943 153.595 9.56043 153.632C1.36043 158.68 -1.25766 168.026 3.04334 176.889C8.40834 187.937 27.4133 198.338 50.3363 202.771C58.6831 204.371 67.1638 205.17 75.6625 205.157C93.9095 205.157 116.309 201.565 141.113 189.999C160.379 181.017 178.699 161.399 190.12 137.515C202.152 112.353 204.535 86.9711 196.658 67.8771C195.722 65.6258 194.316 63.6006 192.534 61.9371C190.751 60.2737 188.634 59.0104 186.323 58.232V58.232Z" fill="#7CE0D6"/>
<path d="M437.457 153.632C437.398 153.595 437.337 153.559 437.277 153.524L275.263 59.6766C273.079 58.4113 270.649 57.6277 268.137 57.3785C265.625 57.1293 263.088 57.4201 260.697 58.2315C258.386 59.0092 256.268 60.2724 254.485 61.9361C252.702 63.5998 251.295 65.6255 250.36 67.8775C242.483 86.9705 244.86 112.352 256.898 137.514C268.318 161.395 286.637 181.015 305.898 189.999C330.706 201.565 353.102 205.157 371.349 205.157C379.848 205.169 388.328 204.37 396.674 202.771C419.598 198.338 438.603 187.936 443.966 176.89C448.275 168.028 445.658 158.681 437.457 153.632Z" fill="#7CE0D6"/>
<path d="M299.93 191.422H132.477L208.545 235.322C213.095 237.96 218.259 239.351 223.518 239.354C228.777 239.357 233.943 237.972 238.496 235.339L314.595 191.42L299.93 191.422Z" fill="#2C3437"/>
<path d="M323.402 94.4629H115.867V144.776H331.153V94.4629H323.402Z" fill="#2C3437"/>
<path d="M316.218 48.8994L314.338 47.8145H132.739L130.85 48.9055C126.309 51.5344 122.537 55.3074 119.909 59.8484C117.281 64.3894 115.889 69.5399 115.871 74.7866V94.4624H331.157V74.7896C331.138 69.5466 329.75 64.3996 327.129 59.8584C324.509 55.3172 320.748 51.5394 316.218 48.8994V48.8994Z" fill="#FFDD0F"/>
<path d="M323.402 144.774H115.867V164.549C115.88 169.805 117.271 174.967 119.9 179.519C122.53 184.07 126.308 187.853 130.855 190.49L132.478 191.427H314.596L316.249 190.472C320.774 187.823 324.529 184.038 327.142 179.492C329.755 174.946 331.136 169.796 331.148 164.552V144.779L323.402 144.774Z" fill="#FFDD0F"/>
<path d="M238.503 4.05029C233.957 1.41602 228.795 0.0282221 223.541 0.0273442C218.286 0.0264662 213.124 1.41241 208.576 4.04517L132.734 47.8152H314.338L238.503 4.05029Z" fill="#2C3437"/>
</svg>
