<?xml version="1.0" encoding="utf-8"?>
<!-- Generator: Adobe Illustrator 24.3.0, SVG Export Plug-In . SVG Version: 6.00 Build 0)  -->
<svg version="1.1" id="Layer_1" xmlns="http://www.w3.org/2000/svg" xmlns:xlink="http://www.w3.org/1999/xlink" x="0px" y="0px"
	 width="200px" height="200px" viewBox="0 0 200 200" style="enable-background:new 0 0 200 200;" xml:space="preserve">
<style type="text/css">
	.st0{fill:#7CE0D6;}
	.st1{fill:#2C3437;}
	.st2{fill:#FFDD0F;}
</style>
<g>
	<path class="st0" d="M83.28,73.41c-2.16-0.72-4.54-0.49-6.56,0.63l-72.79,42.1c-0.04,0-0.04,0.04-0.09,0.04
		c-3.68,2.24-4.85,6.46-2.92,10.46c2.43,4.94,10.96,9.6,21.25,11.62c3.19,0.63,7.01,1.08,11.37,1.08c8.18,0,18.24-1.62,29.43-6.82
		c8.67-4.04,16.89-12.84,22.02-23.56c5.39-11.31,6.47-22.66,2.92-31.24C87.1,75.7,85.4,74.13,83.28,73.41z"/>
	<path class="st0" d="M196.16,116.22c-0.04,0-0.04-0.04-0.09-0.04l-72.79-42.1c-1.98-1.17-4.36-1.39-6.56-0.63
		c-2.11,0.72-3.82,2.29-4.63,4.31c-3.55,8.57-2.47,19.97,2.92,31.24c5.12,10.73,13.35,19.52,22.02,23.56
		c11.14,5.21,21.21,6.82,29.43,6.82c4.36,0,8.18-0.45,11.37-1.08c10.29-1.97,18.83-6.64,21.25-11.62
		C201.01,122.69,199.84,118.51,196.16,116.22z"/>
	<g>
		<path class="st1" d="M134.33,133.19h-0.36h-6.96H73.04h-6.96H65h-5.89l34.19,19.7c2.07,1.21,4.4,1.8,6.74,1.8s4.67-0.58,6.74-1.8
			l34.19-19.7H134.33z"/>
		<path class="st1" d="M144.89,89.7h-3.46H58.62h-3.5h-3.46v22.57h3.46h3.5h82.81h3.46h3.51V89.7H144.89z"/>
		<path class="st2" d="M141.65,69.24l-0.85-0.49h-6.96h-1.71h-5.26h-53.7H68.5h-2.29h-6.96l-0.85,0.49
			c-4.13,2.38-6.74,6.87-6.74,11.62v8.84h3.5h3.5h82.81h3.51h3.5v-8.84C148.39,76.1,145.79,71.66,141.65,69.24z"/>
		<path class="st2" d="M144.89,112.28h-3.5H58.62h-3.5h-3.5v8.89c0,4.76,2.56,9.24,6.74,11.62l0.72,0.4h5.89h1.08H73h53.97h6.96
			h0.36h6.6l0.76-0.45c4.13-2.42,6.7-6.87,6.7-11.62v-8.89h-3.46V112.28z"/>
		<path class="st1" d="M106.74,49.13c-4.18-2.42-9.3-2.42-13.44,0L59.25,68.79h6.96h2.29h4.67h53.74h5.21h1.75h6.96L106.74,49.13z"
			/>
	</g>
</g>
</svg>
