<svg width="43" height="43" fill="none" xmlns="http://www.w3.org/2000/svg"><path fill-rule="evenodd" clip-rule="evenodd" d="M21.5 43C33.374 43 43 33.374 43 21.5S33.374 0 21.5 0 0 9.626 0 21.5 9.626 43 21.5 43z" fill="url(#paint0_linear)"/><path fill-rule="evenodd" clip-rule="evenodd" d="M21.5 43C33.374 43 43 33.374 43 21.5S33.374 0 21.5 0 0 9.626 0 21.5 9.626 43 21.5 43z" fill="url(#paint1_linear)"/><path d="M21.5 24.734c8.689 0 13.28-2.275 13.637-2.46a.058.058 0 00.021-.031c.014-.245.024-.491.024-.74 0-.25-.01-.497-.024-.742-.002-.011-.007-.026-.02-.03-.358-.186-4.95-2.46-13.638-2.46-8.688 0-13.279 2.271-13.636 2.457-.012.007-.017.02-.022.03-.014.248-.023.492-.023.742s.01.496.023.74c.003.012.007.027.022.031.357.186 4.948 2.463 13.636 2.463z" fill="#fff"/><path d="M21.5 12.84c-5.468 0-9.309.9-11.494 1.613a12.573 12.573 0 00-1.917 4.471c.01.007.024.01.036.005 1.117-.517 5.604-2.335 13.375-2.335s12.259 1.818 13.376 2.335a.037.037 0 00.035-.005 12.59 12.59 0 00-1.916-4.47c-2.188-.713-6.026-1.614-11.495-1.614zm-9.713 17.821c2.479 2.378 5.915 3.85 9.713 3.85 3.799 0 7.235-1.472 9.714-3.85-2.267.572-5.506 1.103-9.714 1.103-4.207 0-7.446-.531-9.713-1.103zm0-18.322c2.479-2.378 5.915-3.85 9.713-3.85 3.799 0 7.235 1.472 9.714 3.85-2.267-.572-5.506-1.103-9.714-1.103-4.207 0-7.446.531-9.713 1.103zM21.5 30.125c-5.468 0-9.309-.9-11.494-1.613A12.573 12.573 0 018.09 24.04a.037.037 0 01.036-.004c1.117.517 5.604 2.335 13.375 2.335s12.259-1.818 13.376-2.335a.037.037 0 01.035.004 12.59 12.59 0 01-1.916 4.472c-2.188.715-6.026 1.613-11.495 1.613z" fill="#fff"/><defs><linearGradient id="paint0_linear" x1="13.334" y1="60.41" x2="55.508" y2="27.093" gradientUnits="userSpaceOnUse"><stop stop-color="#FFB36D"/><stop offset="1" stop-color="#F88"/></linearGradient><linearGradient id="paint1_linear" x1="-14.306" y1="2.685" x2="68.094" y2="50.432" gradientUnits="userSpaceOnUse"><stop stop-color="#FFD9A2"/><stop offset="1" stop-color="#FFAE8D"/></linearGradient></defs></svg>