<svg width="24" height="24" fill="none" xmlns="http://www.w3.org/2000/svg"><circle cx="12" cy="12" r="12" fill="url(#paint0_linear)"/><path fill-rule="evenodd" clip-rule="evenodd" d="M12 24c6.627 0 12-5.373 12-12S18.627 0 12 0 0 5.373 0 12s5.373 12 12 12z" fill="url(#paint1_linear)"/><g clip-path="url(#clip0)"><path d="M15.656 9.189l-3.079-1.763a1.18 1.18 0 00-1.183.004L8.327 9.214a1.187 1.187 0 00-.589 1.025l.012 3.549a1.189 1.189 0 00.596 1.023l3.078 1.762a1.181 1.181 0 001.184-.003l3.068-1.784a1.19 1.19 0 00.586-1.027l-.012-3.55a1.19 1.19 0 00-.594-1.02z" fill="#fff" fill-opacity=".4"/><path d="M14.26 10.262l-1.903-1.09a.73.73 0 00-.732.003L9.73 10.277a.733.733 0 00-.364.634l.007 2.194a.735.735 0 00.369.632l1.902 1.09a.731.731 0 00.732-.003l1.896-1.102a.736.736 0 00.362-.635l-.008-2.194a.737.737 0 00-.367-.631z" fill="#fff" fill-opacity=".7"/><path d="M25.14 9.157l-3.078-1.763a1.18 1.18 0 00-1.183.004l-3.067 1.784a1.187 1.187 0 00-.589 1.025l.012 3.549a1.188 1.188 0 00.596 1.023l3.078 1.762a1.181 1.181 0 001.184-.003l3.068-1.784a1.19 1.19 0 00.586-1.027l-.012-3.549a1.19 1.19 0 00-.594-1.021z" fill="#fff" fill-opacity=".4"/><path d="M23.744 10.23l-1.903-1.09a.73.73 0 00-.73.003l-1.897 1.102a.734.734 0 00-.363.634l.007 2.193a.735.735 0 00.368.633l1.902 1.09a.73.73 0 00.732-.003l1.896-1.103a.736.736 0 00.363-.634l-.008-2.194a.735.735 0 00-.367-.631z" fill="#fff" fill-opacity=".6"/><path d="M6.022 9.221L2.944 7.458a1.18 1.18 0 00-1.183.004l-3.068 1.784a1.187 1.187 0 00-.588 1.025l.012 3.549a1.189 1.189 0 00.596 1.023l3.078 1.763a1.181 1.181 0 001.184-.004l3.068-1.784a1.19 1.19 0 00.585-1.027l-.012-3.549a1.19 1.19 0 00-.594-1.02z" fill="#fff" fill-opacity=".4"/><path d="M4.626 10.294l-1.903-1.09a.73.73 0 00-.73.003L.096 10.31a.733.733 0 00-.364.633l.007 2.194a.735.735 0 00.369.633l1.902 1.089a.73.73 0 00.731-.002l1.897-1.103A.736.736 0 005 13.119l-.008-2.193a.736.736 0 00-.367-.632z" fill="#fff" fill-opacity=".6"/><path d="M20.376.74l-3.078-1.762a1.18 1.18 0 00-1.184.003L13.047.765a1.187 1.187 0 00-.588 1.025l.012 3.55a1.188 1.188 0 00.596 1.023l3.077 1.762a1.181 1.181 0 001.184-.003l3.068-1.785a1.191 1.191 0 00.586-1.027l-.012-3.549a1.19 1.19 0 00-.594-1.02z" fill="#fff" fill-opacity=".4"/><path d="M18.98 1.814L17.077.724a.73.73 0 00-.731.003L14.45 1.83a.733.733 0 00-.364.633l.008 2.194a.735.735 0 00.368.632l1.902 1.09a.73.73 0 00.732-.002l1.896-1.103a.736.736 0 00.362-.635l-.007-2.193a.735.735 0 00-.367-.632z" fill="#fff" fill-opacity=".6"/><path d="M18.117 2.478l-1.176-.673a.45.45 0 00-.452.001l-1.172.682a.454.454 0 00-.225.392l.005 1.355a.455.455 0 00.228.391L16.5 5.3a.451.451 0 00.453-.001l1.172-.682a.455.455 0 00.223-.392l-.004-1.355a.454.454 0 00-.227-.39z" fill="#FFDD0F"/><path d="M10.724.773L7.646-.99a1.18 1.18 0 00-1.183.004L3.396.798a1.187 1.187 0 00-.59 1.025l.013 3.55a1.189 1.189 0 00.596 1.022l3.078 1.763a1.181 1.181 0 001.184-.004l3.068-1.784a1.19 1.19 0 00.585-1.027l-.012-3.549a1.19 1.19 0 00-.594-1.02zm9.652 16.864l-3.078-1.763a1.18 1.18 0 00-1.184.004l-3.067 1.784a1.188 1.188 0 00-.588 1.025l.012 3.549a1.189 1.189 0 00.596 1.023l3.077 1.763a1.181 1.181 0 001.184-.004l3.068-1.784a1.19 1.19 0 00.586-1.027l-.012-3.549a1.19 1.19 0 00-.594-1.021z" fill="#fff" fill-opacity=".4"/><path d="M18.98 18.689l-1.903-1.09a.73.73 0 00-.731.003l-1.896 1.102a.733.733 0 00-.364.634l.008 2.193a.735.735 0 00.368.633l1.902 1.089a.73.73 0 00.732-.002l1.896-1.103a.736.736 0 00.362-.635l-.007-2.193a.735.735 0 00-.367-.631z" fill="#fff" fill-opacity=".6"/><path d="M18.117 19.374l-1.176-.673a.45.45 0 00-.452.001l-1.172.682a.453.453 0 00-.225.392l.005 1.355a.454.454 0 00.228.391l1.175.673a.45.45 0 00.453-.001l1.172-.682a.455.455 0 00.223-.392l-.004-1.355a.454.454 0 00-.227-.39z" fill="#FFDD0F"/><path d="M10.743 17.67l-3.079-1.764a1.18 1.18 0 00-1.183.004l-3.067 1.784a1.186 1.186 0 00-.589 1.025l.012 3.55a1.189 1.189 0 00.596 1.023l3.078 1.762a1.181 1.181 0 001.184-.003l3.068-1.785a1.192 1.192 0 00.586-1.027l-.012-3.549a1.19 1.19 0 00-.594-1.02z" fill="#fff" fill-opacity=".4"/><path d="M4.604 3.774L2.7 2.684a.73.73 0 00-.732.003L.074 3.79a.734.734 0 00-.364.633l.007 2.194a.734.734 0 00.369.632l1.902 1.09a.73.73 0 00.732-.002l1.896-1.103a.736.736 0 00.362-.635L4.97 4.406a.735.735 0 00-.366-.632z" fill="#FFDD0F"/><path d="M9.321 1.814L7.42.724a.73.73 0 00-.731.003L4.792 1.83a.734.734 0 00-.364.633l.007 2.194a.735.735 0 00.369.632l1.902 1.09a.73.73 0 00.732-.002l1.896-1.103a.736.736 0 00.362-.635l-.008-2.193a.735.735 0 00-.367-.632zm0 16.852l-1.902-1.09a.73.73 0 00-.731.003l-1.896 1.103a.733.733 0 00-.364.634l.007 2.193a.734.734 0 00.369.633l1.902 1.089a.73.73 0 00.732-.002l1.896-1.103a.736.736 0 00.362-.635l-.008-2.193a.735.735 0 00-.367-.632z" fill="#fff" fill-opacity=".6"/></g><defs><linearGradient id="paint0_linear" x1="37.125" y1="-10.8" x2="-.95" y2="18.042" gradientUnits="userSpaceOnUse"><stop stop-color="#FFB36D"/><stop offset="1" stop-color="#F88"/></linearGradient><linearGradient id="paint1_linear" x1="-7.985" y1="1.498" x2="38.006" y2="28.148" gradientUnits="userSpaceOnUse"><stop stop-color="#FFD9A2"/><stop offset="1" stop-color="#FFAE8D"/></linearGradient><clipPath id="clip0"><rect x="4.219" y="4.219" width="15.562" height="15.562" rx="7.781" fill="#fff"/></clipPath></defs></svg>