<svg width="60" height="60" fill="none" xmlns="http://www.w3.org/2000/svg"><path fill-rule="evenodd" clip-rule="evenodd" d="M30 60c16.569 0 30-13.431 30-30C60 13.431 46.569 0 30 0 13.431 0 0 13.431 0 30c0 16.569 13.431 30 30 30z" fill="#F9F9F9"/><path d="M40.903 27.165a1.022 1.022 0 00-.926-.605h-9.318l1.02-8.38a1.055 1.055 0 00-.608-1.093 1.005 1.005 0 00-1.193.291l-11.64 14.34a1.073 1.073 0 00-.141 1.117c.168.37.53.605.926.605h9.318l-1.02 8.38c-.057.462.19.907.607 1.093a1.013 1.013 0 001.194-.291l11.64-14.34c.255-.313.31-.748.141-1.117zm-11.119 11.36l.731-6.005c.037-.299-.054-.6-.248-.825a1.012 1.012 0 00-.767-.355h-8.292l8.008-9.865-.731 6.005c-.037.299.054.6.248.825.194.226.473.355.767.355h8.292l-8.008 9.865z" fill="#D7D7D7"/></svg>