<svg width="434" height="434" fill="none" xmlns="http://www.w3.org/2000/svg"><path d="M133.889 197.064c-16.314-22.198-24.412-47.779-24.949-73.417 24.222-12.829 52.121-17.723 79.23-13.612h.002a129.566 129.566 0 0 1 33.451 9.78c-32.057 27.951-50.507 68.533-50.63 110.917a127.2 127.2 0 0 1-37.104-33.668zm112.275 51.519c-19.132 1.288-38.146-1.711-55.513-8.45-1.288-19.125 1.708-38.028 8.451-55.514 19.132-1.289 38.146 1.71 55.513 8.449 1.288 19.125-1.708 38.028-8.451 55.515zm-120.428-30.747c27.893 31.901 68.398 50.397 110.716 50.658a127.191 127.191 0 0 1-33.587 36.968l-.007.005-.006.004c-12.244 9.099-25.848 15.736-40.378 20.017l-.008.002c-10.772 3.2-21.875 4.783-32.826 5.027-12.883-24.171-17.761-52.026-13.687-79.225a129.557 129.557 0 0 1 9.783-33.456zm116.783-89.864.002-.002c21.204-15.653 46.107-24.283 71.913-25.053 12.813 24.07 17.496 50.846 13.715 78.102-1.661 11.625-4.847 22.903-9.481 33.543-27.837-31.304-67.919-49.395-109.719-49.602 8.585-14.215 19.831-26.86 33.57-36.988zm-17.402 184.539c31.163-27.899 49.05-67.83 49.375-109.47a127.189 127.189 0 0 1 37.118 33.677l.008.011c15.957 21.497 24.053 46.492 24.926 71.56-23.852 12.703-50.623 17.491-77.751 13.712-11.732-1.663-23.03-4.852-33.676-9.49z" fill="#fff" stroke="#FFDD0F" stroke-width="8"/><path d="M58.52 250.001v.001a172.758 172.758 0 0 0 .393 42.875c-10.761-23.151-16.818-48.962-16.818-76.16 0-9.831.78-19.466 2.248-28.817 9.69 3.571 19.566 6.477 29.546 8.632-8.06 16.849-13.183 34.712-15.37 53.469z" fill="#fff" stroke="#FFF19F" stroke-width="4"/><path d="M73.974 251.862v-.002c2.405-20.272 8.588-39.508 18.322-57.259v-.001l3.098-5.62c1.25-2.003-.127-4.422-2.224-4.74l-6.36-1.04-.001-.001c-13.325-2.202-26.541-5.777-39.243-10.723a192.483 192.483 0 0 1 6.083-19.467c14.267 5.727 29.23 9.514 44.415 11.169 3.881 12.469 9.527 24.511 16.935 35.927-8.256 15.11-13.702 31.444-16.229 48.559-4.173 28.196.091 57.145 11.963 82.808-9.571-1.182-18.89-3.485-27.959-6.683-8.605-23.152-11.762-48.214-8.8-72.927zM194.64 53.193l-.012-.002c-16.007-2.368-32.24-2.442-48.205-.347 23.167-10.784 48.947-16.781 76.21-16.781 7.429 0 14.769.464 21.936 1.31-2.928 9.188-5.294 18.49-7.014 28.072-13.575-5.88-28.027-9.962-42.915-12.252zm42.72 13.36.002-.013-.002.014zm164.6 171.474c-9.32-2.975-18.841-5.369-28.563-7.006 6.132-14.544 10.117-29.974 11.958-45.847 1.983-16.721 1.457-33.597-1.579-50.075 12.423 24.481 19.395 52.204 19.395 81.502 0 7.277-.377 14.446-1.211 21.426z" fill="#fff" stroke="#FFF19F" stroke-width="4"/><path d="m250.59 84.445.001-.005.928-6.61.002-.013.001-.013a194.86 194.86 0 0 1 8.733-37.958c6.988 1.442 13.89 3.369 20.563 5.643-5.634 15.515-9.106 31.638-10.12 47.889a144.237 144.237 0 0 0-31.339 15.467c-14.994-8.256-31.325-13.813-48.441-16.34-28.199-4.174-57.047-.015-82.81 11.855 1.162-9.45 3.417-18.795 6.618-27.812 24.613-9.134 51.432-11.997 77.688-8.036h.003c16.836 2.52 32.977 7.673 47.853 15.339l.002.001 5.792 3.012.014.007.014.008c2.064 1.031 4.213-.438 4.498-2.434zm104.199 159.764.015.003.015.002 6.379.811.009.002.01.001c13.085 1.539 25.847 4.341 38.289 8.505-1.442 7.083-3.372 14.01-5.652 20.782-15.492-5.646-31.593-8.909-48.01-9.789-3.974-11.256-9.312-22.197-16.212-32.524 8.123-15.079 13.51-31.405 15.939-48.638 3.993-28.29-.207-56.15-12.061-81.626 1.549.19 3.107.412 4.689.638 7.505 1.121 14.796 2.902 21.873 5.238 9.519 23.841 13.023 50.055 9.946 75.813l-.001.007c-2.062 17.753-6.985 34.693-14.765 50.484l-.003.005-2.894 5.789c-1.032 2.063.438 4.212 2.434 4.497zM198.171 395.543c3.241-9.585 5.733-19.361 7.564-29.409 15.336 6.688 31.781 11.119 48.673 13.072 16.91 1.995 33.893 1.375 50.451-1.67-24.572 12.607-52.504 19.718-82.11 19.718-8.357 0-16.52-.57-24.578-1.711z" fill="#fff" stroke="#FFF19F" stroke-width="4"/><path d="m192.82 347.133-.003.017-.002.018-.81 6.482-.001.006c-1.759 13.413-4.888 26.407-9.288 39.087-6.667-1.509-13.227-3.348-19.547-5.584 5.496-15.014 8.66-30.648 9.595-46.595 12.334-4.089 24.037-9.835 34.913-17.139 15.103 8.026 31.434 13.355 48.658 15.766h.004a149.383 149.383 0 0 0 20.452 1.411c21.149 0 41.777-4.532 60.978-13.496-1.026 9.122-2.983 18.127-5.869 26.797-23.931 9.479-49.953 13.02-75.631 9.966h-.004c-18.55-2.176-36.407-7.556-52.886-16.023l-5.904-3.126-.072-.038-.076-.032c-1.97-.845-4.197.314-4.507 2.483zm-97.695-2.663a144.348 144.348 0 0 0 31.949 3.554c9.943 0 19.876-1.091 29.797-3.178-1.131 12.641-3.8 24.828-8.087 36.647-20.109-8.993-38.255-21.669-53.659-37.023zm255.01-255.737a131.206 131.206 0 0 0-9.732-1.794c-18.216-2.683-36.436-1.965-53.95 1.953 1.261-12.705 4.224-25.402 8.653-37.769 20.671 9.117 39.275 21.94 55.029 37.61zM92.266 137.158l.002.013.001.012c.463 3.608 1 7.232 1.673 10.809-11.66-1.808-23.19-4.859-34.207-9.226a179.636 179.636 0 0 1 35.097-49.643c-3.481 15.7-4.416 31.999-2.566 48.035zm258.076 143.23c13.108 1.133 25.749 3.828 38.015 8.323-9.138 20.919-22.09 39.677-37.911 55.563 4.624-20.856 4.692-42.69-.104-63.886z" fill="#fff" stroke="#FFF19F" stroke-width="4"/><circle cx="216.6" cy="216.6" r="213.6" stroke="#FFDD0F" stroke-width="6"/></svg>