<svg width="61" height="56" fill="none" xmlns="http://www.w3.org/2000/svg"><circle opacity=".6" cx="31.25" cy="31.46" r="24" fill="#CBF3EF"/><g filter="url(#filter0_d)"><path d="M23.858 25.64c1.839.627 4.276.972 6.863.972 2.588 0 5.025-.345 6.864-.972 1.96-.668 3.039-1.606 3.039-2.64s-1.08-1.972-3.04-2.64c-1.838-.627-4.275-.972-6.863-.972-2.587 0-5.024.345-6.863.972-1.96.668-3.04 1.606-3.04 2.64s1.08 1.972 3.04 2.64z" fill="url(#paint0_linear)"/></g><path opacity=".7" fill-rule="evenodd" clip-rule="evenodd" d="M39.948 27.02c-.155 0-.324.052-.515.16-.282.16-.638.282-1.014.412l-.11.038c-2.057.711-4.752 1.103-7.588 1.103-2.836 0-5.53-.392-7.589-1.103-.582-.201-.743-.265-.958-.375a1.325 1.325 0 00-.605-.173.705.705 0 00-.705.53c-.03.122-.046.247-.046.371 0 1.05 1.08 2 3.04 2.677 1.838.636 4.276.986 6.863.986 2.587 0 5.024-.35 6.863-.986 1.96-.677 3.04-1.628 3.04-2.677 0-.163-.027-.327-.08-.489-.135-.413-.431-.474-.596-.474z" fill="url(#paint1_linear)"/><path d="M43.34 36.706v-1.46c0-1.614-1.386-2.922-3.095-2.922-1.709 0-3.094 1.308-3.094 2.921v1.46c-.57 0-1.032.437-1.032.975v4.87c0 .537.462.973 1.032.973h6.189c.57 0 1.031-.436 1.031-.974v-4.87c0-.537-.461-.973-1.031-.973zm-5.158-1.46c0-1.077.924-1.949 2.063-1.949 1.14 0 2.063.872 2.063 1.948v1.46h-4.126v-1.46zm5.158 7.303h-6.19v-4.87h6.19v4.87z" fill="url(#paint2_linear)"/><path fill-rule="evenodd" clip-rule="evenodd" d="M43.54 35.245v1.276c.577.09 1.031.567 1.031 1.159v4.87c0 .658-.562 1.173-1.231 1.173h-6.19c-.668 0-1.23-.515-1.23-1.174v-4.87c0-.591.453-1.067 1.03-1.158v-1.276c0-1.735 1.487-3.121 3.295-3.121 1.809 0 3.295 1.386 3.295 3.121zm-3.295-1.747c-1.04 0-1.863.793-1.863 1.747v1.26h3.726v-1.26c0-.954-.823-1.747-1.863-1.747zm-2.894 8.851h5.789v-4.47h-5.79v4.47zm5.989-5.643c.57 0 1.031.436 1.031.974v4.87c0 .537-.461.973-1.031.973h-6.19c-.569 0-1.03-.436-1.03-.974v-4.87c0-.537.461-.973 1.03-.973v-1.46c0-1.614 1.386-2.922 3.095-2.922 1.71 0 3.095 1.308 3.095 2.921v1.46zm-3.095-3.409c-1.14 0-2.063.872-2.063 1.948v1.46h4.126v-1.46c0-1.076-.923-1.947-2.063-1.947zm3.095 9.252v-4.87h-6.19v4.87h6.19z" fill="url(#paint3_linear)"/><path opacity=".7" fill-rule="evenodd" clip-rule="evenodd" d="M33.919 38.228a29.326 29.326 0 01-3.198.172c-2.836 0-5.53-.392-7.588-1.104-.582-.201-.744-.264-.959-.375a1.325 1.325 0 00-.605-.173.705.705 0 00-.705.53c-.03.122-.046.248-.046.372 0 1.049 1.08 2 3.04 2.677 1.838.636 4.276.986 6.863.986 1.105 0 2.183-.064 3.198-.187v-2.898z" fill="url(#paint4_linear)"/><path opacity=".7" fill-rule="evenodd" clip-rule="evenodd" d="M34.933 33.138c-1.321.2-2.748.304-4.212.304-2.836 0-5.53-.392-7.588-1.104-.582-.201-.744-.264-.959-.375a1.325 1.325 0 00-.605-.172.705.705 0 00-.705.529c-.03.122-.046.248-.046.372 0 1.049 1.08 2 3.04 2.677 1.838.636 4.276.986 6.863.986 1.481 0 2.913-.115 4.212-.332v-2.885z" fill="url(#paint5_linear)"/><defs><linearGradient id="paint0_linear" x1="31.785" y1="6.897" x2="28.582" y2="25.825" gradientUnits="userSpaceOnUse"><stop stop-color="#B0ECE6"/><stop offset="1" stop-color="#7CE0D6"/></linearGradient><linearGradient id="paint1_linear" x1="31.784" y1="19.02" x2="30.449" y2="31.344" gradientUnits="userSpaceOnUse"><stop stop-color="#B0ECE6"/><stop offset="1" stop-color="#7CE0D6"/></linearGradient><linearGradient id="paint2_linear" x1="40.688" y1="12.959" x2="27.08" y2="34.576" gradientUnits="userSpaceOnUse"><stop stop-color="#B0ECE6"/><stop offset="1" stop-color="#7CE0D6"/></linearGradient><linearGradient id="paint3_linear" x1="40.688" y1="12.959" x2="27.08" y2="34.576" gradientUnits="userSpaceOnUse"><stop stop-color="#B0ECE6"/><stop offset="1" stop-color="#7CE0D6"/></linearGradient><linearGradient id="paint4_linear" x1="28.072" y1="28.856" x2="26.135" y2="40.845" gradientUnits="userSpaceOnUse"><stop stop-color="#B0ECE6"/><stop offset="1" stop-color="#7CE0D6"/></linearGradient><linearGradient id="paint5_linear" x1="28.633" y1="23.898" x2="26.829" y2="35.929" gradientUnits="userSpaceOnUse"><stop stop-color="#B0ECE6"/><stop offset="1" stop-color="#7CE0D6"/></linearGradient><filter id="filter0_d" x=".819" y=".388" width="59.805" height="47.224" filterUnits="userSpaceOnUse" color-interpolation-filters="sRGB"><feFlood flood-opacity="0" result="BackgroundImageFix"/><feColorMatrix in="SourceAlpha" values="0 0 0 0 0 0 0 0 0 0 0 0 0 0 0 0 0 0 127 0"/><feOffset dy="1"/><feGaussianBlur stdDeviation="10"/><feColorMatrix values="0 0 0 0 1 0 0 0 0 1 0 0 0 0 1 0 0 0 0.4 0"/><feBlend in2="BackgroundImageFix" result="effect1_dropShadow"/><feBlend in="SourceGraphic" in2="effect1_dropShadow" result="shape"/></filter></defs></svg>