<svg width="61" height="60" fill="none" xmlns="http://www.w3.org/2000/svg"><path fill-rule="evenodd" clip-rule="evenodd" d="M30.5 60c16.569 0 30-13.431 30-30 0-16.569-13.431-30-30-30C13.931 0 .5 13.431.5 30c0 16.569 13.431 30 30 30z" fill="#1F4782"/><path d="M41.403 27.165a1.022 1.022 0 0 0-.926-.605h-9.318l1.02-8.38a1.055 1.055 0 0 0-.608-1.093 1.005 1.005 0 0 0-1.193.291l-11.64 14.34a1.073 1.073 0 0 0-.141 1.117c.168.37.53.605.926.605h9.318l-1.02 8.38c-.057.462.19.907.607 1.093a1.013 1.013 0 0 0 1.194-.291l11.64-14.34c.255-.313.31-.748.141-1.117zm-11.119 11.36.731-6.005c.037-.299-.054-.6-.248-.825A1.012 1.012 0 0 0 30 31.34h-8.292l8.008-9.865-.731 6.005c-.037.299.054.6.248.825.194.226.473.355.767.355h8.292l-8.008 9.865z" fill="#fff" fill-opacity=".67"/></svg>