<svg width="48" height="49" fill="none" xmlns="http://www.w3.org/2000/svg"><path d="M34.5 23.615v-2.143c0-.79-.672-1.429-1.5-1.429H16.5c-.827 0-1.5-.64-1.5-1.428 0-.788.673-1.429 1.5-1.429H33c.828 0 1.5-.64 1.5-1.428 0-.79-.672-1.429-1.5-1.429H16.5c-2.482 0-4.5 1.923-4.5 4.286v12.857c0 1.578 1.343 2.857 3 2.857h18c.828 0 1.5-.64 1.5-1.428v-2.143c.828 0 1.5-.64 1.5-1.429v-4.286c0-.789-.672-1.428-1.5-1.428zm-2.25 5c-.828 0-1.5-.64-1.5-1.429s.672-1.428 1.5-1.428 1.5.64 1.5 1.428c0 .79-.672 1.429-1.5 1.429z" fill="url(#a)"/><circle opacity=".3" cx="24" cy="24.46" r="24" fill="#CBF3EF"/><path d="M34.5 23.614v-2.142c0-.79-.672-1.429-1.5-1.429H16.5c-.827 0-1.5-.64-1.5-1.428 0-.788.673-1.43 1.5-1.43H33c.828 0 1.5-.639 1.5-1.428 0-.789-.672-1.428-1.5-1.428H16.5c-2.482 0-4.5 1.922-4.5 4.285v12.858c0 1.578 1.343 2.857 3 2.857h18c.828 0 1.5-.64 1.5-1.429v-2.143c.828 0 1.5-.64 1.5-1.428v-4.286c0-.789-.672-1.428-1.5-1.428zm-2.25 5c-.828 0-1.5-.639-1.5-1.428 0-.79.672-1.429 1.5-1.429s1.5.64 1.5 1.429-.672 1.428-1.5 1.428z" fill="url(#b)"/><defs><linearGradient id="a" x1="24" y1="14.329" x2="-24.773" y2="72.425" gradientUnits="userSpaceOnUse"><stop stop-color="#fff"/><stop offset="1" stop-color="#fff" stop-opacity="0"/></linearGradient><linearGradient id="b" x1="25.289" y1="-20.253" x2="7.162" y2="26.643" gradientUnits="userSpaceOnUse"><stop stop-color="#B0ECE6"/><stop offset="1" stop-color="#7CE0D6"/></linearGradient></defs></svg>