<svg width="64" height="61" fill="none" xmlns="http://www.w3.org/2000/svg"><path d="M42.5 28.615v-2.143c0-.79-.672-1.429-1.5-1.429H24.5c-.827 0-1.5-.64-1.5-1.428 0-.788.673-1.429 1.5-1.429H41c.828 0 1.5-.64 1.5-1.428 0-.79-.672-1.429-1.5-1.429H24.5c-2.482 0-4.5 1.923-4.5 4.286v12.857c0 1.578 1.343 2.857 3 2.857h18c.828 0 1.5-.64 1.5-1.428v-2.143c.828 0 1.5-.64 1.5-1.429v-4.286c0-.789-.672-1.428-1.5-1.428zm-2.25 5c-.828 0-1.5-.64-1.5-1.429s.672-1.428 1.5-1.428 1.5.64 1.5 1.428c0 .79-.672 1.429-1.5 1.429z" fill="url(#paint0_linear)"/><circle opacity=".6" cx="32" cy="29.46" r="24" fill="#CBF3EF"/><g filter="url(#filter0_d)"><path d="M42.5 28.614v-2.143c0-.788-.672-1.428-1.5-1.428H24.5c-.827 0-1.5-.64-1.5-1.429 0-.788.673-1.428 1.5-1.428H41c.828 0 1.5-.64 1.5-1.429s-.672-1.428-1.5-1.428H24.5c-2.482 0-4.5 1.922-4.5 4.285V36.471c0 1.578 1.343 2.858 3 2.858h18c.828 0 1.5-.64 1.5-1.429v-2.143c.828 0 1.5-.64 1.5-1.428v-4.286c0-.79-.672-1.429-1.5-1.429zm-2.25 5c-.828 0-1.5-.64-1.5-1.428 0-.79.672-1.429 1.5-1.429s1.5.64 1.5 1.429-.672 1.428-1.5 1.428z" fill="url(#paint1_linear)"/></g><defs><linearGradient id="paint0_linear" x1="32" y1="19.329" x2="-16.773" y2="77.425" gradientUnits="userSpaceOnUse"><stop stop-color="#fff"/><stop offset="1" stop-color="#fff" stop-opacity="0"/></linearGradient><linearGradient id="paint1_linear" x1="33.289" y1="-15.254" x2="15.162" y2="31.642" gradientUnits="userSpaceOnUse"><stop stop-color="#B0ECE6"/><stop offset="1" stop-color="#7CE0D6"/></linearGradient><filter id="filter0_d" x="0" y=".329" width="64" height="60" filterUnits="userSpaceOnUse" color-interpolation-filters="sRGB"><feFlood flood-opacity="0" result="BackgroundImageFix"/><feColorMatrix in="SourceAlpha" values="0 0 0 0 0 0 0 0 0 0 0 0 0 0 0 0 0 0 127 0"/><feOffset dy="1"/><feGaussianBlur stdDeviation="10"/><feColorMatrix values="0 0 0 0 1 0 0 0 0 1 0 0 0 0 1 0 0 0 0.4 0"/><feBlend in2="BackgroundImageFix" result="effect1_dropShadow"/><feBlend in="SourceGraphic" in2="effect1_dropShadow" result="shape"/></filter></defs></svg>