<svg width="328" height="327" viewBox="0 0 328 327" fill="none" xmlns="http://www.w3.org/2000/svg">
<path d="M19.214 193.048C21.1818 176.167 25.8423 160.114 33.1955 144.993C33.5062 144.372 33.092 143.647 32.4706 143.543C22.6317 141.472 12.8965 138.572 3.36832 134.947C1.81482 144.061 0.986282 153.486 0.986282 163.117C0.986282 191.391 8.23595 218.008 20.8711 241.207C20.9747 241.414 21.2854 241.31 21.2854 241.103C18.0748 225.361 17.3498 209.101 19.214 193.048Z" fill="#8DE995"/>
<path d="M48.1091 135.879C48.8341 135.983 49.2483 136.812 48.8341 137.433L46.0378 142.508C37.2346 158.561 31.642 175.96 29.4671 194.291C26.7744 216.765 29.6742 239.55 37.5453 260.574C37.6489 260.884 37.856 261.092 38.1667 261.195C47.4877 264.509 57.1194 266.788 67.0618 267.72C55.5659 244.417 51.3197 217.801 55.1516 191.909C57.4301 176.478 62.4013 161.771 69.9617 148.204C62.9191 137.536 57.6372 126.248 54.116 114.545C39.7202 113.095 25.5316 109.47 12.0679 103.877C9.47873 110.609 7.30383 117.548 5.5432 124.694C17.4534 129.458 29.8814 132.876 42.4129 134.947L48.1091 135.879Z" fill="#8DE995"/>
<path d="M138.73 18.8491C152.193 20.9204 165.243 24.6488 177.464 30.0343C178.085 30.345 178.81 29.9307 178.914 29.3093C180.571 19.7812 182.953 10.5638 185.956 1.4499C178.81 0.517803 171.457 -3.05176e-05 164 -3.05176e-05C135.726 -3.05176e-05 109.213 7.14607 86.0142 19.7812C85.807 19.8848 85.9106 20.1955 86.1177 20.1955C103.413 16.7778 121.227 16.2599 138.73 18.8491Z" fill="#8DE995"/>
<path d="M307.543 134.74C305.886 149.033 302.261 162.91 296.669 175.96C296.358 176.685 296.772 177.41 297.497 177.513C307.025 179.067 316.346 181.449 325.46 184.452C325.564 184.452 325.667 184.452 325.667 184.349C326.599 177.41 327.014 170.264 327.014 163.014C327.014 132.669 318.728 104.188 304.229 79.85C304.125 79.6429 303.815 79.7464 303.815 80.0571C308.475 97.8706 309.718 116.409 307.543 134.74Z" fill="#8DE995"/>
<path d="M187.199 44.7407C187.096 45.4657 186.371 45.8799 185.749 45.5692L180.571 42.8765C167.107 35.9375 152.504 31.277 137.28 28.9985C113.253 25.3737 88.7073 28.0664 66.2333 36.5589C62.8156 45.9835 60.5371 55.8223 59.605 65.7647C83.0111 54.2688 109.524 50.1261 135.416 53.9581C150.847 56.2366 165.554 61.3114 179.017 68.8717C188.338 62.6577 198.281 57.7901 208.638 54.2688C209.466 38.9409 212.78 23.7166 218.269 9.11374C211.227 6.62814 203.873 4.55681 196.417 3.10687C192.378 14.7063 189.581 26.6165 188.028 38.8374L187.199 44.7407Z" fill="#8DE995"/>
<path d="M121.538 180.62C120.088 140.436 137.695 101.598 169.075 76.2246C169.386 76.0174 169.282 75.4996 168.972 75.396C157.89 69.907 146.083 66.1786 133.759 64.3144C108.489 60.4824 82.4935 65.1429 60.0195 77.2602C59.2946 77.6745 58.8803 78.3995 58.8803 79.1244C59.191 103.048 66.6478 126.972 81.8721 147.686C92.3323 161.874 105.692 173.267 120.71 181.345C121.124 181.345 121.538 181.034 121.538 180.62Z" fill="#8DE995"/>
<path d="M188.234 193.151C194.552 176.891 197.348 159.285 196.106 141.472C196.002 140.332 195.277 139.297 194.138 138.779C177.981 132.461 160.271 129.665 142.458 130.908C141.319 131.011 140.283 131.736 139.765 132.876C133.448 149.136 130.651 166.742 131.894 184.555C131.998 185.695 132.723 186.73 133.862 187.248C150.018 193.566 167.728 196.362 185.542 195.119C186.785 195.016 187.82 194.291 188.234 193.151Z" fill="#8DE995"/>
<path d="M182.125 206.409C182.332 206.098 182.021 205.58 181.607 205.684C180.157 205.787 178.604 205.787 177.154 205.787C138.523 205.787 101.55 188.285 77.1083 158.147C76.9011 157.836 76.3833 157.94 76.2797 158.25C70.7907 169.332 67.0623 181.138 65.1981 193.463C61.3661 219.044 66.1302 245.246 78.5582 267.824C78.7653 268.134 79.076 268.342 79.4903 268.342C90.0541 268.238 100.825 266.788 111.285 263.681C124.645 259.746 137.177 253.635 148.466 245.246C162.654 234.786 174.047 221.426 182.125 206.409Z" fill="#8DE995"/>
<path d="M179.639 80.9888C165.45 91.4491 154.162 104.809 145.98 119.826C145.773 120.137 146.084 120.655 146.498 120.551C186.267 119.101 224.794 136.397 250.168 167.156C250.375 167.467 250.893 167.363 250.997 167.053C256.382 155.971 260.007 144.061 261.768 131.737C265.289 106.363 260.835 81.4031 248.718 59.0327C248.304 58.3077 247.579 57.8935 246.854 57.8935C222.723 58.4113 199.42 66.3859 179.639 80.9888Z" fill="#8DE995"/>
<path d="M282.274 185.902C281.549 185.798 281.135 185.073 281.445 184.452L284.034 179.274C291.077 164.982 295.53 149.654 297.395 133.601C300.191 110.195 296.98 86.3744 288.281 64.7289C288.177 64.4182 287.97 64.2111 287.659 64.1075C281.135 61.9326 274.403 60.2756 267.464 59.2399C265.289 58.9292 263.114 58.6185 260.939 58.4114C260.525 58.4114 260.214 58.8256 260.421 59.1363C271.606 82.1282 275.646 107.398 272.021 133.083C269.846 148.514 264.978 163.117 257.625 176.581C257.521 176.788 257.521 176.995 257.625 177.099C264.15 186.731 269.121 196.984 272.746 207.547C272.849 207.547 272.849 207.547 272.953 207.547C288.384 208.272 303.505 211.379 318.004 216.868C320.49 209.722 322.561 202.369 324.011 194.809C312.308 190.77 300.294 188.077 287.97 186.627L282.274 185.902Z" fill="#8DE995"/>
<path d="M206.67 145.512C208.016 185.178 190.928 223.601 160.272 249.078C159.961 249.285 160.065 249.803 160.375 249.907C171.457 255.292 183.367 258.917 195.795 260.678C221.066 264.199 246.025 259.642 268.188 247.628C268.913 247.214 269.328 246.489 269.328 245.764C268.706 222.358 261.249 198.952 246.336 178.86C235.876 164.671 222.515 153.279 207.498 145.201C206.98 144.787 206.566 145.097 206.67 145.512Z" fill="#8DE995"/>
<path d="M192.584 306.454C177.36 304.693 162.55 300.654 148.775 294.544C148.154 294.233 147.429 294.647 147.326 295.269C145.565 305.211 143.079 314.843 139.765 324.267C147.74 325.51 155.818 326.132 164.103 326.132C194.656 326.132 223.24 317.743 247.578 303.14C247.785 303.036 247.682 302.725 247.371 302.725C229.557 307.282 211.019 308.629 192.584 306.454Z" fill="#8DE995"/>
<path d="M139.144 279.837C139.247 279.112 139.972 278.698 140.697 279.009L145.979 281.805C160.893 289.469 177.049 294.336 193.827 296.304C217.337 299.101 241.157 295.786 263.01 286.983C266.117 277.869 268.084 268.341 268.913 258.709C251.203 267.513 232.043 271.966 212.365 271.966C206.359 271.966 200.352 271.552 194.345 270.723C178.81 268.548 164.103 263.681 150.536 256.327C140.387 263.266 129.408 268.652 117.809 272.38C117.809 272.691 117.809 273.105 117.705 273.209C116.877 288.019 113.873 302.518 108.592 316.396C115.323 318.882 122.366 320.849 129.512 322.403C133.758 310.493 136.762 298.272 138.419 285.637L139.144 279.837Z" fill="#8DE995"/>
<path d="M99.0645 312.668C103.621 300.654 106.314 288.226 107.246 275.28C97.7181 277.455 88.19 278.595 78.6618 278.595C67.0623 278.595 55.5664 277.041 44.4848 273.934C59.7091 290.298 78.2475 303.658 99.0645 312.668Z" fill="#8DE995"/>
<path d="M218.994 51.2655C235.151 47.33 252.032 46.5015 268.913 48.9871C273.885 49.712 278.752 50.7477 283.516 52.0941C267.981 35.4198 249.029 21.9562 227.694 12.8423C223.033 25.3739 220.03 38.3197 218.994 51.2655Z" fill="#8DE995"/>
<path d="M16.1065 94.4529C27.3953 99.1134 39.3054 102.22 51.3192 103.878C50.4907 99.942 49.8692 95.9029 49.3514 91.8638C47.4872 75.7074 48.8336 59.2403 53.0798 43.6017C37.6484 57.8939 25.0132 75.1895 16.1065 94.4529Z" fill="#8DE995"/>
<path d="M274.92 282.634C291.698 266.995 305.265 247.939 314.379 226.397C301.951 221.633 289.109 218.94 275.749 218.008C281.031 239.446 280.616 261.713 274.92 282.634Z" fill="#8DE995"/>
</svg>
