<svg width="53" height="54" fill="none" xmlns="http://www.w3.org/2000/svg"><path d="M26.5 53C41.136 53 53 41.136 53 26.5S41.136 0 26.5 0 0 11.864 0 26.5 11.864 53 26.5 53z" fill="url(#a)"/><path d="M26.5 53.138c14.636 0 26.5-11.865 26.5-26.5C53 12.002 41.136.137 26.5.137S0 12.001 0 26.637c0 14.635 11.864 26.5 26.5 26.5z" fill="url(#b)"/><path d="m26.497 7.833 3.575 10.044 9.624-4.574-4.574 9.624 10.044 3.57-10.044 3.575 4.574 9.623-9.624-4.574-3.575 10.044-3.57-10.044-9.623 4.574 4.574-9.623-10.044-3.576 10.044-3.57-4.574-9.623 9.623 4.574 3.57-10.044z" fill="url(#c)"/><path d="m26.497 7.833 3.575 10.044 9.624-4.574-4.574 9.624 10.044 3.57-10.044 3.575 4.574 9.623-9.624-4.574-3.575 10.044-3.57-10.044-9.623 4.574 4.574-9.623-10.044-3.576 10.044-3.57-4.574-9.623 9.623 4.574 3.57-10.044z" fill="url(#d)"/><path d="m33.396 9.151-.39 10.655 10.633-.694-7.807 7.252 8.014 7.029-10.655-.39.694 10.633-7.252-7.808-7.034 8.012.395-10.652-10.633.693 7.808-7.251-8.012-7.035 10.652.396-.693-10.633 7.251 7.807 7.03-8.014z" fill="url(#e)"/><defs><linearGradient id="a" x1="55.409" y1="-1.183" x2="-78.129" y2="90.437" gradientUnits="userSpaceOnUse"><stop stop-color="#FFDCA7"/><stop offset="1" stop-color="#FFC5B1"/></linearGradient><linearGradient id="c" x1="-3.895" y1="49.75" x2="70.475" y2="36.953" gradientUnits="userSpaceOnUse"><stop stop-color="#fff" stop-opacity=".8"/><stop offset=".776" stop-color="#fff" stop-opacity="0"/></linearGradient><linearGradient id="d" x1="-3.895" y1="49.75" x2="70.475" y2="36.953" gradientUnits="userSpaceOnUse"><stop stop-color="#fff" stop-opacity=".8"/><stop offset=".776" stop-color="#fff" stop-opacity="0"/></linearGradient><linearGradient id="e" x1="-10.336" y1="36.868" x2="63.497" y2="52.463" gradientUnits="userSpaceOnUse"><stop stop-color="#fff" stop-opacity=".8"/><stop offset=".776" stop-color="#fff" stop-opacity="0"/></linearGradient><radialGradient id="b" cx="0" cy="0" r="1" gradientUnits="userSpaceOnUse" gradientTransform="matrix(0 -104.898 114.177 0 2.608 88.716)"><stop offset=".021" stop-color="#FEAE6F"/><stop offset=".323" stop-color="#D66F8D"/><stop offset=".679" stop-color="#8E54A5"/><stop offset=".911" stop-color="#7652AB"/><stop offset="1" stop-color="#7652AB"/></radialGradient></defs></svg>