<svg width="24" height="24" fill="none" xmlns="http://www.w3.org/2000/svg"><rect width="24" height="24" rx="4" fill="#C8C8C9"/><path d="M17.98 14.316a6.055 6.055 0 0 1-1.982 2.463 6.359 6.359 0 0 1-2.993 1.175 6.436 6.436 0 0 1-3.2-.43 6.209 6.209 0 0 1-2.547-1.918 5.908 5.908 0 0 1-1.211-2.892 5.834 5.834 0 0 1 .45-3.09 6.057 6.057 0 0 1 1.99-2.456 6.36 6.36 0 0 1 2.996-1.166.375.375 0 0 1 .219.041.357.357 0 0 1 .188.367.341.341 0 0 1-.1.19c-.447.428-.8.938-1.04 1.5a4.409 4.409 0 0 0-.352 1.77 4.5 4.5 0 0 0 .64 2.274 4.705 4.705 0 0 0 1.716 1.673 4.911 4.911 0 0 0 2.348.638 4.921 4.921 0 0 0 2.368-.56.39.39 0 0 1 .422.048.354.354 0 0 1 .087.373z" fill="#fff"/></svg>