<svg width="204" height="229" fill="none" xmlns="http://www.w3.org/2000/svg"><path d="M12.457 173.406a7.834 7.834 0 0 1 7.311 8.182l-7.811-.509a7.834 7.834 0 0 1-7.312-8.182l7.812.509zm9.285-18.59a6.24 6.24 0 0 0-3.288 8.077l5.718-2.486a6.24 6.24 0 0 0 3.288-8.077l-5.718 2.486zm12.82 44.175a7.835 7.835 0 0 1 1.336-10.892l6.13-4.876a7.827 7.827 0 0 1-1.341 10.893l-6.125 4.875z" fill="#71EEB8" stroke="#71EEB8" stroke-width=".281"/><path fill-rule="evenodd" clip-rule="evenodd" d="m15.287 143.559 1.27-.001h1.27v.161l.004.482c.006.425.015 1.051.036 1.852.04 1.601.12 3.901.282 6.686.323 5.574.968 13.077 2.257 20.814 1.29 7.75 3.215 15.673 6.074 22.118 2.877 6.485 6.587 11.221 11.297 13.005l-.9 2.375c-5.675-2.149-9.754-7.667-12.719-14.35-2.983-6.725-4.952-14.887-6.258-22.731-1.308-7.855-1.96-15.454-2.286-21.084a208.72 208.72 0 0 1-.286-6.769 142.746 142.746 0 0 1-.04-2.384l-.001-.129v-.045z" fill="#71EEB8"/><path d="m27.713 117.541.002.009c.066.414.31 3.096.562 5.851l.017.187c.255 2.801.513 5.627.591 6.122.737 7.562-4.791 14.295-12.353 15.034h-.011v.001h-.007c-7.56.739-14.29-4.793-15.03-12.362v-.002l-.023-.203c-.046-.414-.093-.83-.104-1.26v-.01l-1.045-10.69a1.396 1.396 0 0 1 1.428-1.528c6.192.125 11.729 4.632 13.057 10.732v.001c.12.534.207 1.079.264 1.637l.28-.028a13.53 13.53 0 0 1-.058-1.656v-.001c.123-6.242 4.681-11.741 10.732-13.057h.001c.82-.183 1.615.39 1.697 1.223z" fill="#71EEB8" stroke="#71EEB8" stroke-width=".281"/><path d="M74.333 18.132H41.685C42.188 12.088 42.246 0 56.45 0c14.203 0 17.757 12.088 17.883 18.132z" fill="url(#a)"/><path d="M74.333 18.132H41.685C42.188 12.088 42.246 0 56.45 0c14.203 0 17.757 12.088 17.883 18.132z" fill="url(#b)"/><path d="m158.991 210.412 41.93-188.5c1.763-7.302.529-21.909-18.51-21.909h-57.04L56.797 0h-.112.112C70.17.065 67.682 11.518 66.819 18.135c-.866 6.636-41.93 185.099-41.93 185.099-2.141 8.437-1.587 25.31 17.754 25.31h112.48l15.578-11.711-11.71-6.421z" fill="url(#c)"/><path opacity=".6" d="M172.185 46.09h-27m23.627 12.465h-27.127m24.86 12.466h-30.36m27.716 12.466H74.685m86.194 12.466H71.184m87.051 12.843H68.329m87.261 12.844H65.685m87.261 12.088H63.041m86.505 12.843H59.641m86.506 12.089H56.241m86.884 13.221H53.219m87.639 12.088H50.953m87.591 12.797h-67.24M177.685 21.034h-34.827M174.685 33.5h-29.5" stroke="#fff" stroke-width="2" stroke-linecap="round"/><ellipse cx="42.185" cy="211.5" rx="18.5" ry="17.5" fill="url(#d)"/><path d="M41.685 228.51c.207.004.422.004.643 0h111.549c19.946 0 24.932-12.34 24.932-18.51H60.195c0 14.602-11.524 18.385-17.867 18.51h-.643z" fill="url(#e)"/><circle opacity=".6" cx="107.185" cy="44.5" r="26.5" fill="url(#f)" stroke="#fff" stroke-width="2"/><path d="M104.507 42.216a1.509 1.509 0 0 0-1.208.116l-13.41 7.754c-.008 0-.008.009-.016.009-.679.413-.894 1.19-.538 1.926.447.91 2.02 1.77 3.915 2.141.588.116 1.291.199 2.094.199 1.507 0 3.36-.298 5.422-1.257 1.598-.744 3.112-2.364 4.056-4.34.993-2.084 1.192-4.175.538-5.754a1.398 1.398 0 0 0-.853-.794zm20.792 7.887c-.008 0-.008-.009-.016-.009l-13.41-7.754a1.44 1.44 0 0 0-1.208-.116 1.398 1.398 0 0 0-.853.794c-.654 1.579-.455 3.679.538 5.754.944 1.976 2.459 3.596 4.056 4.34 2.053.96 3.907 1.257 5.422 1.257.803 0 1.506-.083 2.094-.199 1.896-.364 3.468-1.223 3.915-2.141.356-.736.141-1.505-.538-1.926z" fill="#7CE0D6"/><path d="M106.295 35.61a.646.646 0 0 1-.646-.645 2.898 2.898 0 0 0-2.897-2.893.646.646 0 0 1-.646-.645c0-.355.29-.645.646-.645 2.31 0 4.18 1.877 4.18 4.175a.636.636 0 0 1-.637.653zm2.665 0a.646.646 0 0 1-.646-.644c0-2.298 1.879-4.175 4.189-4.175a.646.646 0 0 1 0 1.29 2.898 2.898 0 0 0-2.897 2.893.65.65 0 0 1-.646.637zm4.95 17.618h-13.856l6.299 3.63c.381.223.811.33 1.241.33.431 0 .861-.107 1.242-.33l6.299-3.63h-1.225zm1.946-8.011H98.681v4.159h17.821v-4.159h-.646z" fill="#2C3437"/><path d="m115.26 41.447-.157-.09H100.08l-.158.09a2.49 2.49 0 0 0-1.241 2.142v1.628h17.838V43.59a2.552 2.552 0 0 0-1.259-2.142zm.596 7.929H98.672v1.636c0 .877.472 1.703 1.242 2.142l.132.074h15.073l.141-.083a2.492 2.492 0 0 0 1.233-2.14v-1.638h-.637v.009z" fill="#FFDD0F"/><path d="M108.828 37.743a2.454 2.454 0 0 0-2.475 0l-6.274 3.622h15.032l-6.283-3.622z" fill="#2C3437"/><g clip-path="url(#g)"><path d="m181.81 185.957-8.184-2.649-2.648 8.184a8.594 8.594 0 0 0 10.832-5.535z" fill="#AAF5D4"/><path d="m173.679 183.297-5.1-6.927-6.937 5.099a8.61 8.61 0 0 0 12.037 1.828zm-5.152-6.937.073-8.61-8.6-.073c-.041 4.757 3.781 8.641 8.527 8.683zm.084-8.631 5.1-6.938-6.948-5.1c-2.815 3.833-1.984 9.223 1.848 12.038z" fill="#AAF5D4"/><path d="m173.688 160.843 8.184-2.659-2.648-8.184c-4.528 1.464-7 6.325-5.536 10.843zm8.216-2.701 8.143 2.784 2.783-8.143a8.601 8.601 0 0 0-10.926 5.359z" fill="#AAF5D4"/><path d="m190.058 160.843 5.006 7 7-5.006c-2.763-3.864-8.143-4.757-12.006-1.994z" fill="#AAF5D4"/><path d="m195.011 167.822-.021 8.61 8.61.021a8.608 8.608 0 0 0-8.589-8.631zm.01 8.642-5.182 6.875 6.875 5.183c2.867-3.812 2.109-9.202-1.693-12.058z" fill="#AAF5D4"/><path d="m189.933 183.401-8.226 2.545 2.545 8.226c4.538-1.413 7.083-6.232 5.681-10.771z" fill="#AAF5D4"/><path d="M195.739 172.091h-13.927v13.928h.01c7.686 0 13.917-6.242 13.917-13.928z" fill="#AAF5D4"/><path d="M167.894 172.091h13.927v13.928h-.01c-7.686 0-13.917-6.242-13.917-13.928z" fill="#AAF5D4"/><path d="M167.894 172.101h13.927v-13.927h-.01c-7.686 0-13.917 6.231-13.917 13.927z" fill="#AAF5D4"/><path d="M195.739 172.101h-13.927v-13.927h.01c7.686 0 13.917 6.231 13.917 13.927z" fill="#AAF5D4"/><path d="m191.014 159.553-9.202 12.538m14.811-4.758-14.811 4.758m14.777 4.836-14.777-4.836m9.135 12.583-9.135-12.583m.011 15.55-.011-15.55m-9.115 12.594 9.113-12.594m-14.778 4.848 14.778-4.848M167 167.355l14.811 4.736m-9.213-12.527 9.213 12.527m-.112-15.55.112 15.55" stroke="#fff" stroke-width=".539" stroke-miterlimit="10"/></g><g clip-path="url(#h)"><path d="m29.427 89.487-4.663-1.51-1.51 4.664a4.897 4.897 0 0 0 6.173-3.154z" fill="#AAF5D4"/><path d="m24.794 87.971-2.905-3.947-3.953 2.906a4.906 4.906 0 0 0 6.858 1.041zm-2.936-3.952.042-4.906-4.9-.041a4.903 4.903 0 0 0 4.858 4.947zm.049-4.918 2.905-3.953-3.959-2.905a4.907 4.907 0 0 0 1.053 6.858z" fill="#AAF5D4"/><path d="m24.799 75.178 4.663-1.515L27.952 69a4.904 4.904 0 0 0-3.153 6.178zm4.681-1.538 4.64 1.585 1.586-4.64a4.9 4.9 0 0 0-6.226 3.054z" fill="#AAF5D4"/><path d="m34.126 75.178 2.852 3.988 3.989-2.852a4.906 4.906 0 0 0-6.841-1.136z" fill="#AAF5D4"/><path d="m36.947 79.154-.012 4.906 4.906.012a4.904 4.904 0 0 0-4.894-4.918zm.007 4.924L34 87.995l3.917 2.953a4.9 4.9 0 0 0-.964-6.87z" fill="#AAF5D4"/><path d="m34.055 88.03-4.687 1.45 1.45 4.687a4.912 4.912 0 0 0 3.237-6.136z" fill="#AAF5D4"/><path d="M37.363 81.587h-7.935v7.935h.006c4.379 0 7.93-3.556 7.93-7.935z" fill="#AAF5D4"/><path d="M21.497 81.587h7.936v7.935h-.006c-4.38 0-7.93-3.556-7.93-7.935z" fill="#AAF5D4"/><path d="M21.497 81.592h7.936v-7.935h-.006a7.931 7.931 0 0 0-7.93 7.935z" fill="#AAF5D4"/><path d="M37.363 81.592h-7.935v-7.935h.006c4.379 0 7.93 3.55 7.93 7.935z" fill="#AAF5D4"/><path d="m34.67 74.443-5.242 7.144m8.439-2.711-8.44 2.71m8.42 2.756-8.42-2.755m5.206 7.169-5.205-7.17m.006 8.86-.006-8.86m-5.194 7.177 5.192-7.176m-8.419 2.762 8.42-2.762m-8.439-2.699 8.439 2.698m-5.249-7.136 5.25 7.137m-.065-8.86.064 8.86" stroke="#fff" stroke-width=".307" stroke-miterlimit="10"/></g><defs><linearGradient id="a" x1="70.005" y1="213.831" x2="20.33" y2="25.003" gradientUnits="userSpaceOnUse"><stop stop-color="#7CE0D6"/><stop offset="1" stop-color="#6ECBC2"/></linearGradient><linearGradient id="b" x1="57.185" y1="11" x2="74.99" y2="-.6" gradientUnits="userSpaceOnUse"><stop stop-color="#7CE0D6" stop-opacity="0"/><stop offset="1" stop-color="#5DC5BA"/></linearGradient><linearGradient id="c" x1="162.565" y1="14.716" x2="205.235" y2="207.147" gradientUnits="userSpaceOnUse"><stop stop-color="#A8EAE4"/><stop offset="1" stop-color="#8DE4DB"/></linearGradient><linearGradient id="d" x1="83.685" y1="244.5" x2="52.685" y2="212" gradientUnits="userSpaceOnUse"><stop stop-color="#6ECBC2"/><stop offset="1" stop-color="#6ECBC2" stop-opacity="0"/></linearGradient><linearGradient id="e" x1="62.039" y1="213.8" x2="12.365" y2="24.972" gradientUnits="userSpaceOnUse"><stop stop-color="#CBF3EF"/><stop offset="1" stop-color="#7CE0D6"/></linearGradient><linearGradient id="f" x1="79.185" y1="80.5" x2="130.685" y2="29.5" gradientUnits="userSpaceOnUse"><stop stop-color="#fff"/><stop offset="1" stop-color="#fff" stop-opacity="0"/></linearGradient><clipPath id="g"><path fill="#fff" transform="translate(160 150)" d="M0 0h43.601v44.161H0z"/></clipPath><clipPath id="h"><path fill="#fff" transform="translate(17 69)" d="M0 0h24.842v25.161H0z"/></clipPath></defs></svg>