<svg width="60" height="60" fill="none" xmlns="http://www.w3.org/2000/svg"><circle opacity=".6" cx="30" cy="30.46" r="24" fill="#CBF3EF"/><g filter="url(#a)"><path d="M23.137 25.75c1.839.626 4.276.972 6.863.972 2.587 0 5.025-.346 6.864-.973 1.96-.668 3.039-1.605 3.039-2.64 0-1.034-1.08-1.971-3.04-2.64-1.838-.626-4.276-.971-6.863-.971-2.587 0-5.024.345-6.863.972-1.96.668-3.04 1.606-3.04 2.64s1.08 1.971 3.04 2.64z" fill="url(#b)"/></g><path opacity=".7" fill-rule="evenodd" clip-rule="evenodd" d="M39.227 27.13c-.155 0-.324.052-.515.16-.282.16-.638.282-1.014.412l-.11.037c-2.057.712-4.752 1.104-7.588 1.104-2.836 0-5.53-.392-7.589-1.104-.582-.2-.743-.264-.958-.375a1.325 1.325 0 0 0-.605-.172.705.705 0 0 0-.705.529c-.03.122-.046.248-.046.372 0 1.049 1.08 2 3.04 2.677 1.838.636 4.276.986 6.863.986 2.587 0 5.025-.35 6.863-.986 1.96-.678 3.04-1.628 3.04-2.677a1.58 1.58 0 0 0-.08-.49c-.135-.412-.431-.474-.596-.474z" fill="url(#c)"/><path opacity=".7" fill-rule="evenodd" clip-rule="evenodd" d="M39.227 31.869c-.155 0-.324.052-.515.16-.282.16-.638.282-1.014.412l-.11.038c-2.057.712-4.752 1.103-7.588 1.103-2.836 0-5.53-.392-7.589-1.103-.582-.201-.743-.264-.958-.375a1.326 1.326 0 0 0-.605-.173.705.705 0 0 0-.705.53 1.56 1.56 0 0 0-.046.372c0 1.048 1.08 2 3.04 2.677 1.838.635 4.276.986 6.863.986 2.587 0 5.025-.35 6.863-.986 1.96-.678 3.04-1.629 3.04-2.677a1.57 1.57 0 0 0-.08-.49c-.135-.412-.431-.474-.596-.474z" fill="url(#d)"/><path opacity=".7" fill-rule="evenodd" clip-rule="evenodd" d="M39.227 36.795c-.155 0-.324.053-.515.161-.282.16-.638.282-1.014.412l-.11.038c-2.057.711-4.752 1.103-7.588 1.103-2.836 0-5.53-.392-7.589-1.103-.582-.202-.743-.265-.958-.375a1.325 1.325 0 0 0-.605-.173.705.705 0 0 0-.705.529c-.03.123-.046.248-.046.372 0 1.049 1.08 2 3.04 2.677 1.838.636 4.276.986 6.863.986 2.587 0 5.025-.35 6.863-.986 1.96-.677 3.04-1.628 3.04-2.677a1.58 1.58 0 0 0-.08-.49c-.135-.412-.431-.474-.596-.474z" fill="url(#e)"/><defs><linearGradient id="b" x1="31.064" y1="7.006" x2="27.861" y2="25.934" gradientUnits="userSpaceOnUse"><stop stop-color="#B0ECE6"/><stop offset="1" stop-color="#7CE0D6"/></linearGradient><linearGradient id="c" x1="31.063" y1="19.129" x2="29.728" y2="31.454" gradientUnits="userSpaceOnUse"><stop stop-color="#B0ECE6"/><stop offset="1" stop-color="#7CE0D6"/></linearGradient><linearGradient id="d" x1="31.063" y1="23.869" x2="29.728" y2="36.194" gradientUnits="userSpaceOnUse"><stop stop-color="#B0ECE6"/><stop offset="1" stop-color="#7CE0D6"/></linearGradient><linearGradient id="e" x1="31.063" y1="28.795" x2="29.728" y2="41.12" gradientUnits="userSpaceOnUse"><stop stop-color="#B0ECE6"/><stop offset="1" stop-color="#7CE0D6"/></linearGradient><filter id="a" x=".098" y=".498" width="59.805" height="47.224" filterUnits="userSpaceOnUse" color-interpolation-filters="sRGB"><feFlood flood-opacity="0" result="BackgroundImageFix"/><feColorMatrix in="SourceAlpha" values="0 0 0 0 0 0 0 0 0 0 0 0 0 0 0 0 0 0 127 0"/><feOffset dy="1"/><feGaussianBlur stdDeviation="10"/><feColorMatrix values="0 0 0 0 1 0 0 0 0 1 0 0 0 0 1 0 0 0 0.4 0"/><feBlend in2="BackgroundImageFix" result="effect1_dropShadow"/><feBlend in="SourceGraphic" in2="effect1_dropShadow" result="shape"/></filter></defs></svg>