<svg width="24" height="24" fill="none" xmlns="http://www.w3.org/2000/svg"><path fill-rule="evenodd" clip-rule="evenodd" d="M12 24c6.627 0 12-5.373 12-12S18.627 0 12 0 0 5.373 0 12s5.373 12 12 12z" fill="url(#a)"/><path d="M10.26 15.35c0 .38.312.692.692.692h3.585l-.46 2.193a.773.773 0 0 0 .21.712l.55.55 3.414-3.414a1.03 1.03 0 0 0 .304-.733v-4.49c0-.574-.463-1.038-1.036-1.038h-4.666c-.428 0-.798.26-.954.632l-1.565 3.657a1.038 1.038 0 0 0-.073.376v.864z" fill="#F4FFFB" fill-opacity=".7"/><path d="M13.579 8.993a.693.693 0 0 0-.692-.69H9.303l.46-2.194a.773.773 0 0 0-.21-.712l-.55-.55L5.588 8.26a1.032 1.032 0 0 0-.304.732v4.492c0 .573.463 1.036 1.037 1.036h4.666c.428 0 .797-.259.954-.632l1.565-3.655c.045-.117.073-.242.073-.377v-.864z" fill="#fff"/><defs><linearGradient id="a" x1="24" y1="0" x2="-.598" y2=".63" gradientUnits="userSpaceOnUse"><stop stop-color="#B3FCB6"/><stop offset="1" stop-color="#8DE995"/></linearGradient></defs></svg>