<svg width="24" height="24" fill="none" xmlns="http://www.w3.org/2000/svg"><circle cx="12" cy="12" r="12" fill="url(#a)"/><path opacity=".668" d="M8.613 13.717c.976.333 2.27.516 3.644.516 1.373 0 2.667-.183 3.643-.516 1.04-.355 1.614-.853 1.614-1.401 0-.55-.573-1.047-1.614-1.402-.976-.332-2.27-.516-3.643-.516-1.374 0-2.668.184-3.644.516C7.573 11.27 7 11.767 7 12.316c0 .549.573 1.046 1.613 1.4z" fill="url(#b)"/><path opacity=".668" fill-rule="evenodd" clip-rule="evenodd" d="M17.155 14.448a.56.56 0 0 0-.273.086c-.15.084-.339.15-.539.218l-.058.02c-1.092.378-2.523.586-4.028.586-1.506 0-2.936-.208-4.029-.586-.308-.106-.394-.14-.508-.199a.704.704 0 0 0-.322-.091c-.21 0-.339.14-.374.28A.82.82 0 0 0 7 14.96c0 .557.573 1.061 1.613 1.421.976.338 2.27.523 3.644.523 1.373 0 2.667-.185 3.643-.523 1.04-.36 1.614-.864 1.614-1.42a.83.83 0 0 0-.043-.26c-.072-.22-.229-.253-.316-.253z" fill="url(#c)"/><path opacity=".668" fill-rule="evenodd" clip-rule="evenodd" d="M17.155 17.034a.56.56 0 0 0-.273.085 3.34 3.34 0 0 1-.538.218l-.059.02c-1.092.378-2.523.586-4.028.586-1.506 0-2.936-.208-4.028-.585-.31-.107-.395-.14-.51-.2a.704.704 0 0 0-.32-.091c-.21 0-.34.14-.375.28a.821.821 0 0 0-.024.198c0 .557.573 1.062 1.613 1.421.976.338 2.27.524 3.644.524 1.373 0 2.667-.186 3.643-.524 1.04-.36 1.614-.864 1.614-1.42a.83.83 0 0 0-.043-.26c-.072-.22-.229-.252-.316-.252z" fill="url(#d)"/><path d="M17.798 5.202a.69.69 0 0 0-.974 0l-4.895 5.529-1.753-1.753a.69.69 0 1 0-.974.975l2.24 2.24a.687.687 0 0 0 .975 0l5.381-6.017a.69.69 0 0 0 0-.974z" fill="#fff"/><defs><linearGradient id="a" x1="24" y1="0" x2="-.598" y2=".63" gradientUnits="userSpaceOnUse"><stop stop-color="#B3FCB6"/><stop offset="1" stop-color="#8DE995"/></linearGradient><linearGradient id="b" x1="26.084" y1="14.508" x2="20.084" y2="4.295" gradientUnits="userSpaceOnUse"><stop stop-color="#fff" stop-opacity=".5"/><stop offset="1" stop-color="#fff"/></linearGradient><linearGradient id="c" x1="26.084" y1="17.081" x2="23.184" y2="9.373" gradientUnits="userSpaceOnUse"><stop stop-color="#fff" stop-opacity=".5"/><stop offset="1" stop-color="#fff"/></linearGradient><linearGradient id="d" x1="26.084" y1="19.666" x2="22.798" y2="11.636" gradientUnits="userSpaceOnUse"><stop stop-color="#fff" stop-opacity=".5"/><stop offset="1" stop-color="#fff"/></linearGradient></defs></svg>