<svg width="81" height="58" fill="none" xmlns="http://www.w3.org/2000/svg"><path d="M33.7 25.114a3.316 3.316 0 00-2.655.255L1.591 42.402c-.018 0-.018.018-.036.018-1.491.908-1.964 2.615-1.182 4.231.982 1.998 4.436 3.886 8.6 4.703a23.83 23.83 0 004.6.436c3.309 0 7.381-.654 11.909-2.76 3.509-1.634 6.836-5.194 8.908-9.534 2.182-4.576 2.618-9.17 1.182-12.638-.327-.817-1.018-1.453-1.873-1.744zm45.671 17.324c-.018 0-.018-.018-.036-.018L49.88 25.387a3.163 3.163 0 00-2.654-.255c-.855.291-1.546.927-1.873 1.744-1.437 3.468-1 8.08 1.182 12.638 2.072 4.34 5.4 7.9 8.908 9.534 4.51 2.106 8.582 2.76 11.91 2.76a23.79 23.79 0 004.6-.436c4.163-.799 7.617-2.687 8.6-4.703.78-1.616.308-3.305-1.183-4.23z" fill="#7CE0D6"/><path d="M37.627 10.605a1.42 1.42 0 01-1.419-1.417c0-3.504-2.854-6.355-6.363-6.355a1.42 1.42 0 01-1.418-1.417c0-.78.636-1.416 1.418-1.416 5.072 0 9.181 4.122 9.181 9.17a1.396 1.396 0 01-1.4 1.435zm5.854 0a1.42 1.42 0 01-1.418-1.416c0-5.049 4.127-9.17 9.2-9.17a1.42 1.42 0 011.418 1.416 1.42 1.42 0 01-1.418 1.416c-3.51 0-6.364 2.851-6.364 6.356a1.427 1.427 0 01-1.418 1.398zm10.873 38.697H23.918l13.836 7.972c.836.49 1.782.726 2.727.726.946 0 1.891-.236 2.727-.726l13.836-7.972h-2.69zm4.272-17.596H20.9v9.134h39.144v-9.134h-1.418z" fill="#2C3437"/><path d="M57.317 23.426l-.345-.2h-33l-.345.2a5.467 5.467 0 00-2.727 4.703v3.577h39.18V28.13a5.605 5.605 0 00-2.764-4.703zm1.309 17.414H20.882v3.596a5.429 5.429 0 002.727 4.703l.29.163h33.109l.31-.181a5.472 5.472 0 002.708-4.703v-3.596h-1.4v.018z" fill="#FFDD0F"/><path d="M43.19 15.29a5.39 5.39 0 00-5.436 0l-13.782 7.954H56.99l-13.8-7.954z" fill="#2C3437"/></svg>