<svg width="60" height="66" fill="none" xmlns="http://www.w3.org/2000/svg"><path d="M59.176 46.77V19.23a5.464 5.464 0 0 0-2.717-4.728L32.718.732a5.412 5.412 0 0 0-5.434 0L3.541 14.501a5.464 5.464 0 0 0-2.717 4.727V46.77a5.464 5.464 0 0 0 2.717 4.728l23.742 13.77a5.412 5.412 0 0 0 5.434 0l23.742-13.77a5.463 5.463 0 0 0 2.717-4.728z" fill="url(#a)"/><path d="M56.46 51.497a5.443 5.443 0 0 0 1.994-2.007L30 32.987V66c.938 0 1.876-.244 2.717-.731l23.742-13.77z" fill="url(#b)" style="mix-blend-mode:multiply" opacity=".6"/><path d="m29.997 33 28.448-16.5a5.442 5.442 0 0 0-1.989-1.998L32.714.732a5.412 5.412 0 0 0-5.434 0L3.538 14.501a5.442 5.442 0 0 0-1.99 1.998L29.998 33z" fill="url(#c)" style="mix-blend-mode:multiply" opacity=".6"/><path d="M3.543 51.497a5.443 5.443 0 0 1-1.994-2.007l28.453-16.503V66a5.412 5.412 0 0 1-2.717-.731L3.543 51.498z" fill="url(#d)" style="mix-blend-mode:multiply" opacity=".4"/><defs><linearGradient id="a" x1="121.844" y1="19.867" x2="-148.999" y2="-189.998" gradientUnits="userSpaceOnUse"><stop stop-color="#CBF3EF"/><stop offset="1" stop-color="#7CE0D6"/></linearGradient><linearGradient id="b" x1="58.454" y1="32.987" x2="37.521" y2="28.932" gradientUnits="userSpaceOnUse"><stop stop-color="#CBF3EF"/><stop offset="1" stop-color="#20E4D1"/></linearGradient><linearGradient id="c" x1="58.445" y1="0" x2="20.687" y2="-14.634" gradientUnits="userSpaceOnUse"><stop stop-color="#CBF3EF"/><stop offset="1" stop-color="#20E4D1"/></linearGradient><linearGradient id="d" x1="30.002" y1="32.987" x2="9.069" y2="28.931" gradientUnits="userSpaceOnUse"><stop stop-color="#CBF3EF"/><stop offset="1" stop-color="#20E4D1"/></linearGradient></defs></svg>