<svg width="16" height="17" viewBox="0 0 16 17" fill="none" xmlns="http://www.w3.org/2000/svg">
<path fill-rule="evenodd" clip-rule="evenodd" d="M8 15.9141C11.866 15.9141 15 12.7801 15 8.91406C15 5.04807 11.866 1.91406 8 1.91406C4.13401 1.91406 1 5.04807 1 8.91406C1 12.7801 4.13401 15.9141 8 15.9141ZM16 8.91406C16 13.3323 12.4183 16.9141 8 16.9141C3.58172 16.9141 0 13.3323 0 8.91406C0 4.49578 3.58172 0.914062 8 0.914062C12.4183 0.914062 16 4.49578 16 8.91406Z" fill="#8253A8"/>
<path d="M9.72575 5.33594L10.6811 7.26944L12.8205 7.58407L11.276 9.08854L11.6364 11.2165L9.72575 10.2097L7.81513 11.2165L8.18123 9.08854L6.63672 7.58407L8.77044 7.26944L9.72575 5.33594Z" fill="#8253A8"/>
<path d="M4.77966 11.9128C5.16387 11.9128 5.47534 11.6014 5.47534 11.2172C5.47534 10.833 5.16387 10.5215 4.77966 10.5215C4.39545 10.5215 4.08398 10.833 4.08398 11.2172C4.08398 11.6014 4.39545 11.9128 4.77966 11.9128Z" fill="#8253A8"/>
</svg>
