<svg width="17" height="17" fill="none" xmlns="http://www.w3.org/2000/svg"><g clip-path="url(#a)" fill="#F5A623"><path d="M16.56 5.229 12.252.919a.646.646 0 0 0-.457-.189H5.706a.646.646 0 0 0-.457.19L.939 5.229a.646.646 0 0 0-.189.457v6.089c0 .171.068.336.19.457l4.309 4.31c.12.12.285.188.457.188h6.088a.647.647 0 0 0 .457-.189l4.31-4.31a.646.646 0 0 0 .189-.456V5.686a.646.646 0 0 0-.19-.457zm-1.103 6.278-3.93 3.93H5.973l-3.93-3.93V5.954l3.93-3.93h5.554l3.93 3.93v5.553z"/><path d="M8.75 5.143a.646.646 0 0 0-.646.646V8.73a.646.646 0 1 0 1.292 0V5.79a.646.646 0 0 0-.646-.646zM9.207 11.215a.65.65 0 0 0-.457-.19.65.65 0 0 0-.646.647c0 .17.068.337.189.457a.65.65 0 0 0 .914 0 .65.65 0 0 0 .19-.457.65.65 0 0 0-.19-.457z"/></g><defs><clipPath id="a"><path fill="#fff" transform="translate(.75 .73)" d="M0 0h16v16H0z"/></clipPath></defs></svg>