<svg width="24" height="24" fill="none" xmlns="http://www.w3.org/2000/svg"><rect width="24" height="24" rx="4" fill="url(#a)"/><path fill-rule="evenodd" clip-rule="evenodd" d="m12 4 7 4.042v4.043l-7-4.043-3.502 2.022V6.02L12 4z" fill="url(#b)"/><path fill-rule="evenodd" clip-rule="evenodd" d="M8.498 6.021 5 8.043v4.042l7 4.043 3.499-2.022-7-4.042V6.02z" fill="url(#c)"/><path fill-rule="evenodd" clip-rule="evenodd" d="M8.498 10.063 12 8.043l7 4.042v4.042l-3.502 2.021v-4.042l-7-4.043z" fill="url(#d)"/><path fill-rule="evenodd" clip-rule="evenodd" d="m12 20.17 3.499-2.022v-4.042l-3.498 2.021L5 12.085v4.042l7 4.043z" fill="url(#e)"/><defs><linearGradient id="a" x1="24" y1="0" x2="-.598" y2=".63" gradientUnits="userSpaceOnUse"><stop stop-color="#AAF5D4"/><stop offset="1" stop-color="#7CE0D6"/></linearGradient><linearGradient id="b" x1="8.304" y1="6.183" x2="18.672" y2="15.628" gradientUnits="userSpaceOnUse"><stop stop-color="#F8FEFD" stop-opacity=".9"/><stop offset="1" stop-color="#F8FEFD" stop-opacity="0"/></linearGradient><linearGradient id="c" x1="3.347" y1="4" x2="14.143" y2="13.79" gradientUnits="userSpaceOnUse"><stop stop-color="#F8FEFD" stop-opacity="0"/><stop offset="1" stop-color="#F8FEFD" stop-opacity=".9"/></linearGradient><linearGradient id="d" x1="10.799" y1="8.054" x2="18.643" y2="17.643" gradientUnits="userSpaceOnUse"><stop stop-color="#F8FEFD" stop-opacity=".1"/><stop offset="1" stop-color="#F8FEFD"/></linearGradient><linearGradient id="e" x1="5" y1="12.482" x2="16.674" y2="20.443" gradientUnits="userSpaceOnUse"><stop stop-color="#F8FEFD"/><stop offset="1" stop-color="#F8FEFD" stop-opacity="0"/></linearGradient></defs></svg>