<svg width="24" height="24" fill="none" xmlns="http://www.w3.org/2000/svg"><path d="M20.485 3.515A11.922 11.922 0 0011.999 0a11.922 11.922 0 00-8.485 3.515A11.921 11.921 0 000 12c0 3.205 1.248 6.219 3.514 8.485A11.921 11.921 0 0012 24c3.206 0 6.22-1.248 8.486-3.515A11.921 11.921 0 0024 12c0-3.205-1.249-6.219-3.515-8.485zM11.999 22.06C6.452 22.061 1.94 17.548 1.94 12S6.451 1.939 11.998 1.939c5.548 0 10.062 4.513 10.062 10.061s-4.514 10.061-10.062 10.061z" fill="#212B36"/><path d="M12 6.618a.97.97 0 00-.97.97v8.824a.97.97 0 101.94 0V7.588a.97.97 0 00-.97-.97z" fill="#212B36"/><path d="M16.412 11.03H7.588a.97.97 0 100 1.94h8.824a.97.97 0 100-1.94z" fill="#212B36"/></svg>