<svg width="24" height="24" viewBox="0 0 24 24" fill="none" xmlns="http://www.w3.org/2000/svg">
<rect width="24" height="24" rx="4" fill="url(#paint0_linear_757_3717)"/>
<rect x="4" y="8" width="16" height="8" rx="1" fill="url(#paint1_linear_757_3717)"/>
<path d="M16 10H7" stroke="#A5F3D5" stroke-linecap="round" stroke-linejoin="round"/>
<path d="M13 12H7" stroke="#A5F3D5" stroke-linecap="round" stroke-linejoin="round"/>
<path d="M17 14H7" stroke="#A5F3D5" stroke-linecap="round" stroke-linejoin="round"/>
<path d="M19.4999 6C19.1634 6 18.8906 6.27281 18.8906 6.60931V10.3908C18.8906 10.7273 19.1634 11.0001 19.4999 11.0001C19.8364 11.0001 20.1092 10.7273 20.1092 10.3908V6.60934C20.1093 6.27284 19.8365 6 19.4999 6Z" fill="white"/>
<path d="M21.3908 7.89087H17.6093C17.2728 7.89087 17 8.16368 17 8.50018C17 8.83668 17.2728 9.10949 17.6093 9.10949H21.3908C21.7273 9.10949 22.0001 8.83668 22.0001 8.50018C22.0001 8.16368 21.7273 7.89087 21.3908 7.89087Z" fill="white"/>
<defs>
<linearGradient id="paint0_linear_757_3717" x1="24" y1="-5.23869e-06" x2="-0.598279" y2="0.629711" gradientUnits="userSpaceOnUse">
<stop stop-color="#AAF5D4"/>
<stop offset="1" stop-color="#7CE0D6"/>
</linearGradient>
<linearGradient id="paint1_linear_757_3717" x1="4" y1="16.5" x2="35.68" y2="26.26" gradientUnits="userSpaceOnUse">
<stop stop-color="#DDFEF0"/>
<stop offset="1" stop-color="#DDFEF0" stop-opacity="0"/>
</linearGradient>
</defs>
</svg>
