<svg width="24" height="24" fill="none" xmlns="http://www.w3.org/2000/svg"><rect width="24" height="24" rx="4" fill="url(#a)"/><rect x="4" y="8" width="16" height="8" rx="1" fill="url(#b)"/><path d="M16 10H7m6 2H7m10 2H7" stroke="#A5F3D5" stroke-linecap="round" stroke-linejoin="round"/><path d="M19.5 6a.61.61 0 0 0-.61.61v3.78a.61.61 0 0 0 1.22 0V6.61A.61.61 0 0 0 19.5 6z" fill="#fff"/><path d="M21.39 7.89h-3.78a.61.61 0 0 0 0 1.22h3.78a.61.61 0 0 0 0-1.22z" fill="#fff"/><defs><linearGradient id="a" x1="24" y1="0" x2="-.598" y2=".63" gradientUnits="userSpaceOnUse"><stop stop-color="#AAF5D4"/><stop offset="1" stop-color="#7CE0D6"/></linearGradient><linearGradient id="b" x1="4" y1="16.5" x2="35.68" y2="26.26" gradientUnits="userSpaceOnUse"><stop stop-color="#DDFEF0"/><stop offset="1" stop-color="#DDFEF0" stop-opacity="0"/></linearGradient></defs></svg>