<svg width="72" height="92" fill="none" xmlns="http://www.w3.org/2000/svg"><path d="M7.006 28.63C1.37 30.813-1.44 37.15.736 42.788v.005l10.216-3.946c5.638-2.181 8.446-8.52 6.27-14.156v-.005L7.006 28.63zM28.917 60.702c5.637 2.181 8.446 8.52 6.27 14.156v.005L24.97 70.917c-5.647-2.181-8.451-8.52-6.275-14.157v-.004l10.22 3.946z" fill="#FF6E6E"/><path d="M54.84 20.436C54.84 10.255 46.59 2 36.414 2h-.02c-10.176 0-18.426 8.255-18.426 18.436V90" stroke="#FF6E6E" stroke-width="3.489" stroke-miterlimit="10" stroke-linecap="round"/><path d="M33.478 46.676a2.11 2.11 0 002.372 2.09c8.538-1.002 15.573-7.98 16.587-16.587.092-.754.144-1.52.144-2.297.005.777.051 1.543.143 2.297 1.014 8.607 8.05 15.58 16.587 16.587a2.11 2.11 0 002.372-2.09V31.92c.052-.697.029-1.37.023-2.033 0-10.553-8.55-19.102-19.091-19.102h-.023c-10.547 0-19.091 8.555-19.091 19.102.08 1.325-.098 15.597-.023 16.789z" fill="#FF6E6E"/></svg>