<svg width="101" height="28" fill="none" xmlns="http://www.w3.org/2000/svg"><path d="M40.48 20.216c-.9 0-1.698-.18-2.394-.54a4.471 4.471 0 01-1.638-1.494 7.467 7.467 0 01-.9-2.07 9.769 9.769 0 01-.288-2.412c0-1.2.174-2.274.522-3.222.36-.96.942-1.746 1.746-2.358.804-.624 1.788-.936 2.952-.936 1.032 0 1.836.186 2.412.558.576.36 1.056.852 1.44 1.476l-1.116.648a4.241 4.241 0 00-1.134-1.134c-.408-.276-.942-.414-1.602-.414-.684 0-1.29.162-1.818.486a3.215 3.215 0 00-1.224 1.278 6.81 6.81 0 00-.648 1.71 8.304 8.304 0 00-.216 1.908c0 .972.126 1.854.378 2.646.264.78.696 1.434 1.296 1.962.612.516 1.356.774 2.232.774.912 0 1.638-.282 2.178-.846.54-.564.81-1.326.81-2.286v-.756h-2.322v-1.116H44.8v1.386c0 1.5-.408 2.67-1.224 3.51-.804.828-1.836 1.242-3.096 1.242zM53.234 20v-.9c-.828.744-1.728 1.116-2.7 1.116-.96 0-1.722-.264-2.286-.792-.564-.54-.846-1.314-.846-2.322 0-.996.318-1.752.954-2.268.648-.516 1.446-.774 2.394-.774.852 0 1.68.216 2.484.648v-.774c0-1.5-.672-2.25-2.016-2.25-.864 0-1.776.33-2.736.99l-.36-1.08c1.056-.672 2.13-1.008 3.222-1.008.372 0 .72.048 1.044.144.324.084.642.24.954.468.324.216.582.546.774.99.192.432.288.96.288 1.584V20h-1.17zm-2.574-.882c.948 0 1.806-.474 2.574-1.422v-1.782c-.756-.504-1.542-.756-2.358-.756-.66 0-1.212.168-1.656.504-.432.324-.648.804-.648 1.44 0 .612.18 1.104.54 1.476.372.36.888.54 1.548.54zm6.616.882v-9.198h1.26v1.296c.468-1.008 1.242-1.512 2.322-1.512.516 0 .948.126 1.296.378l-.198 1.224a2.236 2.236 0 00-1.188-.342c-.564 0-1.08.24-1.548.72-.456.468-.684 1.212-.684 2.232V20h-1.26zm10.024.216c-1.176 0-2.106-.432-2.79-1.296-.672-.876-1.008-2.052-1.008-3.528 0-1.5.336-2.676 1.008-3.528.684-.852 1.614-1.278 2.79-1.278.912 0 1.728.288 2.448.864V7.634l1.26-.63V20h-1.26v-.792c-.672.672-1.488 1.008-2.448 1.008zm.144-1.134c.468 0 .906-.126 1.314-.378.408-.252.738-.606.99-1.062v-4.59c-.552-.888-1.32-1.332-2.304-1.332-.84 0-1.488.318-1.944.954-.456.636-.684 1.542-.684 2.718 0 1.056.24 1.938.72 2.646.48.696 1.116 1.044 1.908 1.044zm10.161 1.134c-1.2 0-2.166-.468-2.898-1.404-.732-.936-1.098-2.076-1.098-3.42 0-1.5.366-2.676 1.098-3.528.732-.852 1.698-1.278 2.898-1.278 1.056 0 1.926.378 2.61 1.134.684.744 1.026 1.848 1.026 3.312 0 .324-.012.618-.036.882h-6.264c.108.96.396 1.722.864 2.286.468.564 1.086.846 1.854.846.732 0 1.422-.24 2.07-.72l.684.846c-.84.696-1.776 1.044-2.808 1.044zm-2.7-5.436h5.058c-.012-1.116-.258-1.902-.738-2.358-.468-.468-1.008-.702-1.62-.702-.768 0-1.398.258-1.89.774s-.762 1.278-.81 2.286zM89.436 20v-5.616c0-.924-.192-1.596-.576-2.016-.383-.432-.906-.648-1.566-.648-1.511 0-2.267.876-2.267 2.628V20h-1.26v-9.198h1.26v1.008c.564-.816 1.355-1.224 2.376-1.224 1.127 0 1.956.342 2.483 1.026.54.684.81 1.782.81 3.294V20h-1.26zm6.995.216c-1.212 0-2.268-.534-3.168-1.602l.882-.774c.708.84 1.506 1.26 2.394 1.26.528 0 .96-.114 1.296-.342.336-.24.504-.57.504-.99 0-.264-.06-.498-.18-.702-.12-.216-.312-.408-.576-.576a4.513 4.513 0 00-.684-.414 16.37 16.37 0 00-.846-.36c-.432-.18-.786-.342-1.062-.486a6.193 6.193 0 01-.846-.54 2.143 2.143 0 01-.648-.756 2.477 2.477 0 01-.198-1.008c0-.696.276-1.26.828-1.692.552-.432 1.266-.648 2.142-.648 1.212 0 2.208.468 2.988 1.404l-.828.702c-.66-.66-1.392-.99-2.196-.99-.528 0-.954.108-1.278.324-.312.216-.468.51-.468.882 0 .18.042.348.126.504.084.156.18.288.288.396.108.096.276.21.504.342.228.12.408.21.54.27.132.048.348.132.648.252.36.144.642.264.846.36.204.084.456.222.756.414.312.18.546.366.702.558.168.18.312.42.432.72.132.288.198.612.198.972 0 .768-.282 1.38-.846 1.836-.552.456-1.302.684-2.25.684z" fill="#2C3437"/><circle cx="13.5" cy="13.5" r="13.5" fill="#FFEB6F"/><g filter="url(#filter0_i)"><path d="M13.5 26.208c7.019 0 12.708-5.69 12.708-12.707C26.208 6.483 20.518.794 13.5.794 6.483.794.794 6.484.794 13.501c0 7.018 5.69 12.707 12.707 12.707z" fill="url(#paint0_linear)"/><path d="M13.5 26.208c7.019 0 12.708-5.69 12.708-12.707C26.208 6.483 20.518.794 13.5.794 6.483.794.794 6.484.794 13.501c0 7.018 5.69 12.707 12.707 12.707z" fill="url(#paint1_linear)" fill-opacity=".2" style="mix-blend-mode:soft-light"/></g><path opacity=".4" d="M23.492 21.346a7.851 7.851 0 010-15.69 12.647 12.647 0 012.716 7.845c0 2.96-1.018 5.684-2.716 7.845z" fill="#FFEB6F"/><path opacity=".2" d="M11.09 13.5c0-5.184 3.106-9.64 7.557-11.615 1.909.847 3.568 2.15 4.843 3.771a7.851 7.851 0 000 15.69 12.74 12.74 0 01-4.843 3.77c-4.451-1.976-7.558-6.432-7.558-11.615z" fill="#FFEB6F"/><path opacity=".2" d="M15.91 13.5c0-5.184-3.106-9.64-7.557-11.615A12.738 12.738 0 003.51 5.656a7.851 7.851 0 010 15.69 12.74 12.74 0 004.843 3.77c4.451-1.976 7.558-6.432 7.558-11.615z" fill="#FFEB6F"/><path opacity=".4" d="M3.51 21.346a7.851 7.851 0 000-15.692 12.648 12.648 0 00-2.716 7.847c0 2.963 1.016 5.684 2.716 7.845z" fill="#FFEB6F"/><defs><linearGradient id="paint0_linear" x1="13.501" y1=".794" x2="13.501" y2="26.208" gradientUnits="userSpaceOnUse"><stop stop-color="#FFFEEB"/><stop offset="1" stop-color="#FD1"/></linearGradient><linearGradient id="paint1_linear" x1="13.501" y1=".794" x2="13.501" y2="26.208" gradientUnits="userSpaceOnUse"><stop offset=".328" stop-color="#fff"/><stop offset="1" stop-opacity=".1"/></linearGradient><filter id="filter0_i" x=".794" y=".794" width="25.758" height="25.758" filterUnits="userSpaceOnUse" color-interpolation-filters="sRGB"><feFlood flood-opacity="0" result="BackgroundImageFix"/><feBlend in="SourceGraphic" in2="BackgroundImageFix" result="shape"/><feColorMatrix in="SourceAlpha" values="0 0 0 0 0 0 0 0 0 0 0 0 0 0 0 0 0 0 127 0" result="hardAlpha"/><feOffset dx=".344" dy=".344"/><feGaussianBlur stdDeviation=".172"/><feComposite in2="hardAlpha" operator="arithmetic" k2="-1" k3="1"/><feColorMatrix values="0 0 0 0 1 0 0 0 0 1 0 0 0 0 1 0 0 0 0.2 0"/><feBlend in2="shape" result="effect1_innerShadow"/></filter></defs></svg>