<svg width="40" height="41" viewBox="0 0 40 41" fill="none" xmlns="http://www.w3.org/2000/svg">
<path d="M2.23634 23.6849C2.47776 21.6137 3.04956 19.6442 3.95172 17.789C3.98984 17.7128 3.93901 17.6239 3.86277 17.6112C2.65565 17.357 1.46125 17.0012 0.292249 16.5565C0.101652 17.6747 0 18.831 0 20.0127C0 23.4815 0.889454 26.7471 2.43964 29.5934C2.45235 29.6188 2.49047 29.6061 2.49047 29.5807C2.09657 27.6493 2.00762 25.6544 2.23634 23.6849Z" fill="#8DE995"/>
<path d="M5.78145 16.6709C5.87039 16.6836 5.92122 16.7853 5.87039 16.8615L5.52732 17.4841C4.44726 19.4537 3.76111 21.5883 3.49428 23.8374C3.16391 26.5947 3.51969 29.3901 4.48538 31.9695C4.49809 32.0077 4.5235 32.0331 4.56162 32.0458C5.70521 32.4524 6.88691 32.7319 8.10673 32.8463C6.69631 29.9873 6.17535 26.7218 6.64549 23.5451C6.92503 21.6519 7.53494 19.8476 8.46251 18.183C7.59847 16.8742 6.95044 15.4892 6.51842 14.0534C4.75222 13.8755 3.01143 13.4308 1.35959 12.7446C1.04193 13.5706 0.775092 14.4219 0.559082 15.2986C2.02033 15.8831 3.5451 16.3024 5.08259 16.5566L5.78145 16.6709Z" fill="#8DE995"/>
<path d="M16.8995 2.31258C18.5514 2.56671 20.1524 3.02414 21.6518 3.68488C21.728 3.723 21.8169 3.67217 21.8297 3.59593C22.033 2.42694 22.3252 1.29606 22.6937 0.177891C21.8169 0.0635324 20.9148 0 19.9999 0C16.5311 0 13.2782 0.876747 10.4319 2.42694C10.4065 2.43964 10.4192 2.47776 10.4446 2.47776C12.5666 2.05845 14.7521 1.99492 16.8995 2.31258Z" fill="#8DE995"/>
<path d="M37.6111 16.5311C37.4078 18.2846 36.9631 19.9873 36.277 21.5883C36.2388 21.6772 36.2897 21.7662 36.3786 21.7789C37.5476 21.9695 38.6912 22.2617 39.8094 22.6302C39.8221 22.6302 39.8348 22.6302 39.8348 22.6175C39.9491 21.7662 40 20.8894 40 20C40 16.277 38.9834 12.7827 37.2045 9.79667C37.1918 9.77126 37.1537 9.78396 37.1537 9.82208C37.7255 12.0076 37.878 14.2821 37.6111 16.5311Z" fill="#8DE995"/>
<path d="M22.8463 5.48923C22.8336 5.57818 22.7446 5.629 22.6684 5.59088L22.0331 5.26051C20.3812 4.40918 18.5896 3.83739 16.7218 3.55785C13.7739 3.11312 10.7624 3.44349 8.00511 4.48542C7.5858 5.64171 7.30625 6.84882 7.19189 8.06865C10.0636 6.65823 13.3164 6.14997 16.493 6.62011C18.3863 6.89965 20.1906 7.52227 21.8425 8.44984C22.9861 7.68745 24.2059 7.09025 25.4765 6.65823C25.5782 4.77767 25.9848 2.90982 26.6582 1.1182C25.7942 0.813246 24.892 0.559116 23.9772 0.381226C23.4816 1.80435 23.1385 3.2656 22.9479 4.76496L22.8463 5.48923Z" fill="#8DE995"/>
<path d="M14.7903 22.1601C14.6124 17.23 16.7725 12.465 20.6226 9.35194C20.6607 9.32653 20.648 9.263 20.6099 9.25029C19.2503 8.57685 17.8018 8.11941 16.2897 7.89069C13.1893 7.42056 9.99998 7.99235 7.24268 9.479C7.15373 9.52983 7.10291 9.61878 7.10291 9.70772C7.14102 12.6429 8.05589 15.5781 9.92374 18.1194C11.2071 19.8602 12.8462 21.2579 14.6887 22.249C14.7395 22.249 14.7903 22.2109 14.7903 22.1601Z" fill="#8DE995"/>
<path d="M22.9733 23.6975C23.7484 21.7026 24.0914 19.5425 23.939 17.357C23.9262 17.2172 23.8373 17.0902 23.6975 17.0266C21.7153 16.2515 19.5425 15.9085 17.357 16.0609C17.2172 16.0736 17.0902 16.1626 17.0266 16.3024C16.2515 18.2973 15.9085 20.4574 16.0609 22.6429C16.0736 22.7827 16.1626 22.9097 16.3024 22.9733C18.2846 23.7484 20.4574 24.0914 22.6429 23.939C22.7954 23.9262 22.9224 23.8373 22.9733 23.6975Z" fill="#8DE995"/>
<path d="M22.2237 25.3241C22.2491 25.286 22.211 25.2225 22.1602 25.2352C21.9823 25.2479 21.7917 25.2479 21.6138 25.2479C16.8743 25.2479 12.3381 23.1005 9.33932 19.4029C9.31391 19.3648 9.25038 19.3775 9.23767 19.4156C8.56423 20.7752 8.1068 22.2237 7.87808 23.7358C7.40794 26.8743 7.99244 30.0891 9.51722 32.8591C9.54263 32.8972 9.58075 32.9226 9.63157 32.9226C10.9276 32.9099 12.2491 32.732 13.5325 32.3508C15.1716 31.868 16.7091 31.1183 18.0941 30.0891C19.8349 28.8057 21.2326 27.1666 22.2237 25.3241Z" fill="#8DE995"/>
<path d="M21.9187 9.93645C20.1779 11.2198 18.7929 12.8589 17.7891 14.7014C17.7637 14.7395 17.8018 14.803 17.8526 14.7903C22.7319 14.6124 27.4587 16.7344 30.5718 20.5082C30.5972 20.5464 30.6608 20.5337 30.6735 20.4955C31.3342 19.1359 31.7789 17.6747 31.9949 16.1626C32.427 13.0495 31.8806 9.98728 30.3939 7.24268C30.3431 7.15373 30.2542 7.10291 30.1652 7.10291C27.2046 7.16644 24.3456 8.14484 21.9187 9.93645Z" fill="#8DE995"/>
<path d="M34.5108 22.8081C34.4219 22.7954 34.3711 22.7064 34.4092 22.6302L34.7269 21.9948C35.5909 20.2414 36.1373 18.3608 36.366 16.3913C36.7091 13.5196 36.3152 10.5971 35.2478 7.94148C35.2351 7.90336 35.2097 7.87794 35.1716 7.86524C34.3711 7.5984 33.5452 7.3951 32.6938 7.26803C32.427 7.22991 32.1601 7.19179 31.8933 7.16638C31.8425 7.16638 31.8044 7.21721 31.8298 7.25533C33.2021 10.0762 33.6976 13.1765 33.2529 16.3278C32.9861 18.221 32.3889 20.0126 31.4867 21.6645C31.474 21.6899 31.474 21.7153 31.4867 21.728C32.2872 22.9097 32.8971 24.1677 33.3418 25.4637C33.3546 25.4637 33.3546 25.4637 33.3673 25.4637C35.2605 25.5527 37.1157 25.9339 38.8946 26.6073C39.1995 25.7306 39.4537 24.8284 39.6316 23.9008C38.1957 23.4053 36.7218 23.0749 35.2097 22.897L34.5108 22.8081Z" fill="#8DE995"/>
<path d="M25.2351 17.8526C25.4002 22.7192 23.3037 27.4333 19.5425 30.5591C19.5044 30.5845 19.5171 30.6481 19.5553 30.6608C20.9148 31.3215 22.3761 31.7662 23.9009 31.9823C27.0013 32.4143 30.0635 31.8552 32.7827 30.3812C32.8716 30.3304 32.9225 30.2415 32.9225 30.1525C32.8462 27.2809 31.9314 24.4092 30.1016 21.9441C28.8183 20.2033 27.1791 18.8056 25.3367 17.8145C25.2732 17.7637 25.2223 17.8018 25.2351 17.8526Z" fill="#8DE995"/>
<path d="M23.5069 37.5985C21.6391 37.3825 19.822 36.8869 18.1321 36.1372C18.0558 36.0991 17.9669 36.1499 17.9542 36.2262C17.7382 37.446 17.4332 38.6277 17.0266 39.784C18.005 39.9365 18.9961 40.0127 20.0126 40.0127C23.761 40.0127 27.268 38.9835 30.2541 37.1919C30.2795 37.1792 30.2668 37.141 30.2286 37.141C28.0431 37.7001 25.7687 37.8653 23.5069 37.5985Z" fill="#8DE995"/>
<path d="M16.9504 34.3329C16.9631 34.2439 17.0521 34.1931 17.141 34.2312L17.7891 34.5743C19.6188 35.5146 21.601 36.1118 23.6595 36.3532C26.5438 36.6963 29.4663 36.2897 32.1474 35.2096C32.5286 34.0914 32.77 32.9224 32.8717 31.7407C30.6989 32.8208 28.3482 33.3672 25.9339 33.3672C25.1969 33.3672 24.46 33.3163 23.723 33.2147C21.817 32.9479 20.0127 32.3506 18.3482 31.4485C17.1029 32.2998 15.756 32.9606 14.3329 33.418C14.3329 33.4561 14.3329 33.5069 14.3202 33.5196C14.2185 35.3367 13.8501 37.1156 13.202 38.8182C14.0279 39.1232 14.892 39.3646 15.7687 39.5552C16.2897 38.094 16.6582 36.5946 16.8615 35.0444L16.9504 34.3329Z" fill="#8DE995"/>
<path d="M12.0331 38.3609C12.5922 36.8869 12.9226 35.3621 13.0369 33.7738C11.8679 34.0407 10.6989 34.1804 9.52993 34.1804C8.1068 34.1804 6.69639 33.9898 5.33679 33.6086C7.20464 35.6163 9.4791 37.2554 12.0331 38.3609Z" fill="#8DE995"/>
<path d="M26.7472 6.28967C28.7294 5.80682 30.8006 5.70517 32.8717 6.01012C33.4816 6.09907 34.0788 6.22613 34.6633 6.39132C32.7574 4.34557 30.4321 2.69373 27.8145 1.57556C27.2427 3.11305 26.8743 4.70136 26.7472 6.28967Z" fill="#8DE995"/>
<path d="M1.8551 11.5884C3.24011 12.1602 4.70135 12.5414 6.17531 12.7447C6.07365 12.2618 5.99742 11.7663 5.93388 11.2707C5.70517 9.2885 5.87035 7.26817 6.39132 5.34949C4.49805 7.10298 2.94786 9.22496 1.8551 11.5884Z" fill="#8DE995"/>
<path d="M33.6086 34.6759C35.6671 32.7572 37.3316 30.4192 38.4498 27.7763C36.925 27.1918 35.3494 26.8614 33.7103 26.7471C34.3583 29.3773 34.3075 32.1092 33.6086 34.6759Z" fill="#8DE995"/>
</svg>
