<svg width="38" height="39" fill="none" xmlns="http://www.w3.org/2000/svg"><path d="M2.125 22.5c.229-1.967.772-3.838 1.63-5.6a.12.12 0 0 0-.085-.17A22.703 22.703 0 0 1 .278 15.73 19.541 19.541 0 0 0 0 19.012c0 3.295.845 6.398 2.318 9.102.012.024.048.012.048-.012a17.793 17.793 0 0 1-.241-5.601z" fill="#8DE995"/><path d="M5.492 15.837c.085.012.133.109.085.181l-.326.592a16.543 16.543 0 0 0-1.931 6.035 16.48 16.48 0 0 0 .941 7.726c.012.036.036.06.073.072 1.086.387 2.209.652 3.368.76a15.06 15.06 0 0 1-1.389-8.835 14.894 14.894 0 0 1 1.727-5.094 14.903 14.903 0 0 1-1.847-3.923 17.319 17.319 0 0 1-4.901-1.244 20.238 20.238 0 0 0-.76 2.427c1.387.555 2.836.953 4.297 1.195l.663.108zM16.055 2.197c1.569.241 3.09.676 4.514 1.304a.12.12 0 0 0 .17-.085c.192-1.11.47-2.185.82-3.247A19.808 19.808 0 0 0 19 0c-3.296 0-6.386.833-9.09 2.306-.024.012-.012.048.012.048a18.036 18.036 0 0 1 6.133-.157zM35.73 15.705a17.221 17.221 0 0 1-1.267 4.804c-.036.084.012.169.097.18 1.11.182 2.197.46 3.259.81.012 0 .024 0 .024-.012A18.7 18.7 0 0 0 38 19c0-3.537-.966-6.856-2.656-9.693-.012-.024-.048-.012-.048.024.543 2.076.688 4.237.435 6.374z" fill="#8DE995"/><path d="M21.704 5.215c-.012.084-.097.133-.17.096l-.603-.314a16.247 16.247 0 0 0-5.045-1.617 16.505 16.505 0 0 0-8.281.881 13.782 13.782 0 0 0-.773 3.404 15.068 15.068 0 0 1 8.836-1.376c1.799.266 3.513.857 5.082 1.738a14.81 14.81 0 0 1 3.453-1.702 17.687 17.687 0 0 1 1.122-5.263 18.03 18.03 0 0 0-2.547-.7 20.485 20.485 0 0 0-.977 4.165l-.097.688z" fill="#8DE995"/><path d="M14.05 21.052a14.981 14.981 0 0 1 5.541-12.168c.037-.024.025-.084-.012-.096a13.904 13.904 0 0 0-4.104-1.292 13.802 13.802 0 0 0-8.594 1.509.254.254 0 0 0-.133.217 13.728 13.728 0 0 0 2.68 7.991 13.663 13.663 0 0 0 4.526 3.924c.049 0 .097-.037.097-.085z" fill="#8DE995"/><path d="M21.825 22.513a13.944 13.944 0 0 0 .917-6.024.386.386 0 0 0-.23-.314 13.914 13.914 0 0 0-6.023-.917.385.385 0 0 0-.314.23 13.94 13.94 0 0 0-.917 6.023.385.385 0 0 0 .23.314 13.914 13.914 0 0 0 6.023.917.355.355 0 0 0 .314-.23z" fill="#8DE995"/><path d="M21.112 24.058c.025-.036-.012-.097-.06-.085-.169.012-.35.012-.519.012a15.05 15.05 0 0 1-11.66-5.552c-.025-.037-.085-.024-.097.012a13.904 13.904 0 0 0-1.292 4.104 13.773 13.773 0 0 0 1.557 8.667c.024.036.06.06.109.06a13.5 13.5 0 0 0 3.706-.543 13.735 13.735 0 0 0 4.333-2.149 13.665 13.665 0 0 0 3.923-4.526zM20.823 9.44a13.803 13.803 0 0 0-3.924 4.526c-.024.037.013.097.06.085a14.998 14.998 0 0 1 12.084 5.432c.024.036.085.024.097-.012a13.913 13.913 0 0 0 1.255-4.117c.41-2.957-.109-5.866-1.52-8.474a.254.254 0 0 0-.218-.132 13.64 13.64 0 0 0-7.834 2.692z" fill="#8DE995"/><path d="M32.785 21.668c-.084-.012-.132-.097-.096-.17l.301-.603a16.218 16.218 0 0 0 1.558-5.323 16.38 16.38 0 0 0-1.063-8.028.109.109 0 0 0-.072-.072 13.945 13.945 0 0 0-2.354-.567c-.253-.037-.507-.073-.76-.097-.049 0-.085.048-.06.085a14.793 14.793 0 0 1 1.351 8.618 14.86 14.86 0 0 1-1.678 5.07c-.012.024-.012.049 0 .06a14.974 14.974 0 0 1 1.763 3.55h.024c1.799.084 3.56.446 5.25 1.086.29-.833.532-1.69.701-2.571a19.99 19.99 0 0 0-4.2-.954l-.665-.084zM23.973 16.96a15.059 15.059 0 0 1-5.408 12.071c-.036.024-.024.085.012.097a13.88 13.88 0 0 0 4.129 1.255c2.945.41 5.854-.12 8.438-1.52a.254.254 0 0 0 .132-.218 13.64 13.64 0 0 0-2.68-7.798 13.665 13.665 0 0 0-4.526-3.923c-.06-.049-.109-.012-.097.036zM22.332 35.719a17.59 17.59 0 0 1-5.107-1.389.12.12 0 0 0-.169.085 21.388 21.388 0 0 1-.88 3.38c.929.145 1.87.217 2.836.217 3.561 0 6.893-.978 9.73-2.68.023-.012.011-.048-.025-.048a17.48 17.48 0 0 1-6.385.435z" fill="#8DE995"/><path d="M16.103 32.616c.012-.084.096-.133.18-.096l.616.326a16.34 16.34 0 0 0 5.577 1.69c2.74.325 5.517-.06 8.064-1.087.362-1.062.591-2.173.688-3.295a14.726 14.726 0 0 1-6.591 1.545 15.05 15.05 0 0 1-7.206-1.823 14.742 14.742 0 0 1-3.815 1.871c0 .036 0 .085-.012.097a16.734 16.734 0 0 1-1.062 5.033c.784.29 1.605.52 2.438.7a20.75 20.75 0 0 0 1.038-4.285l.085-.676zM11.432 36.443a15.3 15.3 0 0 0 .953-4.358 14.748 14.748 0 0 1-7.315-.157 19.048 19.048 0 0 0 6.362 4.515zM25.41 5.975a15.187 15.187 0 0 1 5.818-.265c.58.084 1.147.205 1.702.362a19.211 19.211 0 0 0-6.506-4.575 16.704 16.704 0 0 0-1.014 4.478zM1.762 11.009c1.316.543 2.704.905 4.105 1.098-.097-.458-.17-.93-.23-1.4a14.98 14.98 0 0 1 .435-5.625 18.906 18.906 0 0 0-4.31 5.927zM31.928 32.942a19.183 19.183 0 0 0 4.6-6.555 15.486 15.486 0 0 0-4.503-.977 15.016 15.016 0 0 1-.097 7.532z" fill="#8DE995"/></svg>