<svg width="126" height="26" fill="none" xmlns="http://www.w3.org/2000/svg"><g clip-path="url(#clip0)" fill="#164924"><path d="M12.2 25.117c-7.6 0-12.2-4.9-12.2-11.5 0-7.1 5.4-12.4 12.8-12.4 3.5 0 6.2 1.1 7.8 2.2.1.1.2.2.1.4l-1.4 4.4c-.1.2-.3.3-.5.2-1.3-.9-3.5-1.8-5.9-1.8-4.2 0-6.6 2.8-6.6 6.7 0 4.4 2.9 6.7 6.3 6.7 1 0 1.9-.1 2.7-.4.1 0 .2-.2.2-.3v-1.7-1.5c0-.2-.1-.3-.3-.3h-1.5c-.9 0-1.6 0-2.5.1-.2 0-.4-.1-.3-.3.1-1.5.1-2.7.1-3.9 0-.2.2-.3.3-.3 1.7.1 2.7.1 4.1.1 2.5 0 3.6 0 5.7-.1.2 0 .4.2.3.3-.1 1.6-.2 5.6-.2 7.6v3.4c0 .1-.1.2-.2.3-2 1-4.6 2.1-8.8 2.1zM23.6 20.717c0-3.2 2.7-5.3 8-5.3.3 0 .7 0 1.2.1v-.4c0-1.4-.6-2.1-2.4-2.1-1.7 0-3.4.6-4.7 1.2-.2.1-.4 0-.5-.2l-.6-3.5c0-.1 0-.3.2-.3 1.8-1 4.3-1.8 6.9-1.8 4.9 0 7 2 6.9 6.5l-.1 5.2c0 .9.3 1.1.9 1.1.1 0 .2 0 .4-.1.2 0 .4.1.4.3l-.2 2.8c0 .1-.1.2-.2.3-.9.3-1.8.5-2.8.5-1.9 0-3.3-.6-3.9-2.6-.9 1.6-2.9 2.6-4.8 2.6-2.8 0-4.7-1.6-4.7-4.3zm9.2-1.4l.1-1.5H32c-1.9 0-2.7.9-2.7 2s.6 1.8 1.6 1.8c1.1-.1 1.8-.8 1.9-2.3zM53.9 13.717c0 .1-.1.2-.2.1-2.7-.2-5.1.4-5.1 3.4v4c0 1.1 0 2.5.1 3.3h-6.1c-.2 0-.3-.2-.3-.4.1-1.4.2-3.4.2-5.2v-5c0-1.7-.1-3.4-.2-4.7 0-.2.1-.3.3-.3 1.2 0 4.1-.3 5.4-.5.2 0 .3.1.4.3l.2 3.7c.9-2.3 2.7-3.9 5.5-4.1.1 0 .2.1.2.2l-.4 5.2zM66 9.217v-2.6c0-1.8 0-3.6-.1-4.9 0-.1.1-.2.1-.2 1.3-.1 4.9-.4 6.1-.6.1 0 .2.1.2.2-.1.9-.1 2.3-.1 3.3v14.8c0 1.8.1 3.7.2 5.2 0 .1-.1.2-.2.2h-5.6c-.1 0-.1-.1-.2-.1l-.2-1.6c-.8 1.1-2.3 2.2-4.4 2.2-4.4 0-6.9-3.8-6.9-7.9 0-5.2 3.2-9 7.7-9 1.5 0 2.5.4 3.4 1zm-4.9 7.5c0 2.8 1.2 4.2 2.9 4.2.9 0 1.7-.5 2-1.1v-6.7c-.6-.4-1.1-.7-2-.7-1.9 0-2.9 2-2.9 4.3zM90.7 17.417l-10.2.2c.1 2 1.4 3.1 3.8 3.1 2.3 0 4.1-.6 5.6-1.4.2-.1.5.1.5.3l-.1 3.5c0 .1-.1.2-.2.3-1.9 1.1-4.1 1.8-6.6 1.8-6 0-8.9-3.7-8.9-8.2 0-4.9 4.3-8.8 9.2-8.6 4.9.2 7 3.6 7 7.8v1.2h-.1zm-5.2-2.4c-.1-1.8-.8-2.8-2.3-2.8-1.6 0-2.6 1.2-2.7 2.9l5-.1zM103.7 24.617c-.1 0-.2-.1-.2-.2.1-1.4.2-3.5.2-5.3v-3.4c0-1.9-.4-2.8-1.7-2.8-1.5 0-2.6 1.4-2.6 2.7v5.6c0 1.1 0 2.3.1 3.2 0 .1-.1.2-.2.2h-6.1c-.1 0-.2-.1-.2-.2.1-1.4.2-3.5.2-5.3v-4.9c0-1.8-.1-3.7-.2-5.1 0-.1.1-.2.2-.2 1.2 0 4.6-.4 5.8-.6.1 0 .2.1.2.2l.2 3.3c1.3-2.3 3.7-3.7 5.9-3.7 3.1 0 4.6 2.1 4.6 5.6v7.4c0 1.1.1 2.3.1 3.2 0 .1-.1.2-.2.2h-6.1v.1zM125.1 9.517l-.9 3.4c-.1.2-.3.3-.5.2-1.1-.5-2.3-.9-3.5-.9-1.2 0-1.8.4-1.8 1.1 0 1.7 7.6 1.4 7.6 6.5 0 3.6-2.9 5.4-7.2 5.4-1.8 0-4.6-.5-6.1-1.2-.1-.1-.2-.2-.2-.3l.1-3.7c0-.2.3-.4.5-.3 1.5.7 3.6 1.5 5.5 1.5 1.2 0 1.8-.5 1.8-1 0-1.9-7.6-1.4-7.6-6.6 0-3 2.5-5.3 6.8-5.3 2 0 4 .4 5.3.9.1-.1.2.1.2.3z"/></g><defs><clipPath id="clip0"><path fill="#fff" transform="translate(0 .917)" d="M0 0h126v24.2H0z"/></clipPath></defs></svg>