<svg width="22" height="24" fill="none" xmlns="http://www.w3.org/2000/svg"><mask id="a" maskUnits="userSpaceOnUse" x="0" y="0" width="22" height="24" fill="#000"><path fill="#fff" d="M0 0h22v24H0z"/><path d="M11.024 23.166a2.886 2.886 0 01-1.446-.386l-7.084-4.06a2.941 2.941 0 01-1.47-2.518L1 8.022c0-1.037.554-2 1.446-2.519l7.072-4.108c.892-.518 2-.53 2.904-.012l7.096 4.06a2.926 2.926 0 011.458 2.506l.024 8.18c0 1.037-.542 2-1.434 2.519l-7.072 4.108c-.446.265-.952.41-1.47.41.012 0 0 0 0 0zm-.06-21.808c-.446 0-.88.121-1.277.35l-7.06 4.108A2.56 2.56 0 001.36 8.021l.025 8.18a2.57 2.57 0 001.277 2.206l7.096 4.06c.386.229.831.35 1.277.337.446 0 .892-.12 1.277-.35l7.072-4.108a2.559 2.559 0 001.266-2.204l-.024-8.181c0-.904-.494-1.747-1.278-2.193l-7.096-4.06a2.624 2.624 0 00-1.29-.35z"/></mask><path d="M11.024 23.166a2.886 2.886 0 01-1.446-.386l-7.084-4.06a2.941 2.941 0 01-1.47-2.518L1 8.022c0-1.037.554-2 1.446-2.519l7.072-4.108c.892-.518 2-.53 2.904-.012l7.096 4.06a2.926 2.926 0 011.458 2.506l.024 8.18c0 1.037-.542 2-1.434 2.519l-7.072 4.108c-.446.265-.952.41-1.47.41.012 0 0 0 0 0zm-.06-21.808c-.446 0-.88.121-1.277.35l-7.06 4.108A2.56 2.56 0 001.36 8.021l.025 8.18a2.57 2.57 0 001.277 2.206l7.096 4.06c.386.229.831.35 1.277.337.446 0 .892-.12 1.277-.35l7.072-4.108a2.559 2.559 0 001.266-2.204l-.024-8.181c0-.904-.494-1.747-1.278-2.193l-7.096-4.06a2.624 2.624 0 00-1.29-.35z" fill="#2C3437"/><path d="M9.578 22.78l.398-.682-.005-.003-.393.685zm-7.084-4.06l-.393.685.393-.685zm-1.47-2.518l-.79.002v.007l.79-.01zM1 8.022H.21v.001L1 8.021zm1.446-2.519l-.397-.683.397.683zm7.072-4.108l.397.683-.397-.683zm2.904-.012l-.393.685.393-.685zm7.096 4.06l.397-.683-.005-.003-.392.686zm1.458 2.506h-.79v.002l.79-.002zm.024 8.18h.79v-.002l-.79.003zm-1.434 2.519l.397.683-.397-.683zm-7.072 4.108l-.397-.683-.007.004.404.68zM9.687 1.708l-.394-.685-.004.002.398.683zm-7.06 4.108l-.398-.682h-.001l.399.682zM1.36 8.021h-.79v.002l.79-.002zm.025 8.18h.79V16.2l-.79.003zm1.277 2.206l-.4.682.007.003.393-.685zm7.096 4.06l.403-.68-.01-.006-.393.686zm1.277.337v-.79H11.015l.021.79zm1.277-.35l-.397-.682-.006.004.403.679zm7.072-4.108l.397.683h.002l-.398-.683zm1.266-2.204h.79v-.003l-.79.003zm-.024-8.181h-.79v.002l.79-.002zm-1.278-2.193l-.392.686h.002l.39-.686zm-7.096-4.06l.392-.686-.007-.004-.385.69zm-1.229 20.668c-.371 0-.739-.098-1.048-.278l-.796 1.365a3.677 3.677 0 001.844.493v-1.58zm-1.053-.281l-7.084-4.06-.786 1.37 7.084 4.06.786-1.37zm-7.084-4.06a2.152 2.152 0 01-1.073-1.842l-1.58.018a3.732 3.732 0 001.867 3.194l.786-1.37zM1.814 16.2L1.79 8.019l-1.58.004.024 8.181 1.58-.005zM1.79 8.02c0-.756.405-1.459 1.053-1.835L2.049 4.82A3.709 3.709 0 00.21 8.021h1.58zm1.053-1.835l7.072-4.108L9.12.712 2.05 4.82l.794 1.366zm7.072-4.108a2.117 2.117 0 012.114-.01l.786-1.37A3.696 3.696 0 009.12.711l.794 1.366zm2.114-.01l7.097 4.06.784-1.37L12.814.696l-.785 1.371zm7.092 4.058a2.136 2.136 0 011.065 1.823h1.58a3.715 3.715 0 00-1.851-3.19l-.794 1.367zm1.065 1.825l.024 8.18 1.58-.004-.024-8.18-1.58.004zm.024 8.179c0 .762-.399 1.462-1.04 1.835l.793 1.366a3.698 3.698 0 001.827-3.201h-1.58zm-1.04 1.835l-7.073 4.108.794 1.366 7.072-4.108-.794-1.366zm-7.08 4.112a2.086 2.086 0 01-1.066.299v1.58c.666 0 1.31-.186 1.874-.52l-.808-1.359zm-1.066 1.879h.005v-1.58h-.001-.001-.002v1.58h.004v-1.58h-.002-.001-.001v1.58zM10.964.568c-.592 0-1.16.161-1.671.455l.788 1.37c.284-.164.583-.245.883-.245V.568zm-1.675.457L2.23 5.134l.795 1.365 7.06-4.108-.795-1.366zm-7.061 4.11A3.35 3.35 0 00.57 8.02h1.58c0-.623.334-1.207.874-1.523l-.797-1.364zM.57 8.022l.025 8.181 1.58-.005-.025-8.18-1.58.004zm.025 8.179c0 1.19.648 2.29 1.668 2.887l.797-1.364a1.78 1.78 0 01-.885-1.523H.596zm1.674 2.89l7.097 4.06.784-1.37-7.096-4.061-.785 1.371zm7.086 4.054a3.178 3.178 0 001.701.448l-.042-1.58c-.291.008-.59-.07-.853-.226l-.806 1.358zm1.68.448c.586 0 1.171-.158 1.68-.46l-.806-1.358a1.723 1.723 0 01-.874.238v1.58zm1.674-.456l7.072-4.109-.793-1.366-7.073 4.109.794 1.366zm7.074-4.11a3.349 3.349 0 001.657-2.886h-1.58a1.77 1.77 0 01-.874 1.522l.797 1.364zm1.657-2.889l-.024-8.18-1.58.004.024 8.18 1.58-.004zm-.024-8.178c0-1.19-.648-2.294-1.677-2.88l-.781 1.374c.537.306.878.888.878 1.506h1.58zm-1.675-2.879l-7.097-4.06-.784 1.372 7.096 4.06.785-1.372zm-7.104-4.064a3.413 3.413 0 00-1.674-.45v1.58c.298 0 .6.08.904.25l.77-1.38z" fill="#2C3437" mask="url(#a)"/><path d="M5.837 16.32l-.003-.002a2.154 2.154 0 01-1.076-1.853h.327s0 0 0 0m.752 1.855l-1.079-1.856h.327m.752 1.856l4.105 2.345c.325.197.7.292 1.07.292L5.836 16.32zm-.752-1.856h.068l-.011-4.728v-.001c0-.617.323-1.19.86-1.507l-.032-.054h0c-.551.32-.896.925-.896 1.56v.001h0l.011 4.73zM9.908 5.5l-.002.001.17.287M9.909 5.5l6.94 4.201h.044s0 0 0 0 0 0 0 0 0 0 0 0V9.7h-.045a1.783 1.783 0 00-.88-1.512l-.006-.003-.004-.002-4.096-2.34.027-.043-.005-.003h0M9.908 5.5a2.128 2.128 0 012.147-.002l4.108 2.347.003.002h0a2.178 2.178 0 011.076 1.847V9.7h0l.011 4.73h0c0 .761-.401 1.467-1.065 1.854h0l-4.094 2.38M9.908 5.5l2.186 13.164M9.908 5.5h.002l.167.287M9.908 5.5l1.975.297m-1.806-.01h-.001 0l-.008.006L5.98 8.169h0l-.01.005.032.053.009-.005 4.088-2.376.007-.004.002-.001m-.031-.053s0 0 0 0m0 0l.031.053m0 0a1.7 1.7 0 01.87-.237c.3 0 .601.076.87.23l.025-.043.007.004m-1.772.046l-.03-.054m1.802.008l.003.002h0m-.003-.002l.003.002m-.003-.002a1.68 1.68 0 00-.903-.248c-.322 0-.624.089-.9.24m6.375 3.918v.003h.045l.011 4.723h-.045m-.01-4.726v-.003h.044V9.7c0-.493-.267-.953-.701-1.213l-.025.043h-.002m.683 1.174v-.004s0 0 0 0a1.388 1.388 0 00-.683-1.17m.683 1.174l.011 4.726m-.694-5.9l-.001-.001.025-.044-.007-.004m-.017.048l-.008-.004m.025-.044L11.687 6.14l-.003-.002-.007-.004a1.284 1.284 0 00-.7-.192c-.243 0-.476.065-.698.185l-.003.002-.01.005m5.52 2.348l-.026.043m.026-.043l-.025.044m-5.495-2.392L6.18 8.51l.03.053 4.087-2.375m-.03-.054l.031.054m-.03-.054l.03.054m0 0l.16.292a.11.11 0 01.003-.002l.005-.002-.168-.288m0 0h0m0 0l.01-.006h0l.003-.002c.202-.12.434-.181.667-.181.232 0 .465.058.673.178h.002l.007.005h0l.003.002 4.098 2.341m0 0l-.175.297.002.001.003.002.17-.3m0 0h0m.703 5.905h-.35s0 0 0 0v.002l.35-.001m0 0s0 0 0 0m0 0c0 .48-.253.926-.672 1.17h0l.025.044c.424-.25.692-.72.692-1.214h-.045 0zm-.647 1.215l-.026-.044-.007.004h0l-4.09 2.377h0l-.007.004s0 0 0 0l-.001.001a1.294 1.294 0 01-.674.179h.005l4.8-2.522zm0 0a.254.254 0 01-.007.004l.007-.005zm-3.723 3.018a2.083 2.083 0 01-1.077.293l1.078-.293zm4.765-4.234c0 .621-.327 1.197-.869 1.513l.87-1.512zM5.864 9.736s0 0 0 0h0zm-.395 0l.011 4.729h0c0 .497.271.971.711 1.22l.008.004.03-.054-.76-5.9zm.7-1.22c-.429.249-.7.723-.7 1.219L6.2 8.57l.01-.005h0l-.032-.054-.01.006z" fill="#2C3437" stroke="#2C3437" stroke-width=".79"/></svg>