<svg width="33" height="33" fill="none" xmlns="http://www.w3.org/2000/svg"><path d="M10.986 25.745c0 .176-.11.264-.33.264-.265.045-.398-.044-.398-.264 0-.133.11-.199.331-.199.265-.044.397.022.397.199zM9.2 25.81c-.264-.044-.375-.154-.33-.331.088-.176.242-.22.463-.132.22.044.308.154.264.33-.044.177-.176.221-.397.133zm2.648-.463c.22 0 .33.066.33.198.045.133-.044.243-.264.331-.22.044-.353-.022-.397-.198 0-.177.11-.287.33-.331zM16.215 0c3 0 5.78.706 8.338 2.118 2.56 1.412 4.567 3.353 6.023 5.824 1.5 2.47 2.25 5.206 2.25 8.206 0 3.663-1.037 6.95-3.11 9.861-2.03 2.868-4.7 4.854-8.008 5.957-.353.088-.64.044-.86-.133a.898.898 0 01-.265-.661v-2.118-3.442c0-1.411-.375-2.426-1.125-3.044.97-.132 1.72-.243 2.25-.33.53-.09 1.191-.288 1.985-.596.794-.31 1.39-.706 1.787-1.192.441-.485.816-1.169 1.125-2.051.309-.883.463-1.942.463-3.177 0-.838-.132-1.522-.397-2.052-.264-.53-.706-1.125-1.323-1.787.53-1.367.485-2.868-.133-4.5-.44-.132-1.037-.044-1.787.265a10.36 10.36 0 00-1.985.926l-.794.596a15.115 15.115 0 00-4.236-.596c-1.412 0-2.78.199-4.103.596a6.848 6.848 0 00-.927-.596c-.397-.265-1.014-.551-1.853-.86-.794-.353-1.39-.463-1.787-.331-.662 1.632-.728 3.132-.198 4.5-1.015 1.103-1.522 2.383-1.522 3.839 0 1.235.154 2.294.463 3.177.309.882.662 1.566 1.059 2.051.397.486.97.883 1.72 1.192.75.308 1.39.529 1.92.661.573.089 1.323.177 2.25.265-.574.53-.927 1.28-1.059 2.25a7.196 7.196 0 01-1.39.397c-.441.089-1.015 0-1.72-.264-.706-.265-1.28-.773-1.721-1.523a2.896 2.896 0 00-1.06-1.125c-.396-.309-.75-.485-1.058-.53l-.397-.065c-.97 0-1.015.33-.133.992.31.177.618.464.927.86.309.398.53.75.662 1.06l.265.53c.176.529.485.97.926 1.323.441.353.927.573 1.456.662a9.27 9.27 0 001.522.132c.486 0 .883-.022 1.192-.066l.463-.066v2.382c.044 1.06.066 1.61.066 1.655 0 .264-.11.485-.33.662-.177.176-.442.22-.795.132-3.353-1.103-6.067-3.089-8.14-5.957C1.037 23.098 0 19.811 0 16.15c0-4.59 1.544-8.428 4.633-11.516C7.765 1.544 11.626 0 16.215 0zM6.42 22.833c.088-.088.198-.066.33.066.133.132.155.243.067.33-.088.09-.199.067-.331-.065-.133-.133-.155-.243-.066-.331zm-.728-.53c.088-.088.198-.11.33-.066.133.088.177.177.133.265-.044.132-.132.154-.265.066-.176-.088-.242-.176-.198-.265zm2.184 2.317c.088-.133.22-.11.397.066.176.176.22.33.132.463-.132.133-.287.11-.463-.066-.177-.176-.199-.331-.066-.463zm-.795-.927c.133-.132.265-.088.398.133.132.176.132.308 0 .397-.133.088-.265.044-.398-.133-.088-.22-.088-.353 0-.397z" fill="#7CE0D6"/></svg>