<svg width="608" height="160" fill="none" xmlns="http://www.w3.org/2000/svg"><path d="M564.771-134.839L345.18-260.78A84.116 84.116 0 00302.943-272a84.104 84.104 0 00-42.163 11.492L41.995-133.049a84.742 84.742 0 00-30.744 31.007A84.914 84.914 0 000-59.82l.858 253.549a85.036 85.036 0 0011.524 42.24 84.864 84.864 0 0031 30.877L262.91 392.754A84.162 84.162 0 00305.173 404a84.16 84.16 0 0042.2-11.485l218.849-127.496a84.998 84.998 0 0030.619-31.118A85.172 85.172 0 00608 191.663l-.862-253.546A85.078 85.078 0 00595.635-104a84.923 84.923 0 00-30.864-30.838z" fill="#CBF3EF" fill-opacity=".4"/><path d="M457.266-69.39l-135.8-77.689a52.116 52.116 0 00-52.194.168L133.971-68.286a52.33 52.33 0 00-19.013 19.127A52.273 52.273 0 00108-23.114l.531 156.406a52.356 52.356 0 007.126 26.056 52.424 52.424 0 0019.171 19.047l135.761 77.668a52.145 52.145 0 0052.234-.148l135.34-78.647a52.496 52.496 0 0018.936-19.196A52.439 52.439 0 00484 132.017l-.533-156.403a52.386 52.386 0 00-7.114-25.981 52.445 52.445 0 00-19.087-19.023z" fill="#CBF3EF" fill-opacity=".4"/><path d="M457.266-69.39l-135.8-77.689a52.116 52.116 0 00-52.194.168L133.971-68.286a52.33 52.33 0 00-19.013 19.127A52.273 52.273 0 00108-23.114l.531 156.406a52.356 52.356 0 007.126 26.056 52.424 52.424 0 0019.171 19.047l135.761 77.668a52.145 52.145 0 0052.234-.148l135.34-78.647a52.496 52.496 0 0018.936-19.196A52.439 52.439 0 00484 132.017l-.533-156.403a52.386 52.386 0 00-7.114-25.981 52.445 52.445 0 00-19.087-19.023z" fill="#CBF3EF" fill-opacity=".4"/><path d="M401.505-37.52l-83.792-69.306c-4.902-4.07-10.462-6.2-16.116-6.174-5.655.027-11.205 2.208-16.089 6.324l-83.484 70.14c-4.875 4.11-8.919 9.993-11.731 17.063-2.811 7.07-4.292 15.081-4.293 23.235l.327 139.527c.034 8.17 1.551 16.185 4.398 23.244 2.847 7.06 6.925 12.919 11.829 16.992l83.767 69.286c4.905 4.077 10.468 6.212 16.127 6.189 5.659-.023 11.213-2.203 16.102-6.32l83.508-70.161c4.861-4.141 8.888-10.044 11.684-17.124 2.796-7.08 4.264-15.092 4.258-23.243l-.329-139.525c-.04-8.146-1.553-16.136-4.389-23.178-2.836-7.041-6.895-12.891-11.777-16.97z" fill="#CBF3EF" fill-opacity=".4"/><path d="M401.505-37.52l-83.792-69.306c-4.902-4.07-10.462-6.2-16.116-6.174-5.655.027-11.205 2.208-16.089 6.324l-83.484 70.14c-4.875 4.11-8.919 9.993-11.731 17.063-2.811 7.07-4.292 15.081-4.293 23.235l.327 139.527c.034 8.17 1.551 16.185 4.398 23.244 2.847 7.06 6.925 12.919 11.829 16.992l83.767 69.286c4.905 4.077 10.468 6.212 16.127 6.189 5.659-.023 11.213-2.203 16.102-6.32l83.508-70.161c4.861-4.141 8.888-10.044 11.684-17.124 2.796-7.08 4.264-15.092 4.258-23.243l-.329-139.525c-.04-8.146-1.553-16.136-4.389-23.178-2.836-7.041-6.895-12.891-11.777-16.97z" fill="#CBF3EF" fill-opacity=".6"/></svg>