<svg width="28" height="24" fill="none" xmlns="http://www.w3.org/2000/svg"><path fill-rule="evenodd" clip-rule="evenodd" d="M14.981.194a.967.967 0 00-1.143 0L1.386 9.31a.967.967 0 101.144 1.56l11.88-8.698 11.88 8.699a.968.968 0 001.143-1.561L14.98.194zM4.854 10.51a.968.968 0 00-.968.968v11.547c0 .534.434.967.968.967h6.825a.967.967 0 00.968-.967v-6.613c0-.972.79-1.763 1.762-1.763s1.763.791 1.763 1.763v6.613a.967.967 0 00.968.967h6.825a.968.968 0 00.968-.967V11.479a.967.967 0 10-1.935 0v10.579h-4.89v-5.645a3.702 3.702 0 00-3.699-3.698 3.702 3.702 0 00-3.697 3.698v5.645h-4.89V11.479a.968.968 0 00-.968-.968z" fill="#7CE0D6"/></svg>