<svg width="56" height="57" fill="none" xmlns="http://www.w3.org/2000/svg"><path d="M17.045 10.149H6.45l-5.297 9.175L6.45 28.5h10.595l5.298-9.176-5.298-9.175z" fill="#F7BE56"/><path d="M17.045 28.5H6.45l-5.297 9.176L6.45 46.85h10.595l5.298-9.175-5.298-9.176z" fill="#F7BE56"/><path d="M32.865 19.324H22.27L16.972 28.5l5.298 9.176h10.595l5.297-9.176-5.297-9.176z" fill="#F7BE56"/><path d="M33.438 38.675H21.69L15.812 28.5l5.878-10.175h11.748L39.315 28.5l-5.877 10.175zm-10.596-1.999h9.416L37.01 28.5l-4.75-8.176h-9.416L18.125 28.5l4.718 8.176z" fill="#FFDD0F"/><path d="M48.737 10.149H38.142l-5.297 9.175 5.297 9.176h10.595l5.298-9.176-5.298-9.176zM48.737 28.5H38.142l-5.297 9.176 5.297 9.175h10.595l5.298-9.175-5.298-9.176z" fill="#F7BE56"/><path d="M32.865 37.676H22.27l-5.298 9.175 5.298 9.176h10.595l5.297-9.176-5.297-9.175zM32.865.973H22.27l-5.298 9.176 5.298 9.175h10.595l5.297-9.176L32.865.973z" fill="#F7BE56"/><path d="M32.865.973V.64H22.076l-5.49 9.509 5.49 9.508h10.982l5.49-9.508-5.49-9.51h-.193v.334l-.294.167 5.205 9.009-5.105 8.842H22.464l-5.111-8.842 5.11-8.843h10.403V.973l-.294.167.294-.167z" fill="#F7BE56"/><path d="M18.205 13.454H7.603l-4.911 8.51c1.726.965 1.892 3.757 3.199 5.243 1.092 1.24 3.205 1.14 4.377 1.886a17.27 17.27 0 002 0c1.292-.087 2.558-.36 3.844-.54 1.88-2.712 3.286-5.797 5.331-8.39.106-.123.23-.231.367-.32l-3.605-6.39zM13.727 47.038a7.682 7.682 0 012.066-.167c.265.053.521.145.76.274.233-.52.393-1.093.626-1.56a33.585 33.585 0 012.559-3.758c.766-1.113 1.332-2.406 2.385-3.212l-3.918-6.783H7.603l-5.33 9.175 3.61 6.15c2.615.104 5.234.064 7.844-.12z" fill="#FCD462"/><path d="M23.063 38.069c2.039-.74 4.957-.713 7.096-.573 1.226.073 2.279.546 3.239-.287.726-.626 1.126-1.999 1.559-2.852.766-1.513 1.559-3.785 2.978-4.824h.047l-3.998-6.87H23.422l-5.297 9.169 3.944 6.83c.297-.25.633-.45.994-.593z" fill="#FCD462"/><path d="M44.686 28.553c1.153-.133 2.359.053 3.465-.066 1.332-.14 1.332-.58 2.032-1.706 1.266-2 2.306-4.472 3.692-6.424l-3.999-6.903H39.295l-5.331 9.175 3.998 6.884c1.713-1.213 4.771-.727 6.724-.96zM46.618 47.391c2.039.107 2.572-.766 3.738-2.232 1.38-1.746 3.072-3.559 3.125-5.904.004-.296.08-.586.22-.846l-3.811-6.577H39.295l-5.331 9.176 3.998 6.896c2.506-1.719 5.85-.653 8.656-.513z" fill="#FCD462"/><path d="M24.682 56.68c1.999-.073 4.598.313 6.53-.107 3.152-.666 3.878-6.163 6.23-8.276.17-.159.356-.302.553-.426l-3.998-6.89H23.422l-5.297 9.175 3.805 6.59c.913 0 1.832-.026 2.752-.066zM34.017 4.278H23.422l-5.297 9.176 4.218 5.87h10.895l4.538-8.543-3.759-6.503z" fill="#FCD462"/><path d="M55.187 19.324L49.31 9.176H38.735L33.405 0H21.69l-5.298 9.176H5.877L0 19.324 5.297 28.5 0 37.676l5.877 10.148h10.515L21.723 57h11.715l5.33-9.176h10.575l5.878-10.175-5.331-9.176 5.297-9.149zm-7.03-8.15l4.758 8.15-4.758 8.176h-9.442l-4.704-8.156 4.724-8.17h9.422zM36.99 28.5l-4.73 8.176h-9.33L18.205 28.5l4.724-8.176h9.33l4.73 8.176zM22.843 1.972h9.415l4.711 8.157-4.71 8.196h-9.33l-4.764-8.243 4.678-8.11zM7.03 11.175h9.329l4.758 8.243-4.665 8.11H7.03l-4.725-8.204 4.725-8.15zm9.329 34.704h-9.33l-4.724-8.203 4.725-8.177h9.442l4.665 8.11-4.778 8.27zm15.9 9.149h-9.416l-4.665-8.11 4.751-8.243h9.33l4.73 8.196-4.73 8.157zm15.898-9.203h-9.422l-4.724-8.163 4.704-8.163h9.442l4.758 8.177-4.758 8.15z" fill="#FFDD0F"/></svg>