<svg width="22" height="22" fill="none" xmlns="http://www.w3.org/2000/svg"><path fill-rule="evenodd" clip-rule="evenodd" d="M11 20a9 9 0 1 0 0-18 9 9 0 0 0 0 18z" fill="#FF6969" stroke="#FF6969" stroke-width="3"/><path d="M14.472 7.528a.523.523 0 0 1 0 .74l-6.205 6.204a.522.522 0 0 1-.739 0l6.944-6.944zm0 0a.523.523 0 0 0-.74 0m.74 0h-.74m0 0-6.204 6.205m6.205-6.205-6.205 6.205m0 0a.523.523 0 0 0 0 .739v-.74z" fill="#fff" stroke="#fff" stroke-width=".5"/><path d="M14.472 13.733a.523.523 0 0 1 0 .739.522.522 0 0 1-.74 0L7.529 8.267a.523.523 0 0 1 0-.739m6.944 6.205L8.09 7.705a.273.273 0 0 0-.385 0l-.177-.177m6.944 6.205L8.267 7.528l-.176.177.176-.177m6.205 6.205L8.267 7.528m-.739 0a.523.523 0 0 1 .74 0m-.74 0h.74" fill="#fff" stroke="#fff" stroke-width=".5"/></svg>