<svg width="85" height="84" fill="none" xmlns="http://www.w3.org/2000/svg"><g clip-path="url(#a)"><path d="M62.418 26.825 45.8 17.31a6.372 6.372 0 0 0-6.387.02l-16.557 9.63a6.408 6.408 0 0 0-3.178 5.533l.065 19.157a6.417 6.417 0 0 0 3.218 5.524l16.613 9.513a6.376 6.376 0 0 0 6.392-.018l16.56-9.633a6.427 6.427 0 0 0 3.162-5.543l-.065-19.156a6.42 6.42 0 0 0-3.206-5.512z" fill="#FFF19F"/><path d="m54.88 32.621-10.27-5.88a3.938 3.938 0 0 0-3.947.012L30.43 32.705a3.96 3.96 0 0 0-1.964 3.42l.04 11.84a3.965 3.965 0 0 0 1.988 3.415l10.268 5.88a3.942 3.942 0 0 0 3.95-.011l10.236-5.954a3.972 3.972 0 0 0 1.954-3.427l-.04-11.84a3.969 3.969 0 0 0-1.982-3.407z" fill="#FFDD0F"/><path d="M113.617 26.651 97 17.136a6.371 6.371 0 0 0-6.387.02l-16.556 9.63a6.408 6.408 0 0 0-3.178 5.535l.065 19.156a6.416 6.416 0 0 0 3.218 5.525l16.613 9.512a6.375 6.375 0 0 0 6.391-.017l16.561-9.633a6.423 6.423 0 0 0 3.162-5.543l-.065-19.156a6.427 6.427 0 0 0-3.207-5.514z" fill="#FFF19F"/><path d="m106.079 32.447-10.27-5.88a3.937 3.937 0 0 0-3.947.012l-10.233 5.952a3.96 3.96 0 0 0-1.964 3.42l.04 11.84a3.965 3.965 0 0 0 1.989 3.415l10.267 5.88a3.941 3.941 0 0 0 3.95-.011l10.236-5.954a3.98 3.98 0 0 0 1.954-3.425l-.04-11.84a3.969 3.969 0 0 0-1.982-3.409z" fill="#FFEB6F"/><path d="m10.418 27.002-16.617-9.516a6.372 6.372 0 0 0-6.387.02l-16.557 9.63a6.41 6.41 0 0 0-3.177 5.533l.065 19.157a6.416 6.416 0 0 0 3.218 5.524l16.612 9.513a6.376 6.376 0 0 0 6.392-.018l16.56-9.633a6.427 6.427 0 0 0 3.162-5.542l-.065-19.156A6.422 6.422 0 0 0 10.418 27z" fill="#FFF19F"/><path d="m2.88 32.798-10.27-5.881a3.937 3.937 0 0 0-3.947.012l-10.232 5.952a3.96 3.96 0 0 0-1.964 3.42l.04 11.84a3.965 3.965 0 0 0 1.988 3.416l10.268 5.88a3.94 3.94 0 0 0 3.95-.012l10.235-5.953a3.972 3.972 0 0 0 1.955-3.426l-.04-11.84a3.969 3.969 0 0 0-1.982-3.408z" fill="#FFEB6F"/><path d="M87.898-18.775 71.281-28.29a6.372 6.372 0 0 0-6.387.02l-16.556 9.63a6.408 6.408 0 0 0-3.178 5.533l.065 19.157a6.417 6.417 0 0 0 3.218 5.524l16.613 9.513a6.376 6.376 0 0 0 6.392-.018l16.56-9.633a6.428 6.428 0 0 0 3.162-5.542l-.065-19.156a6.422 6.422 0 0 0-3.207-5.512z" fill="#FFF19F"/><path d="m80.361-12.979-10.27-5.88a3.938 3.938 0 0 0-3.947.012L55.91-12.895a3.959 3.959 0 0 0-1.964 3.42l.04 11.84a3.966 3.966 0 0 0 1.988 3.416l10.268 5.879a3.94 3.94 0 0 0 3.95-.011L80.43 5.695a3.972 3.972 0 0 0 1.954-3.425l-.04-11.84a3.969 3.969 0 0 0-1.982-3.409z" fill="#FFEB6F"/><path d="m28.422-12.979-10.27-5.88a3.938 3.938 0 0 0-3.948.012L3.971-12.895a3.96 3.96 0 0 0-1.964 3.42l.04 11.84A3.966 3.966 0 0 0 4.036 5.78l10.268 5.879a3.94 3.94 0 0 0 3.95-.011l10.235-5.954a3.972 3.972 0 0 0 1.954-3.425l-.04-11.84a3.969 3.969 0 0 0-1.981-3.409zm47.281 3.582-6.348-3.634a2.434 2.434 0 0 0-2.44.008l-6.323 3.678a2.449 2.449 0 0 0-1.214 2.114l.025 7.318a2.451 2.451 0 0 0 1.23 2.11l6.345 3.634a2.436 2.436 0 0 0 2.442-.007l6.326-3.68A2.456 2.456 0 0 0 76.953.027L76.93-7.29a2.454 2.454 0 0 0-1.226-2.107z" fill="#FFDD0F"/><path d="m35.801-18.599-16.618-9.515a6.37 6.37 0 0 0-6.386.02l-16.556 9.63a6.407 6.407 0 0 0-3.178 5.534l.065 19.156a6.417 6.417 0 0 0 3.218 5.524l16.612 9.513a6.376 6.376 0 0 0 6.392-.018l16.56-9.633a6.426 6.426 0 0 0 3.162-5.542l-.065-19.156a6.42 6.42 0 0 0-3.206-5.513zm52.097 91.024L71.281 62.91a6.37 6.37 0 0 0-6.387.02l-16.556 9.63a6.408 6.408 0 0 0-3.178 5.535l.065 19.156a6.42 6.42 0 0 0 3.218 5.525l16.613 9.512a6.376 6.376 0 0 0 6.392-.018l16.56-9.632a6.433 6.433 0 0 0 3.162-5.543l-.065-19.156a6.421 6.421 0 0 0-3.207-5.514z" fill="#FFF19F"/><path d="m80.361 78.103-10.27-5.88a3.937 3.937 0 0 0-3.947.013L55.91 78.188a3.96 3.96 0 0 0-1.964 3.42l.04 11.84a3.966 3.966 0 0 0 1.988 3.414l10.268 5.879a3.935 3.935 0 0 0 3.95-.011l10.236-5.953a3.972 3.972 0 0 0 1.954-3.426l-.04-11.84a3.969 3.969 0 0 0-1.982-3.408z" fill="#FFEB6F"/><path d="m28.361 78.222-10.27-5.88a3.939 3.939 0 0 0-3.948.013L3.912 78.306a3.96 3.96 0 0 0-1.964 3.42l.04 11.84a3.965 3.965 0 0 0 1.989 3.415l10.267 5.879a3.94 3.94 0 0 0 3.95-.011l10.236-5.954a3.973 3.973 0 0 0 1.954-3.425l-.04-11.841a3.969 3.969 0 0 0-1.982-3.407zm47.342 3.582-6.348-3.635a2.434 2.434 0 0 0-2.44.008l-6.323 3.678a2.45 2.45 0 0 0-1.214 2.114l.025 7.318a2.45 2.45 0 0 0 1.23 2.11l6.345 3.634a2.436 2.436 0 0 0 2.442-.007l6.326-3.68a2.455 2.455 0 0 0 1.207-2.117l-.024-7.317a2.453 2.453 0 0 0-1.226-2.106z" fill="#FFDD0F"/><path d="m35.898 72.602-16.617-9.516a6.37 6.37 0 0 0-6.387.021l-16.556 9.63a6.408 6.408 0 0 0-3.178 5.534l.065 19.156a6.416 6.416 0 0 0 3.218 5.525l16.613 9.513a6.377 6.377 0 0 0 6.392-.018l16.56-9.633a6.43 6.43 0 0 0 3.162-5.542l-.065-19.157a6.422 6.422 0 0 0-3.206-5.513z" fill="#FFF19F"/><path d="M2.761-2.402-7.51-8.283a3.938 3.938 0 0 0-3.947.013L-21.69-2.32a3.96 3.96 0 0 0-1.964 3.42l.04 11.84a3.964 3.964 0 0 0 1.989 3.416l10.267 5.88a3.94 3.94 0 0 0 3.95-.012l10.236-5.953a3.972 3.972 0 0 0 1.954-3.426l-.04-11.84a3.969 3.969 0 0 0-1.98-3.408z" fill="#FFDD0F"/><path d="m28.228-12.979-10.27-5.88a3.938 3.938 0 0 0-3.948.012L3.777-12.895a3.96 3.96 0 0 0-1.964 3.42l.04 11.84A3.966 3.966 0 0 0 3.842 5.78l10.267 5.879a3.94 3.94 0 0 0 3.95-.011l10.236-5.954a3.972 3.972 0 0 0 1.954-3.425l-.04-11.84a3.969 3.969 0 0 0-1.981-3.409zm0 90.964-10.27-5.88a3.938 3.938 0 0 0-3.948.012L3.777 78.069a3.96 3.96 0 0 0-1.964 3.42l.04 11.84a3.967 3.967 0 0 0 1.989 3.415l10.267 5.88a3.939 3.939 0 0 0 3.95-.011l10.236-5.954a3.972 3.972 0 0 0 1.954-3.425l-.04-11.84a3.968 3.968 0 0 0-1.981-3.409z" fill="#FFEB6F"/></g><defs><clipPath id="a"><rect x=".684" width="84" height="84" rx="42" fill="#fff"/></clipPath></defs></svg>