<svg width="85" height="84" fill="none" xmlns="http://www.w3.org/2000/svg"><g clip-path="url(#clip0)"><path d="M62.418 26.825L45.8 17.31a6.372 6.372 0 00-6.387.02l-16.557 9.63a6.408 6.408 0 00-3.178 5.533l.065 19.157a6.417 6.417 0 003.218 5.524l16.613 9.513a6.376 6.376 0 006.392-.018l16.56-9.633a6.427 6.427 0 003.162-5.543l-.065-19.156a6.42 6.42 0 00-3.206-5.512z" fill="#FFF19F"/><path d="M54.88 32.621l-10.27-5.88a3.938 3.938 0 00-3.947.012L30.43 32.705a3.96 3.96 0 00-1.964 3.42l.04 11.84a3.965 3.965 0 001.988 3.415l10.268 5.88a3.942 3.942 0 003.95-.011l10.236-5.954a3.972 3.972 0 001.954-3.427l-.04-11.84a3.969 3.969 0 00-1.982-3.407z" fill="#FFDD0F"/><path d="M113.617 26.651L97 17.136a6.371 6.371 0 00-6.387.02l-16.556 9.63a6.408 6.408 0 00-3.178 5.535l.065 19.156a6.416 6.416 0 003.218 5.525l16.613 9.512a6.375 6.375 0 006.391-.017l16.561-9.633a6.423 6.423 0 003.162-5.543l-.065-19.156a6.427 6.427 0 00-3.207-5.514z" fill="#FFF19F"/><path d="M106.079 32.447l-10.27-5.88a3.937 3.937 0 00-3.947.012l-10.233 5.952a3.96 3.96 0 00-1.964 3.42l.04 11.84a3.965 3.965 0 001.989 3.415l10.267 5.88a3.941 3.941 0 003.95-.011l10.236-5.954a3.98 3.98 0 001.954-3.425l-.04-11.84a3.969 3.969 0 00-1.982-3.409z" fill="#FFEB6F"/><path d="M10.418 27.002l-16.617-9.516a6.372 6.372 0 00-6.387.02l-16.557 9.63a6.41 6.41 0 00-3.177 5.533l.065 19.157a6.416 6.416 0 003.218 5.524l16.612 9.513a6.376 6.376 0 006.392-.018l16.56-9.633a6.427 6.427 0 003.162-5.542l-.065-19.156A6.422 6.422 0 0010.418 27z" fill="#FFF19F"/><path d="M2.88 32.798l-10.27-5.881a3.937 3.937 0 00-3.947.012l-10.232 5.952a3.96 3.96 0 00-1.964 3.42l.04 11.84a3.965 3.965 0 001.988 3.416l10.268 5.88a3.94 3.94 0 003.95-.012l10.235-5.953a3.972 3.972 0 001.955-3.426l-.04-11.84a3.969 3.969 0 00-1.982-3.408z" fill="#FFEB6F"/><path d="M87.898-18.775L71.281-28.29a6.372 6.372 0 00-6.387.02l-16.556 9.63a6.408 6.408 0 00-3.178 5.533l.065 19.157a6.417 6.417 0 003.218 5.524l16.613 9.513a6.376 6.376 0 006.392-.018l16.56-9.633a6.428 6.428 0 003.162-5.542l-.065-19.156a6.422 6.422 0 00-3.207-5.512z" fill="#FFF19F"/><path d="M80.361-12.979l-10.27-5.88a3.938 3.938 0 00-3.947.012L55.91-12.895a3.959 3.959 0 00-1.964 3.42l.04 11.84a3.966 3.966 0 001.988 3.416l10.268 5.879a3.94 3.94 0 003.95-.011L80.43 5.695a3.972 3.972 0 001.954-3.425l-.04-11.84a3.969 3.969 0 00-1.982-3.409z" fill="#FFEB6F"/><path d="M28.422-12.979l-10.27-5.88a3.938 3.938 0 00-3.948.012L3.971-12.895a3.96 3.96 0 00-1.964 3.42l.04 11.84A3.966 3.966 0 004.036 5.78l10.268 5.879a3.94 3.94 0 003.95-.011l10.235-5.954a3.972 3.972 0 001.954-3.425l-.04-11.84a3.969 3.969 0 00-1.981-3.409zM75.703-9.397l-6.348-3.634a2.434 2.434 0 00-2.44.008l-6.323 3.678a2.449 2.449 0 00-1.214 2.114l.025 7.318a2.451 2.451 0 001.23 2.11l6.345 3.634a2.436 2.436 0 002.442-.007l6.326-3.68A2.456 2.456 0 0076.953.027L76.93-7.29a2.454 2.454 0 00-1.226-2.107z" fill="#FFDD0F"/><path d="M35.801-18.599l-16.618-9.515a6.37 6.37 0 00-6.386.02l-16.556 9.63a6.407 6.407 0 00-3.178 5.534l.065 19.156a6.417 6.417 0 003.218 5.524l16.612 9.513a6.376 6.376 0 006.392-.018l16.56-9.633a6.426 6.426 0 003.162-5.542l-.065-19.156a6.42 6.42 0 00-3.206-5.513zM87.898 72.425L71.281 62.91a6.37 6.37 0 00-6.387.02l-16.556 9.63a6.408 6.408 0 00-3.178 5.535l.065 19.156a6.42 6.42 0 003.218 5.525l16.613 9.512a6.376 6.376 0 006.392-.018l16.56-9.632a6.433 6.433 0 003.162-5.543l-.065-19.156a6.421 6.421 0 00-3.207-5.514z" fill="#FFF19F"/><path d="M80.361 78.103l-10.27-5.88a3.937 3.937 0 00-3.947.013L55.91 78.188a3.96 3.96 0 00-1.964 3.42l.04 11.84a3.966 3.966 0 001.988 3.414l10.268 5.879a3.935 3.935 0 003.95-.011l10.236-5.953a3.972 3.972 0 001.954-3.426l-.04-11.84a3.969 3.969 0 00-1.982-3.408z" fill="#FFEB6F"/><path d="M28.361 78.222l-10.27-5.88a3.939 3.939 0 00-3.948.013L3.912 78.306a3.96 3.96 0 00-1.964 3.42l.04 11.84a3.965 3.965 0 001.989 3.415l10.267 5.879a3.94 3.94 0 003.95-.011l10.236-5.954a3.973 3.973 0 001.954-3.425l-.04-11.841a3.969 3.969 0 00-1.982-3.407zM75.703 81.804l-6.348-3.635a2.434 2.434 0 00-2.44.008l-6.323 3.678a2.45 2.45 0 00-1.214 2.114l.025 7.318a2.45 2.45 0 001.23 2.11l6.345 3.634a2.436 2.436 0 002.442-.007l6.326-3.68a2.455 2.455 0 001.207-2.117l-.024-7.317a2.453 2.453 0 00-1.226-2.106z" fill="#FFDD0F"/><path d="M35.898 72.602l-16.617-9.516a6.37 6.37 0 00-6.387.021l-16.556 9.63a6.408 6.408 0 00-3.178 5.534l.065 19.156a6.416 6.416 0 003.218 5.525l16.613 9.513a6.377 6.377 0 006.392-.018l16.56-9.633a6.43 6.43 0 003.162-5.542l-.065-19.157a6.422 6.422 0 00-3.206-5.513z" fill="#FFF19F"/><path d="M2.761-2.402L-7.51-8.283a3.938 3.938 0 00-3.947.013L-21.69-2.32a3.96 3.96 0 00-1.964 3.42l.04 11.84a3.964 3.964 0 001.989 3.416l10.267 5.88a3.94 3.94 0 003.95-.012l10.236-5.953a3.972 3.972 0 001.954-3.426l-.04-11.84a3.969 3.969 0 00-1.98-3.408z" fill="#FFDD0F"/><path d="M28.228-12.979l-10.27-5.88a3.938 3.938 0 00-3.948.012L3.777-12.895a3.96 3.96 0 00-1.964 3.42l.04 11.84A3.966 3.966 0 003.842 5.78l10.267 5.879a3.94 3.94 0 003.95-.011l10.236-5.954a3.972 3.972 0 001.954-3.425l-.04-11.84a3.969 3.969 0 00-1.981-3.409zM28.228 77.985l-10.27-5.88a3.938 3.938 0 00-3.948.012L3.777 78.069a3.96 3.96 0 00-1.964 3.42l.04 11.84a3.967 3.967 0 001.989 3.415l10.267 5.88a3.939 3.939 0 003.95-.011l10.236-5.954a3.972 3.972 0 001.954-3.425l-.04-11.84a3.968 3.968 0 00-1.981-3.409z" fill="#FFEB6F"/></g><defs><clipPath id="clip0"><rect x=".684" width="84" height="84" rx="42" fill="#fff"/></clipPath></defs></svg>