<svg width="22" height="22" fill="none" xmlns="http://www.w3.org/2000/svg"><path fill-rule="evenodd" clip-rule="evenodd" d="M10.896 19.914a9 9 0 100-18 9 9 0 000 18z" fill="#2CC68F" stroke="#2CC68F" stroke-width="3"/><path d="M8.936 14.223a.51.51 0 00.753 0l5.45-5.831a.583.583 0 000-.787.51.51 0 00-.753 0h0l-7.052 3.458.073-.068a.51.51 0 00-.753 0h0a.583.583 0 000 .787l2.282 2.44zm0 0l.073-.069-.073.069h0zm.445-1.117l-.069.074-.068-.074.068-.073.069.073z" fill="#fff" stroke="#fff" stroke-width=".2"/></svg>