<svg width="24" height="24" fill="none" xmlns="http://www.w3.org/2000/svg"><rect width="24" height="24" rx="4" fill="#3D367D"/><path d="M17.98 14.316a6.055 6.055 0 01-1.982 2.463 6.359 6.359 0 01-2.993 1.175 6.436 6.436 0 01-3.2-.43 6.209 6.209 0 01-2.547-1.918 5.908 5.908 0 01-1.211-2.892 5.834 5.834 0 01.45-3.09 6.057 6.057 0 011.99-2.456 6.36 6.36 0 012.996-1.166.375.375 0 01.219.041.357.357 0 01.188.367.341.341 0 01-.1.19c-.447.428-.8.938-1.04 1.5a4.409 4.409 0 00-.352 1.77 4.5 4.5 0 00.64 2.274 4.705 4.705 0 001.716 1.673c.713.405 1.521.625 2.348.638a4.921 4.921 0 002.368-.56.39.39 0 01.422.048.354.354 0 01.087.373z" fill="#E1E1E8"/></svg>