<svg width="56" height="49" fill="none" xmlns="http://www.w3.org/2000/svg"><path d="m54.118 38.192-.017-.03L33.712 4.124l-.006-.01A6.979 6.979 0 0 0 29.37.934a6.978 6.978 0 0 0-5.314.817 7.054 7.054 0 0 0-2.363 2.363l-.006.01L1.298 38.161l-.018.031a6.979 6.979 0 0 0-.702 5.33 6.978 6.978 0 0 0 3.273 4.266 7.042 7.042 0 0 0 3.46.941h40.801a7.033 7.033 0 0 0 6.947-7.101 7.04 7.04 0 0 0-.94-3.436zm-6.044 6.117H7.324a2.607 2.607 0 0 1-2.475-1.93 2.586 2.586 0 0 1 .252-1.963L25.476 6.402c.216-.354.518-.656.873-.871a2.587 2.587 0 0 1 1.97-.303 2.586 2.586 0 0 1 1.604 1.174l20.374 34.014c.219.383.337.819.342 1.26a2.607 2.607 0 0 1-2.565 2.633z" fill="#F5A623"/><path d="M27.706 15.42c-1.22 0-2.21.99-2.21 2.211v9.629a2.21 2.21 0 1 0 4.421 0V17.63c0-1.22-.99-2.21-2.21-2.21zM29.27 35.327a2.222 2.222 0 0 0-1.563-.647c-.582 0-1.152.236-1.564.647a2.23 2.23 0 0 0-.647 1.563c0 .583.237 1.152.648 1.563.411.412.981.648 1.563.648s1.15-.236 1.563-.648c.411-.411.647-.98.647-1.563 0-.581-.236-1.151-.647-1.563z" fill="#F5A623"/></svg>