<svg width="12" height="14" fill="none" xmlns="http://www.w3.org/2000/svg"><path d="M11.391 6.263a.909.909 0 0 0-.653-.258h-.308V4.232c0-1.133-.423-2.105-1.268-2.917C8.316.502 7.303.095 6.123.095c-1.179 0-2.191.407-3.037 1.22-.846.812-1.269 1.784-1.269 2.917v1.773h-.307a.909.909 0 0 0-.654.258.838.838 0 0 0-.27.628v5.318c0 .247.09.456.27.628a.91.91 0 0 0 .654.259h9.227a.909.909 0 0 0 .654-.259.839.839 0 0 0 .269-.628V6.891a.837.837 0 0 0-.27-.628zm-2.806-.258H3.664V4.232c0-.652.24-1.21.72-1.671a2.42 2.42 0 0 1 1.74-.692c.68 0 1.26.23 1.74.692.48.461.72 1.019.72 1.671v1.773z" fill="#818181"/></svg>