<svg width="49" height="49" fill="none" xmlns="http://www.w3.org/2000/svg"><g clip-path="url(#a)" fill-rule="evenodd" clip-rule="evenodd"><path d="M36.593 24.587a1.734 1.734 0 0 1 2.086-1.291c2.805.66 5.104 1.75 6.742 3.096 1.605 1.318 2.758 3.049 2.758 4.965 0 3.316-2.868 5.861-6.234 7.47-3.52 1.684-8.272 2.713-13.452 2.713-4.788 0-9.202-.879-12.615-2.332-3.303-1.406-6.101-3.547-6.87-6.352a1.734 1.734 0 1 1 3.345-.918c.335 1.224 1.852 2.788 4.884 4.079 2.921 1.243 6.862 2.054 11.256 2.054 4.763 0 8.986-.953 11.956-2.373 3.125-1.494 4.261-3.172 4.261-4.34 0-.48-.319-1.323-1.49-2.286-1.14-.935-2.922-1.832-5.336-2.4a1.734 1.734 0 0 1-1.29-2.085z" fill="url(#b)"/><path d="M8.338 13.874c-3.122 1.34-4.177 2.867-4.177 3.979 0 1.167 1.132 2.842 4.242 4.332 2.958 1.417 7.163 2.369 11.906 2.369s8.948-.952 11.905-2.369c3.11-1.49 4.243-3.165 4.243-4.332 0-1.112-1.056-2.64-4.177-3.979-2.962-1.27-7.187-2.073-11.971-2.073-4.785 0-9.01.803-11.971 2.073zM6.97 10.688c3.503-1.503 8.22-2.355 13.339-2.355 5.12 0 9.836.852 13.339 2.355 3.344 1.434 6.277 3.8 6.277 7.166 0 3.31-2.857 5.852-6.211 7.46-3.508 1.681-8.244 2.71-13.405 2.71s-9.897-1.029-13.405-2.71C3.55 23.706.692 21.163.692 17.853c0-3.365 2.934-5.732 6.278-7.166z" fill="url(#c)"/><path d="M10.68 29.96c.959 0 1.735.777 1.735 1.735 0 1.142 1.121 2.802 4.238 4.283 2.958 1.407 7.165 2.35 11.91 2.35 4.744 0 8.952-.943 11.91-2.35 3.116-1.481 4.238-3.14 4.238-4.283a1.734 1.734 0 0 1 3.468 0v5.407c0 3.35-2.891 5.805-6.245 7.325-3.507 1.589-8.233 2.52-13.371 2.52-5.139 0-9.864-.931-13.37-2.52-3.355-1.52-6.247-3.975-6.247-7.325v-5.407c0-.958.777-1.735 1.735-1.735zm1.78 7.557c.234 1.106 1.41 2.503 4.163 3.75 2.959 1.34 7.174 2.211 11.94 2.211 4.765 0 8.98-.87 11.94-2.21 2.753-1.248 3.93-2.645 4.163-3.751a16.68 16.68 0 0 1-2.703 1.594c-3.507 1.667-8.24 2.686-13.4 2.686s-9.893-1.019-13.4-2.686a16.685 16.685 0 0 1-2.703-1.594z" fill="url(#d)"/><path d="M8.399 22.46c2.958 1.407 7.165 2.351 11.91 2.351s8.952-.944 11.91-2.35c3.117-1.482 4.238-3.141 4.238-4.284h3.468v5.407c0 3.35-2.891 5.806-6.245 7.325-3.507 1.589-8.233 2.52-13.371 2.52s-9.864-.931-13.37-2.52C3.583 29.39.691 26.934.691 23.584v-5.407h3.47c0 1.143 1.12 2.802 4.237 4.284zM4.206 24c.234 1.106 1.41 2.502 4.164 3.75 2.958 1.34 7.173 2.21 11.939 2.21s8.98-.87 11.94-2.21c2.753-1.248 3.93-2.644 4.163-3.75a16.683 16.683 0 0 1-2.703 1.593c-3.507 1.668-8.24 2.687-13.4 2.687s-9.893-1.02-13.4-2.687A16.682 16.682 0 0 1 4.206 24z" fill="url(#e)"/></g><defs><linearGradient id="b" x1="30.669" y1="-8.378" x2="20.485" y2="38.716" gradientUnits="userSpaceOnUse"><stop stop-color="#32FFF5"/><stop offset="1" stop-color="#01BFE3"/></linearGradient><linearGradient id="c" x1="22.416" y1="-25.715" x2="10.697" y2="24.625" gradientUnits="userSpaceOnUse"><stop stop-color="#32FFF5"/><stop offset="1" stop-color="#01BFE3"/></linearGradient><linearGradient id="d" x1="30.67" y1=".589" x2="21.832" y2="44.595" gradientUnits="userSpaceOnUse"><stop stop-color="#32FFF5"/><stop offset="1" stop-color="#01BFE3"/></linearGradient><linearGradient id="e" x1="22.416" y1="-8.196" x2="15.237" y2="31.617" gradientUnits="userSpaceOnUse"><stop stop-color="#32FFF5"/><stop offset="1" stop-color="#01BFE3"/></linearGradient><clipPath id="a"><path fill="#fff" transform="translate(.695 .968)" d="M0 0h48v48H0z"/></clipPath></defs></svg>