<svg width="46" height="46" fill="none" xmlns="http://www.w3.org/2000/svg"><g filter="url(#a)"><circle cx="23" cy="22" r="20" fill="#7CE0D6"/></g><path d="M23 20.469c-.845 0-1.53.686-1.53 1.531v6.969a1.531 1.531 0 0 0 3.062 0V22c0-.845-.686-1.531-1.532-1.531zM24.082 13.948A1.542 1.542 0 0 0 23 13.5c-.403 0-.798.163-1.083.448-.285.286-.449.68-.449 1.083 0 .403.164.798.449 1.083.285.285.68.448 1.083.448.403 0 .797-.163 1.082-.448.286-.285.449-.68.449-1.083 0-.403-.163-.797-.448-1.083z" fill="#2C3437" fill-opacity=".8"/><defs><filter id="a" x="0" y="0" width="46" height="46" filterUnits="userSpaceOnUse" color-interpolation-filters="sRGB"><feFlood flood-opacity="0" result="BackgroundImageFix"/><feColorMatrix in="SourceAlpha" values="0 0 0 0 0 0 0 0 0 0 0 0 0 0 0 0 0 0 127 0" result="hardAlpha"/><feOffset dy="1"/><feGaussianBlur stdDeviation="1.5"/><feColorMatrix values="0 0 0 0 0 0 0 0 0 0 0 0 0 0 0 0 0 0 0.15 0"/><feBlend in2="BackgroundImageFix" result="effect1_dropShadow_1_776"/><feBlend in="SourceGraphic" in2="effect1_dropShadow_1_776" result="shape"/></filter></defs></svg>