<svg width="338" height="139" fill="none" xmlns="http://www.w3.org/2000/svg"><path d="M0 0h338v25H0V0z" fill="#F9F9F8"/><path stroke="#EFEFEF" d="M338 138.5H0"/><g clip-path="url(#clip0)" fill="#2C3437"><path d="M59.6 62.942c.353-.137.715-.3 1.1-.485.387-.186.756-.38 1.118-.6a13.53 13.53 0 001.043-.687c.337-.243.632-.494.903-.769h1.89V72.46h-2.711v-8.635a8.512 8.512 0 01-1.216.648c-.451.194-.887.364-1.306.501l-.82-2.03zM83.963 60.425c0 .486-.156.866-.476 1.142-.32.275-.69.412-1.126.412-.435 0-.805-.137-1.125-.413-.32-.275-.476-.655-.476-1.14 0-.486.156-.866.476-1.141.329-.284.698-.421 1.134-.421.435 0 .804.137 1.125.413.312.283.468.663.468 1.148zm-.197 12.034h-2.71v-9.306h2.71v9.306zM89.063 72.459c-.616-1.182-1.232-2.557-1.865-4.143a61.171 61.171 0 01-1.79-5.163h2.833c.124.461.263.955.427 1.497.165.534.329 1.076.51 1.626.172.55.345 1.085.525 1.603.173.517.345.987.518 1.416.156-.421.32-.898.5-1.416.181-.518.362-1.052.535-1.603.172-.55.345-1.092.5-1.626.165-.534.305-1.036.428-1.497h2.768a64.227 64.227 0 01-1.79 5.163c-.633 1.578-1.25 2.961-1.865 4.143h-2.234zM95.666 67.862c0-.825.132-1.554.386-2.169.255-.623.6-1.132 1.019-1.553a4.227 4.227 0 011.446-.939 4.635 4.635 0 011.683-.316c1.339 0 2.407.405 3.179 1.214.78.81 1.166 2 1.166 3.569 0 .154-.008.324-.016.502-.008.186-.025.348-.033.485h-6.078c.057.542.32.971.772 1.295.452.316 1.068.477 1.832.477.492 0 .977-.04 1.445-.13.477-.088.863-.193 1.158-.323l.362 2.145a3.219 3.219 0 01-.575.21c-.238.073-.509.13-.797.186-.296.057-.608.097-.944.13-.337.032-.674.056-1.011.056-.854 0-1.593-.121-2.217-.372-.633-.25-1.15-.59-1.56-1.02a4.033 4.033 0 01-.92-1.53 6.096 6.096 0 01-.296-1.917zm6.292-1.068a2.475 2.475 0 00-.115-.656 1.578 1.578 0 00-.304-.566c-.14-.162-.312-.3-.517-.404a1.74 1.74 0 00-.781-.162 1.75 1.75 0 00-.772.153 1.599 1.599 0 00-.87.971 3.764 3.764 0 00-.173.664h3.532zM75.963 60.401h2.793V72.46h-2.793V67.36h-4.6v5.098h-2.792V60.4h2.792v4.613h4.6V60.4z"/></g><path d="M31.344 64.563a1.703 1.703 0 00-1.41.141l-15.685 9.16-.018.01c-.793.493-1.047 1.405-.63 2.27.519 1.079 2.359 2.094 4.578 2.526.808.157 1.63.235 2.452.233 1.767 0 3.935-.35 6.336-1.479 1.866-.877 3.64-2.791 4.745-5.123 1.165-2.455 1.395-4.933.633-6.796a1.669 1.669 0 00-1-.942zM55.657 73.875a.804.804 0 00-.017-.01l-15.685-9.16a1.704 1.704 0 00-1.41-.142 1.653 1.653 0 00-1.001.942c-.763 1.863-.533 4.34.633 6.797 1.105 2.33 2.879 4.245 4.743 5.122 2.402 1.129 4.57 1.48 6.337 1.48.823 0 1.644-.077 2.452-.233 2.22-.433 4.059-1.448 4.578-2.526.417-.865.164-1.778-.63-2.27z" fill="#7CE0D6"/><path fill-rule="evenodd" clip-rule="evenodd" d="M28.543 51.828c0-.418.336-.757.75-.757 1.298 0 2.542.52 3.46 1.445a4.952 4.952 0 011.432 3.487.753.753 0 01-.75.756.754.754 0 01-.751-.756c0-.907-.357-1.776-.993-2.417a3.377 3.377 0 00-2.398-1.001.753.753 0 01-.75-.757zM40.69 52.585a3.366 3.366 0 00-2.398 1 3.42 3.42 0 00-.993 2.418.753.753 0 01-.75.756.753.753 0 01-.75-.756 4.966 4.966 0 011.432-3.487 4.858 4.858 0 013.459-1.444c.414 0 .75.338.75.756a.753.753 0 01-.75.757z" fill="#2C3437"/><path d="M42.342 77.563H26.131l7.364 4.285a2.876 2.876 0 002.9.001l7.367-4.286h-1.42zM44.615 68.1H24.523v4.91h20.842V68.1h-.75z" fill="#2C3437"/><path d="M43.92 63.652l-.183-.106h-17.58l-.183.107a2.92 2.92 0 00-1.06 1.068c-.254.443-.389.946-.39 1.458v1.92h20.842v-1.92a2.955 2.955 0 00-.39-1.457 2.925 2.925 0 00-1.057-1.07zM44.615 73.01H24.523v1.93c.001.513.136 1.017.39 1.461.255.444.62.814 1.061 1.07l.157.092h17.631l.16-.093a2.928 2.928 0 001.055-1.072c.253-.443.387-.946.388-1.458v-1.93h-.75z" fill="#FFDD0F"/><path d="M36.395 59.275a2.873 2.873 0 00-2.897 0l-7.342 4.271h17.581l-7.342-4.271zM150.438 63.205c-.557 0-1.05-.111-1.481-.334a2.762 2.762 0 01-1.013-.924 4.61 4.61 0 01-.556-1.28 6.03 6.03 0 01-.179-1.492c0-.742.108-1.406.323-1.992a3.217 3.217 0 011.08-1.459c.497-.386 1.106-.579 1.826-.579.638 0 1.135.115 1.491.345.357.223.653.527.891.913l-.69.401a2.622 2.622 0 00-.702-.701c-.252-.171-.582-.256-.99-.256-.423 0-.798.1-1.125.3a1.99 1.99 0 00-.757.79 4.21 4.21 0 00-.4 1.058 5.139 5.139 0 00-.134 1.18c0 .601.078 1.147.234 1.637.163.482.43.886.801 1.213.379.319.839.479 1.381.479.801 0 1.402-.33 1.803-.991l.69.267c-.2.408-.512.75-.935 1.024-.415.267-.935.4-1.558.4zm6.206 0c-.742 0-1.335-.26-1.781-.78-.438-.526-.657-1.257-.657-2.192 0-.928.223-1.655.668-2.182.446-.535 1.036-.802 1.77-.802.743 0 1.333.264 1.77.79.446.52.668 1.247.668 2.182 0 .928-.222 1.66-.668 2.194-.445.526-1.035.79-1.77.79zm0-.701c.512 0 .91-.2 1.192-.602.289-.408.434-.968.434-1.68 0-.713-.141-1.27-.423-1.67-.275-.401-.676-.601-1.203-.601s-.931.196-1.213.59c-.275.386-.412.95-.412 1.692 0 .712.137 1.269.412 1.67.282.4.686.6 1.213.6zm10.708.567v-3.484c0-1.091-.412-1.636-1.236-1.636-.408 0-.731.16-.968.478-.23.312-.346.698-.346 1.158v3.484h-.779v-3.484c0-1.091-.412-1.636-1.235-1.636-.423 0-.75.144-.98.434-.223.282-.334.653-.334 1.113v3.573h-.779v-5.688h.779v.556c.393-.46.909-.69 1.547-.69.305 0 .598.078.88.234.282.156.501.367.657.635a1.928 1.928 0 011.625-.869c.564 0 1.028.186 1.391.557.371.37.557.864.557 1.48v3.785h-.779zm9.381 0v-3.484c0-1.091-.411-1.636-1.235-1.636-.408 0-.731.16-.969.478-.23.312-.345.698-.345 1.158v3.484h-.779v-3.484c0-1.091-.412-1.636-1.236-1.636-.423 0-.749.144-.979.434-.223.282-.334.653-.334 1.113v3.573h-.779v-5.688h.779v.556c.393-.46.909-.69 1.547-.69.304 0 .598.078.88.234.282.156.5.367.656.635a1.918 1.918 0 011.626-.868c.564 0 1.027.185 1.391.556.371.37.557.864.557 1.48v3.785h-.78zm6.176 0v-.545c-.193.252-.401.43-.623.534a1.93 1.93 0 01-.791.145c-.734 0-1.269-.208-1.603-.623-.326-.416-.489-1.092-.489-2.026v-3.173h.779v3.473c0 .564.119.98.356 1.247.238.267.557.4.957.4.943 0 1.414-.541 1.414-1.625v-3.495h.779v5.688h-.779zm6.285 0v-3.473c0-.571-.119-.987-.356-1.247-.238-.267-.561-.4-.969-.4-.935 0-1.402.541-1.402 1.625v3.495h-.78v-5.688h.78v.623c.348-.504.838-.757 1.469-.757.698 0 1.21.212 1.536.635.334.423.501 1.102.501 2.037v3.15h-.779zm3.491-7.002a.5.5 0 01-.368.145.497.497 0 01-.512-.512c0-.148.048-.275.145-.379a.502.502 0 01.367-.155.48.48 0 01.368.155c.096.104.144.23.144.379a.5.5 0 01-.144.367zm-.757 7.002v-5.688h.779v5.688h-.779zm4.218.134c-.749 0-1.124-.434-1.124-1.303v-3.818h-.969v-.701h.969v-1.96l.779-.389v2.349h1.447v.701h-1.447v3.484c0 .29.041.513.123.668.081.156.244.234.489.234s.531-.111.858-.334l-.09.813a2.16 2.16 0 01-1.035.256zm3.364 2.026l.846-2.338-2.082-5.51h.79l1.436 4.04a38.556 38.556 0 00.19.579l.2-.578 1.458-4.041h.835l-2.905 7.848h-.768zM245.169 55.279h2.07c.631 0 1.184.111 1.659.334.475.223.842.523 1.102.901.26.379.453.79.579 1.236.126.446.189.92.189 1.425 0 .379-.033.746-.1 1.102a4.152 4.152 0 01-.356 1.047 3.445 3.445 0 01-.646.901c-.26.253-.601.457-1.024.612a4.166 4.166 0 01-1.447.234h-2.026V55.28zm2.082 7.091c.497 0 .927-.093 1.291-.278.371-.186.653-.438.846-.757.2-.32.345-.657.434-1.013.089-.357.134-.739.134-1.147 0-.89-.216-1.644-.646-2.26-.43-.623-1.076-.935-1.937-.935h-1.425v6.39h1.303zm7.344.835c-.742 0-1.336-.26-1.781-.78-.438-.526-.657-1.257-.657-2.192 0-.928.222-1.655.668-2.182.445-.535 1.035-.802 1.77-.802.742 0 1.332.264 1.77.79.445.52.668 1.247.668 2.182 0 .928-.223 1.66-.668 2.194-.446.526-1.036.79-1.77.79zm0-.701c.512 0 .909-.2 1.191-.602.289-.408.434-.968.434-1.68 0-.713-.141-1.27-.423-1.67-.275-.401-.675-.601-1.202-.601-.527 0-.932.196-1.214.59-.274.386-.412.95-.412 1.692 0 .712.138 1.269.412 1.67.282.4.687.6 1.214.6zm5.909.7c-.69 0-1.239-.259-1.647-.778-.401-.527-.602-1.258-.602-2.193s.208-1.666.624-2.193c.415-.527.987-.79 1.714-.79.423 0 .794.103 1.113.31.32.209.557.502.713.88l-.713.279c-.207-.512-.59-.768-1.146-.768-.995 0-1.492.76-1.492 2.282 0 1.514.49 2.27 1.47 2.27a1.292 1.292 0 001.257-.868l.702.267c-.134.401-.379.72-.735.958-.356.23-.775.345-1.258.345zm6.843-.133v-.545c-.193.252-.401.43-.624.534a1.926 1.926 0 01-.79.145c-.735 0-1.269-.208-1.603-.623-.327-.416-.49-1.092-.49-2.026v-3.173h.779v3.473c0 .564.119.98.357 1.247.237.267.556.4.957.4.943 0 1.414-.541 1.414-1.625v-3.495h.779v5.688h-.779zm9.435 0v-3.484c0-1.091-.412-1.636-1.236-1.636-.408 0-.731.16-.968.478-.23.312-.345.698-.345 1.158v3.484h-.78v-3.484c0-1.091-.411-1.636-1.235-1.636-.423 0-.75.144-.98.434-.222.282-.334.653-.334 1.113v3.573h-.779v-5.688h.779v.556c.394-.46.909-.69 1.548-.69.304 0 .597.078.879.234.282.156.501.367.657.635a1.928 1.928 0 011.625-.869c.564 0 1.028.186 1.392.557.371.37.556.864.556 1.48v3.785h-.779zm4.806.134c-.742 0-1.339-.29-1.792-.868-.453-.58-.679-1.284-.679-2.116 0-.927.226-1.654.679-2.181.453-.527 1.05-.79 1.792-.79.653 0 1.192.233 1.615.7.423.46.634 1.143.634 2.049 0 .2-.007.382-.022.545h-3.874c.067.594.245 1.065.534 1.414.29.349.672.523 1.147.523.453 0 .879-.148 1.28-.445l.423.523c-.519.43-1.098.646-1.737.646zm-1.669-3.362h3.128c-.008-.69-.16-1.176-.457-1.458-.289-.29-.623-.434-1.002-.434-.475 0-.864.16-1.168.478-.305.32-.472.79-.501 1.414zm8.986 3.228v-3.473c0-.571-.118-.987-.356-1.247-.237-.267-.56-.4-.968-.4-.935 0-1.403.541-1.403 1.625v3.495h-.779v-5.688h.779v.623c.349-.504.839-.757 1.47-.757.697 0 1.209.212 1.536.635.334.423.501 1.102.501 2.037v3.15h-.78zm4.148.134c-.75 0-1.124-.434-1.124-1.303v-3.818h-.969v-.701h.969v-1.96l.779-.389v2.349h1.447v.701h-1.447v3.484c0 .29.041.513.122.668.082.156.245.234.49.234s.531-.111.857-.334l-.089.813a2.16 2.16 0 01-1.035.256zm5.848-.134v-.556c-.512.46-1.068.69-1.669.69-.594 0-1.065-.163-1.414-.49-.349-.334-.523-.813-.523-1.436 0-.616.196-1.084.59-1.403.4-.319.894-.478 1.48-.478.527 0 1.039.133 1.536.4v-.478c0-.928-.415-1.392-1.246-1.392-.535 0-1.099.204-1.692.613l-.223-.668c.653-.416 1.317-.624 1.993-.624.23 0 .445.03.645.09.201.051.397.148.59.289.201.133.36.337.479.612.119.267.178.594.178.98v3.851h-.724zm-1.592-.545c.587 0 1.117-.293 1.592-.88v-1.102c-.467-.311-.953-.467-1.458-.467-.408 0-.749.104-1.024.312-.267.2-.401.497-.401.89 0 .378.112.683.334.913.23.222.549.334.957.334zm5.517.679c-.75 0-1.124-.434-1.124-1.303v-3.818h-.969v-.701h.969v-1.96l.779-.389v2.349h1.447v.701h-1.447v3.484c0 .29.041.513.122.668.082.156.245.234.49.234s.531-.111.857-.334l-.089.813a2.16 2.16 0 01-1.035.256zm3.452-7.136a.496.496 0 01-.367.145.497.497 0 01-.512-.512c0-.148.048-.275.145-.379a.502.502 0 01.367-.155c.149 0 .271.051.367.155.097.104.145.23.145.379 0 .148-.048.27-.145.367zm-.756 7.002v-5.688h.779v5.688h-.779zm4.841.134c-.742 0-1.335-.26-1.781-.78-.438-.526-.656-1.257-.656-2.192 0-.928.222-1.655.667-2.182.446-.535 1.036-.802 1.77-.802.743 0 1.333.264 1.77.79.446.52.668 1.247.668 2.182 0 .928-.222 1.66-.668 2.194-.445.526-1.035.79-1.77.79zm0-.701c.512 0 .91-.2 1.192-.602.289-.408.434-.968.434-1.68 0-.713-.141-1.27-.423-1.67-.275-.401-.676-.601-1.203-.601-.526 0-.931.196-1.213.59-.275.386-.412.95-.412 1.692 0 .712.137 1.269.412 1.67.282.4.687.6 1.213.6zm7.557.567v-3.473c0-.571-.118-.987-.356-1.247-.237-.267-.56-.4-.968-.4-.935 0-1.403.541-1.403 1.625v3.495h-.779v-5.688h.779v.623c.349-.504.839-.757 1.469-.757.698 0 1.21.212 1.537.635.334.423.501 1.102.501 2.037v3.15h-.78z" fill="#2C3437"/><path d="M147.365 80.998h1.657c.504 0 .947.089 1.327.267.38.178.673.418.881.721.208.303.362.633.463.989.101.356.152.736.152 1.14 0 .303-.027.596-.08.881a3.37 3.37 0 01-.285.838 2.76 2.76 0 01-.517.72 2.302 2.302 0 01-.819.49 3.34 3.34 0 01-1.158.188h-1.621v-6.234zm1.666 5.673c.397 0 .742-.075 1.033-.223a1.6 1.6 0 00.676-.606c.161-.255.277-.525.348-.81.071-.285.107-.59.107-.917 0-.713-.173-1.315-.517-1.808-.344-.499-.861-.748-1.549-.748h-1.14v5.112h1.042zm4.851-5.04a.398.398 0 01-.294.115.398.398 0 01-.41-.41.43.43 0 01.116-.303.402.402 0 01.294-.124c.119 0 .217.041.294.124a.43.43 0 01.116.303.4.4 0 01-.116.294zm-.606 5.6v-4.55h.624v4.55h-.624zm3.518.108c-.6 0-1.123-.265-1.568-.793l.437-.383c.35.416.745.623 1.184.623.261 0 .475-.056.641-.169a.57.57 0 00.25-.49c0-.13-.03-.246-.09-.347a.809.809 0 00-.285-.285 2.191 2.191 0 00-.338-.205 7.8 7.8 0 00-.419-.178 7.16 7.16 0 01-.525-.24 3.057 3.057 0 01-.418-.267 1.053 1.053 0 01-.321-.374 1.23 1.23 0 01-.098-.5c0-.344.136-.623.41-.836.273-.214.626-.32 1.059-.32.6 0 1.093.23 1.479.694l-.41.347c-.327-.326-.689-.49-1.086-.49-.262 0-.472.054-.633.16a.504.504 0 00-.231.437c0 .089.02.172.062.25a.833.833 0 00.143.195c.053.048.136.104.249.17.113.059.202.103.267.133a13.6 13.6 0 01.739.303c.101.041.226.11.374.205.155.089.27.18.348.276.083.089.154.207.213.356.066.142.098.303.098.48 0 .38-.139.684-.418.91-.273.225-.644.338-1.113.338zm4.327 0c-.552 0-.992-.208-1.318-.624-.321-.421-.481-1.006-.481-1.754s.166-1.333.498-1.755c.333-.421.79-.632 1.372-.632.338 0 .635.083.89.25.256.166.446.4.57.703l-.57.223c-.166-.41-.472-.615-.917-.615-.795 0-1.193.609-1.193 1.826 0 1.21.392 1.817 1.175 1.817a1.034 1.034 0 001.007-.695l.561.214a1.45 1.45 0 01-.588.766c-.285.183-.62.276-1.006.276zm4.439 0c-.594 0-1.069-.208-1.425-.624-.351-.421-.526-1.006-.526-1.754 0-.742.178-1.324.535-1.746.356-.427.828-.64 1.416-.64.593 0 1.065.21 1.416.631.356.416.534.998.534 1.746 0 .742-.178 1.327-.534 1.754-.357.422-.829.633-1.416.633zm0-.561c.409 0 .727-.16.953-.481.231-.327.347-.775.347-1.345s-.113-1.015-.339-1.336c-.219-.32-.54-.48-.961-.48-.422 0-.745.156-.971.471-.22.309-.33.76-.33 1.354 0 .57.11 1.015.33 1.336.226.32.549.48.971.48zm3.24.454V82.68h.623v.641c.232-.499.615-.748 1.149-.748.255 0 .469.062.641.187l-.098.606a1.105 1.105 0 00-.587-.17c-.279 0-.535.12-.766.357-.226.231-.339.6-.339 1.104v2.574h-.623zm4.959.107c-.582 0-1.042-.214-1.38-.642-.333-.433-.499-1.015-.499-1.745 0-.742.166-1.324.499-1.746.338-.421.798-.632 1.38-.632.451 0 .855.142 1.211.427v-1.888l.624-.311v6.43h-.624v-.392a1.648 1.648 0 01-1.211.499zm.071-.561c.232 0 .449-.063.65-.188.202-.124.366-.3.49-.525v-2.27c-.273-.44-.653-.66-1.14-.66-.415 0-.736.157-.961.472-.226.315-.339.763-.339 1.345 0 .522.119.959.356 1.309.238.344.552.517.944.517zM245.692 87.232l-1.202-6.234h.659l.757 4.283.107.624c.017-.072.074-.273.169-.606l1.229-4.301h.463l1.211 4.301c.059.214.104.38.134.499l.107-.526.899-4.274h.65l-1.354 6.234h-.391l-1.336-4.47a29.333 29.333 0 01-.161-.553c-.035.13-.089.315-.16.552l-1.353 4.47h-.428zm7.09-5.602a.398.398 0 01-.294.116.401.401 0 01-.294-.116.398.398 0 01-.115-.294c0-.119.038-.22.115-.303a.405.405 0 01.294-.124c.119 0 .217.041.294.124a.43.43 0 01.116.303.4.4 0 01-.116.294zm-.605 5.602V82.68h.623v4.55h-.623zm5.761 0h-.686l-1.46-2.886-.757.81v2.076h-.623v-6.127l.623-.303v3.615l1.612-1.736h.721l-1.14 1.211 1.71 3.34zm1.637-5.602a.401.401 0 01-.294.116.398.398 0 01-.41-.41.43.43 0 01.116-.303.402.402 0 01.294-.124c.118 0 .216.041.294.124a.429.429 0 01.115.303.398.398 0 01-.115.294zm-.606 5.602V82.68h.623v4.55h-.623zM244.935 103.262h2.066c.671 0 1.155.157 1.452.472.303.308.454.694.454 1.157 0 .309-.089.579-.267.811-.172.225-.41.395-.713.507.357.089.645.268.864.535.226.261.339.596.339 1.006 0 .493-.158.908-.472 1.247-.309.332-.814.499-1.514.499h-2.209v-6.234zm1.915 2.725c.481 0 .846-.098 1.095-.294a.99.99 0 00.383-.819c0-.701-.424-1.051-1.273-1.051h-1.497v2.164h1.292zm.401 2.948c.469 0 .801-.107.997-.321.202-.214.303-.484.303-.81 0-.849-.532-1.274-1.594-1.274h-1.399v2.405h1.693zm6.069.561v-.437a1.382 1.382 0 01-.499.428 1.545 1.545 0 01-.632.115c-.588 0-1.016-.166-1.283-.498-.261-.333-.392-.873-.392-1.621v-2.538h.624v2.778c0 .452.095.784.285.998.19.214.445.32.766.32.754 0 1.131-.433 1.131-1.3v-2.796h.623v4.551h-.623zm3.505 1.896l-.285-.489c.682-.036 1.151-.161 1.407-.374a1.05 1.05 0 00.392-.855v-.695c-.28.416-.695.623-1.247.623-.523 0-.965-.207-1.327-.623-.356-.421-.535-1.009-.535-1.763 0-.736.176-1.315.526-1.737.35-.427.807-.641 1.371-.641.505 0 .909.178 1.212.534v-.427h.623v4.479c0 1.253-.713 1.909-2.137 1.968zm.409-2.351c.196 0 .398-.068.606-.204a1.49 1.49 0 00.499-.553v-2.19a1.306 1.306 0 00-.508-.508c-.214-.125-.413-.187-.597-.187-.445 0-.783.157-1.015.472-.226.309-.338.757-.338 1.345 0 .57.124 1.018.374 1.345.255.32.581.48.979.48zm5.521-5.779h2.066c.671 0 1.155.157 1.452.472.302.308.454.694.454 1.157 0 .309-.089.579-.267.811-.172.225-.41.395-.713.507.356.089.644.268.864.535.226.261.339.596.339 1.006 0 .493-.158.908-.472 1.247-.309.332-.814.499-1.514.499h-2.209v-6.234zm1.915 2.725c.481 0 .846-.098 1.095-.294a.99.99 0 00.383-.819c0-.701-.424-1.051-1.273-1.051h-1.497v2.164h1.292zm.4 2.948c.469 0 .802-.107.998-.321.202-.214.303-.484.303-.81 0-.849-.532-1.274-1.594-1.274h-1.399v2.405h1.692zm4.947.667c-.593 0-1.068-.207-1.425-.623-.35-.421-.525-1.006-.525-1.754 0-.742.178-1.324.534-1.746.357-.427.829-.641 1.416-.641.594 0 1.066.211 1.416.632.357.416.535.998.535 1.746 0 .742-.178 1.327-.535 1.754-.356.422-.828.632-1.416.632zm0-.561c.41 0 .728-.16.953-.48.232-.327.348-.775.348-1.345s-.113-1.015-.339-1.336c-.22-.321-.54-.481-.962-.481-.421 0-.745.157-.97.472-.22.309-.33.76-.33 1.354 0 .57.11 1.015.33 1.336.225.32.549.48.97.48zm6.001.455v-.437c-.154.202-.32.345-.498.428a1.547 1.547 0 01-.633.115c-.587 0-1.015-.166-1.282-.498-.261-.333-.392-.873-.392-1.621v-2.538h.624v2.778c0 .452.095.784.285.998.19.214.445.32.765.32.754 0 1.131-.433 1.131-1.3v-2.796h.624v4.551h-.624zm5.028 0v-2.779c0-.457-.095-.79-.285-.997-.19-.214-.448-.321-.775-.321-.748 0-1.122.433-1.122 1.3v2.797h-.623v-4.551h.623v.499c.279-.404.671-.606 1.176-.606.558 0 .968.169 1.229.508.267.338.401.881.401 1.629v2.521h-.624zm3.318.106c-.599 0-.899-.347-.899-1.041v-3.055h-.775v-.561h.775v-1.568l.623-.311v1.879h1.158v.561h-1.158v2.787c0 .232.033.41.098.535.065.124.196.187.392.187s.424-.089.686-.267l-.072.65a1.732 1.732 0 01-.828.204zm2.691 1.621l.677-1.87-1.666-4.408h.633l1.149 3.233c.017.059.044.142.08.249l.071.214.16-.463 1.167-3.233h.668l-2.325 6.278h-.614zM149.636 109.602a2.54 2.54 0 01-1.184-.267 2.207 2.207 0 01-.811-.739 3.697 3.697 0 01-.445-1.024 4.833 4.833 0 01-.142-1.193c0-.594.086-1.125.258-1.594a2.57 2.57 0 01.864-1.167c.397-.309.884-.463 1.46-.463.511 0 .909.092 1.194.276.285.178.522.421.712.73l-.552.321a2.076 2.076 0 00-.561-.561c-.202-.137-.466-.205-.793-.205-.338 0-.638.08-.899.24a1.59 1.59 0 00-.606.633 3.37 3.37 0 00-.32.846 4.06 4.06 0 00-.107.944c0 .481.062.917.187 1.309.13.386.344.709.641.97.303.256.671.383 1.104.383.451 0 .811-.139 1.078-.418.267-.279.401-.656.401-1.131v-.374h-1.149v-.552h1.808v.685c0 .743-.202 1.321-.606 1.737-.398.41-.908.614-1.532.614zm4.307-5.708a.4.4 0 01-.294.116.399.399 0 01-.41-.41.43.43 0 01.116-.303.402.402 0 01.294-.124c.119 0 .216.041.294.124a.429.429 0 01.115.303.398.398 0 01-.115.294zm-.606 5.602v-4.551h.623v4.551h-.623zm3.375.106c-.6 0-.9-.347-.9-1.041v-3.055h-.774v-.561h.774v-1.568l.624-.311v1.879h1.158v.561h-1.158v2.787c0 .232.032.41.098.535.065.124.196.187.392.187s.424-.089.685-.267l-.071.65a1.732 1.732 0 01-.828.204zm2.147-.106v-6.136l.624-.294v2.386c.273-.409.665-.614 1.175-.614.558 0 .968.169 1.229.508.267.338.401.881.401 1.629v2.521h-.623v-2.779c0-.457-.095-.79-.285-.997-.19-.214-.449-.321-.775-.321-.748 0-1.122.433-1.122 1.3v2.797h-.624zm7.744 0v-.437c-.154.202-.32.345-.498.428a1.547 1.547 0 01-.633.115c-.587 0-1.015-.166-1.282-.498-.261-.333-.392-.873-.392-1.621v-2.538h.624v2.778c0 .452.095.784.285.998.19.214.445.32.765.32.754 0 1.131-.433 1.131-1.3v-2.796h.624v4.551h-.624zm4.111.106a1.762 1.762 0 01-.944-.267 6.369 6.369 0 01-.321-.249v.41h-.623v-6.119l.623-.311v2.324c.149-.166.333-.3.553-.401.219-.101.439-.151.659-.151.575 0 1.033.211 1.371.632.338.422.508 1.004.508 1.746 0 .766-.161 1.356-.481 1.772-.321.41-.769.614-1.345.614zm-.098-.561c.422 0 .739-.16.953-.48.214-.321.321-.769.321-1.345 0-.588-.107-1.036-.321-1.345-.214-.315-.531-.472-.953-.472a1.2 1.2 0 00-.703.223 1.503 1.503 0 00-.464.472v2.235c.125.214.294.386.508.516.214.131.433.196.659.196z" fill="#808587"/><path stroke="#EFEFEF" stroke-width=".557" d="M338 25.278H0"/><defs><clipPath id="clip0"><path fill="#fff" transform="translate(59.6 58.864)" d="M0 0h44.945v13.829H0z"/></clipPath></defs></svg>