<svg width="113" height="38" fill="none" xmlns="http://www.w3.org/2000/svg"><path d="M22.079 16.454a2.173 2.173 0 00-1.74.166L1.043 27.78c-.012 0-.012.012-.023.012-.977.595-1.287 1.713-.775 2.772.644 1.309 2.907 2.546 5.635 3.081.845.167 1.858.286 3.013.286 2.168 0 4.837-.428 7.803-1.808 2.299-1.071 4.479-3.403 5.837-6.247 1.43-2.998 1.715-6.008.774-8.28a2.011 2.011 0 00-1.227-1.142zM52.002 27.804c-.012 0-.012-.012-.024-.012l-19.297-11.16a2.072 2.072 0 00-1.74-.166c-.56.19-1.012.606-1.226 1.142-.942 2.272-.656 5.294.774 8.28 1.358 2.844 3.538 5.176 5.837 6.246 2.954 1.38 5.622 1.809 7.802 1.809 1.155 0 2.168-.12 3.014-.286 2.728-.523 4.99-1.76 5.634-3.081.512-1.059.203-2.166-.774-2.772z" fill="#7CE0D6"/><path d="M24.652 6.948a.93.93 0 01-.93-.928 4.171 4.171 0 00-4.168-4.164.93.93 0 01-.93-.928.93.93 0 01.93-.928c3.323 0 6.015 2.7 6.015 6.008a.915.915 0 01-.917.94zM28.488 6.949a.93.93 0 01-.93-.928c0-3.308 2.705-6.009 6.028-6.009a.93.93 0 01.93.928.93.93 0 01-.93.928c-2.299 0-4.17 1.868-4.17 4.164a.935.935 0 01-.928.917zM35.611 32.301H15.671l9.064 5.223a3.528 3.528 0 001.787.476c.62 0 1.24-.154 1.787-.476l9.065-5.223h-1.763zM38.41 20.773H13.693v5.984H39.34v-5.984h-.93z" fill="#2C3437"/><path d="M37.553 15.348l-.227-.131H15.706l-.226.13a3.582 3.582 0 00-1.787 3.082v2.344H39.363v-2.344a3.672 3.672 0 00-1.81-3.081zM38.41 26.757H13.681v2.356c0 1.261.68 2.45 1.787 3.081l.19.107H37.35l.203-.119a3.586 3.586 0 001.775-3.08v-2.357h-.918v.012z" fill="#FFDD0F"/><path d="M28.297 10.018a3.532 3.532 0 00-3.562 0l-9.029 5.211h21.632l-9.041-5.211z" fill="#2C3437"/><g clip-path="url(#clip0)" fill="#2C3437"><path d="M61 14.673c.405-.157.819-.343 1.261-.556.442-.213.866-.436 1.28-.686.414-.25.819-.51 1.195-.788a8.011 8.011 0 001.035-.881h2.165v13.815H64.83v-9.893c-.414.269-.884.52-1.392.742-.518.222-1.017.417-1.497.575L61 14.672zM88.915 11.79c0 .556-.179.992-.546 1.307-.367.315-.79.473-1.289.473-.499 0-.922-.158-1.29-.473-.366-.315-.545-.751-.545-1.307 0-.557.179-.993.546-1.308A1.91 1.91 0 0187.09 10c.498 0 .922.158 1.289.473.357.324.536.76.536 1.316zm-.226 13.787h-3.105V14.914h3.105v10.663zM94.76 25.577c-.706-1.354-1.412-2.93-2.137-4.747a70.084 70.084 0 01-2.051-5.916h3.247c.14.529.3 1.094.489 1.716.188.612.376 1.233.583 1.863.198.63.396 1.243.603 1.836.198.594.395 1.131.593 1.623.179-.482.367-1.03.574-1.623.207-.593.414-1.205.612-1.836.197-.63.395-1.251.574-1.863.188-.612.348-1.187.489-1.716h3.172c-.65 2.133-1.327 4.108-2.052 5.916-.725 1.808-1.43 3.394-2.136 4.747h-2.56zM102.326 20.31c0-.945.151-1.78.443-2.484a5.345 5.345 0 011.167-1.78 4.843 4.843 0 011.656-1.076 5.312 5.312 0 011.929-.362c1.534 0 2.758.464 3.643 1.391.894.927 1.336 2.29 1.336 4.09 0 .175-.009.37-.019.574-.009.213-.028.399-.038.556h-6.964c.066.622.367 1.113.885 1.484.517.361 1.223.547 2.099.547.564 0 1.119-.046 1.656-.148.546-.102.988-.223 1.327-.371l.414 2.457a3.663 3.663 0 01-.659.24 9.418 9.418 0 01-.913.214c-.338.065-.696.111-1.082.149-.386.037-.772.064-1.158.064-.978 0-1.825-.139-2.541-.426-.724-.287-1.317-.677-1.788-1.168a4.631 4.631 0 01-1.054-1.753 6.98 6.98 0 01-.339-2.197zm7.209-1.223a2.853 2.853 0 00-.131-.751 1.822 1.822 0 00-.349-.65 1.952 1.952 0 00-.592-.463 1.992 1.992 0 00-.895-.185c-.338 0-.639.055-.884.176a1.83 1.83 0 00-.998 1.113c-.094.25-.15.5-.197.76h4.046zM79.749 11.762h3.2v13.815h-3.2v-5.841h-5.27v5.841h-3.2V11.762h3.2v5.285h5.27v-5.285z"/></g><defs><clipPath id="clip0"><path fill="#fff" transform="translate(61 10)" d="M0 0h51.5v15.846H0z"/></clipPath></defs></svg>