<svg width="86" height="28" fill="none" xmlns="http://www.w3.org/2000/svg"><path d="M18.257 27.504V.851L23.538 0v8.932c.448-.141.903-.254 1.365-.337a8.558 8.558 0 011.613-.16c1.512 0 2.77.207 3.774.62a5.863 5.863 0 012.41 1.755 6.787 6.787 0 011.276 2.694c.26 1.14.384 2.305.373 3.473v10.527h-5.282v-9.889c0-1.7-.218-2.906-.655-3.615-.437-.709-1.247-1.063-2.428-1.063a6.776 6.776 0 00-1.33.124c-.413.083-.785.172-1.116.267v14.176h-5.28zM44.91 3.474c0 .97-.313 1.732-.94 2.287a3.362 3.362 0 01-4.43 0c-.626-.555-.94-1.317-.94-2.287.001-.969.314-1.73.94-2.285a3.362 3.362 0 014.43 0c.627.555.94 1.317.94 2.285zm-.496 24.032h-5.281V8.862h5.281v18.644zm10.545-.002c-1.21-2.363-2.437-5.127-3.683-8.294-1.245-3.166-2.425-6.616-3.54-10.349h5.601c.237.921.516 1.92.837 2.995a238.765 238.765 0 002.029 6.468 57.62 57.62 0 001.015 2.836c.308-.85.64-1.796.996-2.836.356-1.04.706-2.109 1.05-3.207.343-1.099.675-2.186.995-3.261a84.59 84.59 0 00.837-2.995h5.462c-1.115 3.734-2.294 7.183-3.538 10.35-1.243 3.165-2.47 5.93-3.679 8.293h-4.383zm13.016-9.179c0-1.653.254-3.1.761-4.342a9.3 9.3 0 012.003-3.1 8.32 8.32 0 012.853-1.88 8.929 8.929 0 013.314-.637c2.646 0 4.737.81 6.273 2.428 1.536 1.618 2.304 3.999 2.304 7.14 0 .308-.011.644-.035 1.01-.024.365-.047.69-.071.975h-11.98a3.507 3.507 0 001.523 2.587c.898.638 2.103.957 3.615.957.958.001 1.913-.088 2.854-.266.783-.134 1.55-.354 2.285-.656l.709 4.289a7.287 7.287 0 01-1.135.425c-.518.153-1.044.277-1.577.372-.579.106-1.2.195-1.86.267-.66.07-1.322.106-1.985.106-1.678 0-3.137-.248-4.377-.744a8.518 8.518 0 01-3.084-2.038 8.083 8.083 0 01-1.807-3.066 12.144 12.144 0 01-.583-3.827zm12.405-2.02a5.482 5.482 0 00-.23-1.312 3.281 3.281 0 00-.603-1.134 3.218 3.218 0 00-1.028-.815 3.348 3.348 0 00-1.543-.319 3.55 3.55 0 00-1.523.301c-.407.188-.77.46-1.063.798-.289.34-.511.73-.656 1.152a7.531 7.531 0 00-.337 1.329h6.983zM7.536 2.156a14.39 14.39 0 01-1.174.976c-.65.485-1.33.946-2.038 1.383a25.7 25.7 0 01-2.18 1.205A36.15 36.15 0 010 6.695l1.595 4.075c.827-.284 1.678-.62 2.552-1.01a16.14 16.14 0 002.374-1.294v19.038h5.28V1.467h-.013l-4.252.69z" fill="#2C3437" fill-opacity=".8"/></svg>