<svg xmlns="http://www.w3.org/2000/svg" viewBox="0 0 130 130"><defs><linearGradient id="a" x1="359" y1="-224.67" x2="359" y2="-342.9" gradientTransform="matrix(1 0 0 -1 -294 -252.25)" gradientUnits="userSpaceOnUse"><stop offset="0" stop-color="#fff"/><stop offset="1" stop-color="#fff" stop-opacity="0"/></linearGradient><linearGradient id="b" x1="400.97" y1="-291.13" x2="400.97" y2="-327.47" gradientTransform="matrix(1 0 0 -1 -294 -252.25)" gradientUnits="userSpaceOnUse"><stop offset="0" stop-color="#f5f8fc"/><stop offset="1" stop-color="#ddecff" stop-opacity=".7"/></linearGradient><linearGradient id="c" x1="330.5" y1="-288.58" x2="372.03" y2="-367.69" gradientTransform="matrix(1 0 0 -1 -294 -252.25)" gradientUnits="userSpaceOnUse"><stop offset="0" stop-color="#f5f8fc"/><stop offset="1" stop-color="#ddecff" stop-opacity=".6"/></linearGradient></defs><circle cx="65" cy="65" r="65" fill-opacity=".9" opacity=".7" fill="url(#a)" style="isolation:isolate"/><path d="M115.8 58.72c.45-9.37-6.09-15.58-13.47-19.85 0 0 4.26 5.84 2.66 15.27-2.09 9.21-6 12.58-6.87 12.9a6.64 6.64 0 014.94 1.69c.74.74 2.59 3 .37 6.49 4.62-.74 11.82-5.22 12.37-16.5z" fill-opacity=".6" fill="url(#b)"/><path d="M52.86 25.9c-4.86-4.9-5.73-5.75-5.73-5.75 8.62-1 31.34.29 53.34 14.09a11.36 11.36 0 010 3.71l1.84.93a21.57 21.57 0 012.4 16.5c-1.92 7.72-5.23 11-6.64 11.69-2.95 0-8 1.7-9.6 9.27a46.74 46.74 0 01-36.31 1.53S36.64 72.7 32.29 58.69C26 35.82 50.14 26.93 52.86 25.9zm38.36 10.8a12.14 12.14 0 01-3.16 2.4C79.7 37.32 76.69 33 76.69 33c7.88 0 15 1.83 20.21 5a36.57 36.57 0 00-5.68-1.3z" fill="#ebf3ff" fill-rule="evenodd" opacity=".9" style="isolation:isolate"/><path d="M88.36 76.34a45.22 45.22 0 01-19.87 4.45C48 80.79 31.33 67.91 31.32 52c0-11.73 9.08-21.81 22.11-26.29C28.66 27.18 8.76 47 8.76 71.53c0 28.27 25.25 51.63 56.41 51.63 23.26 0 42.62-13.46 52.75-31.47-13.92 3.13-30.43-2.81-29.56-15.35z" fill-rule="evenodd" fill="url(#c)"/></svg>