<svg width="162" height="56" fill="none" xmlns="http://www.w3.org/2000/svg"><g clip-path="url(#clip0)"><path d="M32.234 24.24a3.056 3.056 0 00-2.534.253L1.52 40.949l-.031.02c-1.426.884-1.882 2.523-1.134 4.077.933 1.938 4.24 3.761 8.226 4.539 1.452.28 2.927.42 4.405.418 3.174 0 7.07-.63 11.384-2.658 3.351-1.575 6.538-5.015 8.524-9.203 2.093-4.412 2.508-8.863 1.138-12.211a3 3 0 00-.718-1.042 2.97 2.97 0 00-1.08-.65zM75.915 40.968l-.032-.019-28.18-16.456a3.064 3.064 0 00-2.533-.254 2.998 2.998 0 00-1.798 1.692c-1.37 3.348-.956 7.799 1.137 12.21 1.987 4.189 5.173 7.629 8.523 9.204 4.315 2.028 8.21 2.658 11.384 2.658a23.04 23.04 0 004.405-.418c3.987-.778 7.293-2.601 8.226-4.538.75-1.554.294-3.194-1.132-4.079z" fill="#7CE0D6"/><path fill-rule="evenodd" clip-rule="evenodd" d="M27.201 1.36c0-.751.604-1.36 1.349-1.36 2.33 0 4.566.934 6.214 2.595a8.897 8.897 0 012.574 6.265c0 .75-.604 1.36-1.348 1.36a1.354 1.354 0 01-1.349-1.36c0-1.629-.642-3.19-1.784-4.343A6.067 6.067 0 0028.55 2.72a1.354 1.354 0 01-1.349-1.36zM49.024 2.719c-.8 0-1.592.158-2.331.467a6.09 6.09 0 00-1.976 1.331 6.183 6.183 0 00-1.784 4.343c0 .75-.604 1.36-1.349 1.36a1.354 1.354 0 01-1.348-1.36c0-1.164.227-2.316.669-3.39a8.864 8.864 0 011.905-2.875 8.783 8.783 0 012.85-1.92A8.726 8.726 0 0149.025 0c.745 0 1.348.609 1.348 1.36 0 .75-.603 1.359-1.348 1.359z" fill="#2C3437"/><path d="M51.994 47.595H22.868L36.1 55.293a5.165 5.165 0 005.21.003l13.236-7.702h-2.55zM56.077 30.593H19.979v8.822h37.446v-8.822h-1.348z" fill="#2C3437"/><path d="M54.827 22.603l-.327-.19H22.914l-.329.191a5.244 5.244 0 00-1.903 1.919c-.457.796-.699 1.7-.702 2.62v3.45h37.445v-3.45a5.309 5.309 0 00-.7-2.618 5.255 5.255 0 00-1.898-1.922zM56.077 39.415H19.979v3.467c.002.922.244 1.827.702 2.625a5.251 5.251 0 001.905 1.924l.282.165h31.677l.287-.168a5.26 5.26 0 001.895-1.925c.455-.797.695-1.7.697-2.62v-3.467l-1.347-.001z" fill="#FFDD0F"/><path d="M41.31 14.738a5.161 5.161 0 00-5.205 0l-13.192 7.675H54.5l-13.19-7.675zM99.95 47.747V23.203l4.824-.784v8.225c.409-.13.825-.233 1.246-.31a7.763 7.763 0 011.474-.147c1.381 0 2.53.19 3.447.572a5.36 5.36 0 012.202 1.615c.566.73.964 1.577 1.165 2.48.237 1.05.351 2.123.34 3.199v9.694h-4.824V38.64c0-1.567-.199-2.676-.599-3.33-.399-.652-1.138-.979-2.217-.979a6.134 6.134 0 00-1.214.115c-.378.076-.718.158-1.02.245v13.055H99.95zM124.296 25.618c0 .893-.287 1.595-.859 2.106a3.055 3.055 0 01-4.046 0c-.573-.511-.859-1.213-.859-2.106.001-.892.287-1.594.859-2.104a3.055 3.055 0 014.046 0c.572.51.858 1.212.859 2.104zm-.454 22.13h-4.824V30.58h4.824v17.168zM133.474 47.747c-1.105-2.176-2.226-4.722-3.364-7.638-1.137-2.916-2.215-6.093-3.233-9.53h5.116c.216.848.47 1.768.764 2.758.293.99.596 1.99.91 3.002.314 1.012.628 1.997.943 2.954.315.957.624 1.828.927 2.611.282-.783.585-1.653.91-2.61.325-.958.645-1.943.959-2.954.314-1.012.617-2.013.909-3.003.293-.99.547-1.91.764-2.758h4.989c-1.018 3.438-2.095 6.615-3.231 9.53-1.136 2.916-2.256 5.462-3.36 7.638h-4.003zM145.363 39.294c0-1.523.232-2.855.695-3.998a8.583 8.583 0 011.83-2.856 7.589 7.589 0 012.606-1.73 8.091 8.091 0 013.026-.587c2.417 0 4.327.745 5.731 2.236 1.403 1.49 2.104 3.682 2.104 6.575 0 .283-.011.593-.032.93-.022.336-.043.636-.065.897h-10.943c.043.477.19.937.43 1.35.241.412.569.765.962 1.033.82.587 1.92.881 3.302.881.874.001 1.747-.08 2.606-.245a9.744 9.744 0 002.087-.604l.648 3.95a6.64 6.64 0 01-1.036.391c-.474.14-.955.255-1.441.343-.529.098-1.095.18-1.7.245-.602.065-1.207.098-1.812.098-1.533 0-2.866-.228-3.999-.685a7.78 7.78 0 01-2.816-1.877 7.444 7.444 0 01-1.651-2.823 11.261 11.261 0 01-.532-3.524zm11.331-1.86a5.054 5.054 0 00-.211-1.208 3.02 3.02 0 00-.55-1.044 2.947 2.947 0 00-.939-.751 3.04 3.04 0 00-1.409-.294 3.22 3.22 0 00-1.392.277 2.896 2.896 0 00-.971.735 3.3 3.3 0 00-.599 1.06 6.962 6.962 0 00-.307 1.225h6.378zM90.157 24.405c-.341.318-.7.618-1.072.899-.594.446-1.215.87-1.861 1.273-.647.402-1.31.772-1.991 1.11-.68.337-1.333.636-1.96.897l1.458 3.753a27.967 27.967 0 002.33-.93c.755-.335 1.48-.734 2.17-1.192v17.532h4.822V23.77h-.012l-3.884.635z" fill="#2C3437"/></g><defs><clipPath id="clip0"><path fill="#fff" d="M0 0h161.356v56H0z"/></clipPath></defs></svg>