<svg width="251" height="75" fill="none" xmlns="http://www.w3.org/2000/svg"><path d="M139.994 62.186V18.398L148.67 17v14.674a18.079 18.079 0 012.242-.553 14.07 14.07 0 012.649-.263c2.484 0 4.552.34 6.202 1.02a9.628 9.628 0 013.959 2.882 11.148 11.148 0 012.096 4.425c.426 1.872.631 3.787.612 5.706v17.295h-8.676V45.94c0-2.795-.36-4.775-1.078-5.94-.718-1.164-2.047-1.747-3.988-1.746a11.128 11.128 0 00-2.184.204c-.68.136-1.291.282-1.834.438v23.29h-8.676zm43.787-39.478c0 1.592-.514 2.844-1.543 3.756a5.524 5.524 0 01-7.279 0c-1.029-.912-1.543-2.164-1.543-3.756 0-1.593.515-2.844 1.543-3.754a5.527 5.527 0 017.279 0c1.028.91 1.543 2.162 1.543 3.754zm-.815 39.48h-8.676v-30.63h8.676v30.63zm17.323-.002c-1.987-3.882-4.003-8.424-6.049-13.626-2.046-5.202-3.985-10.87-5.815-17.003h9.2c.389 1.514.847 3.154 1.375 4.92a420.988 420.988 0 001.638 5.358c.564 1.805 1.13 3.561 1.696 5.27a96.242 96.242 0 001.667 4.658c.506-1.398 1.051-2.95 1.636-4.659.585-1.708 1.16-3.465 1.725-5.27.565-1.804 1.11-3.59 1.636-5.357.526-1.766.984-3.406 1.374-4.92h8.973c-1.831 6.134-3.768 11.802-5.811 17.003-2.043 5.201-4.058 9.743-6.044 13.626h-7.201zm21.384-15.081c0-2.716.417-5.093 1.251-7.132a15.278 15.278 0 013.291-5.095 13.664 13.664 0 014.686-3.086 14.673 14.673 0 015.444-1.048c4.347 0 7.783 1.33 10.307 3.989 2.523 2.659 3.785 6.57 3.785 11.731 0 .505-.019 1.058-.058 1.658-.039.6-.078 1.134-.117 1.602h-19.681a5.767 5.767 0 002.503 4.25c1.474 1.048 3.454 1.572 5.939 1.573a25.05 25.05 0 004.687-.438c1.287-.22 2.546-.58 3.754-1.077l1.165 7.045c-.601.285-1.224.518-1.864.699a24.41 24.41 0 01-2.59.611c-.952.175-1.971.32-3.058.438a30.582 30.582 0 01-3.26.175c-2.757 0-5.154-.408-7.192-1.223a13.993 13.993 0 01-5.065-3.348 13.286 13.286 0 01-2.97-5.036 19.962 19.962 0 01-.957-6.288zm20.38-3.319a8.961 8.961 0 00-.379-2.154 5.397 5.397 0 00-.989-1.863 5.28 5.28 0 00-1.69-1.34 5.499 5.499 0 00-2.533-.524 5.83 5.83 0 00-2.503.495 5.184 5.184 0 00-1.747 1.31 5.88 5.88 0 00-1.078 1.893c-.25.71-.435 1.44-.553 2.183h11.472zM122.38 20.542a23.636 23.636 0 01-1.929 1.604 46.25 46.25 0 01-3.347 2.271 42.562 42.562 0 01-3.581 1.98A59.506 59.506 0 01110 27.998l2.62 6.695a50.565 50.565 0 004.192-1.66 26.351 26.351 0 003.901-2.125v31.278h8.675V19.41h-.022l-6.986 1.131z" fill="#2C3437"/><path d="M41.644 33.32a3.98 3.98 0 00-3.273.325L1.965 54.733a1.603 1.603 0 00-.04.024C.081 55.891-.507 57.991.46 59.983c1.206 2.483 5.476 4.82 10.627 5.816 1.876.36 3.781.539 5.691.536 4.1 0 9.134-.807 14.707-3.406 4.33-2.018 8.446-6.427 11.013-11.794 2.703-5.654 3.239-11.357 1.469-15.648a3.844 3.844 0 00-2.323-2.167zm56.432 21.437l-.04-.024L61.63 33.645a3.98 3.98 0 00-3.273-.325 3.842 3.842 0 00-2.323 2.167c-1.77 4.29-1.236 9.994 1.469 15.648 2.566 5.367 6.683 9.775 11.01 11.794 5.575 2.599 10.608 3.406 14.708 3.406 1.91.003 3.815-.177 5.69-.536 5.152-.996 9.423-3.334 10.628-5.816.968-1.991.38-4.091-1.463-5.226z" fill="#7CE0D6"/><path d="M46.496 13.612A9.611 9.611 0 0036.885 4m16.839 9.612A9.612 9.612 0 0163.336 4" stroke="#2C3437" stroke-width="7" stroke-miterlimit="10" stroke-linecap="round"/><path d="M67.173 63.249H29.545l17.093 9.864a6.714 6.714 0 006.73.004l17.1-9.869h-3.295zm5.274-21.788H25.812v11.306H74.19V41.46h-1.742z" fill="#2C3437"/><path d="M70.833 31.223l-.423-.244H29.604l-.425.245a6.747 6.747 0 00-3.366 5.816v4.421H74.19v-4.42a6.761 6.761 0 00-3.357-5.818zm1.614 21.544H25.812v4.443a6.756 6.756 0 003.368 5.83l.365.21h40.923l.372-.215a6.768 6.768 0 003.348-5.824v-4.443l-1.74-.001z" fill="#FFDD0F"/><path d="M53.37 21.145a6.708 6.708 0 00-6.725-.001l-17.042 9.835H70.41l-17.04-9.834z" fill="#2C3437"/></svg>