<svg width="128" height="128" fill="none" xmlns="http://www.w3.org/2000/svg"><circle cx="63.791" cy="63.791" r="63.791" fill="#FFF19F" fill-opacity=".4"/><mask id="a" style="mask-type:alpha" maskUnits="userSpaceOnUse" x="0" y="0" width="128" height="128"><circle cx="63.791" cy="63.791" r="63.791" fill="#FFF19F"/></mask><g mask="url(#a)"><path d="M78.6 99.918a68.153 68.153 0 0 0-15 23.46h.15a68.28 68.28 0 0 0 23.35-14.94 68.283 68.283 0 0 0 15.011-23.45 67.997 67.997 0 0 0-23.51 14.93zM48.41 99.918a67.998 67.998 0 0 0-23.5-14.93 68.159 68.159 0 0 0 15 23.46 68.392 68.392 0 0 0 23.36 14.88h.14a68.14 68.14 0 0 0-15-23.41z" fill="#164924"/><path d="m84.53 58.968-1.41-1-18.66 26.42v-34.94h-1.72v34.94l-18.66-26.42-1.41 1 20.07 28.41v41.11h1.72v-41.12l20.07-28.4z" fill="#164924"/><path d="M73.7 38.178h-1V36.148h1v1.02c.04.32.02.65 0 1.01zM72.67 34.818c0-.48-.07-.93-.12-1.33l1-.12c.05.42.1.88.13 1.39l-1.01.06zM72.36 32.158v-.12l-.09.08-.68-.73c.48-.45.77-.68.77-.68a.52.52 0 0 1 .48-.09.508.508 0 0 1 .32.35s.09.37.21 1l-1.01.19zM69.94 34.598l-.77-.61c.41-.49.8-.93 1.16-1.32l.73.68c-.35.34-.72.77-1.12 1.25zM67.92 36.988h-.07a.51.51 0 0 1-.41-.35c-.09-.31-.19-.62-.3-.92l.94-.34.82.61c-.19.26-.38.53-.56.81a.51.51 0 0 1-.42.19zM66.24 33.538a21.247 21.247 0 0 0-1.11-2l.87-.55c.428.687.815 1.398 1.16 2.13l-.92.42zM63.82 29.568c-.08-.11-.15-.21-.22-.29-.07.08-.14.18-.22.29l-.8-.6c.203-.281.42-.552.65-.81a.488.488 0 0 1 .72 0c.242.261.466.538.67.83l-.8.58zM61 33.538l-.9-.44c.35-.71.74-1.43 1.16-2.13l.86.52a22.811 22.811 0 0 0-1.12 2.05zM59.28 36.988a.49.49 0 0 1-.41-.22c-.186-.28-.376-.55-.57-.81l.81-.59.94.34c-.1.3-.21.61-.3.92a.5.5 0 0 1-.4.35l-.07.01zM57.26 34.598c-.39-.48-.77-.9-1.12-1.28l.73-.68c.36.39.76.83 1.16 1.32l-.77.64zM54.84 32.158l-1-.17c.11-.65.2-1 .2-1a.52.52 0 0 1 .33-.35.5.5 0 0 1 .47.09s.29.23.77.68l-.61.71-.09-.08s-.06.08-.07.12zM54.53 34.818l-1-.07c0-.5.08-1 .13-1.38l1 .11c-.06.4-.1.85-.13 1.34zM53.5 38.178V36.148h1v1.98l-1 .05zM64.56 54.198l-.11-1a6.093 6.093 0 0 0 1.7-.45l.4.92a7.404 7.404 0 0 1-1.99.53zm-2 0a7.644 7.644 0 0 1-2-.53l.39-.92c.547.228 1.123.379 1.71.45l-.1 1zm5.77-1.57-.63-.78a8.599 8.599 0 0 0 1.3-1.29l.77.62a9.689 9.689 0 0 1-1.47 1.44l.03.01zm-9.5 0c-.524-.423-1-.903-1.42-1.43l.78-.63c.375.472.801.901 1.27 1.28l-.63.78zm12-3.08-.83-.56c.304-.54.575-1.098.81-1.67l.92.38a14.718 14.718 0 0 1-.89 1.82l-.01.03zm-14.58 0a16.406 16.406 0 0 1-.85-1.78l.93-.38c.23.577.496 1.138.8 1.68l-.88.48zm16.11-3.6-.95-.3c.18-.58.34-1.19.49-1.82l1 .23a53.15 53.15 0 0 1-.53 1.84l-.01.05zm-17.61 0c-.18-.59-.35-1.23-.5-1.89l1-.22c.14.64.3 1.25.47 1.82l-.97.29zm18.52-3.86-1-.16c.11-.65.2-1.27.26-1.88l1 .11c-.06.62-.15 1.27-.26 1.93zm-19.37 0c-.1-.66-.19-1.31-.25-1.93l1-.1c.06.6.15 1.23.25 1.88l-1 .15z" fill="#FFA07A"/><path d="M68.42 49.318c.28-.975.387-1.99.32-3a8.65 8.65 0 0 0-3.49 2.29 8.67 8.67 0 0 0-1.65-3.81 8.6 8.6 0 0 0-1.64 3.88 8.68 8.68 0 0 0-3.53-2.33 9 9 0 0 0 .32 3 8.818 8.818 0 0 0-3-.27 8.28 8.28 0 0 0 3 4 8.21 8.21 0 0 0 4.76 1.09h.15a8.17 8.17 0 0 0 4.79-1.18 8.28 8.28 0 0 0 3-4 8.84 8.84 0 0 0-3.03.33z" fill="#164924"/><path d="m103.281 45.988-.92-.39a.506.506 0 0 0 0-.11h-.11l-.19-1c.65-.12 1-.16 1-.16a.51.51 0 0 1 .44.18.504.504 0 0 1 .09.47s-.05.43-.31 1.01zM99 46.388l-.31-.95c.61-.2 1.18-.36 1.691-.49l.25 1c-.49.09-1.03.25-1.63.44zM96.3 47.378a.5.5 0 0 1-.483-.358.49.49 0 0 1 .004-.282c.09-.31.17-.63.24-.94l.94.19.37.93-.91.38a.481.481 0 0 1-.16.08zM97.45 43.628l-1-.12c.09-.77.14-1.55.16-2.32h1c-.01.8-.07 1.64-.16 2.44zM96.55 38.858v-.36l-.35.12-.34-.94c.61-.23 1-.33 1-.33a.49.49 0 0 1 .44.08.49.49 0 0 1 .2.4s.06.4.11.95l-1.06.08zM92 40.668l-.53-.85c.68-.42 1.39-.81 2.12-1.17l.44.89c-.69.35-1.37.73-2.03 1.13zM89 42.738a.45.45 0 0 1-.2 0 .521.521 0 0 1-.3-.45v-1l1-.06.61.79c-.25.2-.5.4-.75.62a.5.5 0 0 1-.36.1zM88.31 39.578c-.07-.62-.16-1.18-.26-1.68l1-.18c.09.52.19 1.1.27 1.73l-1.01.13zM87.69 36.248v-.12l-.08.09-.74-.67c.45-.49.72-.75.72-.75a.46.46 0 0 1 .41-.12.51.51 0 0 1 .36.32s.12.36.28 1l-.95.25zM85.89 38.288l-.81-.59c.3-.41.59-.77.86-1.1l.77.63c-.26.32-.53.67-.82 1.06zM84.08 41.068l-.87-.49c.18-.31.35-.61.52-.88v-.06c.17-.28.34-.54.51-.79l.83.55-.53.83c.004.02.004.04 0 .06-.15.24-.3.5-.46.78zM88 60.698l-.11-1c.6-.07 1.19-.204 1.76-.4l.32 1a9.732 9.732 0 0 1-1.97.4zm-2.05-.05a7.332 7.332 0 0 1-1.95-.66l.43-.9a6.532 6.532 0 0 0 1.69.54l-.17 1.02zm5.85-1.2-.47-.88a16.018 16.018 0 0 0 1.58-1l.57.81a14.75 14.75 0 0 1-1.72 1.07h.04zm-9.52-.52a7.36 7.36 0 0 1-1.39-1.51l.83-.57c.336.492.74.933 1.2 1.31l-.64.77zM95 57.208l-.65-.76c.46-.39.93-.82 1.4-1.27l.69.72c-.44.47-.96.91-1.44 1.31zm-15.06-1.62a8.92 8.92 0 0 1-.43-2l1-.11c.066.598.194 1.188.38 1.76l-.95.35zm17.86-1.1-.75-.67c.44-.487.85-.967 1.23-1.44l.78.62c-.39.49-.81.99-1.26 1.49zm-17.34-2.83-1-.05c.044-.67.124-1.339.24-2l1 .18a14.006 14.006 0 0 0-.24 1.87zm.65-3.67-1-.27c.17-.61.37-1.24.6-1.86l.94.34c-.18.61-.37 1.22-.54 1.79zm1.28-3.55-.92-.39c.27-.62.55-1.21.83-1.77l.89.45c-.27.55-.54 1.13-.8 1.72v-.01zM100.261 51.428l-.82-.58c.19-.26.36-.51.52-.75v-.06c.19-.28.36-.56.53-.83l.85.52c-.16.27-.32.53-.5.81v.06c-.18.26-.38.54-.58.83zM102.071 48.528l-.88-.48c.24-.43.44-.83.62-1.2l.9.44c-.19.38-.4.79-.64 1.24z" fill="#FFA07A"/><path d="M89.76 57.988a9 9 0 0 0 1.87-2.34 8.52 8.52 0 0 0-4.18.05 8.63 8.63 0 0 0 .66-4.11 8.67 8.67 0 0 0-3.47 2.39 8.48 8.48 0 0 0-1.73-3.85 8.79 8.79 0 0 0-1.32 2.67 8.76 8.76 0 0 0-2.37-1.83 8.24 8.24 0 0 0 .4 5 8.22 8.22 0 0 0 3.38 3.36l.08.05h.05a8.24 8.24 0 0 0 4.64 1.65 8.22 8.22 0 0 0 4.66-1.74 9.13 9.13 0 0 0-2.67-1.3z" fill="#164924"/><path d="m43.6 41.638-.46-.79v-.06l-.57-.8.83-.55.51.79a.249.249 0 0 1 0 .07c.17.27.34.56.52.87l-.83.47zM41.79 38.858c-.28-.39-.56-.74-.82-1.06l.78-.63c.26.33.55.69.85 1.1l-.81.59zM40 36.808l-1-.25c.16-.63.28-1 .28-1a.54.54 0 0 1 .36-.33.49.49 0 0 1 .46.13s.28.25.72.74l-.74.67-.08-.07v.11zM39.37 40.138l-1-.12c.07-.64.17-1.22.26-1.74l1 .18c-.1.53-.19 1.07-.26 1.68zM38.67 43.298a.52.52 0 0 1-.33-.12l-.75-.62.62-.78 1 .06v1a.49.49 0 0 1-.3.44.45.45 0 0 1-.24.02zM35.68 41.238c-.65-.4-1.34-.78-2-1.13l.44-.9c.73.357 1.44.75 2.13 1.18l-.57.85zM31.13 39.418l-1-.07c.06-.66.12-1 .12-1a.471.471 0 0 1 .2-.31c.22-.16.29-.16 1.41.26l-.35.94-.35-.13c-.006.08-.016.183-.03.31zM30.23 44.188a23.993 23.993 0 0 1-.16-2.42h1c.01.775.06 1.55.15 2.32l-.99.1zM31.38 47.988a.713.713 0 0 1-.2 0c-.31-.14-.61-.26-.91-.38l.37-.93 1-.22c.07.31.15.62.24.94a.47.47 0 0 1-.15.51.46.46 0 0 1-.35.08zM28.67 46.988c-.58-.19-1.13-.34-1.63-.47l.26-1c.51.13 1.08.3 1.68.49l-.31.98zM24.4 46.578c-.14-.327-.263-.66-.37-1a.47.47 0 0 1 .08-.47.5.5 0 0 1 .45-.12s.37 0 1 .17l-.19 1h-.11v.11l-.86.31zM25.61 49.088c-.24-.44-.45-.86-.64-1.24l.9-.44c.18.37.38.77.62 1.2l-.88.48zM27.43 51.988c-.21-.29-.41-.57-.58-.84v-.06l-.5-.8.85-.52c.17.27.34.55.53.83v.06c.16.24.33.49.52.74l-.82.59zM39.69 61.268a9.82 9.82 0 0 1-2-.46l.33-.94c.57.197 1.161.331 1.76.4l-.09 1zm2-.05-.16-1a6.38 6.38 0 0 0 1.69-.53l.43.9c-.602.3-1.246.513-1.91.63h-.05zm-5.8-1.23a15.67 15.67 0 0 1-1.68-1l.58-.82c.503.37 1.03.704 1.58 1l-.48.82zm9.53-.48-.64-.77a6.803 6.803 0 0 0 1.22-1.3l.82.57a7.363 7.363 0 0 1-1.4 1.51v-.01zm-12.76-1.75c-.48-.4-1-.85-1.44-1.32l.7-.71c.46.45.93.88 1.39 1.27l-.65.76zm15.07-1.58-.94-.32a8.176 8.176 0 0 0 .39-1.77l1 .12a8.84 8.84 0 0 1-.45 1.97zm-17.86-1.19c-.45-.5-.87-1-1.27-1.48l.78-.63c.38.47.79 1 1.23 1.44l-.74.67zm17.35-2.77a15.828 15.828 0 0 0-.22-1.8l1-.18c.123.66.203 1.328.24 2l-1.02-.02zm-.64-3.67c-.17-.58-.36-1.18-.58-1.79l.94-.34c.23.63.43 1.26.6 1.86l-.96.27zm-1.28-3.5c-.26-.6-.53-1.18-.8-1.72l.9-.45c.27.56.55 1.16.82 1.77l-.92.4z" fill="#FFA07A"/><path d="M48.42 51.408a8.801 8.801 0 0 0-2.36 1.84 8.918 8.918 0 0 0-1.33-2.68 8.551 8.551 0 0 0-1.73 3.86 8.539 8.539 0 0 0-3.47-2.39 8.6 8.6 0 0 0 .66 4.1 8.66 8.66 0 0 0-4.19-.02 8.863 8.863 0 0 0 1.88 2.35c-.98.299-1.9.766-2.72 1.38a8.35 8.35 0 0 0 4.67 1.74 8.22 8.22 0 0 0 4.63-1.66h.05l.08-.06a8.18 8.18 0 0 0 3.41-3.5 8.27 8.27 0 0 0 .42-4.96z" fill="#164924"/></g></svg>