<svg width="202" height="202" fill="none" xmlns="http://www.w3.org/2000/svg"><circle cx="101" cy="100.939" r="100.502" fill="#BFB9DF" fill-opacity=".3"/><path fill-rule="evenodd" clip-rule="evenodd" d="M162.45 162.865l1.8-1.03-1.84-.96-1.02-1.8-.97 1.83-1.8 1.03 1.84.97 1.03 1.8.96-1.84z" fill="#fff"/><path d="M120.317 31.17c.48 0 .48-.75 0-.75-.49 0-.49.75 0 .75zm-11.09 9.01c.48 0 .48-.75 0-.75s-.48.75 0 .75zm22.87 4.39c.48 0 .48-.75 0-.75s-.48.75 0 .75zm-11.09-.46c.48 0 .48-.75 0-.75s-.48.75 0 .75zm30.73 11.55c.48 0 .48-.75 0-.75-.49 0-.49.75 0 .75zm-.24-9.93c.48 0 .48-.75 0-.75s-.48.75 0 .75zm-9.01-5.09c.48 0 .48-.75 0-.75s-.48.75 0 .75zm18.95 18.95c.48 0 .48-.75 0-.75s-.49.75 0 .75z" fill="#fff"/><path fill-rule="evenodd" clip-rule="evenodd" d="M111.767 30.57l.91.52-.93.48-.52.92-.49-.93-.91-.53.93-.48.52-.92.49.94zm46.99 20.32l.91.52-.93.49-.52.91-.49-.93-.91-.52.93-.49.52-.91.49.93zm-36.28-1.59l.92.52-.94.49-.52.91-.49-.93-.91-.52.93-.49.52-.92.49.94zm5.41-29.32l1.8 1.03-1.84.96-1.02 1.8-.97-1.83-1.8-1.03 1.84-.97 1.03-1.8.96 1.84z" fill="#fff"/><path d="M183.061 99.097c.48 0 .48.75 0 .75-.49 0-.49-.75 0-.75zm-11.09-9.01c.48 0 .48.75 0 .75s-.48-.75 0-.75zm22.87-4.39c.48 0 .48.75 0 .75s-.48-.75 0-.75zm-11.09.46c.48 0 .48.75 0 .75s-.48-.75 0-.75z" fill="#fff"/><path fill-rule="evenodd" clip-rule="evenodd" d="M174.511 99.697l.91-.52-.93-.48-.52-.92-.49.93-.91.53.93.48.52.92.49-.94zm10.71-18.73l.92-.52-.94-.49-.52-.91-.49.93-.91.52.93.49.52.92.49-.94zm5.41 29.32l1.8-1.03-1.84-.96-1.02-1.8-.97 1.83-1.8 1.03 1.84.97 1.03 1.8.96-1.84z" fill="#fff"/><path d="M41.012 154.389c.48 0 .48-.75 0-.75-.49 0-.49.75 0 .75zm-11.09 9.009c.48 0 .48-.75 0-.75s-.48.75 0 .75zm22.87 4.39c.48 0 .48-.75 0-.75s-.48.75 0 .75zm-11.09-.46c.48 0 .48-.75 0-.75s-.48.75 0 .75zm30.73 11.55c.48 0 .48-.75 0-.75-.49 0-.49.75 0 .75zm-.24-9.93c.48 0 .48-.75 0-.75s-.48.75 0 .75zm-9.01-5.09c.48 0 .48-.75 0-.75s-.48.75 0 .75zm18.95 18.951c.48 0 .48-.75 0-.75s-.49.75 0 .75z" fill="#fff"/><path fill-rule="evenodd" clip-rule="evenodd" d="M32.462 153.789l.91.52-.93.48-.52.92-.49-.93-.91-.53.93-.48.52-.92.49.94zm46.99 20.32l.91.52-.93.49-.52.91-.49-.93-.91-.52.93-.49.52-.91.49.93zm-36.28-1.591l.92.52-.94.49-.52.91-.49-.93-.91-.52.93-.49.52-.92.49.94zm5.41-29.32l1.8 1.03-1.84.96-1.02 1.8-.97-1.83-1.8-1.03 1.84-.97 1.03-1.8.96 1.84z" fill="#fff"/><circle cx="165.431" cy="39.791" r="1.487" fill="url(#paint0_linear)" fill-opacity=".05"/><circle cx="77.053" cy="42.764" r="1.487" fill="url(#paint1_linear)" fill-opacity=".05"/><circle cx="27.03" cy="94.074" r="1.487" fill="url(#paint2_linear)" fill-opacity=".05"/><circle cx="110.354" cy="185.258" r="1.487" fill="url(#paint3_linear)" fill-opacity=".05"/><circle cx="174.585" cy="152.462" r="1.487" fill="url(#paint4_linear)" fill-opacity=".05"/><circle cx="179.365" cy="61.078" r="1.487" fill="url(#paint5_linear)" fill-opacity=".05"/><circle cx="56.439" cy="17.927" r="1.487" fill="url(#paint6_linear)" fill-opacity=".05"/><circle cx="25.543" cy="79.895" r="1.487" fill="url(#paint7_linear)" fill-opacity=".05"/><circle cx="85.347" cy="170.755" r="1.487" fill="url(#paint8_linear)" fill-opacity=".05"/><circle opacity=".8" cx="93.194" cy="16.44" r="1.487" fill="#fff"/><circle opacity=".8" cx="54.952" cy="56.34" r="1.487" fill="#fff"/><circle opacity=".8" cx="13.603" cy="138.611" r="1.487" fill="#fff"/><circle opacity=".8" cx="123.341" cy="150.974" r="1.487" fill="#fff"/><circle opacity=".8" cx="5.086" cy="73.57" r="1.487" fill="#fff"/><circle opacity=".8" cx="173.098" cy="127.261" r="1.487" fill="#fff"/><circle opacity=".8" cx="52.664" cy="175.287" r=".686" fill="#fff"/><circle opacity=".8" cx="135.251" cy="182.122" r=".686" fill="#fff"/><circle opacity=".8" cx="184.957" cy="72.769" r=".686" fill="#fff"/><circle opacity=".8" cx="121.168" cy="7.945" r=".686" fill="#fff"/><circle opacity=".8" cx="30.248" cy="30.913" r=".686" fill="#fff"/><circle opacity=".8" cx="127.588" cy="82.068" r=".686" fill="#fff"/><circle opacity=".8" cx="7.259" cy="112.127" r=".686" fill="#fff"/><circle opacity=".8" cx="93.415" cy="193.933" r=".686" fill="#fff"/><g filter="url(#filter0_bddddi)"><circle cx="96.521" cy="100.939" r="44.058" fill="#FFC46D"/></g><circle cx="105.479" cy="100.94" r="44.058" fill="url(#paint9_linear)"/><path opacity=".1" fill-rule="evenodd" clip-rule="evenodd" d="M119.926 59.305a43.992 43.992 0 00-14.447-2.423 43.853 43.853 0 00-22.823 6.364c2.41 4.626 7.95 6.758 12.975 8.435 8.87 2.967 17.908 5.963 27.251 6.12 1.149.02 2.303-.003 3.457-.026 4.083-.082 8.16-.163 12.005 1.637 1.818.855 2.947 2.79 2.663 4.774-.472 3.262-4.067 3.861-6.985 3.93-8.455.197-16.899-.324-25.343-.845-7.578-.468-15.157-.935-22.745-.884-7.605.056-15.346.69-22.79 2.314a44.08 44.08 0 00-1.723 12.238c0 24.333 19.725 44.058 44.058 44.058 3.369 0 6.65-.378 9.802-1.094l-.032-.008c-15.188-3.487-31.014-7.289-42.94-17.329-1.542-1.296-3.065-2.79-3.664-4.715-1.12-3.635 1.483-7.456 4.656-9.539 5.128-3.36 11.74-3.763 17.752-2.554 5.266 1.058 10.215 3.247 15.139 5.424.697.309 1.394.617 2.092.922a264.76 264.76 0 0021.74 8.38c3.537 1.187 7.148 2.31 10.842 2.705a43.912 43.912 0 006.68-13.117c-1.729-1.132-3.731-1.884-5.704-2.546-5.845-1.966-11.847-3.42-17.846-4.873-7.402-1.793-14.8-3.585-21.892-6.336-.943-.363-2.013-.904-2.18-1.906-.118-.717.304-1.414.776-1.964 3.941-4.532 11.046-2.956 16.988-1.639l.567.126a63.287 63.287 0 0027.054.039 23.494 23.494 0 003.662-1.112 43.869 43.869 0 00-9-20.335c-1.947-.555-3.92-1.047-5.894-1.539-3.314-.826-6.632-1.653-9.84-2.782a60.202 60.202 0 01-4.45-1.778c-3.796-1.687-3.173-6.823.139-8.122z" fill="#fff"/><defs><linearGradient id="paint4_linear" x1="174.585" y1="153.949" x2="174.585" y2="150.975" gradientUnits="userSpaceOnUse"><stop offset="0" stop-color="#6050B0"/><stop offset="1" stop-color="#351C75"/></linearGradient><linearGradient id="paint9_linear" x1="103.085" y1="56.227" x2="105.183" y2="161.639" gradientUnits="userSpaceOnUse"><stop offset=".223" stop-color="#3C0289"/><stop offset=".651" stop-color="#6050B0"/><stop offset="1" stop-color="#80C3FF"/></linearGradient><linearGradient id="paint1_linear" x1="77.053" y1="44.251" x2="77.053" y2="41.277" gradientUnits="userSpaceOnUse"><stop offset="0" stop-color="#6050B0"/><stop offset="1" stop-color="#351C75"/></linearGradient><linearGradient id="paint2_linear" x1="27.03" y1="95.561" x2="27.03" y2="92.587" gradientUnits="userSpaceOnUse"><stop offset="0" stop-color="#6050B0"/><stop offset="1" stop-color="#351C75"/></linearGradient><linearGradient id="paint3_linear" x1="110.354" y1="186.745" x2="110.354" y2="183.771" gradientUnits="userSpaceOnUse"><stop offset="0" stop-color="#6050B0"/><stop offset="1" stop-color="#351C75"/></linearGradient><linearGradient id="paint0_linear" x1="165.431" y1="41.278" x2="165.431" y2="38.304" gradientUnits="userSpaceOnUse"><stop offset="0" stop-color="#6050B0"/><stop offset="1" stop-color="#351C75"/></linearGradient><linearGradient id="paint5_linear" x1="179.365" y1="62.565" x2="179.365" y2="59.591" gradientUnits="userSpaceOnUse"><stop offset="0" stop-color="#6050B0"/><stop offset="1" stop-color="#351C75"/></linearGradient><linearGradient id="paint6_linear" x1="56.439" y1="19.414" x2="56.439" y2="16.44" gradientUnits="userSpaceOnUse"><stop offset="0" stop-color="#6050B0"/><stop offset="1" stop-color="#351C75"/></linearGradient><linearGradient id="paint7_linear" x1="25.543" y1="81.382" x2="25.543" y2="78.408" gradientUnits="userSpaceOnUse"><stop offset="0" stop-color="#6050B0"/><stop offset="1" stop-color="#351C75"/></linearGradient><linearGradient id="paint8_linear" x1="85.348" y1="172.242" x2="85.348" y2="169.268" gradientUnits="userSpaceOnUse"><stop offset="0" stop-color="#6050B0"/><stop offset="1" stop-color="#351C75"/></linearGradient><filter id="filter0_bddddi" x="22.014" y="4.952" width="149.015" height="154.273" filterUnits="userSpaceOnUse" color-interpolation-filters="sRGB"><feFlood flood-opacity="0" result="BackgroundImageFix"/><feGaussianBlur in="BackgroundImage" stdDeviation="1.186"/><feComposite in2="SourceAlpha" operator="in" result="effect1_backgroundBlur"/><feColorMatrix in="SourceAlpha" values="0 0 0 0 0 0 0 0 0 0 0 0 0 0 0 0 0 0 127 0"/><feOffset dx="-4.742" dy="-4.742"/><feGaussianBlur stdDeviation="3.557"/><feColorMatrix values="0 0 0 0 1 0 0 0 0 1 0 0 0 0 1 0 0 0 0.22 0"/><feBlend in2="effect1_backgroundBlur" result="effect2_dropShadow"/><feColorMatrix in="SourceAlpha" values="0 0 0 0 0 0 0 0 0 0 0 0 0 0 0 0 0 0 127 0"/><feOffset/><feGaussianBlur stdDeviation="7.114"/><feColorMatrix values="0 0 0 0 1 0 0 0 0 0.768627 0 0 0 0 0.427451 0 0 0 0.48 0"/><feBlend in2="effect2_dropShadow" result="effect3_dropShadow"/><feColorMatrix in="SourceAlpha" values="0 0 0 0 0 0 0 0 0 0 0 0 0 0 0 0 0 0 127 0"/><feOffset dx="2.371" dy="7.114"/><feGaussianBlur stdDeviation="2.371"/><feColorMatrix values="0 0 0 0 0.995833 0 0 0 0 0.728545 0 0 0 0 0.334408 0 0 0 0.17 0"/><feBlend in2="effect3_dropShadow" result="effect4_dropShadow"/><feColorMatrix in="SourceAlpha" values="0 0 0 0 0 0 0 0 0 0 0 0 0 0 0 0 0 0 127 0"/><feOffset dy="-21.48"/><feGaussianBlur stdDeviation="15.225"/><feColorMatrix values="0 0 0 0 1 0 0 0 0 0.768627 0 0 0 0 0.427451 0 0 0 0.3 0"/><feBlend in2="effect4_dropShadow" result="effect5_dropShadow"/><feBlend in="SourceGraphic" in2="effect5_dropShadow" result="shape"/><feColorMatrix in="SourceAlpha" values="0 0 0 0 0 0 0 0 0 0 0 0 0 0 0 0 0 0 127 0" result="hardAlpha"/><feOffset dx="-2.371" dy="-2.371"/><feGaussianBlur stdDeviation="4.742"/><feComposite in2="hardAlpha" operator="arithmetic" k2="-1" k3="1"/><feColorMatrix values="0 0 0 0 1 0 0 0 0 0.768627 0 0 0 0 0.427451 0 0 0 1 0"/><feBlend in2="shape" result="effect6_innerShadow"/></filter></defs></svg>