<svg width="128" height="128" viewBox="0 0 128 128" fill="none" xmlns="http://www.w3.org/2000/svg">
<circle cx="63.7913" cy="63.7913" r="63.7913" fill="#FFF19F" fill-opacity="0.4"/>
<mask id="mask0_14_5126" style="mask-type:alpha" maskUnits="userSpaceOnUse" x="0" y="0" width="128" height="128">
<circle cx="63.7913" cy="63.7913" r="63.7913" fill="#FFF19F"/>
</mask>
<g mask="url(#mask0_14_5126)">
<path d="M78.6006 99.9176C72.0393 106.622 66.9327 114.609 63.6006 123.378H63.7506C72.4737 120.047 80.4208 114.962 87.1006 108.438C93.6617 101.735 98.7712 93.7523 102.111 84.9876C93.3278 88.289 85.3233 93.3722 78.6006 99.9176Z" fill="#164924"/>
<path d="M48.4106 99.9176C41.6909 93.3734 33.6899 88.2902 24.9106 84.9876C28.2427 93.7566 33.3493 101.743 39.9106 108.448C46.6006 114.949 54.5504 120.013 63.2706 123.328H63.4106C60.0725 114.576 54.9662 106.607 48.4106 99.9176Z" fill="#164924"/>
<path d="M84.5307 58.9676L83.1207 57.9676L64.4607 84.3876V49.4476H62.7407V84.3876L44.0807 57.9676L42.6707 58.9676L62.7407 87.3776V128.488H64.4607V87.3676L84.5307 58.9676Z" fill="#164924"/>
<path d="M73.7007 38.1776H72.7007C72.7007 37.8576 72.7007 37.5476 72.7007 37.2676V37.1476C72.7007 36.8076 72.7007 36.4876 72.7007 36.1476H73.7007C73.7007 36.4476 73.7007 36.7676 73.7007 37.0976V37.1676C73.7407 37.4876 73.7207 37.8176 73.7007 38.1776Z" fill="#FFA07A"/>
<path d="M72.6708 34.8176C72.6708 34.3376 72.6008 33.8876 72.5508 33.4876L73.5508 33.3676C73.6008 33.7876 73.6508 34.2476 73.6808 34.7576L72.6708 34.8176Z" fill="#FFA07A"/>
<path d="M72.3606 32.1576C72.3606 32.1576 72.3606 32.0776 72.3606 32.0376L72.2706 32.1176L71.5906 31.3876C72.0706 30.9376 72.3606 30.7076 72.3606 30.7076C72.4271 30.6544 72.5057 30.6184 72.5894 30.6027C72.673 30.587 72.7593 30.5921 72.8406 30.6176C72.9183 30.6456 72.988 30.6921 73.0437 30.7531C73.0995 30.8141 73.1396 30.8877 73.1606 30.9676C73.1606 30.9676 73.2506 31.3376 73.3706 31.9676L72.3606 32.1576Z" fill="#FFA07A"/>
<path d="M69.9407 34.5976L69.1707 33.9876C69.5807 33.4976 69.9707 33.0576 70.3307 32.6676L71.0607 33.3476C70.7107 33.6876 70.3407 34.1176 69.9407 34.5976Z" fill="#FFA07A"/>
<path d="M67.9206 36.9876H67.8506C67.7564 36.9734 67.6681 36.9331 67.5956 36.8712C67.5231 36.8093 67.4694 36.7284 67.4406 36.6376C67.3506 36.3276 67.2506 36.0176 67.1406 35.7176L68.0806 35.3776L68.9006 35.9876C68.7106 36.2476 68.5206 36.5176 68.3406 36.7976C68.2905 36.86 68.2263 36.9097 68.1533 36.9428C68.0803 36.9758 68.0006 36.9911 67.9206 36.9876Z" fill="#FFA07A"/>
<path d="M66.2406 33.5376C65.9068 32.8515 65.5362 32.1838 65.1306 31.5376L66.0006 30.9876C66.428 31.6746 66.8153 32.3858 67.1606 33.1176L66.2406 33.5376Z" fill="#FFA07A"/>
<path d="M63.8206 29.5676C63.7406 29.4576 63.6706 29.3576 63.6006 29.2776C63.5306 29.3576 63.4606 29.4576 63.3806 29.5676L62.5806 28.9676C62.7832 28.6866 63.0002 28.4163 63.2306 28.1576C63.2764 28.1079 63.3321 28.0682 63.3941 28.0411C63.456 28.014 63.5229 28 63.5906 28C63.6582 28 63.7251 28.014 63.7871 28.0411C63.849 28.0682 63.9047 28.1079 63.9506 28.1576C64.1921 28.419 64.4159 28.6963 64.6206 28.9876L63.8206 29.5676Z" fill="#FFA07A"/>
<path d="M61.0006 33.5376L60.1006 33.0976C60.4506 32.3876 60.8406 31.6676 61.2606 30.9676L62.1206 31.4876C61.7125 32.1513 61.3387 32.8356 61.0006 33.5376Z" fill="#FFA07A"/>
<path d="M59.2808 36.9876C59.1996 36.9878 59.1196 36.9678 59.048 36.9294C58.9764 36.891 58.9155 36.8354 58.8708 36.7676C58.6841 36.4876 58.4941 36.2176 58.3008 35.9576L59.1108 35.3676L60.0508 35.7076C59.9508 36.0076 59.8408 36.3176 59.7508 36.6276C59.7238 36.7176 59.6719 36.7982 59.6011 36.8601C59.5304 36.922 59.4436 36.9627 59.3508 36.9776L59.2808 36.9876Z" fill="#FFA07A"/>
<path d="M57.2606 34.5976C56.8706 34.1176 56.4906 33.6976 56.1406 33.3176L56.8706 32.6376C57.2306 33.0276 57.6306 33.4676 58.0306 33.9576L57.2606 34.5976Z" fill="#FFA07A"/>
<path d="M54.8406 32.1576L53.8406 31.9876C53.9506 31.3376 54.0406 30.9876 54.0406 30.9876C54.0633 30.907 54.1052 30.8331 54.1627 30.7721C54.2201 30.7112 54.2915 30.665 54.3706 30.6376C54.4502 30.6121 54.5349 30.607 54.617 30.6227C54.6991 30.6384 54.776 30.6745 54.8406 30.7276C54.8406 30.7276 55.1306 30.9576 55.6106 31.4076L55.0006 32.1176L54.9106 32.0376C54.9106 32.0376 54.8506 32.1176 54.8406 32.1576Z" fill="#FFA07A"/>
<path d="M54.5308 34.8176L53.5308 34.7476C53.5308 34.2476 53.6108 33.7476 53.6608 33.3676L54.6608 33.4776C54.6008 33.8776 54.5608 34.3276 54.5308 34.8176Z" fill="#FFA07A"/>
<path d="M53.5007 38.1776C53.5007 37.8176 53.5007 37.4876 53.5007 37.1776V37.0976C53.5007 36.7676 53.5007 36.4476 53.5007 36.1476H54.5007C54.5007 36.4676 54.5007 36.7876 54.5007 37.1476C54.5007 37.1476 54.5007 37.1976 54.5007 37.2176C54.5007 37.4976 54.5007 37.8076 54.5007 38.1276L53.5007 38.1776Z" fill="#FFA07A"/>
<path d="M64.5606 54.1976L64.4506 53.1976C65.0361 53.1306 65.6087 52.979 66.1506 52.7476L66.5506 53.6676C65.9152 53.9361 65.2454 54.1145 64.5606 54.1976ZM62.5606 54.1976C61.873 54.1124 61.2002 53.9341 60.5606 53.6676L60.9506 52.7476C61.4972 52.9756 62.0726 53.127 62.6606 53.1976L62.5606 54.1976ZM68.3306 52.6276L67.7006 51.8476C68.1786 51.4651 68.6145 51.0326 69.0006 50.5576L69.7706 51.1776C69.3331 51.7084 68.8404 52.1911 68.3006 52.6176L68.3306 52.6276ZM58.8306 52.6276C58.3061 52.2046 57.8299 51.7251 57.4106 51.1976L58.1906 50.5676C58.565 51.0402 58.991 51.4695 59.4606 51.8476L58.8306 52.6276ZM70.8306 49.5476L70.0006 48.9876C70.3043 48.4479 70.5748 47.8902 70.8106 47.3176L71.7306 47.6976C71.4761 48.324 71.1787 48.9321 70.8406 49.5176L70.8306 49.5476ZM56.2506 49.5476C55.9318 48.9719 55.648 48.3774 55.4006 47.7676L56.3306 47.3876C56.5591 47.965 56.8264 48.5263 57.1306 49.0676L56.2506 49.5476ZM72.3606 45.9476L71.4106 45.6476C71.5906 45.0676 71.7506 44.4576 71.9006 43.8276L72.9006 44.0576C72.734 44.6776 72.5573 45.2909 72.3706 45.8976L72.3606 45.9476ZM54.7506 45.9476C54.5706 45.3576 54.4006 44.7176 54.2506 44.0576L55.2506 43.8376C55.3906 44.4776 55.5506 45.0876 55.7206 45.6576L54.7506 45.9476ZM73.2706 42.0876L72.2706 41.9276C72.3806 41.2776 72.4706 40.6576 72.5306 40.0476L73.5306 40.1576C73.4706 40.7776 73.3806 41.4276 73.2706 42.0876ZM53.9006 42.0876C53.8006 41.4276 53.7106 40.7776 53.6506 40.1576L54.6506 40.0576C54.7106 40.6576 54.8006 41.2876 54.9006 41.9376L53.9006 42.0876Z" fill="#FFA07A"/>
<path d="M68.4207 49.3176C68.6991 48.3434 68.8074 47.3285 68.7407 46.3176C67.4079 46.7846 66.2097 47.5708 65.2507 48.6076C65.0174 47.2227 64.4512 45.9152 63.6007 44.7976C62.7409 45.935 62.1773 47.2683 61.9607 48.6776C60.9942 47.6217 59.7815 46.8213 58.4307 46.3476C58.3678 47.3585 58.476 48.3727 58.7507 49.3476C57.7736 49.0862 56.7588 48.9949 55.7507 49.0776C56.3146 50.6882 57.3624 52.0852 58.7507 53.0776C60.1901 53.9153 61.8502 54.2954 63.5107 54.1676H63.6607C65.3408 54.2772 67.0138 53.8651 68.4507 52.9876C69.839 51.9952 70.8868 50.5982 71.4507 48.9876C70.4292 48.9213 69.404 49.033 68.4207 49.3176Z" fill="#164924"/>
<path d="M103.281 45.9876L102.361 45.5976C102.365 45.561 102.365 45.5241 102.361 45.4876H102.251L102.061 44.4876C102.711 44.3676 103.061 44.3276 103.061 44.3276C103.143 44.3196 103.226 44.3318 103.303 44.3632C103.38 44.3945 103.448 44.4441 103.501 44.5076C103.554 44.5721 103.59 44.649 103.606 44.7311C103.621 44.8132 103.616 44.8979 103.591 44.9776C103.591 44.9776 103.541 45.4076 103.281 45.9876Z" fill="#FFA07A"/>
<path d="M99.0007 46.3876L98.6907 45.4376C99.3007 45.2376 99.8707 45.0776 100.381 44.9476L100.631 45.9476C100.141 46.0376 99.6007 46.1976 99.0007 46.3876Z" fill="#FFA07A"/>
<path d="M96.3006 47.3776C96.1797 47.3788 96.0625 47.3362 95.9706 47.2576C95.8973 47.1952 95.844 47.1126 95.8173 47.0202C95.7906 46.9277 95.7918 46.8294 95.8206 46.7376C95.9106 46.4276 95.9906 46.1076 96.0606 45.7976L97.0006 45.9876L97.3706 46.9176L96.4606 47.2976C96.4127 47.334 96.3585 47.3612 96.3006 47.3776Z" fill="#FFA07A"/>
<path d="M97.4507 43.6276L96.4507 43.5076C96.5407 42.7376 96.5907 41.9576 96.6107 41.1876H97.6107C97.6007 41.9876 97.5407 42.8276 97.4507 43.6276Z" fill="#FFA07A"/>
<path d="M96.5506 38.8576C96.5506 38.7276 96.5506 38.5976 96.5506 38.4976L96.2006 38.6176L95.8606 37.6776C96.4706 37.4476 96.8606 37.3476 96.8606 37.3476C96.935 37.3251 97.0137 37.3206 97.0903 37.3345C97.1668 37.3484 97.2389 37.3803 97.3006 37.4276C97.3633 37.4736 97.4141 37.5339 97.4489 37.6034C97.4837 37.673 97.5014 37.7498 97.5006 37.8276C97.5006 37.8276 97.5606 38.2276 97.6106 38.7776L96.5506 38.8576Z" fill="#FFA07A"/>
<path d="M92.0007 40.6676L91.4707 39.8176C92.1507 39.3976 92.8607 39.0076 93.5907 38.6476L94.0307 39.5376C93.3407 39.8876 92.6607 40.2676 92.0007 40.6676Z" fill="#FFA07A"/>
<path d="M89.0007 42.7376C88.9349 42.7526 88.8666 42.7526 88.8007 42.7376C88.7143 42.6973 88.6405 42.634 88.5876 42.5547C88.5347 42.4753 88.5047 42.3829 88.5007 42.2876C88.5007 41.9576 88.5007 41.6276 88.5007 41.2876L89.5007 41.2276L90.1107 42.0176C89.8607 42.2176 89.6107 42.4176 89.3607 42.6376C89.2582 42.7162 89.1291 42.752 89.0007 42.7376Z" fill="#FFA07A"/>
<path d="M88.3108 39.5776C88.2408 38.9576 88.1508 38.3976 88.0508 37.8976L89.0508 37.7176C89.1408 38.2376 89.2408 38.8176 89.3208 39.4476L88.3108 39.5776Z" fill="#FFA07A"/>
<path d="M87.6906 36.2476V36.1276L87.6106 36.2176L86.8706 35.5476C87.3206 35.0576 87.5906 34.7976 87.5906 34.7976C87.6441 34.7459 87.7094 34.708 87.7808 34.6871C87.8522 34.6662 87.9277 34.6629 88.0006 34.6776C88.0823 34.6971 88.158 34.7366 88.2208 34.7924C88.2836 34.8482 88.3316 34.9187 88.3606 34.9976C88.3606 34.9976 88.4806 35.3576 88.6406 35.9976L87.6906 36.2476Z" fill="#FFA07A"/>
<path d="M85.8906 38.2876L85.0806 37.6976C85.3806 37.2876 85.6706 36.9276 85.9406 36.5976L86.7106 37.2276C86.4506 37.5476 86.1806 37.8976 85.8906 38.2876Z" fill="#FFA07A"/>
<path d="M84.0807 41.0676L83.2107 40.5776C83.3907 40.2676 83.5607 39.9676 83.7307 39.6976V39.6376C83.9007 39.3576 84.0707 39.0976 84.2407 38.8476L85.0707 39.3976L84.5407 40.2276C84.5436 40.2475 84.5436 40.2677 84.5407 40.2876C84.3907 40.5276 84.2407 40.7876 84.0807 41.0676Z" fill="#FFA07A"/>
<path d="M88.0007 60.6976L87.8907 59.6976C88.4901 59.628 89.0801 59.4939 89.6507 59.2976L89.9707 60.2976C89.3296 60.4986 88.6694 60.6326 88.0007 60.6976ZM85.9507 60.6476C85.2729 60.5204 84.6164 60.2982 84.0007 59.9876L84.4307 59.0876C84.9668 59.3436 85.5354 59.5253 86.1207 59.6276L85.9507 60.6476ZM91.8007 59.4476L91.3307 58.5676C91.8764 58.2653 92.404 57.9314 92.9107 57.5676L93.4807 58.3776C92.9326 58.7732 92.3579 59.1308 91.7607 59.4476H91.8007ZM82.2807 58.9276C81.7491 58.4916 81.2812 57.9834 80.8907 57.4176L81.7207 56.8476C82.0556 57.3397 82.4598 57.7809 82.9207 58.1576L82.2807 58.9276ZM95.0007 57.2076L94.3507 56.4476C94.8107 56.0576 95.2807 55.6276 95.7507 55.1776L96.4407 55.8976C96.0007 56.3676 95.4807 56.8076 95.0007 57.2076ZM79.9407 55.5876C79.7211 54.9396 79.5769 54.2685 79.5107 53.5876L80.5107 53.4776C80.5762 54.0758 80.7036 54.6656 80.8907 55.2376L79.9407 55.5876ZM97.8007 54.4876L97.0507 53.8176C97.4907 53.3309 97.9007 52.8509 98.2807 52.3776L99.0607 52.9976C98.6707 53.4876 98.2507 53.9876 97.8007 54.4876ZM80.4607 51.6576L79.4607 51.6076C79.5043 50.9371 79.5844 50.2694 79.7007 49.6076L80.7007 49.7876C80.5788 50.4048 80.4986 51.0296 80.4607 51.6576ZM81.1107 47.9876L80.1107 47.7176C80.2807 47.1076 80.4807 46.4776 80.7107 45.8576L81.6507 46.1976C81.4707 46.8076 81.2807 47.4176 81.1107 47.9876ZM82.3907 44.4376L81.4707 44.0476C81.7407 43.4276 82.0207 42.8376 82.3007 42.2776L83.1907 42.7276C82.9207 43.2776 82.6507 43.8576 82.3907 44.4476V44.4376Z" fill="#FFA07A"/>
<path d="M100.261 51.4276L99.4407 50.8476C99.6307 50.5876 99.8007 50.3376 99.9607 50.0976V50.0376C100.151 49.7576 100.321 49.4776 100.491 49.2076L101.341 49.7276C101.181 49.9976 101.021 50.2576 100.841 50.5376V50.5976C100.661 50.8576 100.461 51.1376 100.261 51.4276Z" fill="#FFA07A"/>
<path d="M102.071 48.5276L101.191 48.0476C101.431 47.6176 101.631 47.2176 101.811 46.8476L102.711 47.2876C102.521 47.6676 102.311 48.0776 102.071 48.5276Z" fill="#FFA07A"/>
<path d="M89.7606 57.9876C90.5103 57.3175 91.1423 56.5266 91.6306 55.6476C90.2547 55.3169 88.8181 55.3341 87.4506 55.6976C88.0027 54.402 88.2292 52.9909 88.1106 51.5876C86.775 52.0868 85.5831 52.9077 84.6406 53.9776C84.3976 52.569 83.8025 51.2446 82.9106 50.1276C82.3219 50.936 81.8755 51.839 81.5906 52.7976C80.9115 52.0561 80.1098 51.4371 79.2206 50.9676C78.8311 52.6353 78.9709 54.383 79.6206 55.9676C80.3907 57.3968 81.5668 58.566 83.0006 59.3276L83.0806 59.3776H83.1306C84.4729 60.3877 86.0919 60.9634 87.7706 61.0276C89.4663 60.9428 91.0942 60.3349 92.4306 59.2876C91.6175 58.7115 90.7156 58.2723 89.7606 57.9876Z" fill="#164924"/>
<path d="M43.6008 41.6376L43.1408 40.8476V40.7876L42.5708 39.9876L43.4008 39.4376L43.9108 40.2276C43.9141 40.2508 43.9141 40.2744 43.9108 40.2976C44.0808 40.5676 44.2508 40.8576 44.4308 41.1676L43.6008 41.6376Z" fill="#FFA07A"/>
<path d="M41.7907 38.8576C41.5107 38.4676 41.2307 38.1176 40.9707 37.7976L41.7507 37.1676C42.0107 37.4976 42.3007 37.8576 42.6007 38.2676L41.7907 38.8576Z" fill="#FFA07A"/>
<path d="M40.0007 36.8076L39.0007 36.5576C39.1607 35.9276 39.2807 35.5576 39.2807 35.5576C39.3106 35.4782 39.3587 35.4069 39.4213 35.3496C39.4838 35.2922 39.559 35.2505 39.6407 35.2276C39.7221 35.2082 39.8071 35.2099 39.8877 35.2327C39.9682 35.2555 40.0415 35.2985 40.1007 35.3576C40.1007 35.3576 40.3807 35.6076 40.8207 36.0976L40.0807 36.7676L40.0007 36.6976V36.8076Z" fill="#FFA07A"/>
<path d="M39.3706 40.1376L38.3706 40.0176C38.4406 39.3776 38.5406 38.7976 38.6306 38.2776L39.6306 38.4576C39.5306 38.9876 39.4406 39.5276 39.3706 40.1376Z" fill="#FFA07A"/>
<path d="M38.6706 43.2976C38.55 43.2971 38.4333 43.2546 38.3406 43.1776L37.5906 42.5576L38.2106 41.7776L39.2106 41.8376C39.2106 42.1476 39.2106 42.4776 39.2106 42.8376C39.2083 42.932 39.1788 43.0238 39.1256 43.1019C39.0723 43.18 38.9977 43.241 38.9106 43.2776C38.8339 43.3059 38.7509 43.3129 38.6706 43.2976Z" fill="#FFA07A"/>
<path d="M35.6807 41.2376C35.0307 40.8376 34.3407 40.4576 33.6807 40.1076L34.1207 39.2076C34.85 39.565 35.5609 39.9588 36.2507 40.3876L35.6807 41.2376Z" fill="#FFA07A"/>
<path d="M31.1306 39.4176L30.1306 39.3476C30.1906 38.6876 30.2506 38.3476 30.2506 38.3476C30.2613 38.2851 30.2846 38.2254 30.3189 38.1721C30.3533 38.1189 30.3981 38.0731 30.4506 38.0376C30.6706 37.8776 30.7406 37.8776 31.8606 38.2976L31.5106 39.2376L31.1606 39.1076C31.1539 39.1876 31.1439 39.2909 31.1306 39.4176Z" fill="#FFA07A"/>
<path d="M30.2308 44.1876C30.1367 43.3841 30.0833 42.5764 30.0708 41.7676H31.0708C31.0803 42.543 31.1304 43.3174 31.2208 44.0876L30.2308 44.1876Z" fill="#FFA07A"/>
<path d="M31.3808 47.9876C31.3144 47.997 31.2471 47.997 31.1808 47.9876C30.8708 47.8476 30.5708 47.7276 30.2708 47.6076L30.6408 46.6776L31.6408 46.4576C31.7108 46.7676 31.7908 47.0776 31.8808 47.3976C31.9102 47.4878 31.9116 47.5848 31.8848 47.6758C31.858 47.7669 31.8043 47.8476 31.7308 47.9076C31.6808 47.9437 31.624 47.9694 31.5639 47.9831C31.5038 47.9969 31.4415 47.9984 31.3808 47.9876Z" fill="#FFA07A"/>
<path d="M28.6708 46.9876C28.0908 46.7976 27.5408 46.6476 27.0408 46.5176L27.3008 45.5176C27.8108 45.6476 28.3808 45.8176 28.9808 46.0076L28.6708 46.9876Z" fill="#FFA07A"/>
<path d="M24.4007 46.5776C24.26 46.2509 24.1365 45.9171 24.0307 45.5776C24.0009 45.4992 23.9926 45.4143 24.0067 45.3317C24.0207 45.249 24.0566 45.1717 24.1107 45.1076C24.1703 45.0526 24.2425 45.0129 24.3209 44.992C24.3993 44.9711 24.4816 44.9696 24.5607 44.9876C24.5607 44.9876 24.9307 44.9876 25.5607 45.1576L25.3707 46.1576H25.2607C25.2607 46.1576 25.2607 46.2276 25.2607 46.2676L24.4007 46.5776Z" fill="#FFA07A"/>
<path d="M25.6107 49.0876C25.3707 48.6476 25.1607 48.2276 24.9707 47.8476L25.8707 47.4076C26.0507 47.7776 26.2507 48.1776 26.4907 48.6076L25.6107 49.0876Z" fill="#FFA07A"/>
<path d="M27.4306 51.9876C27.2206 51.6976 27.0206 51.4176 26.8506 51.1476V51.0876L26.3506 50.2876L27.2006 49.7676C27.3706 50.0376 27.5406 50.3176 27.7306 50.5976V50.6576C27.8906 50.8976 28.0606 51.1476 28.2506 51.3976L27.4306 51.9876Z" fill="#FFA07A"/>
<path d="M39.6906 61.2676C39.0097 61.1845 38.3394 61.0304 37.6906 60.8076L38.0206 59.8676C38.5908 60.065 39.181 60.1991 39.7806 60.2676L39.6906 61.2676ZM41.6906 61.2176L41.5306 60.2176C42.1158 60.1204 42.6846 59.942 43.2206 59.6876L43.6506 60.5876C43.0476 60.8884 42.4043 61.1006 41.7406 61.2176H41.6906ZM35.8906 59.9876C35.3103 59.6895 34.7492 59.3556 34.2106 58.9876L34.7906 58.1676C35.2927 58.5382 35.8207 58.8724 36.3706 59.1676L35.8906 59.9876ZM45.4206 59.5076L44.7806 58.7376C45.2425 58.3597 45.6527 57.9226 46.0006 57.4376L46.8206 58.0076C46.427 58.574 45.9557 59.0823 45.4206 59.5176V59.5076ZM32.6606 57.7576C32.1806 57.3576 31.6606 56.9076 31.2206 56.4376L31.9206 55.7276C32.3806 56.1776 32.8506 56.6076 33.3106 56.9976L32.6606 57.7576ZM47.7306 56.1776L46.7906 55.8576C46.9858 55.2839 47.1166 54.6902 47.1806 54.0876L48.1806 54.2076C48.1064 54.8793 47.9554 55.5403 47.7306 56.1776ZM29.8706 54.9876C29.4206 54.4876 29.0006 53.9876 28.6006 53.5076L29.3806 52.8776C29.7606 53.3476 30.1706 53.8776 30.6106 54.3176L29.8706 54.9876ZM47.2206 52.2176C47.1817 51.6139 47.1083 51.0129 47.0006 50.4176L48.0006 50.2376C48.1231 50.8985 48.2033 51.5665 48.2406 52.2376L47.2206 52.2176ZM46.5806 48.5476C46.4106 47.9676 46.2206 47.3676 46.0006 46.7576L46.9406 46.4176C47.1706 47.0476 47.3706 47.6776 47.5406 48.2776L46.5806 48.5476ZM45.3006 45.0476C45.0406 44.4476 44.7706 43.8676 44.5006 43.3276L45.4006 42.8776C45.6706 43.4376 45.9506 44.0376 46.2206 44.6476L45.3006 45.0476Z" fill="#FFA07A"/>
<path d="M48.4206 51.4076C47.5347 51.8817 46.7365 52.504 46.0606 53.2476C45.7714 52.2858 45.3217 51.3797 44.7306 50.5676C43.8398 51.6891 43.2449 53.0163 43.0006 54.4276C42.0617 53.3536 40.8688 52.5319 39.5306 52.0376C39.4124 53.4377 39.639 54.8454 40.1906 56.1376C38.8167 55.7881 37.3779 55.7812 36.0006 56.1176C36.4887 57.0024 37.1246 57.7972 37.8806 58.4676C36.9009 58.7667 35.9806 59.2337 35.1606 59.8476C36.5039 60.8894 38.1332 61.4965 39.8306 61.5876C41.5072 61.5198 43.1229 60.9405 44.4606 59.9276H44.5106L44.5906 59.8676C46.0574 59.0756 47.2471 57.8544 48.0006 56.3676C48.6467 54.7966 48.7933 53.0648 48.4206 51.4076Z" fill="#164924"/>
</g>
</svg>
