<svg width="124" height="124" fill="none" xmlns="http://www.w3.org/2000/svg"><circle cx="62" cy="62" r="62" fill="#E2FADC"/><rect x="28.5" y="34.5" width="67" height="24" rx="3.75" fill="#fff" fill-opacity=".5" stroke="#048333" stroke-dasharray="3 3"/><rect x="28.5" y="65.5" width="67" height="24" rx="3.75" fill="#fff" fill-opacity=".5" stroke="#048333" stroke-dasharray="3 3"/><path d="M83 44H36m47 31H36m28-26H36m28 31H36" stroke="#34CB59" stroke-linecap="round" stroke-linejoin="round"/><mask id="a" style="mask-type:alpha" maskUnits="userSpaceOnUse" x="0" y="0" width="124" height="124"><circle cx="62" cy="62" r="62" fill="#E2FADC"/></mask><g mask="url(#a)"><path d="M82.516 56.644c2.4 6.413-1.133 13.667-1.133 13.667s-7.428-3.15-9.828-9.564c-2.4-6.413 1.13-13.667 1.13-13.667s7.43 3.15 9.831 9.564zm11.011 0c-2.4 6.413 1.133 13.667 1.133 13.667s7.428-3.15 9.829-9.564c2.4-6.413-1.131-13.667-1.131-13.667s-7.43 3.15-9.83 9.564z" fill="#7CE0D6"/><path d="M94.207 57.154c0 7.266-6.203 13.157-6.203 13.157S81.8 64.42 81.8 57.154C81.8 49.89 88.004 44 88.004 44s6.203 5.889 6.203 13.154z" fill="#B0ECE6"/><path d="m108.999 87.187-20.532 20.52s9.441.239 15.111-5.421c5.669-5.66 5.421-15.099 5.421-15.099z" fill="#164924"/><path d="M93.888 92.608c-5.67 5.67-5.422 15.111-5.422 15.111l20.532-20.52s-9.441-.26-15.11 5.41zM67.002 87.19l20.52 20.519s-9.44.239-15.109-5.421c-5.669-5.66-5.411-15.098-5.411-15.098zm15.108 5.42c5.67 5.67 5.422 15.109 5.422 15.109l-20.52-20.52s9.43-.257 15.099 5.412z" fill="#164924"/><mask id="b" style="mask-type:alpha" maskUnits="userSpaceOnUse" x="67" y="87" width="21" height="21"><path fill-rule="evenodd" clip-rule="evenodd" d="m67.011 87.2-.01-.01s-.257 9.439 5.412 15.098c5.67 5.66 15.109 5.421 15.109 5.421l.01.01s.247-9.44-5.422-15.108c-5.664-5.664-15.082-5.412-15.099-5.412z" fill="#164924"/></mask><g mask="url(#b)"><path d="M87.759 107.707 66.88 87.067" stroke="#048333" stroke-width=".477" stroke-linecap="round"/></g><path d="m108.755 87.426-20.52 20.281" stroke="#048333" stroke-width=".477" stroke-linecap="round"/><path d="M88.695 71.688h-1.393v49.071h1.393V71.688z" fill="#048333"/><path d="M85.284 64.124c2.93 3.056 2.693 8.035 2.693 8.035s-4.984.03-7.913-3.026c-2.929-3.056-2.695-8.034-2.695-8.034s4.992-.03 7.915 3.025z" fill="#164924"/><path d="M91.014 64.243c-3.055 2.93-3.029 7.914-3.029 7.914s4.982.235 8.035-2.693 3.029-7.916 3.029-7.916-4.98-.234-8.035 2.695z" fill="#164924"/><path d="M84.53 64.42c-.089 4.231 3.456 7.74 3.456 7.74s3.686-3.355 3.774-7.588c.088-4.233-3.455-7.739-3.455-7.739s-3.687 3.352-3.775 7.588z" fill="#164924"/></g></svg>