<svg width="24" height="24" fill="none" xmlns="http://www.w3.org/2000/svg"><rect width="24" height="24" rx="4" fill="url(#paint0_linear)"/><path d="M13.83 6.613a2.986 2.986 0 00-2.035-.783c-1.59 0-2.88 1.196-2.88 2.673s1.288 2.674 2.878 2.674 2.88-1.196 2.88-2.673c0-.709-.303-1.389-.843-1.89z" fill="#F4FFFB"/><path fill-rule="evenodd" clip-rule="evenodd" d="M12.143 12h-.284a5.424 5.424 0 00-5.412 5.408v.382c0 .21.17.38.38.38h10.346c.21 0 .38-.17.38-.38v-.382A5.426 5.426 0 0012.143 12z" fill="#F4FFFB"/><defs><linearGradient id="paint0_linear" x1="24" y1="0" x2="-.598" y2=".63" gradientUnits="userSpaceOnUse"><stop stop-color="#AAF5D4"/><stop offset="1" stop-color="#7CE0D6"/></linearGradient></defs></svg>