<svg width="1534" height="481" viewBox="0 0 1534 481" fill="none" xmlns="http://www.w3.org/2000/svg">
<path d="M1550.19 -70.9995L0 -70.9995L0 480.178L1550.19 480.178V-70.9995Z" fill="#C6F8E3"/>
<path opacity="0.4" d="M549.025 138.922V480.178H1000.09V138.922H549.025Z" fill="#71EEB8"/>
<path opacity="0.4" d="M0 480.178L549.025 480.178L549.025 -70.9995H548.701C245.661 -71.0021 0 175.771 0 480.178Z" fill="#71EEB8"/>
<path opacity="0.4" d="M209.921 480.178L549.025 480.178V138.922H548.823C458.915 138.95 372.7 174.919 309.144 238.917C245.588 302.915 209.896 389.699 209.921 480.178Z" fill="#71EEB8"/>
<path opacity="0.4" d="M339.104 480.178H549.025V269.18H548.9C493.242 269.197 439.87 291.437 400.526 331.006C361.182 370.576 339.087 424.235 339.104 480.178Z" fill="#71EEB8"/>
<path opacity="0.4" d="M1000.09 -71L549.025 -71L549.025 480.178H1000.09V-71Z" fill="#71EEB8"/>
<path opacity="0.4" d="M1000.09 269.18L549.025 269.18V480.178L1000.09 480.178V269.18Z" fill="#71EEB8"/>
<path opacity="0.4" fill-rule="evenodd" clip-rule="evenodd" d="M1000.09 138.921L1000.09 269.18C1090.28 269.205 1176.79 233.401 1240.59 169.643C1304.38 105.885 1340.24 19.3959 1340.27 -70.7979V-70.9998L1210.01 -70.9998L1000.09 -70.9997L1000.09 138.921C1000.09 138.921 1000.09 138.921 1000.09 138.921ZM1000.09 138.921C1055.74 138.938 1109.13 116.843 1148.5 77.4991C1187.86 38.1547 1209.99 -15.2169 1210.01 -70.8747V-70.9998L1000.09 -70.9997L1000.09 138.921Z" fill="#71EEB8"/>
<path opacity="0.4" fill-rule="evenodd" clip-rule="evenodd" d="M1000.09 -70.9985L1000.09 269.181C1090.28 269.206 1176.79 233.401 1240.59 169.643C1304.38 105.885 1340.24 19.3962 1340.27 -70.7976V-70.9985L1550.19 -70.9985V-70.6735C1550.19 233.555 1303.9 480.179 1000.09 480.179L1000.09 -70.9985L1000.09 -70.9985Z" fill="#71EEB8"/>
<path opacity="0.4" fill-rule="evenodd" clip-rule="evenodd" d="M1000.09 -70.9995L1000.09 269.18C1090.28 269.205 1176.79 233.4 1240.59 169.642C1304.38 105.884 1340.24 19.3957 1340.27 -70.7981V-70.9995L1550.19 -70.9995V-70.6745C1550.19 233.554 1303.9 480.178 1000.09 480.178L1000.09 -70.9995L1000.09 -70.9995Z" fill="#71EEB8"/>
<path opacity="0.4" d="M1000.09 480.178L1000.09 -70.9995L1550.19 -70.9995L1550.19 -70.6745C1550.19 233.554 1303.9 480.178 1000.09 480.178Z" fill="#71EEB8"/>
</svg>
