<svg width="64" height="57" fill="none" xmlns="http://www.w3.org/2000/svg"><circle cx="32" cy="33" r="24" fill="#1A3E64"/><path opacity=".7" fill-rule="evenodd" clip-rule="evenodd" d="M31.345 33.695v11.497c-2.857 0-5.672.08-8.446-.081-1.218 0-1.428-.77-1.428-1.579-.042-3.238 0-6.477 0-9.837h9.874z" fill="url(#a)"/><path opacity=".7" fill-rule="evenodd" clip-rule="evenodd" d="M33 33.695v11.497c2.857 0 5.672.08 8.446-.081 1.218 0 1.428-.77 1.428-1.579.042-3.238 0-6.477 0-9.837H33z" fill="url(#b)"/><g filter="url(#c)"><path fill-rule="evenodd" clip-rule="evenodd" d="M32.144 23.413c.924-1.093 1.68-2.145 2.605-3.117 1.302-1.376 2.983-1.62 4.454-.81 1.386.77 2.143 2.348 1.765 3.806-.463 1.66-1.681 2.59-3.656 2.63-3.488.041-6.975.041-10.463 0-1.933-.04-3.109-.97-3.53-2.711-.335-1.417.337-2.915 1.681-3.684 1.471-.85 3.026-.688 4.37.607.967 1.012 1.807 2.146 2.774 3.279zm-1.093 1.093c-1.092-1.336-1.765-2.47-2.773-3.279-.588-.445-1.765-.688-2.437-.405-.588.243-1.303 1.053-1.093 2.065.127.688 1.135 1.336 1.85 1.498 1.302.323 2.646.121 4.453.121zm2.185.04c1.849.082 3.194.162 4.412-.12 1.303-.284 1.765-1.094 1.891-1.823.084-.526-.336-1.497-1.05-1.78-.673-.284-1.85-.082-2.396.364-1.05.769-2.059 2.388-2.857 3.36z" fill="url(#d)"/></g><g filter="url(#e)"><path fill-rule="evenodd" clip-rule="evenodd" d="M31.345 27.461v4.656h-7.984c-2.605 0-3.361.283-3.361-2.632 0-.85.168-1.983 1.765-2.024 3.11-.08 6.218 0 9.58 0z" fill="url(#f)"/></g><g filter="url(#g)"><path fill-rule="evenodd" clip-rule="evenodd" d="M32.983 32.117V27.46c3.362 0 6.64-.04 9.917.04 1.26.082 1.092 1.62 1.092 1.701 0 3.279-.378 2.955-3.277 2.915h-7.732z" fill="url(#h)"/></g><defs><linearGradient id="a" x1="21" y1="51.5" x2="21.324" y2="35.507" gradientUnits="userSpaceOnUse"><stop stop-color="#B0ECE6"/><stop offset="1" stop-color="#7CE0D6"/></linearGradient><linearGradient id="b" x1="43.345" y1="51.5" x2="43.021" y2="35.507" gradientUnits="userSpaceOnUse"><stop stop-color="#B0ECE6"/><stop offset="1" stop-color="#7CE0D6"/></linearGradient><linearGradient id="d" x1="33.107" y1="6.977" x2="29.825" y2="25.123" gradientUnits="userSpaceOnUse"><stop stop-color="#B0ECE6"/><stop offset="1" stop-color="#7CE0D6"/></linearGradient><linearGradient id="f" x1="26.282" y1="19.301" x2="23.936" y2="31.514" gradientUnits="userSpaceOnUse"><stop stop-color="#B0ECE6"/><stop offset="1" stop-color="#7CE0D6"/></linearGradient><linearGradient id="h" x1="39.083" y1="19.337" x2="36.678" y2="31.509" gradientUnits="userSpaceOnUse"><stop stop-color="#B0ECE6"/><stop offset="1" stop-color="#7CE0D6"/></linearGradient><filter id="c" x="3.234" y="0" width="57.831" height="46.953" filterUnits="userSpaceOnUse" color-interpolation-filters="sRGB"><feFlood flood-opacity="0" result="BackgroundImageFix"/><feColorMatrix in="SourceAlpha" values="0 0 0 0 0 0 0 0 0 0 0 0 0 0 0 0 0 0 127 0" result="hardAlpha"/><feOffset dy="1"/><feGaussianBlur stdDeviation="10"/><feColorMatrix values="0 0 0 0 1 0 0 0 0 1 0 0 0 0 1 0 0 0 0.4 0"/><feBlend in2="BackgroundImageFix" result="effect1_dropShadow_247_1020"/><feBlend in="SourceGraphic" in2="effect1_dropShadow_247_1020" result="shape"/></filter><filter id="e" x="0" y="8.425" width="51.345" height="44.699" filterUnits="userSpaceOnUse" color-interpolation-filters="sRGB"><feFlood flood-opacity="0" result="BackgroundImageFix"/><feColorMatrix in="SourceAlpha" values="0 0 0 0 0 0 0 0 0 0 0 0 0 0 0 0 0 0 127 0" result="hardAlpha"/><feOffset dy="1"/><feGaussianBlur stdDeviation="10"/><feColorMatrix values="0 0 0 0 1 0 0 0 0 1 0 0 0 0 1 0 0 0 0.4 0"/><feBlend in2="BackgroundImageFix" result="effect1_dropShadow_247_1020"/><feBlend in="SourceGraphic" in2="effect1_dropShadow_247_1020" result="shape"/></filter><filter id="g" x="12.983" y="8.451" width="51.016" height="44.693" filterUnits="userSpaceOnUse" color-interpolation-filters="sRGB"><feFlood flood-opacity="0" result="BackgroundImageFix"/><feColorMatrix in="SourceAlpha" values="0 0 0 0 0 0 0 0 0 0 0 0 0 0 0 0 0 0 127 0" result="hardAlpha"/><feOffset dy="1"/><feGaussianBlur stdDeviation="10"/><feColorMatrix values="0 0 0 0 1 0 0 0 0 1 0 0 0 0 1 0 0 0 0.4 0"/><feBlend in2="BackgroundImageFix" result="effect1_dropShadow_247_1020"/><feBlend in="SourceGraphic" in2="effect1_dropShadow_247_1020" result="shape"/></filter></defs></svg>