<svg width="84" height="84" fill="none" xmlns="http://www.w3.org/2000/svg"><g clip-path="url(#clip0)"><path d="M61.733 26.825L45.116 17.31a6.372 6.372 0 00-6.387.02l-16.556 9.63a6.409 6.409 0 00-3.178 5.533l.065 19.157a6.418 6.418 0 003.218 5.524l16.613 9.513a6.375 6.375 0 006.391-.018l16.561-9.633a6.427 6.427 0 003.162-5.543l-.065-19.156a6.422 6.422 0 00-3.207-5.512z" fill="#FFE1E1"/><path fill-rule="evenodd" clip-rule="evenodd" d="M44.618 18.177a5.374 5.374 0 00-5.385.017l-16.556 9.63a5.412 5.412 0 00-2.682 4.667v.002l.065 19.15v.002a5.417 5.417 0 002.716 4.661l16.613 9.514a5.377 5.377 0 005.39-.015l16.556-9.63a5.426 5.426 0 002.67-4.678v-.002l-.065-19.15v-.002a5.422 5.422 0 00-2.705-4.651l-.002-.001-16.615-9.514zm17.115 8.648a6.422 6.422 0 013.207 5.512l.065 19.156a6.427 6.427 0 01-3.162 5.543l-16.56 9.633a6.377 6.377 0 01-6.392.018l-16.613-9.513a6.417 6.417 0 01-3.218-5.524l-.065-19.157a6.408 6.408 0 013.178-5.533l16.556-9.63a6.371 6.371 0 016.387-.02l16.617 9.515z" fill="url(#paint0_linear)"/><path d="M54.196 32.621l-10.27-5.88a3.938 3.938 0 00-3.948.012l-10.232 5.952a3.96 3.96 0 00-1.964 3.42l.04 11.84a3.965 3.965 0 001.989 3.415l10.267 5.88a3.942 3.942 0 003.95-.011l10.236-5.954a3.972 3.972 0 001.954-3.427l-.04-11.84a3.969 3.969 0 00-1.982-3.407z" fill="#fff"/><path d="M112.933 26.651l-16.617-9.515a6.37 6.37 0 00-6.387.02l-16.556 9.63a6.408 6.408 0 00-3.178 5.535l.065 19.156a6.418 6.418 0 003.218 5.525l16.613 9.512a6.376 6.376 0 006.391-.017l16.561-9.633a6.423 6.423 0 003.162-5.543l-.065-19.156a6.427 6.427 0 00-3.207-5.514z" fill="#FFE1E1"/><path fill-rule="evenodd" clip-rule="evenodd" d="M95.817 18.003a5.371 5.371 0 00-5.384.017h-.001l-16.555 9.63a5.41 5.41 0 00-2.682 4.67l.065 19.151v.002a5.418 5.418 0 002.715 4.661h.001l16.614 9.514a5.376 5.376 0 005.389-.015l16.556-9.63.003-.002a5.435 5.435 0 002.667-4.677v-.002l-.065-19.15v-.002a5.418 5.418 0 00-2.706-4.652l-.001-.001-16.616-9.514zm17.116 8.648a6.424 6.424 0 013.207 5.514l.065 19.156a6.424 6.424 0 01-3.162 5.543l-16.56 9.633a6.377 6.377 0 01-6.392.017l-16.613-9.512a6.418 6.418 0 01-3.218-5.525l-.065-19.156a6.408 6.408 0 013.178-5.534l16.556-9.63a6.371 6.371 0 016.387-.02l16.617 9.514z" fill="url(#paint1_linear)"/><path d="M105.395 32.447l-10.27-5.88a3.937 3.937 0 00-3.948.012l-10.232 5.952a3.96 3.96 0 00-1.964 3.42l.04 11.84a3.965 3.965 0 001.988 3.415l10.268 5.88a3.94 3.94 0 003.95-.011l10.235-5.954a3.974 3.974 0 001.955-3.425l-.041-11.84a3.968 3.968 0 00-1.981-3.409z" fill="#fff"/><path d="M9.734 27.002l-16.618-9.516a6.371 6.371 0 00-6.386.02l-16.557 9.63a6.408 6.408 0 00-3.177 5.533l.064 19.157a6.417 6.417 0 003.218 5.524l16.613 9.513a6.377 6.377 0 006.392-.018l16.56-9.633a6.428 6.428 0 003.162-5.542l-.065-19.156A6.421 6.421 0 009.734 27z" fill="#FFE1E1"/><path fill-rule="evenodd" clip-rule="evenodd" d="M-7.382 18.353a5.371 5.371 0 00-5.385.017v.001l-16.556 9.63a5.413 5.413 0 00-2.681 4.667v.002l.064 19.15v.001a5.417 5.417 0 002.717 4.662l16.613 9.513a5.376 5.376 0 005.39-.015l16.556-9.63.002-.001a5.429 5.429 0 002.667-4.679l-.065-19.15v-.002a5.421 5.421 0 00-2.705-4.65l-.002-.002-16.615-9.514zm20.322 14.16l.065 19.157a6.427 6.427 0 01-3.161 5.542l-16.561 9.633a6.377 6.377 0 01-6.392.018L-29.72 57.35a6.417 6.417 0 01-3.219-5.524l-.065-19.157a6.409 6.409 0 013.178-5.532l16.557-9.63a6.372 6.372 0 016.386-.02l16.618 9.515a6.422 6.422 0 013.206 5.512z" fill="url(#paint2_linear)"/><path d="M2.196 32.798l-10.27-5.881a3.937 3.937 0 00-3.947.012l-10.233 5.952a3.96 3.96 0 00-1.964 3.42l.04 11.84a3.965 3.965 0 001.989 3.416l10.267 5.88a3.941 3.941 0 003.95-.012l10.236-5.953a3.972 3.972 0 001.954-3.426l-.04-11.84a3.969 3.969 0 00-1.982-3.408z" fill="#fff"/><path d="M87.214-18.775l-16.617-9.516a6.37 6.37 0 00-6.387.02l-16.556 9.63a6.407 6.407 0 00-3.178 5.533L44.54 6.05a6.417 6.417 0 003.218 5.524l16.613 9.513a6.376 6.376 0 006.391-.018l16.561-9.633a6.428 6.428 0 003.162-5.542l-.065-19.157a6.422 6.422 0 00-3.207-5.511z" fill="#FFE1E1"/><path fill-rule="evenodd" clip-rule="evenodd" d="M70.098-27.424a5.37 5.37 0 00-5.384.017l-.001.001-16.555 9.63a5.412 5.412 0 00-2.682 4.667v.002l.065 19.15v.001a5.417 5.417 0 002.716 4.662L64.87 20.22a5.377 5.377 0 005.39-.015l16.556-9.63.002-.001a5.427 5.427 0 002.668-4.677v-.002l-.065-19.15v-.002a5.422 5.422 0 00-2.706-4.65l-.002-.001-16.615-9.515zm17.116 8.649a6.423 6.423 0 013.207 5.511l.065 19.157a6.428 6.428 0 01-3.162 5.542l-16.56 9.633a6.376 6.376 0 01-6.392.018l-16.613-9.513A6.417 6.417 0 0144.54 6.05l-.065-19.157a6.409 6.409 0 013.178-5.532l16.556-9.63a6.371 6.371 0 016.387-.02l16.617 9.515z" fill="url(#paint3_linear)"/><path d="M79.677-12.979l-10.27-5.88a3.938 3.938 0 00-3.948.012l-10.232 5.952a3.959 3.959 0 00-1.964 3.42l.04 11.84A3.966 3.966 0 0055.29 5.78l10.268 5.879a3.94 3.94 0 003.95-.011l10.235-5.954a3.973 3.973 0 001.954-3.425l-.04-11.84a3.969 3.969 0 00-1.981-3.409z" fill="#fff"/><path d="M75.019-9.397L68.67-13.03a2.433 2.433 0 00-2.44.008l-6.322 3.678a2.447 2.447 0 00-1.214 2.114l.025 7.318a2.45 2.45 0 001.229 2.11l6.345 3.633a2.436 2.436 0 002.442-.006l6.326-3.68A2.456 2.456 0 0076.27.027l-.025-7.317a2.454 2.454 0 00-1.225-2.107z" fill="#FFDD0F"/><path d="M35.117-18.599l-16.618-9.515a6.37 6.37 0 00-6.386.02l-16.557 9.63a6.408 6.408 0 00-3.178 5.534l.065 19.156a6.417 6.417 0 003.218 5.524l16.613 9.513a6.377 6.377 0 006.392-.018l16.56-9.633a6.427 6.427 0 003.162-5.542l-.065-19.156a6.42 6.42 0 00-3.206-5.513z" fill="#FFE1E1"/><path fill-rule="evenodd" clip-rule="evenodd" d="M18-27.247a5.372 5.372 0 00-5.383.018h-.002l-16.555 9.63a5.41 5.41 0 00-2.682 4.667v.002l.065 19.15v.001a5.417 5.417 0 002.715 4.662h.002l16.613 9.514a5.376 5.376 0 005.39-.016l16.555-9.63.003-.002a5.427 5.427 0 002.667-4.678l-.065-19.15v-.002a5.42 5.42 0 00-2.705-4.65l-.002-.002-16.615-9.514zm17.117 8.648a6.421 6.421 0 013.206 5.513l.065 19.156a6.427 6.427 0 01-3.161 5.542l-16.561 9.633a6.376 6.376 0 01-6.392.018L-4.339 11.75a6.416 6.416 0 01-3.218-5.524l-.065-19.156a6.407 6.407 0 013.178-5.533l16.557-9.63a6.37 6.37 0 016.386-.02L35.117-18.6z" fill="url(#paint4_linear)"/><path d="M87.214 72.425L70.597 62.91a6.372 6.372 0 00-6.387.02l-16.556 9.63a6.408 6.408 0 00-3.178 5.535l.065 19.156a6.42 6.42 0 003.218 5.525l16.613 9.512a6.376 6.376 0 006.391-.018l16.561-9.632a6.433 6.433 0 003.162-5.543L90.42 77.94a6.422 6.422 0 00-3.207-5.514z" fill="#FFE1E1"/><path fill-rule="evenodd" clip-rule="evenodd" d="M70.763 112.27l16.561-9.632a6.433 6.433 0 003.162-5.543L90.42 77.94a6.422 6.422 0 00-3.207-5.514L70.597 62.91a6.372 6.372 0 00-6.387.02l-16.556 9.63a6.408 6.408 0 00-3.178 5.535l.065 19.156a6.42 6.42 0 003.218 5.525l16.613 9.512a6.376 6.376 0 006.391-.018zm-22.506-10.361l16.613 9.513a5.372 5.372 0 005.39-.016l16.556-9.63.002-.001a5.427 5.427 0 002.668-4.677v-.002l-.065-19.15v-.002a5.422 5.422 0 00-2.706-4.652l-.002-.001-16.615-9.514a5.372 5.372 0 00-5.384.017l-.001.001-16.555 9.63a5.41 5.41 0 00-2.682 4.668v.002l.065 19.15v.001a5.417 5.417 0 002.716 4.663z" fill="url(#paint5_linear)"/><path d="M79.677 78.103l-10.27-5.88a3.937 3.937 0 00-3.948.013l-10.232 5.952a3.959 3.959 0 00-1.964 3.42l.04 11.84a3.965 3.965 0 001.988 3.414l10.268 5.879a3.935 3.935 0 003.95-.011l10.235-5.953a3.973 3.973 0 001.954-3.426l-.04-11.84a3.969 3.969 0 00-1.981-3.408z" fill="#fff"/><path d="M75.019 81.804l-6.349-3.635a2.433 2.433 0 00-2.44.008l-6.322 3.678a2.448 2.448 0 00-1.214 2.114l.025 7.318a2.45 2.45 0 001.229 2.11l6.345 3.634a2.436 2.436 0 002.442-.007l6.326-3.68a2.457 2.457 0 001.208-2.117l-.025-7.317a2.454 2.454 0 00-1.225-2.106z" fill="#FFDD0F"/><path d="M35.215 72.602l-16.618-9.516a6.37 6.37 0 00-6.387.021l-16.556 9.63a6.408 6.408 0 00-3.178 5.534l.065 19.156a6.416 6.416 0 003.218 5.525l16.613 9.513a6.375 6.375 0 006.392-.018l16.56-9.633a6.43 6.43 0 003.162-5.542l-.065-19.157a6.42 6.42 0 00-3.206-5.513z" fill="#FFE1E1"/><path fill-rule="evenodd" clip-rule="evenodd" d="M18.098 63.953a5.37 5.37 0 00-5.384.018l-16.556 9.63a5.411 5.411 0 00-2.682 4.668v.002l.065 19.15v.002a5.419 5.419 0 002.717 4.662l16.612 9.513c.82.472 1.75.719 2.697.717a5.386 5.386 0 002.693-.732l16.556-9.63.003-.002a5.429 5.429 0 002.667-4.677v-.001l-.065-19.15v-.003a5.42 5.42 0 00-2.705-4.652h-.002l-16.616-9.515zm17.117 8.649a6.42 6.42 0 013.206 5.513l.065 19.157a6.427 6.427 0 01-3.162 5.542l-16.56 9.633a6.375 6.375 0 01-6.392.018l-16.613-9.513a6.418 6.418 0 01-3.218-5.525l-.065-19.156a6.408 6.408 0 013.178-5.534l16.556-9.63a6.37 6.37 0 016.387-.02l16.617 9.515z" fill="url(#paint6_linear)"/><path d="M2.077-2.402L-8.195-8.284a3.938 3.938 0 00-3.947.012l-10.233 5.952a3.96 3.96 0 00-1.964 3.42l.04 11.84a3.964 3.964 0 001.989 3.416l10.267 5.88a3.94 3.94 0 003.95-.012l10.236-5.953a3.972 3.972 0 001.954-3.426l-.04-11.84a3.969 3.969 0 00-1.98-3.409z" fill="#FFDD0F"/><path d="M27.543-12.979l-10.27-5.88a3.938 3.938 0 00-3.947.012L3.093-12.895a3.96 3.96 0 00-1.964 3.42l.04 11.84A3.966 3.966 0 003.158 5.78l10.267 5.879a3.94 3.94 0 003.95-.011l10.236-5.954a3.972 3.972 0 001.954-3.425l-.04-11.84a3.969 3.969 0 00-1.982-3.409zM27.543 77.985l-10.27-5.88a3.938 3.938 0 00-3.947.012L3.093 78.069a3.96 3.96 0 00-1.964 3.42l.04 11.84a3.966 3.966 0 001.989 3.415l10.267 5.88a3.94 3.94 0 003.95-.011l10.236-5.954a3.972 3.972 0 001.954-3.425l-.04-11.84a3.969 3.969 0 00-1.982-3.409z" fill="#fff"/></g><defs><linearGradient id="paint0_linear" x1="42" y1=".691" x2="42" y2="88.43" gradientUnits="userSpaceOnUse"><stop stop-color="#FF7163"/><stop offset="1" stop-color="#FF7C7C" stop-opacity="0"/></linearGradient><linearGradient id="paint1_linear" x1="93.2" y1="-19.5" x2="93.2" y2="88.259" gradientUnits="userSpaceOnUse"><stop stop-color="#FF7163"/><stop offset="1" stop-color="#FF7C7C" stop-opacity="0"/></linearGradient><linearGradient id="paint2_linear" x1="-10" y1="-17.5" x2="-10" y2="88.607" gradientUnits="userSpaceOnUse"><stop stop-color="#FF7163"/><stop offset="1" stop-color="#FF7C7C" stop-opacity="0"/></linearGradient><linearGradient id="paint3_linear" x1="67.481" y1="-21.013" x2="67.481" y2="42.83" gradientUnits="userSpaceOnUse"><stop stop-color="#FF7163"/><stop offset="1" stop-color="#FF7C7C" stop-opacity="0"/></linearGradient><linearGradient id="paint4_linear" x1="15.383" y1="-20.836" x2="15.383" y2="43.007" gradientUnits="userSpaceOnUse"><stop stop-color="#FF7163"/><stop offset="1" stop-color="#FF7C7C" stop-opacity="0"/></linearGradient><linearGradient id="paint5_linear" x1="67.481" y1="30" x2="67.481" y2="134.033" gradientUnits="userSpaceOnUse"><stop stop-color="#FF7163"/><stop offset="1" stop-color="#FF7C7C" stop-opacity="0"/></linearGradient><linearGradient id="paint6_linear" x1="15.481" y1="13" x2="15.481" y2="134.209" gradientUnits="userSpaceOnUse"><stop stop-color="#FF7163"/><stop offset="1" stop-color="#FF7C7C" stop-opacity="0"/></linearGradient><clipPath id="clip0"><rect width="84" height="84" rx="42" fill="#fff"/></clipPath></defs></svg>