<svg width="85" height="85" fill="none" xmlns="http://www.w3.org/2000/svg"><g clip-path="url(#clip0)"><path d="M62.37 27.452l-16.617-9.515a6.371 6.371 0 00-6.387.02l-16.556 9.63a6.408 6.408 0 00-3.178 5.533l.065 19.157a6.417 6.417 0 003.218 5.524l16.612 9.513a6.376 6.376 0 006.392-.018l16.56-9.633a6.427 6.427 0 003.162-5.543l-.065-19.156a6.422 6.422 0 00-3.206-5.512z" fill="#38CCB6" fill-opacity=".4"/><path fill-rule="evenodd" clip-rule="evenodd" d="M45.255 18.804a5.371 5.371 0 00-5.385.017h-.001l-16.555 9.63a5.41 5.41 0 00-2.682 4.667v.002l.065 19.15v.002a5.418 5.418 0 002.716 4.662l16.613 9.513a5.376 5.376 0 005.39-.015l16.556-9.63.003-.002a5.427 5.427 0 002.666-4.677v-.002l-.065-19.15v-.001a5.421 5.421 0 00-2.705-4.651l-.002-.001-16.614-9.514zm17.115 8.648a6.421 6.421 0 013.206 5.512l.066 19.156a6.428 6.428 0 01-3.162 5.543l-16.561 9.633a6.376 6.376 0 01-6.392.018L22.915 57.8a6.419 6.419 0 01-3.218-5.525l-.065-19.156a6.409 6.409 0 013.178-5.533l16.556-9.63a6.372 6.372 0 016.387-.02l16.617 9.515z" fill="url(#paint0_linear)"/><path d="M54.833 33.248l-10.27-5.88a3.939 3.939 0 00-3.948.012l-10.232 5.952a3.96 3.96 0 00-1.964 3.42l.04 11.84a3.967 3.967 0 001.988 3.415l10.268 5.88a3.941 3.941 0 003.95-.011l10.236-5.954a3.972 3.972 0 001.954-3.427l-.04-11.84a3.967 3.967 0 00-1.982-3.407z" fill="#fff"/><path d="M113.57 27.278l-16.617-9.515a6.372 6.372 0 00-6.387.02l-16.557 9.63a6.409 6.409 0 00-3.177 5.535l.065 19.156a6.417 6.417 0 003.218 5.525l16.612 9.512a6.377 6.377 0 006.392-.018l16.561-9.632a6.43 6.43 0 003.161-5.543l-.064-19.156a6.417 6.417 0 00-3.207-5.514z" fill="#AFEBE2"/><path fill-rule="evenodd" clip-rule="evenodd" d="M96.454 18.63a5.372 5.372 0 00-5.384.017h-.001l-16.556 9.63a5.412 5.412 0 00-2.681 4.67l.065 19.151v.002a5.418 5.418 0 002.716 4.662l16.613 9.513a5.376 5.376 0 005.39-.016l16.556-9.63.002-.001a5.42 5.42 0 002.667-4.677v-.002l-.064-19.15v-.002a5.428 5.428 0 00-2.706-4.652l-.002-.001-16.615-9.514zm17.116 8.648a6.422 6.422 0 013.207 5.514l.064 19.156a6.423 6.423 0 01-3.161 5.543l-16.561 9.632a6.375 6.375 0 01-6.392.018L74.115 57.63a6.417 6.417 0 01-3.218-5.525l-.065-19.156a6.408 6.408 0 013.177-5.534l16.557-9.63a6.372 6.372 0 016.386-.02l16.618 9.514z" fill="url(#paint1_linear)"/><path d="M106.032 33.074l-10.27-5.88a3.939 3.939 0 00-3.948.012L81.58 33.158a3.96 3.96 0 00-1.964 3.42l.04 11.84a3.965 3.965 0 001.989 3.415l10.267 5.88a3.941 3.941 0 003.95-.011l10.236-5.954a3.964 3.964 0 001.954-3.425l-.04-11.84a3.978 3.978 0 00-.537-1.968 3.977 3.977 0 00-1.444-1.44z" fill="#fff"/><path d="M10.37 27.628l-16.617-9.515a6.372 6.372 0 00-6.387.02l-16.556 9.63a6.407 6.407 0 00-3.178 5.533l.065 19.157a6.416 6.416 0 003.218 5.524l16.613 9.513a6.376 6.376 0 006.392-.018l16.56-9.633a6.427 6.427 0 003.162-5.542l-.065-19.156a6.422 6.422 0 00-3.206-5.513z" fill="#AFEBE2"/><path fill-rule="evenodd" clip-rule="evenodd" d="M-6.745 18.98a5.373 5.373 0 00-5.385.017l-.001.001-16.555 9.63a5.411 5.411 0 00-2.682 4.667v.002l.065 19.15v.001a5.417 5.417 0 002.716 4.662l16.614 9.513a5.377 5.377 0 005.389-.015l16.556-9.63.003-.001a5.426 5.426 0 002.667-4.679l-.065-19.15v-.002a5.422 5.422 0 00-2.705-4.65l-.002-.002-16.615-9.514zm20.322 14.16l.065 19.157a6.429 6.429 0 01-3.162 5.542l-16.56 9.633a6.377 6.377 0 01-6.392.018l-16.613-9.513a6.417 6.417 0 01-3.218-5.524l-.065-19.157a6.407 6.407 0 013.178-5.532l16.556-9.63a6.372 6.372 0 016.387-.02l16.618 9.514a6.422 6.422 0 013.206 5.513z" fill="url(#paint2_linear)"/><path d="M2.833 33.425l-10.27-5.881a3.938 3.938 0 00-3.947.012l-10.233 5.952a3.961 3.961 0 00-1.964 3.42l.04 11.84a3.966 3.966 0 001.989 3.416l10.267 5.88a3.941 3.941 0 003.95-.012l10.236-5.953a3.972 3.972 0 001.954-3.426l-.04-11.84a3.969 3.969 0 00-1.982-3.408z" fill="#fff"/><path d="M87.85-18.148l-16.617-9.516a6.37 6.37 0 00-6.386.02l-16.557 9.63a6.408 6.408 0 00-3.178 5.533l.066 19.157a6.417 6.417 0 003.218 5.524l16.612 9.513a6.376 6.376 0 006.392-.018l16.56-9.633a6.427 6.427 0 003.162-5.542l-.065-19.157a6.422 6.422 0 00-3.206-5.511z" fill="#AFEBE2"/><path fill-rule="evenodd" clip-rule="evenodd" d="M70.735-26.797a5.371 5.371 0 00-5.384.017l-.002.001-16.555 9.63a5.412 5.412 0 00-2.682 4.667v.002l.066 19.15v.001a5.417 5.417 0 002.716 4.662l16.613 9.513a5.377 5.377 0 005.39-.015l16.556-9.63.002-.001a5.428 5.428 0 002.667-4.677V6.52l-.065-19.15v-.002a5.422 5.422 0 00-2.705-4.65l-.002-.001-16.615-9.515zm17.116 8.649a6.423 6.423 0 013.206 5.511l.065 19.157a6.428 6.428 0 01-3.161 5.542L71.4 21.695a6.376 6.376 0 01-6.392.018L48.396 12.2a6.417 6.417 0 01-3.218-5.524l-.066-19.157a6.409 6.409 0 013.178-5.532l16.557-9.63a6.371 6.371 0 016.386-.021l16.618 9.516z" fill="url(#paint3_linear)"/><path d="M80.314-12.352l-10.271-5.88a3.937 3.937 0 00-3.947.012l-10.233 5.952a3.958 3.958 0 00-1.964 3.42l.04 11.84a3.966 3.966 0 001.989 3.415l10.267 5.88a3.94 3.94 0 003.95-.011l10.236-5.954a3.972 3.972 0 001.954-3.425l-.04-11.84a3.969 3.969 0 00-1.981-3.409z" fill="#fff"/><path d="M75.655-8.77l-6.348-3.634a2.433 2.433 0 00-2.44.008l-6.323 3.678a2.448 2.448 0 00-1.213 2.114l.024 7.318a2.45 2.45 0 001.23 2.11l6.345 3.633a2.436 2.436 0 002.442-.006l6.326-3.68A2.456 2.456 0 0076.906.654l-.025-7.317a2.453 2.453 0 00-1.226-2.107z" fill="#FFDD0F"/><path d="M35.753-17.972l-16.617-9.515a6.372 6.372 0 00-6.387.02l-16.556 9.63a6.408 6.408 0 00-3.178 5.534l.065 19.156a6.417 6.417 0 003.218 5.524l16.613 9.513a6.377 6.377 0 006.391-.018l16.561-9.633a6.426 6.426 0 003.162-5.542l-.065-19.156a6.42 6.42 0 00-3.207-5.513z" fill="#AFEBE2"/><path fill-rule="evenodd" clip-rule="evenodd" d="M18.637-26.62a5.37 5.37 0 00-5.384.018l-16.556 9.63a5.411 5.411 0 00-2.682 4.667v.002l.065 19.15v.001a5.417 5.417 0 002.717 4.663l16.612 9.512a5.378 5.378 0 005.39-.015l16.556-9.63.003-.002a5.428 5.428 0 002.667-4.678l-.065-19.15v-.003a5.422 5.422 0 00-2.707-4.651L18.637-26.62zm17.116 8.648a6.422 6.422 0 013.207 5.513l.065 19.156a6.428 6.428 0 01-3.162 5.542l-16.56 9.633a6.376 6.376 0 01-6.392.018l-16.613-9.513A6.417 6.417 0 01-6.92 6.853l-.065-19.156a6.408 6.408 0 013.178-5.533l16.556-9.63a6.372 6.372 0 016.387-.02l16.617 9.514z" fill="url(#paint4_linear)"/><path d="M87.85 73.052l-16.617-9.515a6.37 6.37 0 00-6.386.02l-16.557 9.63a6.408 6.408 0 00-3.178 5.535l.066 19.156a6.42 6.42 0 003.218 5.524l16.612 9.513a6.376 6.376 0 006.392-.018l16.56-9.633a6.423 6.423 0 003.162-5.542l-.065-19.156a6.421 6.421 0 00-3.206-5.514z" fill="#AFEBE2"/><path fill-rule="evenodd" clip-rule="evenodd" d="M71.4 112.897l16.56-9.633a6.423 6.423 0 003.162-5.542l-.065-19.156a6.421 6.421 0 00-3.206-5.514l-16.618-9.515a6.37 6.37 0 00-6.386.02l-16.557 9.63a6.408 6.408 0 00-3.178 5.535l.066 19.156a6.42 6.42 0 003.218 5.524l16.612 9.513a6.376 6.376 0 006.392-.018zm-22.506-10.361l16.613 9.513a5.372 5.372 0 005.39-.016l16.556-9.63.002-.001a5.428 5.428 0 002.667-4.677v-.002l-.065-19.15v-.002a5.423 5.423 0 00-2.707-4.653l-16.615-9.514a5.37 5.37 0 00-5.384.017l-.002.001-16.555 9.63a5.411 5.411 0 00-2.682 4.668v.002l.066 19.15v.001a5.415 5.415 0 002.716 4.663z" fill="url(#paint5_linear)"/><path d="M80.314 78.73l-10.271-5.88a3.938 3.938 0 00-3.947.013l-10.233 5.952a3.96 3.96 0 00-1.964 3.42l.04 11.84a3.966 3.966 0 001.989 3.414l10.267 5.879a3.935 3.935 0 003.95-.011l10.236-5.953a3.972 3.972 0 001.954-3.426l-.04-11.84a3.968 3.968 0 00-1.981-3.408z" fill="#fff"/><path d="M75.655 82.43l-6.348-3.634a2.433 2.433 0 00-2.44.008l-6.323 3.678a2.447 2.447 0 00-1.213 2.114l.024 7.318a2.451 2.451 0 001.23 2.11l6.345 3.634a2.436 2.436 0 002.442-.007l6.326-3.68a2.456 2.456 0 001.208-2.117l-.025-7.317a2.453 2.453 0 00-1.226-2.106z" fill="#FFDD0F"/><path d="M35.851 73.228l-16.617-9.515a6.371 6.371 0 00-6.387.021l-16.556 9.63a6.408 6.408 0 00-3.178 5.534l.065 19.157a6.416 6.416 0 003.218 5.524l16.613 9.513a6.377 6.377 0 006.392-.018l16.56-9.633a6.43 6.43 0 003.162-5.542l-.065-19.157a6.421 6.421 0 00-3.207-5.514z" fill="#AFEBE2"/><path fill-rule="evenodd" clip-rule="evenodd" d="M18.735 64.58a5.372 5.372 0 00-5.384.018h-.001l-16.555 9.63a5.411 5.411 0 00-2.682 4.669v.001l.065 19.15v.002a5.419 5.419 0 002.716 4.662l16.613 9.513a5.372 5.372 0 005.39-.015l16.556-9.63.003-.002a5.427 5.427 0 002.666-4.677V97.9l-.064-19.15v-.003a5.421 5.421 0 00-2.706-4.652h-.001L18.735 64.58zm17.116 8.648a6.421 6.421 0 013.207 5.514l.065 19.157a6.427 6.427 0 01-3.162 5.542l-16.56 9.633a6.377 6.377 0 01-6.393.018l-16.612-9.513a6.418 6.418 0 01-3.218-5.524l-.065-19.157a6.408 6.408 0 013.178-5.534l16.556-9.63a6.372 6.372 0 016.387-.02l16.617 9.514z" fill="url(#paint6_linear)"/><path d="M2.714-1.776l-10.272-5.88a3.938 3.938 0 00-3.947.012l-10.233 5.952a3.96 3.96 0 00-1.964 3.42l.04 11.84a3.964 3.964 0 001.989 3.416l10.267 5.88a3.94 3.94 0 003.95-.012L2.78 16.9a3.972 3.972 0 001.954-3.426l-.04-11.84a3.969 3.969 0 00-1.98-3.409z" fill="#FFDD0F"/><path d="M28.18-12.352l-10.27-5.88a3.938 3.938 0 00-3.947.012L3.73-12.268a3.959 3.959 0 00-1.964 3.42l.04 11.84a3.966 3.966 0 001.988 3.415l10.268 5.88a3.94 3.94 0 003.95-.011l10.236-5.954a3.972 3.972 0 001.954-3.425l-.04-11.84a3.968 3.968 0 00-1.982-3.409zM28.18 78.612l-10.27-5.88a3.939 3.939 0 00-3.947.012L3.73 78.696a3.96 3.96 0 00-1.964 3.42l.04 11.84a3.966 3.966 0 001.988 3.415l10.268 5.88a3.94 3.94 0 003.95-.011l10.236-5.954a3.972 3.972 0 001.954-3.425l-.04-11.84a3.968 3.968 0 00-1.982-3.409z" fill="#fff"/></g><defs><linearGradient id="paint0_linear" x1="42.637" y1="25.214" x2="42.637" y2="89.057" gradientUnits="userSpaceOnUse"><stop stop-color="#38CCB6"/><stop offset="1" stop-color="#38CCB6" stop-opacity="0"/></linearGradient><linearGradient id="paint1_linear" x1="93.837" y1="25.041" x2="93.837" y2="88.886" gradientUnits="userSpaceOnUse"><stop stop-color="#38CCB6"/><stop offset="1" stop-color="#38CCB6" stop-opacity="0"/></linearGradient><linearGradient id="paint2_linear" x1="-9.363" y1="25.391" x2="-9.363" y2="89.234" gradientUnits="userSpaceOnUse"><stop stop-color="#38CCB6"/><stop offset="1" stop-color="#38CCB6" stop-opacity="0"/></linearGradient><linearGradient id="paint3_linear" x1="68.117" y1="-20.386" x2="68.117" y2="43.457" gradientUnits="userSpaceOnUse"><stop stop-color="#38CCB6"/><stop offset="1" stop-color="#38CCB6" stop-opacity="0"/></linearGradient><linearGradient id="paint4_linear" x1="16.02" y1="-20.209" x2="16.02" y2="43.634" gradientUnits="userSpaceOnUse"><stop stop-color="#38CCB6"/><stop offset="1" stop-color="#38CCB6" stop-opacity="0"/></linearGradient><linearGradient id="paint5_linear" x1="68.117" y1="70.815" x2="68.117" y2="134.66" gradientUnits="userSpaceOnUse"><stop stop-color="#38CCB6"/><stop offset="1" stop-color="#38CCB6" stop-opacity="0"/></linearGradient><linearGradient id="paint6_linear" x1="16.118" y1="70.991" x2="16.118" y2="134.836" gradientUnits="userSpaceOnUse"><stop stop-color="#38CCB6"/><stop offset="1" stop-color="#38CCB6" stop-opacity="0"/></linearGradient><clipPath id="clip0"><rect x=".637" y=".627" width="84" height="84" rx="42" fill="#fff"/></clipPath></defs></svg>