<svg width="204" height="229" viewBox="0 0 204 229" fill="none" xmlns="http://www.w3.org/2000/svg">
<path d="M12.4565 173.406C16.7216 173.686 19.9698 177.334 19.768 181.588L11.9566 181.079C7.69149 180.799 4.44329 177.151 4.64503 172.897L12.4565 173.406Z" fill="#71EEB8" stroke="#71EEB8" stroke-width="0.281327"/>
<path d="M21.7416 154.816C18.6284 156.171 17.1756 159.765 18.4539 162.893L24.1723 160.407C24.1723 160.407 24.1724 160.407 24.1724 160.407C27.2856 159.052 28.7384 155.458 27.4602 152.33L21.7417 154.816C21.7417 154.816 21.7417 154.816 21.7416 154.816Z" fill="#71EEB8" stroke="#71EEB8" stroke-width="0.281327"/>
<path d="M34.5617 198.991C31.969 195.612 32.5551 190.763 35.8982 188.099L42.0286 183.223C44.6215 186.602 44.0404 191.45 40.6868 194.116L40.6867 194.116L34.5617 198.991Z" fill="#71EEB8" stroke="#71EEB8" stroke-width="0.281327"/>
<path fill-rule="evenodd" clip-rule="evenodd" d="M15.2868 143.559C15.2868 143.559 15.2868 143.558 16.5566 143.558C17.8265 143.558 17.8265 143.558 17.8265 143.558L17.8265 143.567L17.8266 143.597L17.8271 143.719C17.8277 143.827 17.829 143.989 17.8315 144.201C17.8365 144.626 17.8465 145.252 17.8667 146.053C17.9069 147.654 17.9876 149.954 18.1489 152.739C18.4718 158.313 19.1172 165.816 20.4056 173.553C21.6959 181.303 23.6213 189.226 26.48 195.671C29.3568 202.156 33.0666 206.892 37.7767 208.676L36.8775 211.051C31.2024 208.902 27.1233 203.384 24.1584 196.701C21.1753 189.976 19.2063 181.814 17.9003 173.97C16.5924 166.115 15.9396 158.516 15.6135 152.886C15.4503 150.069 15.3686 147.742 15.3278 146.117C15.3073 145.304 15.2971 144.667 15.2919 144.231C15.2894 144.014 15.2881 143.847 15.2874 143.733L15.2869 143.604L15.2868 143.571L15.2868 143.559Z" fill="#71EEB8"/>
<path d="M27.7135 117.541L27.7132 117.541L27.7146 117.55C27.781 117.964 28.0255 120.646 28.2767 123.401L28.2937 123.588C28.5491 126.389 28.8074 129.215 28.8854 129.71C29.622 137.272 24.094 144.005 16.5318 144.744L16.5318 144.744L16.5317 144.744L16.5317 144.744L16.5317 144.744L16.5316 144.744L16.5316 144.744L16.5316 144.744L16.5315 144.744L16.5315 144.744L16.5315 144.744L16.5314 144.744L16.5314 144.744L16.5314 144.744L16.5314 144.744L16.5313 144.744L16.5313 144.744L16.5313 144.744L16.5312 144.744L16.5312 144.744L16.5312 144.744L16.5311 144.744L16.5311 144.744L16.5311 144.744L16.531 144.744L16.531 144.744L16.531 144.744L16.531 144.744L16.5309 144.744L16.5309 144.744L16.5309 144.744L16.5308 144.744L16.5308 144.744L16.5308 144.744L16.5308 144.744L16.5307 144.744L16.5307 144.744L16.5307 144.744L16.5306 144.744L16.5306 144.744L16.5306 144.744L16.5306 144.744L16.5305 144.744L16.5305 144.744L16.5305 144.744L16.5304 144.744L16.5304 144.744L16.5304 144.744L16.5304 144.744L16.5303 144.744L16.5303 144.744L16.5303 144.744L16.5303 144.744L16.5302 144.744L16.5302 144.744L16.5302 144.744L16.5302 144.744L16.5301 144.744L16.5301 144.744L16.5301 144.744L16.53 144.744L16.53 144.744L16.53 144.744L16.53 144.744L16.5299 144.744L16.5299 144.744L16.5299 144.744L16.5299 144.744L16.5298 144.744L16.5298 144.744L16.5298 144.744L16.5298 144.744L16.5297 144.744L16.5297 144.744L16.5297 144.744L16.5297 144.744L16.5296 144.744L16.5296 144.744L16.5296 144.744L16.5296 144.744L16.5296 144.744L16.5295 144.744L16.5295 144.744L16.5295 144.744L16.5295 144.744L16.5294 144.744L16.5294 144.744L16.5294 144.744L16.5294 144.744L16.5293 144.744L16.5293 144.744L16.5293 144.744L16.5293 144.744L16.5293 144.744L16.5292 144.744L16.5292 144.744L16.5292 144.744L16.5292 144.744L16.5291 144.744L16.5291 144.744L16.5291 144.744L16.5291 144.744L16.5291 144.744L16.529 144.744L16.529 144.744L16.529 144.744L16.529 144.744L16.5289 144.744L16.5289 144.744L16.5289 144.744L16.5289 144.744L16.5289 144.744L16.5288 144.744L16.5288 144.744L16.5288 144.744L16.5288 144.744L16.5288 144.744L16.5287 144.744L16.5287 144.744L16.5287 144.744L16.5287 144.744L16.5287 144.744L16.5286 144.744L16.5286 144.744L16.5286 144.744L16.5286 144.744L16.5286 144.744L16.5285 144.744L16.5285 144.744L16.5285 144.744L16.5285 144.744L16.5285 144.744L16.5284 144.744L16.5284 144.744L16.5284 144.744L16.5284 144.744L16.5284 144.744L16.5283 144.744L16.5283 144.744L16.5283 144.744L16.5283 144.744L16.5283 144.744L16.5283 144.744L16.5282 144.744L16.5282 144.744L16.5282 144.744L16.5282 144.744L16.5282 144.744L16.5281 144.744L16.5281 144.744L16.5281 144.744L16.5281 144.744L16.5281 144.744L16.5281 144.744L16.528 144.744L16.528 144.744L16.528 144.744L16.528 144.744L16.528 144.744L16.528 144.744L16.5279 144.744L16.5279 144.744L16.5279 144.744L16.5279 144.744L16.5279 144.744L16.5278 144.744L16.5278 144.744L16.5278 144.744L16.5278 144.744L16.5278 144.744L16.5278 144.744L16.5277 144.744L16.5277 144.744L16.5277 144.744L16.5277 144.744L16.5277 144.744L16.5277 144.744L16.5277 144.744L16.5276 144.744L16.5276 144.744L16.5276 144.744L16.5276 144.744L16.5276 144.744L16.5276 144.744L16.5275 144.744L16.5275 144.744L16.5275 144.744L16.5275 144.744L16.5275 144.744L16.5275 144.744L16.5274 144.744L16.5274 144.744L16.5274 144.744L16.5274 144.744L16.5274 144.744L16.5274 144.744L16.5274 144.744L16.5273 144.744L16.5273 144.744L16.5273 144.744L16.5273 144.744L16.5273 144.744L16.5273 144.744L16.5273 144.744L16.5272 144.744L16.5272 144.744L16.5272 144.744L16.5272 144.744L16.5272 144.744L16.5272 144.744L16.5272 144.744L16.5271 144.744L16.5271 144.744L16.5271 144.744L16.5271 144.744L16.5271 144.744L16.527 144.744L16.527 144.744L16.527 144.744L16.527 144.744L16.527 144.744L16.5269 144.744L16.5269 144.744L16.5269 144.744L16.5269 144.744L16.5268 144.744L16.5268 144.744L16.5268 144.744L16.5268 144.744L16.5267 144.744L16.5267 144.744L16.5267 144.744L16.5267 144.744L16.5266 144.744L16.5266 144.744L16.5266 144.744L16.5266 144.744L16.5265 144.744L16.5265 144.744L16.5265 144.744L16.5265 144.744L16.5264 144.744L16.5264 144.744L16.5264 144.744L16.5264 144.744L16.5263 144.744L16.5263 144.744L16.5263 144.744L16.5263 144.744L16.5263 144.744L16.5262 144.744L16.5262 144.744L16.5262 144.744L16.5262 144.744L16.5261 144.744L16.5261 144.744L16.5261 144.744L16.5261 144.744L16.526 144.744L16.526 144.744L16.526 144.744L16.526 144.744L16.526 144.744L16.5259 144.744L16.5259 144.744L16.5259 144.744L16.5259 144.744L16.5258 144.744L16.5258 144.744L16.5258 144.744L16.5258 144.744L16.5258 144.744L16.5257 144.744L16.5257 144.744L16.5257 144.744L16.5257 144.744L16.5256 144.744L16.5256 144.744L16.5256 144.744L16.5256 144.744L16.5256 144.744L16.5255 144.744L16.5255 144.744L16.5255 144.744L16.5255 144.744L16.5254 144.744L16.5254 144.744L16.5254 144.744L16.5254 144.744L16.5254 144.744L16.5253 144.744L16.5253 144.744L16.5253 144.744L16.5253 144.744L16.5253 144.744L16.5252 144.744L16.5252 144.744L16.5252 144.744L16.5252 144.744L16.5251 144.744L16.5251 144.744L16.5251 144.744L16.5251 144.744L16.525 144.744L16.525 144.744L16.525 144.744L16.525 144.744L16.525 144.744L16.5249 144.744L16.5249 144.744L16.5249 144.744L16.5249 144.744L16.5248 144.744L16.5248 144.744L16.5248 144.744L16.5248 144.744L16.5247 144.744L16.5247 144.744L16.5247 144.744L16.5247 144.744L16.5246 144.744L16.5246 144.744L16.5246 144.744L16.5246 144.744L16.5246 144.744L16.5245 144.744L16.5245 144.744L16.5245 144.744L16.5245 144.744L16.5244 144.744L16.5244 144.744L16.5244 144.744L16.5243 144.744L16.5243 144.744L16.5243 144.744L16.5243 144.744L16.5242 144.744L16.5242 144.744L16.5242 144.744L16.5242 144.744L16.5241 144.744L16.5241 144.744L16.5241 144.744L16.5241 144.744L16.5241 144.744L16.524 144.744L16.524 144.744L16.524 144.744L16.524 144.744L16.524 144.744L16.524 144.744L16.5239 144.744L16.5239 144.744L16.5239 144.744L16.5239 144.744L16.5239 144.744L16.5239 144.744L16.5238 144.744L16.5238 144.744L16.5238 144.744L16.5238 144.744L16.5238 144.744L16.5238 144.744L16.5238 144.744L16.5237 144.744L16.5237 144.744L16.5237 144.744L16.5237 144.744L16.5237 144.744L16.5237 144.744L16.5237 144.744L16.5236 144.744L16.5236 144.744L16.5236 144.744L16.5236 144.744L16.5236 144.744L16.5236 144.744L16.5235 144.744L16.5235 144.744L16.5235 144.744L16.5235 144.744L16.5235 144.744L16.5235 144.744L16.5234 144.744L16.5234 144.744L16.5234 144.744L16.5234 144.744L16.5234 144.744L16.5233 144.744L16.5233 144.744L16.5233 144.744L16.5232 144.744L16.5232 144.744L16.5232 144.744L16.5231 144.744L16.5231 144.744L16.5231 144.744L16.523 144.744L16.523 144.744L16.523 144.744L16.523 144.744L16.5229 144.744L16.5229 144.744L16.5229 144.744L16.5228 144.744L16.5228 144.744L16.5228 144.744L16.5227 144.744L16.5227 144.744L16.5227 144.744L16.5226 144.744L16.5226 144.744L16.5226 144.744L16.5226 144.744L16.5225 144.744L16.5225 144.744L16.5225 144.744L16.5224 144.744L16.5224 144.744L16.5224 144.744L16.5224 144.744L16.5223 144.744L16.5223 144.744L16.5223 144.744L16.5222 144.744L16.5222 144.744L16.5222 144.744L16.5222 144.744L16.5221 144.744L16.5221 144.744L16.5221 144.744L16.522 144.744L16.522 144.744L16.522 144.744L16.522 144.744L16.5219 144.745L16.5219 144.745L16.5219 144.745L16.5219 144.745L16.5218 144.745L16.5218 144.745L16.5218 144.745L16.5218 144.745L16.5217 144.745L16.5217 144.745L16.5217 144.745L16.5216 144.745L16.5216 144.745L16.5216 144.745L16.5216 144.745L16.5215 144.745L16.5215 144.745L16.5215 144.745L16.5215 144.745L16.5214 144.745L16.5214 144.745L16.5214 144.745L16.5214 144.745L16.5213 144.745L16.5213 144.745L16.5213 144.745L16.5213 144.745L16.5212 144.745L16.5212 144.745L16.5212 144.745L16.5212 144.745L16.5212 144.745L16.5211 144.745L16.5211 144.745L16.5211 144.745L16.5211 144.745L16.521 144.745L16.521 144.745L16.521 144.745L16.521 144.745L16.5209 144.745L16.5209 144.745L16.5209 144.745L16.5209 144.745L16.5209 144.745L16.5208 144.745L16.5208 144.745L16.5208 144.745L16.5208 144.745L16.5207 144.745L16.5207 144.745L16.5207 144.745L16.5207 144.745L16.5207 144.745L16.5206 144.745L16.5206 144.745L16.5206 144.745L16.5206 144.745L16.5205 144.745L16.5205 144.745L16.5205 144.745L16.5205 144.745L16.5205 144.745L16.5204 144.745L16.5204 144.745L16.5204 144.745L16.5204 144.745L16.5204 144.745L16.5203 144.745L16.5203 144.745L16.5203 144.745L16.5203 144.745L16.5203 144.745L16.5202 144.745L16.5202 144.745L16.5202 144.745L16.5202 144.745L16.5202 144.745L16.5201 144.745L16.5201 144.745L16.5201 144.745L16.5201 144.745L16.5201 144.745L16.52 144.745L16.52 144.745L16.52 144.745L16.52 144.745L16.52 144.745L16.5199 144.745L16.5199 144.745L16.5199 144.745L16.5199 144.745L16.5199 144.745L16.5199 144.745L16.5198 144.745L16.5198 144.745L16.5198 144.745L16.5198 144.745L16.5198 144.745L16.5197 144.745L16.5197 144.745L16.5197 144.745L16.5197 144.745L16.5197 144.745L16.5197 144.745L16.5196 144.745L16.5196 144.745L16.5196 144.745L16.5196 144.745L16.5196 144.745L16.5196 144.745L16.5195 144.745L16.5195 144.745L16.5195 144.745L16.5195 144.745L16.5195 144.745L16.5194 144.745L16.5194 144.745L16.5194 144.745L16.5194 144.745L16.5194 144.745L16.5194 144.745L16.5193 144.745L16.5193 144.745L16.5193 144.745L16.5193 144.745L16.5193 144.745L16.5193 144.745L16.5193 144.745L16.5192 144.745L16.5192 144.745L16.5192 144.745L16.5192 144.745L16.5192 144.745L16.5192 144.745L16.5191 144.745L16.5191 144.745L16.5191 144.745L16.5191 144.745L16.5191 144.745L16.5191 144.745L16.519 144.745L16.519 144.745L16.519 144.745L16.519 144.745L16.519 144.745L16.519 144.745L16.519 144.745L16.5189 144.745L16.5189 144.745L16.5189 144.745L16.5189 144.745L16.5189 144.745L16.5189 144.745L16.5189 144.745L16.5188 144.745L16.5188 144.745L16.5188 144.745L16.5188 144.745L16.5188 144.745L16.5188 144.745L16.5188 144.745L16.5187 144.745L16.5187 144.745L16.5187 144.745L16.5187 144.745L16.5187 144.745L16.5186 144.745L16.5186 144.745L16.5186 144.745L16.5186 144.745L16.5185 144.745L16.5185 144.745L16.5185 144.745L16.5185 144.745L16.5184 144.745L16.5184 144.745L16.5184 144.745L16.5184 144.745L16.5183 144.745L16.5183 144.745L16.5183 144.745L16.5182 144.745L16.5182 144.745L16.5182 144.745L16.5182 144.745L16.5181 144.745L16.5181 144.745L16.5181 144.745L16.5181 144.745L16.5181 144.745L16.518 144.745L16.518 144.745L16.518 144.745L16.518 144.745L16.5179 144.745L16.5179 144.745L16.5179 144.745L16.5179 144.745L16.5178 144.745L16.5178 144.745L16.5178 144.745L16.5178 144.745L16.5177 144.745L16.5177 144.745L16.5177 144.745L16.5177 144.745L16.5177 144.745L16.5176 144.745L16.5176 144.745L16.5176 144.745L16.5176 144.745L16.5175 144.745L16.5175 144.745L16.5175 144.745L16.5175 144.745L16.5175 144.745L16.5174 144.745L16.5174 144.745L16.5174 144.745L16.5174 144.745L16.5173 144.745L16.5173 144.745L16.5173 144.745L16.5173 144.745L16.5173 144.745L16.5172 144.745L16.5172 144.745L16.5172 144.745L16.5172 144.745L16.5171 144.745L16.5171 144.745L16.5171 144.745L16.5171 144.745L16.5171 144.745L16.517 144.745L16.517 144.745L16.517 144.745L16.517 144.745L16.517 144.745L16.5169 144.745L16.5169 144.745L16.5169 144.745L16.5169 144.745L16.5168 144.745L16.5168 144.745L16.5168 144.745L16.5168 144.745L16.5168 144.745L16.5167 144.745L16.5167 144.745L16.5167 144.745L16.5167 144.745L16.5166 144.745L16.5166 144.745L16.5166 144.745L16.5166 144.745L16.5165 144.745L16.5165 144.745L16.5165 144.745L16.5165 144.745L16.5165 144.745L16.5164 144.745L16.5164 144.745L16.5164 144.745L16.5164 144.745L16.5163 144.745L16.5163 144.745L16.5163 144.745L16.5163 144.745L16.5162 144.745L16.5162 144.745L16.5162 144.745L16.5162 144.745L16.5161 144.745L16.5161 144.745L16.5161 144.745L16.5161 144.745L16.516 144.745L16.516 144.745L16.516 144.745L16.516 144.745L16.5159 144.745L16.5159 144.745L16.5159 144.745L16.5159 144.745L16.5158 144.745L16.5158 144.745L16.5158 144.745L16.5157 144.745L16.5157 144.745L16.5157 144.745L16.5157 144.745L16.5157 144.745L16.5156 144.745L16.5156 144.745L16.5156 144.745L16.5156 144.745L16.5156 144.745L16.5156 144.745L16.5156 144.745L16.5155 144.745L16.5155 144.745L16.5155 144.745L16.5155 144.745L16.5155 144.745L16.5155 144.745L16.5155 144.745L16.5154 144.745L16.5154 144.745L16.5154 144.745L16.5154 144.745L16.5154 144.745L16.5154 144.745L16.5153 144.745L16.5153 144.745L16.5153 144.745L16.5153 144.745L16.5153 144.745L16.5153 144.745L16.5153 144.745L16.5152 144.745L16.5152 144.745L16.5152 144.745L16.5152 144.745L16.5152 144.745L16.5152 144.745L16.5151 144.745L16.5151 144.745L16.5151 144.745L16.5151 144.745L16.5151 144.745L16.5151 144.745L16.515 144.745L16.515 144.745L16.515 144.745L16.515 144.745C8.95414 145.484 2.22433 139.952 1.48482 132.383L1.48464 132.381C1.47724 132.314 1.46967 132.246 1.46211 132.178C1.41575 131.764 1.36922 131.348 1.35834 130.918L1.35871 130.918L1.35772 130.908L0.313295 120.218C0.231855 119.385 0.90101 118.669 1.741 118.69L1.74163 118.69C7.93341 118.815 13.4696 123.322 14.7985 129.422L14.7986 129.423C14.9179 129.957 15.0048 130.502 15.0621 131.06L15.342 131.032C15.2876 130.475 15.27 129.923 15.2837 129.376L15.2837 129.375C15.4068 123.133 19.9654 117.634 26.0162 116.318L26.017 116.318C26.8371 116.135 27.6321 116.708 27.7135 117.541Z" fill="#71EEB8" stroke="#71EEB8" stroke-width="0.281327"/>
<path d="M74.3327 18.1321L41.6846 18.1321C42.1882 12.088 42.2465 -7.61957e-05 56.45 -7.37123e-05C70.6535 -7.12289e-05 74.2067 12.088 74.3327 18.1321Z" fill="url(#paint0_linear)"/>
<path d="M74.3327 18.1321L41.6846 18.1321C42.1882 12.088 42.2465 -7.61957e-05 56.45 -7.37123e-05C70.6535 -7.12289e-05 74.2067 12.088 74.3327 18.1321Z" fill="url(#paint1_linear)"/>
<path d="M158.991 210.412L200.921 21.9129C202.684 14.6096 201.45 0.00317383 182.411 0.00317383H125.371C125.371 0.00317383 68.5784 0.00104539 56.7968 0.000274534C56.7595 9.42689e-05 56.7221 2.64428e-06 56.6846 0C53.7872 0 54.1915 0.000104076 56.7968 0.000274534C70.1707 0.0648924 67.6822 11.5185 66.8189 18.1353C65.9532 24.7706 24.8883 203.234 24.8883 203.234C22.7477 211.671 23.3017 228.544 42.6427 228.544H155.123L170.701 216.833L158.991 210.412Z" fill="url(#paint2_linear)"/>
<path opacity="0.6" d="M172.185 46.0891H145.185M168.812 58.555H141.685M166.545 71.0208H136.185M163.901 83.4867H74.6846M160.879 95.9525H71.1837M158.235 108.796H68.3293M155.59 121.64H65.6851M152.946 133.728H63.0408M149.546 146.571H59.641M146.147 158.66H56.2412M143.125 171.881H53.2192M140.858 183.969H50.9527M138.544 196.766H71.3042M177.685 21.0342H142.858M174.685 33.5H145.185" stroke="white" stroke-width="2" stroke-linecap="round"/>
<ellipse cx="42.1846" cy="211.5" rx="18.5" ry="17.5" fill="url(#paint3_linear)"/>
<path d="M41.6846 228.51C41.8923 228.514 42.107 228.514 42.3279 228.51L153.877 228.51C173.823 228.51 178.809 216.17 178.809 210L60.1945 210C60.1945 224.602 48.6713 228.385 42.3279 228.51L41.6846 228.51Z" fill="url(#paint4_linear)"/>
<circle opacity="0.6" cx="107.185" cy="44.5" r="26.5" fill="url(#paint5_linear)" stroke="white" stroke-width="2"/>
<path d="M104.507 42.2159C104.11 42.0837 103.671 42.125 103.299 42.3317L89.8894 50.0864C89.8811 50.0864 89.8811 50.0947 89.8728 50.0947C89.1941 50.508 88.9789 51.2852 89.3348 52.0209C89.7818 52.9304 91.3545 53.7901 93.25 54.1622C93.8377 54.2779 94.5413 54.3606 95.3442 54.3606C96.8507 54.3606 98.7049 54.063 100.766 53.104C102.364 52.3599 103.878 50.7395 104.822 48.7636C105.815 46.6803 106.014 44.5887 105.36 43.0096C105.211 42.6376 104.896 42.3482 104.507 42.2159Z" fill="#7CE0D6"/>
<path d="M125.299 50.1028C125.291 50.1028 125.291 50.0945 125.283 50.0945L111.873 42.3398C111.509 42.1248 111.07 42.0835 110.665 42.224C110.276 42.3563 109.961 42.6457 109.812 43.0177C109.158 44.5967 109.357 46.6966 110.35 48.7717C111.294 50.7476 112.809 52.368 114.406 53.112C116.459 54.0711 118.313 54.3687 119.828 54.3687C120.631 54.3687 121.334 54.286 121.922 54.1703C123.818 53.8065 125.39 52.9467 125.837 52.029C126.193 51.2932 125.978 50.5244 125.299 50.1028Z" fill="#7CE0D6"/>
<path d="M106.295 35.6103C105.939 35.6103 105.649 35.321 105.649 34.9655C105.649 33.3699 104.35 32.0719 102.752 32.0719C102.396 32.0719 102.106 31.7826 102.106 31.4271C102.106 31.0716 102.396 30.7822 102.752 30.7822C105.062 30.7822 106.932 32.6589 106.932 34.9572C106.94 35.321 106.651 35.6103 106.295 35.6103Z" fill="#2C3437"/>
<path d="M108.96 35.6108C108.604 35.6108 108.314 35.3215 108.314 34.966C108.314 32.6677 110.193 30.791 112.503 30.791C112.859 30.791 113.148 31.0804 113.148 31.4359C113.148 31.7914 112.859 32.0807 112.503 32.0807C110.905 32.0807 109.606 33.3787 109.606 34.9743C109.597 35.3215 109.316 35.6108 108.96 35.6108Z" fill="#2C3437"/>
<path d="M113.91 53.228H113.844H112.561H102.62H101.337H101.138H100.054L106.353 56.8574C106.734 57.0806 107.164 57.1881 107.594 57.1881C108.025 57.1881 108.455 57.0806 108.836 56.8574L115.135 53.228H113.91Z" fill="#2C3437"/>
<path d="M115.856 45.217H115.219H99.9637H99.318H98.6807V49.3755H99.318H99.9637H115.219H115.856H116.502V45.217H115.856Z" fill="#2C3437"/>
<path d="M115.26 41.4474L115.103 41.3564H113.82H113.506H112.537H102.646H101.785H101.363H100.08L99.9223 41.4474C99.1608 41.8856 98.6807 42.7123 98.6807 43.5886V45.2173H99.3263H99.9719H115.227H115.873H116.519V43.5886C116.502 42.7123 116.022 41.8938 115.26 41.4474Z" fill="#FFDD0F"/>
<path d="M115.856 49.3755H115.21H99.9632H99.3175H98.6719V51.0124C98.6719 51.8887 99.1437 52.7154 99.9135 53.1536L100.046 53.228H101.13H101.329H102.612H112.553H113.836H113.902H115.119L115.26 53.1453C116.021 52.6989 116.493 51.8804 116.493 51.0041V49.3672H115.856V49.3755Z" fill="#FFDD0F"/>
<path d="M108.828 37.7435C108.059 37.2971 107.115 37.2971 106.353 37.7435L100.079 41.3646H101.362H101.784H102.645H112.545H113.505H113.828H115.111L108.828 37.7435Z" fill="#2C3437"/>
<g clip-path="url(#clip0)">
<path d="M181.81 185.957L173.626 183.308L170.978 191.492C175.495 192.957 180.346 190.485 181.81 185.957Z" fill="#AAF5D4"/>
<path d="M173.679 183.297L168.579 176.37L161.642 181.469C164.467 185.302 169.847 186.112 173.679 183.297Z" fill="#AAF5D4"/>
<path d="M168.527 176.36L168.6 167.75L160 167.677C159.959 172.434 163.781 176.318 168.527 176.36Z" fill="#AAF5D4"/>
<path d="M168.611 167.729L173.711 160.791L166.763 155.691C163.948 159.524 164.779 164.914 168.611 167.729Z" fill="#AAF5D4"/>
<path d="M173.688 160.843L181.872 158.184L179.224 150C174.696 151.464 172.224 156.325 173.688 160.843Z" fill="#AAF5D4"/>
<path d="M181.904 158.142L190.047 160.926L192.83 152.783C188.323 151.246 183.441 153.645 181.904 158.142Z" fill="#AAF5D4"/>
<path d="M190.058 160.843L195.064 167.843L202.064 162.837C199.301 158.973 193.921 158.08 190.058 160.843Z" fill="#AAF5D4"/>
<path d="M195.011 167.822L194.99 176.432L203.6 176.453C203.611 171.696 199.768 167.833 195.011 167.822Z" fill="#AAF5D4"/>
<path d="M195.021 176.464L189.839 183.339L196.714 188.522C199.581 184.71 198.823 179.32 195.021 176.464Z" fill="#AAF5D4"/>
<path d="M189.933 183.401L181.707 185.946L184.252 194.172C188.79 192.759 191.335 187.94 189.933 183.401Z" fill="#AAF5D4"/>
<path d="M195.739 172.091H181.812V186.019H181.822C189.508 186.019 195.739 179.777 195.739 172.091Z" fill="#AAF5D4"/>
<path d="M167.894 172.091H181.821V186.019H181.811C174.125 186.019 167.894 179.777 167.894 172.091Z" fill="#AAF5D4"/>
<path d="M167.894 172.101H181.821V158.174H181.811C174.125 158.174 167.894 164.405 167.894 172.101Z" fill="#AAF5D4"/>
<path d="M195.739 172.101H181.812V158.174H181.822C189.508 158.174 195.739 164.405 195.739 172.101Z" fill="#AAF5D4"/>
<path d="M191.014 159.553L181.812 172.091" stroke="white" stroke-width="0.538946" stroke-miterlimit="10"/>
<path d="M196.623 167.333L181.812 172.091" stroke="white" stroke-width="0.538946" stroke-miterlimit="10"/>
<path d="M196.589 176.927L181.812 172.091" stroke="white" stroke-width="0.538946" stroke-miterlimit="10"/>
<path d="M190.947 184.674L181.812 172.091" stroke="white" stroke-width="0.538946" stroke-miterlimit="10"/>
<path d="M181.823 187.641L181.812 172.091" stroke="white" stroke-width="0.538946" stroke-miterlimit="10"/>
<path d="M172.697 184.685L181.81 172.091" stroke="white" stroke-width="0.538946" stroke-miterlimit="10"/>
<path d="M167.032 176.939L181.81 172.091" stroke="white" stroke-width="0.538946" stroke-miterlimit="10"/>
<path d="M167 167.355L181.811 172.091" stroke="white" stroke-width="0.538946" stroke-miterlimit="10"/>
<path d="M172.598 159.564L181.811 172.091" stroke="white" stroke-width="0.538946" stroke-miterlimit="10"/>
<path d="M181.699 156.541L181.811 172.091" stroke="white" stroke-width="0.538946" stroke-miterlimit="10"/>
</g>
<g clip-path="url(#clip1)">
<path d="M29.4269 89.4865L24.7639 87.9775L23.2549 92.6406C25.829 93.4749 28.5925 92.0666 29.4269 89.4865Z" fill="#AAF5D4"/>
<path d="M24.794 87.9714L21.8885 84.0244L17.9355 86.9299C19.5451 89.1135 22.6104 89.5751 24.794 87.9714Z" fill="#AAF5D4"/>
<path d="M21.8585 84.0186L21.8999 79.113L17.0002 79.0715C16.9765 81.7818 19.1542 83.9949 21.8585 84.0186Z" fill="#AAF5D4"/>
<path d="M21.9065 79.1011L24.8121 75.1482L20.8532 72.2427C19.2496 74.4262 19.723 77.4975 21.9065 79.1011Z" fill="#AAF5D4"/>
<path d="M24.7988 75.1779L29.4618 73.663L27.9529 69C25.3728 69.8344 23.9644 72.6038 24.7988 75.1779Z" fill="#AAF5D4"/>
<path d="M29.4805 73.6391L34.1198 75.225L35.7057 70.5857C33.1375 69.7099 30.3563 71.0768 29.4805 73.6391Z" fill="#AAF5D4"/>
<path d="M34.126 75.1778L36.9782 79.1662L40.9667 76.314C39.3926 74.1127 36.3273 73.6038 34.126 75.1778Z" fill="#AAF5D4"/>
<path d="M36.9474 79.1543L36.9355 84.0599L41.8412 84.0718C41.8471 81.3615 39.6576 79.1602 36.9474 79.1543Z" fill="#AAF5D4"/>
<path d="M36.9538 84.0779L34.001 87.9953L37.9184 90.9481C39.5516 88.7764 39.1197 85.7052 36.9538 84.0779Z" fill="#AAF5D4"/>
<path d="M34.0549 88.0308L29.3682 89.4806L30.818 94.1673C33.4039 93.3625 34.8537 90.6167 34.0549 88.0308Z" fill="#AAF5D4"/>
<path d="M37.3632 81.5867H29.4277V89.5221H29.4337C33.8126 89.5221 37.3632 85.9657 37.3632 81.5867Z" fill="#AAF5D4"/>
<path d="M21.4971 81.5867H29.4325V89.5221H29.4266C25.0476 89.5221 21.4971 85.9657 21.4971 81.5867Z" fill="#AAF5D4"/>
<path d="M21.4971 81.5924H29.4325V73.657H29.4266C25.0476 73.657 21.4971 77.2075 21.4971 81.5924Z" fill="#AAF5D4"/>
<path d="M37.3632 81.5924H29.4277V73.657H29.4337C33.8126 73.657 37.3632 77.2075 37.3632 81.5924Z" fill="#AAF5D4"/>
<path d="M34.6708 74.4429L29.4277 81.5868" stroke="white" stroke-width="0.30707" stroke-miterlimit="10"/>
<path d="M37.8665 78.8757L29.4277 81.5866" stroke="white" stroke-width="0.30707" stroke-miterlimit="10"/>
<path d="M37.8473 84.3422L29.4277 81.5867" stroke="white" stroke-width="0.30707" stroke-miterlimit="10"/>
<path d="M34.6326 88.7561L29.4277 81.5867" stroke="white" stroke-width="0.30707" stroke-miterlimit="10"/>
<path d="M29.4341 90.4464L29.4277 81.5867" stroke="white" stroke-width="0.30707" stroke-miterlimit="10"/>
<path d="M24.2344 88.7625L29.4265 81.5867" stroke="white" stroke-width="0.30707" stroke-miterlimit="10"/>
<path d="M21.0068 84.3485L29.4264 81.5867" stroke="white" stroke-width="0.30707" stroke-miterlimit="10"/>
<path d="M20.9883 78.8884L29.427 81.5865" stroke="white" stroke-width="0.30707" stroke-miterlimit="10"/>
<path d="M24.1777 74.4492L29.4272 81.5867" stroke="white" stroke-width="0.30707" stroke-miterlimit="10"/>
<path d="M29.3633 72.7266L29.4271 81.5863" stroke="white" stroke-width="0.30707" stroke-miterlimit="10"/>
</g>
<defs>
<linearGradient id="paint0_linear" x1="70.0048" y1="213.831" x2="20.3303" y2="25.0026" gradientUnits="userSpaceOnUse">
<stop stop-color="#7CE0D6"/>
<stop offset="1" stop-color="#6ECBC2"/>
</linearGradient>
<linearGradient id="paint1_linear" x1="57.1846" y1="11" x2="74.9905" y2="-0.600288" gradientUnits="userSpaceOnUse">
<stop stop-color="#7CE0D6" stop-opacity="0"/>
<stop offset="1" stop-color="#5DC5BA"/>
</linearGradient>
<linearGradient id="paint2_linear" x1="162.565" y1="14.7157" x2="205.235" y2="207.147" gradientUnits="userSpaceOnUse">
<stop stop-color="#A8EAE4"/>
<stop offset="1" stop-color="#8DE4DB"/>
</linearGradient>
<linearGradient id="paint3_linear" x1="83.6846" y1="244.5" x2="52.6846" y2="212" gradientUnits="userSpaceOnUse">
<stop stop-color="#6ECBC2"/>
<stop offset="1" stop-color="#6ECBC2" stop-opacity="0"/>
</linearGradient>
<linearGradient id="paint4_linear" x1="62.0391" y1="213.8" x2="12.3646" y2="24.9721" gradientUnits="userSpaceOnUse">
<stop stop-color="#CBF3EF"/>
<stop offset="1" stop-color="#7CE0D6"/>
</linearGradient>
<linearGradient id="paint5_linear" x1="79.1846" y1="80.5" x2="130.685" y2="29.5" gradientUnits="userSpaceOnUse">
<stop stop-color="white"/>
<stop offset="1" stop-color="white" stop-opacity="0"/>
</linearGradient>
<clipPath id="clip0">
<rect width="43.6006" height="44.1614" fill="white" transform="translate(160 150)"/>
</clipPath>
<clipPath id="clip1">
<rect width="24.8418" height="25.1614" fill="white" transform="translate(17 69)"/>
</clipPath>
</defs>
</svg>
