<svg width="25" height="24" fill="none" xmlns="http://www.w3.org/2000/svg"><rect x=".091" width="24" height="24" rx="4" fill="url(#paint0_linear)"/><ellipse cx="12.091" cy="9.342" rx="6.255" ry="2.741" fill="#F4FFFB"/><path fill-rule="evenodd" clip-rule="evenodd" d="M18.087 11.3c-.768 1.132-3.162 1.957-5.996 1.957-2.833 0-5.227-.825-5.996-1.957-.168.248-.259.51-.259.783 0 1.513 2.8 2.74 6.255 2.74s6.255-1.227 6.255-2.74c0-.273-.09-.535-.259-.783z" fill="#DDFEF0"/><path fill-rule="evenodd" clip-rule="evenodd" d="M18.087 13.875c-.768 1.133-3.162 1.958-5.996 1.958-2.833 0-5.227-.825-5.996-1.958-.168.248-.259.511-.259.783 0 1.514 2.8 2.741 6.255 2.741s6.255-1.227 6.255-2.74c0-.273-.09-.536-.259-.784z" fill="#DDFEF0"/><defs><linearGradient id="paint0_linear" x1="24.091" y1="0" x2="-.507" y2=".63" gradientUnits="userSpaceOnUse"><stop stop-color="#AAF5D4"/><stop offset="1" stop-color="#7CE0D6"/></linearGradient></defs></svg>