<svg width="48" height="48" fill="none" xmlns="http://www.w3.org/2000/svg"><circle cx="24" cy="24" r="24" fill="url(#a)"/><path fill-rule="evenodd" clip-rule="evenodd" d="M17.454 22.91A1.09 1.09 0 0 1 18.545 24c0 2.012.891 3.294 2.015 4.129 1.167.868 2.597 1.252 3.53 1.33a1.09 1.09 0 0 1 0 2.174c-.933.077-2.363.461-3.53 1.329-1.124.835-2.015 2.117-2.015 4.129a1.09 1.09 0 1 1-2.181 0c0-2.012-.891-3.294-2.015-4.13-1.167-.867-2.597-1.25-3.53-1.328a1.09 1.09 0 0 1 0-2.175c.933-.077 2.363-.461 3.53-1.329 1.124-.835 2.015-2.117 2.015-4.129 0-.602.488-1.09 1.09-1.09zm0 5.047a7.226 7.226 0 0 1-1.803 1.923 8.51 8.51 0 0 1-1.051.666c.357.191.71.412 1.05.665a7.226 7.226 0 0 1 1.804 1.923 7.225 7.225 0 0 1 1.804-1.923 8.49 8.49 0 0 1 1.051-.665 8.504 8.504 0 0 1-1.05-.666 7.225 7.225 0 0 1-1.805-1.923zm12-20.321c.603 0 1.091.489 1.091 1.091 0 3.212 1.437 5.29 3.242 6.632 1.85 1.374 4.097 1.976 5.576 2.1a1.09 1.09 0 0 1 0 2.174c-1.479.123-3.727.725-5.576 2.1-1.805 1.341-3.242 3.42-3.242 6.63a1.091 1.091 0 1 1-2.181 0c0-3.21-1.437-5.289-3.242-6.63-1.85-1.375-4.097-1.977-5.576-2.1a1.09 1.09 0 0 1 0-2.175c1.479-.123 3.727-.725 5.576-2.1 1.805-1.341 3.242-3.42 3.242-6.63 0-.603.488-1.092 1.09-1.092zm0 5.924c-.751 1.488-1.829 2.656-3.03 3.55-.8.594-1.654 1.067-2.502 1.436.848.368 1.701.84 2.502 1.435 1.201.894 2.279 2.062 3.03 3.55.752-1.488 1.83-2.656 3.032-3.55.8-.594 1.653-1.067 2.501-1.436a12.637 12.637 0 0 1-2.502-1.435c-1.201-.894-2.279-2.062-3.03-3.55z" fill="#fff"/><defs><linearGradient id="a" x1="48" y1="0" x2="-1.197" y2="1.259" gradientUnits="userSpaceOnUse"><stop stop-color="#AAF5D4"/><stop offset="1" stop-color="#7CE0D6"/></linearGradient></defs></svg>