<?xml version="1.0" encoding="UTF-8"?>
<svg width="40px" height="40px" viewBox="0 0 40 40" version="1.1" xmlns="http://www.w3.org/2000/svg" xmlns:xlink="http://www.w3.org/1999/xlink">
    <title>Icons/Tokens/xDai</title>
    <g id="Icons/Tokens/xDai" stroke="none" stroke-width="1" fill="none" fill-rule="evenodd">
        <g id="Group">
            <circle id="Oval" fill="#62A7A5" cx="20" cy="20" r="20"></circle>
            <path d="M18,8 L8,8 L8,13 L18,13 L18,8 Z M32,8 L22,8 L22,13 L32,13 L32,8 Z M22,27 L27,27 L27,22 L32,22 L32,27 L32,32 L27,32 L22,32 L22,27 Z M18,27 L13,27 L13,22 L8,22 L8,27 L8,32 L13,32 L18,32 L18,27 Z" id="Shape" fill="#FFFFFF"></path>
        </g>
    </g>
</svg>