<svg width="1307" height="350" fill="none" xmlns="http://www.w3.org/2000/svg"><g clip-path="url(#a)"><path d="M22.6 328.37c-8.27 69.25-9.2 133.18-9.22 157.45h4.2c0-24.19.94-87.92 9.18-157 7.48-62.63 18.76-108.65 32.63-133.08l-3.64-2.07c-9.86 17.42-23.62 54.89-33.15 134.7z" fill="#0D423B"/><path d="M62.79 122.05c-13.51 28.18-.38 62.57-.38 62.57s35-11.3 48.55-39.47c11.725-24.377 3.442-53.419.999-60.798a1.812 1.812 0 0 0-2.388-1.143c-7.277 2.722-35.074 14.466-46.781 38.841z" fill="#889C30" stroke="#0D423B" stroke-width="1.75" stroke-miterlimit="10"/><path d="M26.57 78.685a1.812 1.812 0 0 0-2.497.88c-3.224 7.07-14.586 35.035-5.613 60.544 10.37 29.48 44 44.51 44 44.51s16.79-32.76 6.42-62.24c-8.974-25.51-35.365-40.2-42.31-43.694z" fill="#889C30" stroke="#0D423B" stroke-width="1.75" stroke-miterlimit="10"/><path d="M106.94 140.641c-29.47 10.38-44.51 44-44.51 44s32.76 16.78 62.24 6.41c25.509-8.974 40.199-35.364 43.693-42.309a1.813 1.813 0 0 0-.879-2.498c-7.072-3.222-35.036-14.576-60.544-5.603z" fill="#889C30" stroke="#0D423B" stroke-width="1.75" stroke-miterlimit="10"/><path d="M22.96 136.07a58.396 58.396 0 0 0-6.37-2.57 55.323 55.323 0 0 0 1.87 6.61c9.12 25.92 36.2 40.67 42.6 43.85.89.41 1.37.66 1.37.66s-.19-.5-.49-1.41c-2.44-6.65-14.15-35.21-38.98-47.14z" fill="#048333" stroke="#0D423B" stroke-width="1.75" stroke-miterlimit="10"/><path d="M66.17 116.051a58.128 58.128 0 0 0-3.36 6c-11.9 24.82-3.13 54.44-.87 61.16.33.9.49 1.41.49 1.41s.23-.5.66-1.38c3-6.49 14.88-34.94 5.76-60.86a55.663 55.663 0 0 0-2.68-6.33z" fill="#048333" stroke="#0D423B" stroke-width="1.75" stroke-miterlimit="10"/><path d="M62.43 184.621s-.16-.51-.49-1.41c.3.91.49 1.41.49 1.41zM62.93 186c-.3-.91-.5-1.41-.5-1.41s.17.54.5 1.41z" fill="#ADD57F" stroke="#0D2622" stroke-width="1.75" stroke-miterlimit="10"/><path d="M63.84 184.12c-.89.33-1.41.5-1.41.5s.5.22 1.38.65c6.49 3 34.94 14.88 60.86 5.76a57.213 57.213 0 0 0 6.33-2.67 57.48 57.48 0 0 0-6-3.37c-24.82-11.89-54.44-3.13-61.16-.87z" fill="#048333" stroke="#0D423B" stroke-width="1.75" stroke-miterlimit="10"/><path d="M63.09 183.24c-.41.9-.66 1.38-.66 1.38l1.41-.5c6.65-2.44 35.24-14.16 47.14-39a56.667 56.667 0 0 0 2.57-6.38 57.366 57.366 0 0 0-6.61 1.87c-25.92 9.15-40.67 36.23-43.85 42.63z" fill="#048333" stroke="#164924" stroke-width="1.75" stroke-miterlimit="10"/><path d="m63.84 184.119-1.41.5s.52-.17 1.41-.5z" fill="#ADD57F" stroke="#0D2622" stroke-width="1.75" stroke-miterlimit="10"/><path d="M63.09 183.24c-.43.88-.66 1.38-.66 1.38s.25-.48.66-1.38zM63.79 185.269c-.88-.43-1.38-.65-1.38-.65l1.38.65z" fill="#ADD57F" stroke="#0D2622" stroke-width="1.75" stroke-miterlimit="10"/><path d="M62.43 184.619s-.51.16-1.41.49c.91-.3 1.41-.49 1.41-.49z" fill="#ADD57F" stroke="#0D2622" stroke-width="1.75" stroke-miterlimit="10"/><path d="M62.43 184.621s-.48-.25-1.37-.66c.88.44 1.37.66 1.37.66z" fill="#ADD57F" stroke="#0D2622" stroke-width="1.75" stroke-miterlimit="10"/><path d="M62.43 184.619s-.24.48-.65 1.37c.43-.88.65-1.37.65-1.37z" fill="#ADD57F" stroke="#0D2622" stroke-width="1.75" stroke-miterlimit="10"/><path d="M67.3 174.48a11.247 11.247 0 0 0-15 5.27 11.258 11.258 0 0 0 5.28 15 11.252 11.252 0 0 0 15-5.28 11.236 11.236 0 0 0 .468-8.59 11.227 11.227 0 0 0-5.748-6.4z" fill="#048333" stroke="#0D423B" stroke-width="1.75" stroke-miterlimit="10"/><path d="M270.748 120.32c-5.268 2.63-17.276 8.818-32.415 18.001a1.994 1.994 0 0 0-.194 3.273l9.949 7.806-14.471-6.18a3.976 3.976 0 0 0-3.686.289 439.788 439.788 0 0 0-41.533 29.688 1.99 1.99 0 0 0 .024 3.116L214.748 197l-33.959-14.492a3.961 3.961 0 0 0-4.171.656 260.372 260.372 0 0 0-29.883 30.939c-1.402 1.714-1.102 4.24.639 5.608l28.844 22.679-35.421-15.114c-1.741-.744-3.77-.167-4.82 1.409a146.335 146.335 0 0 0-12.509 23.025 118.917 118.917 0 0 0-5.209 14.833c-.424 1.526.133 3.148 1.378 4.126l26.231 20.601-27.888-11.915c-1.196-.511-2.553.236-2.735 1.523a126.625 126.625 0 0 0 3.023 50.312l26.55 20.85h116.53c2.414-2.667 4.727-5.5 6.94-8.5l-30.24-12.91 35.57 5a119.452 119.452 0 0 0 8.43-16.26 146.642 146.642 0 0 0 8.58-28.16l-38.44-16.42 40.3 5.73a262.077 262.077 0 0 0 2-49.5l-36.25-15.48 35.59 5.06a441.773 441.773 0 0 0-8-55.11l-16.39-7 15.36 2.18c-3.592-16.466-8.41-31.52-10.779-38.931a2.37 2.37 0 0 0-3.271-1.419zM990.126 159.16c5.268 2.629 17.274 8.818 32.414 18.001a1.997 1.997 0 0 1 .2 3.272l-9.95 7.807 14.47-6.181a3.969 3.969 0 0 1 3.68.289 439.948 439.948 0 0 1 41.54 29.689c.99.804.98 2.325-.03 3.116l-26.32 20.687 33.95-14.492a3.975 3.975 0 0 1 4.18.656 260.969 260.969 0 0 1 29.88 30.938c1.4 1.715 1.1 4.24-.64 5.609l-28.84 22.679 35.42-15.115c1.74-.743 3.77-.166 4.82 1.41a146.705 146.705 0 0 1 12.51 23.025c2.06 4.825 3.8 9.78 5.2 14.833.43 1.525-.13 3.148-1.37 4.126l-26.23 20.601 27.88-11.915c1.2-.511 2.56.236 2.74 1.523a126.697 126.697 0 0 1-3.02 50.312l-26.55 20.85H999.526a109.637 109.637 0 0 1-6.94-8.5l30.244-12.91-35.574 5a119.452 119.452 0 0 1-8.43-16.26 146.642 146.642 0 0 1-8.58-28.16l38.444-16.42-40.304 5.73a262.077 262.077 0 0 1-2-49.5l29.279-12.503c1.076-.46.624-2.075-.533-1.91l-28.086 3.993a441.773 441.773 0 0 1 8-55.11l16.39-7-15.36 2.18c3.592-16.466 8.41-31.52 10.779-38.931a2.37 2.37 0 0 1 3.271-1.419zM21.61 260.001c-1.837 4.32-5.157 11.547-9.003 22.963a.997.997 0 0 0 .981 1.314l9.692-.357-10.728 3.31a2.982 2.982 0 0 0-1.967 1.947 317.585 317.585 0 0 0-9.131 36.013.998.998 0 0 0 1.017 1.184L27 325.471l-25.803 7.96a1.99 1.99 0 0 0-1.384 1.609A206.212 206.212 0 0 0-2 351.991h119.07c-1.44-3.4-3.063-6.733-4.87-10l-28.66 8.83 24.74-15.55a187.534 187.534 0 0 0-21.8-28.06l-27 8.33 21.86-13.73a316.073 316.073 0 0 0-28.638-25.534 2.985 2.985 0 0 0-2.727-.505l-10.725 3.309 8.215-5.166a.997.997 0 0 0 .075-1.637c-8.492-6.466-17.21-12.455-21.996-15.608-1.035-.682-2.424-.247-2.905.894l-1.029 2.437z" fill="#0D423B"/><path d="M203.79 250.54c5.44 28.09 19 64.28 35.54 101.46h117.81c2.67-48.86 2.61-97.13-3.85-130.5-11.03-56.942-79.892-83.576-92.701-88.068a3.718 3.718 0 0 0-3.691.716c-10.206 8.958-64.175 59.447-53.108 116.392zM395.874 289.092c-8.263 15.85-15.774 38.475-22.294 62.918h101.332a179.884 179.884 0 0 0 9.818-16.331C504.261 298.339 472.381 251 472.381 251s-56.991.744-76.507 38.092zM59.34 351.999h152.88c-13-15.7-25.72-29.38-37.43-39.38-39.654-33.825-103.6-12.436-112.387-9.265-.653.235-1.09.791-1.212 1.474a173.735 173.735 0 0 0-1.851 47.171z" fill="#1B714F"/><path d="M277.19 352.001h7.16l-62.64-42.36c.83 2.17 1.68 4.36 2.54 6.55l52.94 35.81zM271.79 211.85l-51.22-34.64c-.7 1.13-1.38 2.28-2.06 3.45l54.36 36.76 13.58 70.17-84.05-56.85c-.08 1.58-.12 3.17-.11 4.77l85.24 57.65L298.92 352H303l-11.54-59.61L348.99 207c-.59-1.49-1.21-3-1.88-4.39l-56.75 84.2-13.57-70.16 36.7-54.45c-1.06-.83-2.13-1.63-3.2-2.43l-34.58 51.31-15-77.6-.148-.052a3.704 3.704 0 0 0-3.679.714l-.113.098 15.02 77.61zM316.98 352.001l41.74-61.94c0-2.36-.03-4.694-.09-7l-46.48 69 4.83-.06zM115.68 347.399l-52.12-44.46c-.455.159-.842.298-1.16.413a1.892 1.892 0 0 0-1.216 1.437c-.061.33-.133.735-.214 1.21l52.11 44.46-19.2 1.54h27.19l-1.08-.92-4.58-57.3c-1.35 0-2.68.05-4 .1l4.27 53.52zM167.97 352l-3.75-46.84a70.72 70.72 0 0 0-4.2-2.25l3.93 49.09h4.02zM385.756 352.01h3.148l-7.933-25.412a321.852 321.852 0 0 0-1.577 5.04l6.362 20.372zM446.804 296.694l-12.019-38.49c-.939.338-1.885.683-2.824 1.059l12.867 41.209-21.551 41.239-19.838-63.541a61.895 61.895 0 0 0-2.299 2.749l20.169 64.601-3.41 6.52h3.395l2.674-5.123 64.466-20.199c.353-1.142.668-2.299.946-3.455l-63.436 19.883 21.551-41.247 41.142-12.89a75.204 75.204 0 0 0-.752-2.929l-38.429 12.018 23.842-45.641c-.586-.946-.932-1.457-.932-1.457s-.616 0-1.728.06l-23.834 45.634z" fill="#469766"/><path d="M539.93 317.308c-5.79-2.888-12.572-1.646-15.264-.963a1.088 1.088 0 0 0-.745 1.492c1.072 2.561 4.152 8.727 9.938 11.62 7.408 3.704 16.452.625 16.452.625s-2.96-9.07-10.381-12.774z" fill="#0D423B"/><path d="M551.417 301h-2.124v110.175h2.124V301z" fill="#0D423B"/><path d="M556.476 217.095a6.344 6.344 0 0 0-6.208 2.498 6.336 6.336 0 0 0-2.748-2.134 6.337 6.337 0 0 0-7.563 2.246 6.342 6.342 0 0 0-1.051 4.747l4.91 27.846h12.904l4.91-27.846a6.36 6.36 0 0 0-1.051-4.747 6.344 6.344 0 0 0-4.103-2.61zM556.72 268.213h-12.905l-4.909 27.845a6.358 6.358 0 0 0 5.153 7.365 6.362 6.362 0 0 0 6.209-2.499 6.36 6.36 0 0 0 6.208 2.499 6.37 6.37 0 0 0 4.103-2.614 6.345 6.345 0 0 0 1.05-4.751l-4.909-27.845zM507.095 254.059a6.346 6.346 0 0 0 2.498 6.209 6.336 6.336 0 0 0-2.134 2.748 6.337 6.337 0 0 0 2.25 7.564 6.355 6.355 0 0 0 4.75 1.05l27.845-4.91v-12.91l-27.845-4.91a6.359 6.359 0 0 0-7.364 5.159zM593.441 254.059a6.36 6.36 0 0 0-7.364-5.159l-27.845 4.91v12.91l27.845 4.91a6.346 6.346 0 0 0 4.75-1.05 6.35 6.35 0 0 0 2.614-4.103 6.346 6.346 0 0 0-2.499-6.209 6.356 6.356 0 0 0 2.499-6.209z" fill="#889C30"/><path d="M524.128 225.346a6.373 6.373 0 0 0-2.642 6.14 6.348 6.348 0 0 0-6.134 2.643 6.334 6.334 0 0 0-1.056 4.749 6.341 6.341 0 0 0 2.618 4.101l23.16 16.24 9.151-9.119-16.24-23.161a6.369 6.369 0 0 0-8.857-1.593zM583.628 277.582l-23.16-16.239-9.132 9.125 16.24 23.161a6.343 6.343 0 0 0 4.101 2.615 6.362 6.362 0 0 0 7.392-7.194 6.34 6.34 0 0 0 6.139-2.642 6.359 6.359 0 0 0-1.58-8.826zM516.914 277.582a6.34 6.34 0 0 0-2.563 6.582 6.334 6.334 0 0 0 1.001 2.269 6.322 6.322 0 0 0 6.134 2.642 6.359 6.359 0 0 0 11.499 4.579l16.24-23.161-9.151-9.15-23.16 16.239zM579.05 231.486a6.38 6.38 0 0 0-.451-3.444 6.388 6.388 0 0 0-2.191-2.696 6.36 6.36 0 0 0-8.851 1.562l-16.24 23.161 9.132 9.131 23.16-16.239a6.356 6.356 0 0 0 1.562-8.851 6.377 6.377 0 0 0-6.121-2.624z" fill="#889C30"/><path d="M550.268 226.895a1.015 1.015 0 0 0-1.006 1.012v64.722c0 .267.106.523.295.711a1.003 1.003 0 0 0 1.422 0c.189-.188.294-.444.294-.711v-64.722a1.01 1.01 0 0 0-1.005-1.012z" fill="#1B714F"/><path d="M582.629 259.256h-64.722a1.013 1.013 0 0 0-1.006 1.012c0 .267.106.523.295.711.188.189.444.295.711.295h64.722a1.004 1.004 0 0 0 1.006-1.006 1.01 1.01 0 0 0-1.006-1.012z" fill="#1B714F"/><path d="M528.1 236.67a1.01 1.01 0 0 0-1.649 1.098c.051.122.125.233.219.326l45.765 45.765a1.01 1.01 0 0 0 .718.3.984.984 0 0 0 .386-.079.98.98 0 0 0 .326-.221 1.001 1.001 0 0 0 0-1.424L528.1 236.67z" fill="#1B714F"/><path d="m572.435 236.67-45.765 45.765a1.016 1.016 0 0 0-.296.712 1 1 0 0 0 .296.712.999.999 0 0 0 1.43 0l45.765-45.765a1.001 1.001 0 0 0 0-1.424 1.009 1.009 0 0 0-1.43 0z" fill="#1B714F"/><path d="M565.487 266.571c3.482-8.404-.509-18.039-8.914-21.52-8.404-3.481-18.039.509-21.52 8.914-3.481 8.404.51 18.039 8.914 21.52 8.404 3.481 18.039-.51 21.52-8.914z" fill="#115A50"/><path d="M556.242 266.242a8.451 8.451 0 1 0-11.952-11.951 8.451 8.451 0 0 0 11.952 11.951z" fill="#469766"/><path d="M1247.46 270.62c1.91 4.49 5.42 12.12 9.46 24.33l-11.13-.41 10.73 3.31a3.005 3.005 0 0 1 1.97 1.947 318.776 318.776 0 0 1 9.13 36.013 1 1 0 0 1-1.02 1.184l-24.53-.904 25.8 7.961c.74.226 1.27.85 1.39 1.608.82 5.599 1.45 11.27 1.81 16.951H1152c1.44-3.4 3.06-6.733 4.87-10l28.66 8.83-24.74-15.55a187.285 187.285 0 0 1 21.8-28.06l27 8.33-21.86-13.73a316.972 316.972 0 0 1 29.87-26.5l12.22 3.77-9.43-5.93c9.47-7.275 19.45-14.085 24.13-17.13a.987.987 0 0 1 1.45.452l1.49 3.528z" fill="#115A50"/><path d="M1146.2 257.877c-6.46-54.044-7.18-103.936-7.2-122.877h3.28c0 18.879.73 68.615 7.16 122.526 5.84 48.878 14.64 84.793 25.47 103.859l-2.84 1.615c-7.7-13.595-18.44-42.837-25.87-105.123z" fill="#0D423B"/><path d="M1197 115.418c0 3.95-1.19 7.807-3.41 11.071a19.701 19.701 0 0 1-9.06 7.23 19.331 19.331 0 0 0-4.07-5.956 19.458 19.458 0 0 0-9.66-5.29l-28.28-6.976 28.25-7.006a19.533 19.533 0 0 0 10.02-5.637 19.385 19.385 0 0 0 3.73-5.63 19.598 19.598 0 0 1 9.05 7.172 19.621 19.621 0 0 1 3.43 11.022z" fill="#889C30"/><path d="M1180.37 75.5a19.71 19.71 0 0 1 5.42 10.237 19.75 19.75 0 0 1-1.29 11.509 19.674 19.674 0 0 0-7.09-1.326 19.49 19.49 0 0 0-9.63 2.538c-.31.185-.62.37-.93.568l-24.94 15.06 15.06-24.923a19.554 19.554 0 0 0 3.1-11.075 19.466 19.466 0 0 0-1.34-6.616 19.56 19.56 0 0 1 21.64 4.028zM1184.5 133.719a19.569 19.569 0 0 1 1.33 11.452 19.576 19.576 0 0 1-5.36 10.209 19.635 19.635 0 0 1-10.24 5.439c-3.88.743-7.89.298-11.52-1.277a19.564 19.564 0 0 0-1.2-16.719c-.18-.319-.37-.624-.56-.936l-15.06-24.93 24.92 15.046a19.427 19.427 0 0 0 11.07 3.106c2.27-.071 4.51-.542 6.62-1.39z" fill="#889C30"/><path d="M1184.5 97.246a19.592 19.592 0 0 1-3.73 5.63 19.55 19.55 0 0 1-10 5.615l-28.27 6.984-1.06-.269a1.26 1.26 0 0 0-.23 0c.05-.054.1-.116.14-.185l.56-.928 24.94-15.06c.31-.199.62-.383.93-.568a19.488 19.488 0 0 1 9.63-2.538c2.42-.001 4.83.446 7.09 1.319zM1180.42 127.763a19.548 19.548 0 0 1 4.08 5.956c-2.11.828-4.35 1.28-6.61 1.333-3.92.105-7.78-.977-11.07-3.105l-24.93-15.046-.56-.929c-.04-.067-.09-.13-.15-.192.08.011.16.011.24 0l1.05-.255 28.28 6.977c.36.078.71.163 1.06.263 3.26.893 6.22 2.615 8.61 4.998zM1160.04 78.088c.11 3.92-.97 7.78-3.09 11.076l-15.06 24.922-.93.56c-.06.047-.13.099-.19.156.01-.082.01-.165 0-.248l-.26-1.049 6.98-28.284c.08-.354.17-.709.27-1.056a19.286 19.286 0 0 1 5.02-8.6c1.71-1.718 3.73-3.1 5.95-4.078.82 2.106 1.27 4.34 1.31 6.601zM1157.52 142.781a19.458 19.458 0 0 1 2.53 9.629c0 2.44-.45 4.859-1.34 7.133a19.288 19.288 0 0 1-5.62-3.73 19.5 19.5 0 0 1-5.67-10.026l-6.99-28.276.26-1.05a.464.464 0 0 0 0-.234l.2.149.93.56 15.13 24.881c.2.312.39.617.56.936l.01.028z" fill="#CFD38F"/><path d="M1158.71 159.542a19.591 19.591 0 0 1-7.16 9.035 19.588 19.588 0 0 1-11.01 3.437 19.72 19.72 0 0 1-18.29-12.472 19.45 19.45 0 0 0 5.97-4.112 19.477 19.477 0 0 0 5.02-8.594c.09-.354.19-.709.26-1.056l6.98-28.291 6.99 28.277a19.502 19.502 0 0 0 5.67 10.025 19.278 19.278 0 0 0 5.57 3.751zM1158.71 71.472c-2.22.977-4.24 2.36-5.95 4.077a19.472 19.472 0 0 0-5.02 8.6c-.09.348-.18.71-.26 1.057l-6.98 28.284-6.98-28.27a19.566 19.566 0 0 0-5.67-10.025 19.332 19.332 0 0 0-5.63-3.73 19.61 19.61 0 0 1 7.17-9.036A19.556 19.556 0 0 1 1140.4 59a19.59 19.59 0 0 1 11.08 3.403 19.61 19.61 0 0 1 7.23 9.07z" fill="#889C30"/><path d="m1140.23 116.426.25 1.049-6.98 28.291c-.07.347-.16.709-.26 1.056a19.518 19.518 0 0 1-5.02 8.608 19.512 19.512 0 0 1-5.96 4.084 19.473 19.473 0 0 1-1.33-6.615c-.1-3.921.97-7.784 3.1-11.083l15.05-24.923.93-.56.19-.149c0 .082.01.163.03.242zM1133.51 85.235l6.97 28.27-.25 1.049c-.01.082-.01.166 0 .248-.06-.057-.13-.11-.19-.156l-.93-.56-15.06-24.937c-.2-.305-.39-.617-.56-.929a19.355 19.355 0 0 1-2.53-9.629c-.01-2.425.44-4.83 1.32-7.09 2.08.904 3.98 2.166 5.62 3.73a19.555 19.555 0 0 1 5.61 10.004zM1139.64 115.015c.04.068.09.13.15.184a1.374 1.374 0 0 0-.24 0l-1.06.269-28.27-6.977c-.36-.071-.71-.163-1.06-.255-3.25-.9-6.21-2.627-8.59-5.013a19.544 19.544 0 0 1-4.08-5.956c2.11-.828 4.35-1.28 6.61-1.333 3.92-.107 7.78.973 11.08 3.099l24.92 15.053.54.929z" fill="#CFD38F"/><path d="M1139.79 115.78c-.06.061-.11.125-.15.191l-.56.929-24.94 15.06a19.454 19.454 0 0 1-10.56 3.092c-2.42.002-4.83-.447-7.09-1.326.9-2.08 2.17-3.984 3.73-5.623 2.7-2.843 6.2-4.807 10.03-5.637l28.26-6.977 1.06.255c.07.021.15.033.22.036z" fill="#CFD38F"/><path d="m1124.02 89.148 15.06 24.937-24.92-15.053a19.468 19.468 0 0 0-11.08-3.098c-2.27.053-4.51.505-6.62 1.333a19.578 19.578 0 0 1 4.04-21.668 19.66 19.66 0 0 1 21.75-4.12 19.566 19.566 0 0 0 1.2 16.72c.19.332.37.644.57.95zM1139.08 116.9l-15.05 24.916a19.399 19.399 0 0 0-3.1 11.075c.05 2.266.5 4.505 1.32 6.616a19.554 19.554 0 0 1-21.68-4.028 19.706 19.706 0 0 1-5.42-10.237 19.75 19.75 0 0 1 1.29-11.509c2.26.879 4.67 1.328 7.09 1.326a19.453 19.453 0 0 0 10.56-3.091l24.99-15.068zM1110.22 108.491l28.27 6.991-28.26 6.977c-3.83.83-7.33 2.794-10.03 5.637a19.269 19.269 0 0 0-3.73 5.623 19.541 19.541 0 0 1-9.02-7.151 19.525 19.525 0 0 1-3.45-10.987 19.68 19.68 0 0 1 3.41-11.068 19.704 19.704 0 0 1 9.05-7.225c.99 2.222 2.37 4.241 4.09 5.956a19.466 19.466 0 0 0 8.59 5.02c.36.078.72.17 1.08.227z" fill="#889C30"/><path d="M1141.18 115.2a.762.762 0 0 0 .15-.185l.56-.929 15.06-24.922a19.468 19.468 0 0 0 3.09-11.076 19 19 0 0 0-1.34-6.615 19.609 19.609 0 0 0-7.21-9.053 19.642 19.642 0 0 0-11.07-3.405c-3.93.01-7.77 1.206-11.01 3.43a19.525 19.525 0 0 0-7.16 9.035 19.566 19.566 0 0 0 1.2 16.72c.18.311.36.623.56.928l15.06 24.937.56.929c.04.069.09.131.15.184M1139.79 115.78c-.06.061-.11.125-.15.191l-.56.929-15.05 24.916a19.399 19.399 0 0 0-3.1 11.075c.05 2.266.5 4.505 1.32 6.616a19.672 19.672 0 0 0 7.24 9.046 19.682 19.682 0 0 0 11.06 3.419 19.549 19.549 0 0 0 10.99-3.424 19.552 19.552 0 0 0 7.17-9.006 19.564 19.564 0 0 0-1.2-16.719c-.18-.319-.37-.624-.56-.936l-15.06-24.93-.56-.929c-.05-.066-.1-.13-.15-.191" stroke="#0D423B" stroke-width="1.241" stroke-linejoin="round"/><path d="m1140.77 116.191.19.149.93.561 24.93 15.045a19.42 19.42 0 0 0 11.07 3.106c2.27-.054 4.5-.505 6.61-1.333a19.673 19.673 0 0 0 9.07-7.222 19.644 19.644 0 0 0 3.43-11.078 19.571 19.571 0 0 0-12.46-18.173 19.727 19.727 0 0 0-7.1-1.326 19.45 19.45 0 0 0-9.62 2.538c-.32.185-.63.37-.93.568l-24.94 15.06-.93.56c-.07.046-.13.098-.19.156a.88.88 0 0 0-.22.324 1.01 1.01 0 0 0-.07.385M1140.48 115.49a.842.842 0 0 0-.07-.383 1.025 1.025 0 0 0-.4-.482l-.93-.56-24.92-15.053a19.467 19.467 0 0 0-11.08-3.099c-2.27.054-4.5.505-6.62 1.334a19.632 19.632 0 0 0-9.06 7.242 19.675 19.675 0 0 0-3.4 11.093 19.507 19.507 0 0 0 3.44 11.008 19.558 19.558 0 0 0 9.03 7.165c2.26.879 4.67 1.328 7.09 1.326 3.38.005 6.7-.868 9.63-2.531.31-.178.63-.369.93-.561l24.94-15.06.93-.56.19-.149" stroke="#0D423B" stroke-width="1.241" stroke-linejoin="round"/><path d="M1140.5 115.512c.18.174.43.271.68.269.07.01.15.01.23 0l1.06-.255 28.3-7.034a19.533 19.533 0 0 0 10.02-5.637 19.385 19.385 0 0 0 3.73-5.63 19.64 19.64 0 0 0-4.13-21.746 19.543 19.543 0 0 0-10.22-5.346 19.58 19.58 0 0 0-17.41 5.417 19.472 19.472 0 0 0-5.02 8.6c-.09.348-.18.71-.26 1.057l-6.98 28.284-.26 1.049c-.01.083-.01.166 0 .248 0 .248.09.486.26.667M1140.48 115.49a.984.984 0 0 0-.71-.27 1.26 1.26 0 0 0-.23 0l-1.06.27-28.27 6.977a19.504 19.504 0 0 0-10.02 5.637 19.067 19.067 0 0 0-3.73 5.622 19.644 19.644 0 0 0 4.11 21.754 19.557 19.557 0 0 0 21.68 4.062 19.45 19.45 0 0 0 5.97-4.112 19.472 19.472 0 0 0 5.02-8.594c.09-.354.19-.709.26-1.056l6.98-28.291.26-1.049a.916.916 0 0 0 0-.234.835.835 0 0 0-.06-.382 1.241 1.241 0 0 0-.2-.327" stroke="#0D423B" stroke-width="1.241" stroke-linejoin="round"/><path d="M1140.28 115.253c-.09.095-.16.206-.21.328a.989.989 0 0 0-.06.381.916.916 0 0 0 0 .234l.25 1.05 6.99 28.276a19.5 19.5 0 0 0 5.67 10.026 19.295 19.295 0 0 0 5.6 3.737 19.655 19.655 0 0 0 21.75-4.127 19.56 19.56 0 0 0 5.35-10.209 19.49 19.49 0 0 0-1.33-11.452 19.518 19.518 0 0 0-4.07-5.956 19.458 19.458 0 0 0-9.66-5.289l-28.28-6.977-1.05-.27a1.374 1.374 0 0 0-.24 0c-.25 0-.49.097-.67.27" stroke="#0D423B" stroke-width="1.241" stroke-linejoin="round"/><path d="M1096.46 97.268c.99 2.221 2.37 4.241 4.09 5.956a19.466 19.466 0 0 0 8.59 5.02c.35.092.71.184 1.07.255l28.27 6.991 1.06.256c.08.01.16.01.23 0 .25 0 .5-.096.68-.27.17-.18.26-.419.26-.666.01-.083.01-.166 0-.248l-.26-1.05-6.98-28.27a19.565 19.565 0 0 0-5.67-10.025 19.334 19.334 0 0 0-5.63-3.73 19.65 19.65 0 0 0-21.74 4.12 19.588 19.588 0 0 0-5.32 10.22c-.7 3.863-.23 7.85 1.35 11.441z" stroke="#0D423B" stroke-width="1.241" stroke-linejoin="round"/><path d="M1130.62 206.769c-8.71-5.612-19.72-4.811-24.13-4.191a1.743 1.743 0 0 0-1.44 2.245c1.26 4.265 5.09 14.623 13.8 20.235 11.14 7.184 26.07 3.858 26.07 3.858s-3.15-14.952-14.3-22.147zM1174.62 262.058c-8.71 5.612-19.72 4.811-24.13 4.191a1.743 1.743 0 0 1-1.44-2.245c1.26-4.265 5.09-14.623 13.8-20.235 11.14-7.184 26.07-3.858 26.07-3.858s-3.15 14.952-14.3 22.147z" fill="#0D423B"/><path d="M754.267 248.8c5.44 28.09 19.001 64.28 35.541 101.46h117.809c2.67-48.86 2.61-97.13-3.85-130.5-11.029-56.943-79.891-83.576-92.7-88.068a3.713 3.713 0 0 0-3.691.716c-10.206 8.957-64.175 59.446-53.109 116.392zM946.352 287.352c-8.263 15.849-15.775 38.475-22.295 62.918h101.333a179.357 179.357 0 0 0 9.82-16.331c19.53-37.34-12.35-84.679-12.35-84.679s-56.993.743-76.508 38.092zM609.818 350.259h152.88c-13-15.7-25.721-29.38-37.431-39.38-39.654-33.825-103.599-12.437-112.387-9.265-.652.235-1.09.79-1.211 1.474a173.741 173.741 0 0 0-1.851 47.171z" fill="#1B714F"/><path d="M827.667 350.26h7.161l-62.64-42.36c.829 2.17 1.679 4.36 2.539 6.55l52.94 35.81zM822.268 210.11l-51.22-34.64c-.7 1.13-1.38 2.28-2.06 3.45l54.36 36.76 13.58 70.17-84.05-56.85c-.08 1.58-.12 3.17-.11 4.77l85.24 57.65 11.39 58.84h4.08l-11.54-59.61 57.53-85.39c-.59-1.49-1.21-3-1.88-4.39l-56.75 84.2-13.57-70.16 36.7-54.45c-1.06-.83-2.13-1.63-3.2-2.43l-34.58 51.31-15-77.6-.148-.052a3.706 3.706 0 0 0-3.68.714l-.112.098 15.02 77.61zM867.457 350.26l41.741-61.94c0-2.36-.031-4.693-.091-7l-46.48 69 4.83-.06zM666.157 345.659l-52.12-44.46c-.454.159-.842.298-1.159.413a1.892 1.892 0 0 0-1.217 1.436c-.061.331-.133.736-.214 1.211l52.11 44.46-19.2 1.54h27.19l-1.08-.92-4.58-57.3c-1.35 0-2.68.05-4 .1l4.27 53.52zM718.448 350.26l-3.75-46.84a70.72 70.72 0 0 0-4.2-2.25l3.93 49.09h4.02zM936.234 350.27h3.147l-7.932-25.413a304.984 304.984 0 0 0-1.577 5.041l6.362 20.372zM997.281 294.953l-12.018-38.49c-.939.338-1.886.684-2.825 1.06l12.868 41.209-21.551 41.239-19.839-63.541a61.308 61.308 0 0 0-2.298 2.749l20.169 64.601-3.411 6.52h3.396l2.674-5.123 64.464-20.199c.35-1.142.67-2.299.95-3.456l-63.439 19.884 21.551-41.247 41.138-12.89c-.23-.984-.48-1.961-.75-2.93l-38.427 12.019 23.847-45.641c-.59-.946-.94-1.457-.94-1.457s-.61 0-1.72.06l-23.839 45.633z" fill="#469766"/><path d="M1245.06 96.204c-.19.094-.36.225-.5.385s-.25.348-.32.55c-.06.202-.09.415-.07.627.02.212.08.418.18.606l83.85 159.022v-7.045l-80.9-153.446a1.684 1.684 0 0 0-.98-.809c-.42-.13-.87-.09-1.26.11z" fill="#1B714F"/><path d="m1318.32 104.429 9.18 27.759-20.28-10.129c-.24 1.078-.46 2.169-.7 3.269l21.68 10.826v-12.356l-6.75-20.363c-1.07.227-2.12.56-3.13.994z" fill="#34CB59"/><path d="M1182.53 283.669c-.01.215.03.428.11.628a1.638 1.638 0 0 0 1.48 1.046l144.08 5.39v-3.236l-143.95-5.386c-.22-.013-.44.018-.64.089-.2.072-.39.184-.55.329a1.6 1.6 0 0 0-.38.517 1.67 1.67 0 0 0-.15.623z" fill="#1B714F"/><path d="M1225.9 254.718c-16.47-.611-34.6 7.586-47.83 15.282a15.989 15.989 0 0 0-5.75 5.568 15.974 15.974 0 0 0-2.31 7.663c-.1 2.709.49 5.4 1.71 7.818a15.935 15.935 0 0 0 5.3 5.999c12.59 8.654 30.02 18.163 46.5 18.773 30.59 1.132 54.08-28.592 54.08-28.592s-21.11-31.379-51.7-32.511z" fill="#1B714F"/><path d="m1260.34 284.927-27.88-29.489a48.42 48.42 0 0 0-4.96-.624c.05.131.13.252.22.361l27.97 29.585-23.15-.859-25.32-26.711c-1.08.309-2.16.629-3.23.962.05.285.18.549.38.763l23.52 24.81-23.14-.855-17.1-18.029c-1.03.509-2.04 1.023-3.04 1.544l15.49 16.295-29.9-1.105a16.676 16.676 0 0 0-.13 3.236l29.9 1.11-16.76 15.148c.95.595 1.92 1.184 2.91 1.766l18.52-16.743 23.11.855-26.03 23.465c-.05.062-.1.131-.15.203 1.12.462 2.23.888 3.36 1.29l27.49-24.778 23.11.855-30.17 27.274c-.17.156-.3.347-.39.56 1.63.01 3.26-.064 4.88-.222l30.35-27.454 16.09.596c.83-.952 1.28-1.521 1.28-1.521s-.43-.633-1.22-1.697l-16.01-.591z" fill="#469766"/><path d="M1219.95 168.985a1.694 1.694 0 0 0-1.09-.633c-.43-.062-.87.046-1.22.3a1.6 1.6 0 0 0-.65 1.053c-.03.21-.02.424.03.63.05.206.15.399.28.568l89.14 117.357c.15.204.35.37.58.483.23.113.49.171.74.169.36.001.7-.109.98-.315.18-.123.32-.28.44-.461.11-.181.18-.383.21-.593.04-.211.03-.425-.03-.632-.05-.206-.14-.4-.27-.569l-89.14-117.357z" fill="#1B714F"/><path d="M1225.79 156.703c-11.23-4.082-23.04 4.456-22.3 16.119.96 14.991 4.25 34.208 14.07 47.119 18.23 23.987 56.7 23.257 56.7 23.257s11.91-35.683-6.33-59.67c-9.81-12.911-27.71-21.565-42.14-26.825z" fill="#1B714F"/><path d="M1271.45 188.978a45.713 45.713 0 0 0-2.62-4.188c-.06.131-.11.271-.13.416l-6.17 39.783-13.79-18.144 5.54-35.97a81.692 81.692 0 0 0-2.81-1.877c-.19.221-.31.488-.36.772l-5.13 33.423-13.81-18.117 3.7-24.292c-1.05-.469-2.1-.917-3.14-1.345l-3.34 21.976-17.83-23.446c-.95.549-1.84 1.19-2.66 1.914l17.83 23.451-22.61-3.278c.12 1.094.26 2.2.4 3.319l24.99 3.62 13.78 18.125-35.04-5.126a1.738 1.738 0 0 0-.27 0c.34 1.137.69 2.27 1.08 3.388l37.02 5.413 13.78 18.135-40.7-5.88a1.713 1.713 0 0 0-.7.046 46.72 46.72 0 0 0 3.24 3.574l40.95 5.921 9.59 12.611c1.28.037 2.02.028 2.02.028s.24-.726.59-1.997l-9.55-12.56 6.15-39.695z" fill="#469766"/><path d="M1246.14 71.061c-10.46-5.69-23.46 1.008-24.54 12.648-1.39 14.96-1.09 34.444 6.61 48.654 14.3 26.396 52.44 31.342 52.44 31.342s17.3-33.515 2.99-59.915c-7.7-14.21-24.04-25.41-37.5-32.729z" fill="#1B714F"/><path d="M1284.29 105.076c-.16.169-.28.371-.35.592l-12.14 38.341-10.82-19.961 10.99-34.902a91.008 91.008 0 0 0-2.67-2.408c-.04.078-.07.158-.1.24l-10.4 33.039-10.82-19.952 7.45-23.539a146.99 146.99 0 0 0-2.89-1.789l-6.74 21.297-13.99-25.808c-1.02.409-1.99.915-2.91 1.511l13.98 25.804-21.77-6.55c-.05 1.1-.08 2.213-.11 3.337l24.07 7.24 10.81 19.965-33.12-9.92a1.626 1.626 0 0 0-.87 0c.15 1.1.32 2.195.52 3.286l35.65 10.679 10.82 19.97-39.45-11.783a1.616 1.616 0 0 0-.46-.06c.83 1.42 1.75 2.794 2.74 4.114l39.33 11.728 7.49 13.822c1.13.203 1.85.309 2.04.337h.06c0-.023.34-.656.85-1.784l-7.52-13.869 12.22-38.571a44.203 44.203 0 0 0-1.89-4.406z" fill="#469766"/><path d="M1228.73 336.779c-15.76 6.574-19.36 26.78-6.79 38.151 16.15 14.613 39 31.347 62.23 35.281 15.8 2.672 31.04-.689 44.03-6.01v-68.369c-8.3-5.548-17.88-9.972-28.66-11.802-23.25-3.934-50.55 4.304-70.81 12.749z" fill="#1B714F"/><path d="M1271.78 324.183c-1.11.161-2.22.342-3.33.531.01.313.12.615.3.869l29.47 40.925-34.61-5.866-21.04-29.123c-1.08.373-2.16.752-3.23 1.137l19.65 27.214-43.92-7.443a22.743 22.743 0 0 0-.58 3.172l43.95 7.442-28 19.221c.87.712 1.75 1.421 2.64 2.127l29.95-20.567 34.6 5.862-42.89 29.364-.06.046c1.06.594 2.12 1.174 3.2 1.738l44.38-30.371 25.95 4.396v-3.268l-25.38-4.3-31.05-43.106zM1302.61 324.654l25.59 35.637v-5.617l-20.65-28.758a67.384 67.384 0 0 0-4.94-1.262zM80.46 26.95l-.56-.13-14.83-3.67 14.83-3.66a10.26 10.26 0 0 0 5.26-3 10.18 10.18 0 0 0 2-2.94 10 10 0 0 0-3.72-.7 10.24 10.24 0 0 0-5 1.32l-.49.29-13.08 7.9 7.9-13.08A10.24 10.24 0 0 0 73.7.01a10.21 10.21 0 0 0-3.13 2.14 10.15 10.15 0 0 0-2.63 4.51l-.15.55-3.66 14.84-3.66-14.84a10.21 10.21 0 0 0-3-5.25l-.34-.31a.672.672 0 0 0-.14-.11.08.08 0 0 0 0-.05c-.12-.11-.26-.21-.39-.31l-.13-.09-.33-.23-.18-.12-.11-.06c-.16-.11-.328-.21-.5-.3l-.26-.13a5.123 5.123 0 0 0-.53-.25 10.46 10.46 0 0 0-.69 3.72 10.21 10.21 0 0 0 1.33 5.06l.29.49 7.91 13.08-13.08-7.9a10.291 10.291 0 0 0-5.81-1.62 10 10 0 0 0-3.47.7 10.209 10.209 0 0 0 2.14 3.13 10.218 10.218 0 0 0 4.52 2.63c.181.053.364.096.55.13l14.83 3.67-14.82 3.67a10.17 10.17 0 0 0-5.26 3 9.889 9.889 0 0 0-2 3 10.24 10.24 0 0 0 8.72-.63c.169-.087.332-.184.49-.29l13.09-7.9-7.9 13.08a10.21 10.21 0 0 0-1.63 5.81 10.56 10.56 0 0 0 .7 3.47 10.239 10.239 0 0 0 3.13-2.15 10.34 10.34 0 0 0 2.63-4.51c0-.19.1-.37.14-.56l3.66-14.84 3.66 14.83a10.22 10.22 0 0 0 3 5.26 10.47 10.47 0 0 0 3 2c.462-1.186.7-2.447.7-3.72a10.21 10.21 0 0 0-1.33-5.06l-.3-.49-7.9-13.08 13.08 7.9a10.239 10.239 0 0 0 5.81 1.62 10 10 0 0 0 3.46-.7 10.003 10.003 0 0 0-2.13-3.13 10.341 10.341 0 0 0-4.62-2.72z" fill="#469766"/></g><defs><clipPath id="a"><path fill="#fff" d="M0 0h1307v350H0z"/></clipPath></defs></svg>