<svg width="61" height="62" fill="none" xmlns="http://www.w3.org/2000/svg"><path d="M52.199 35.568a9.406 9.406 0 0 0-.733-.178L31.86 30.545l19.604-4.836a13.505 13.505 0 0 0 6.945-3.912A13.525 13.525 0 0 0 61 17.906a13.438 13.438 0 0 0-4.922-.925 13.492 13.492 0 0 0-6.674 1.751l-.66.39-17.28 10.44 10.434-17.285a13.538 13.538 0 0 0 2.154-7.672 13.684 13.684 0 0 0-.925-4.579 13.274 13.274 0 0 0-4.136 2.822 13.446 13.446 0 0 0-3.483 5.947c-.066.244-.132.488-.191.733L30.48 29.132 25.644 9.528a13.5 13.5 0 0 0-3.905-6.944c-.146-.146-.298-.278-.443-.41l-.192-.146a.105.105 0 0 0-.06-.059 7.917 7.917 0 0 0-.521-.41 1.364 1.364 0 0 0-.165-.125 4.257 4.257 0 0 0-.436-.298L19.69.978c-.046 0-.106-.053-.145-.086a5.887 5.887 0 0 0-.66-.39 3.31 3.31 0 0 0-.344-.178A6.611 6.611 0 0 0 17.88 0a13.65 13.65 0 0 0-.912 4.916 13.513 13.513 0 0 0 1.75 6.68c.133.211.259.436.39.66l10.447 17.286-17.278-10.44a13.552 13.552 0 0 0-7.685-2.147c-1.57.038-3.123.35-4.585.925a13.591 13.591 0 0 0 2.834 4.136 13.453 13.453 0 0 0 5.947 3.476c.244.066.489.132.733.178l19.605 4.85-19.591 4.843a13.394 13.394 0 0 0-6.945 3.898A13.149 13.149 0 0 0 0 43.166a13.57 13.57 0 0 0 4.916.912c2.34.005 4.643-.598 6.68-1.75.225-.126.436-.252.66-.39l17.293-10.44-10.434 17.285a13.499 13.499 0 0 0-2.154 7.678c.045 1.57.358 3.12.925 4.585a13.59 13.59 0 0 0 4.084-2.801 13.723 13.723 0 0 0 3.482-5.947c.066-.245.119-.489.178-.733l4.837-19.611 4.837 19.597a13.564 13.564 0 0 0 7.81 9.535c.615-1.566.929-3.234.925-4.916a13.386 13.386 0 0 0-1.764-6.68c-.12-.212-.258-.43-.39-.66L31.452 31.536l17.278 10.44A13.545 13.545 0 0 0 60.987 43.2a13.586 13.586 0 0 0-2.822-4.137 13.646 13.646 0 0 0-5.966-3.495z" fill="#469766"/></svg>