<svg width="1307" height="350" viewBox="0 0 1307 350" fill="none" xmlns="http://www.w3.org/2000/svg">
<g clip-path="url(#clip0)">
<path d="M22.6 328.37C14.33 397.62 13.3999 461.55 13.3799 485.82H17.58C17.58 461.63 18.5199 397.9 26.7599 328.82C34.2399 266.19 45.5199 220.17 59.3899 195.74L55.7499 193.67C45.8899 211.09 32.13 248.56 22.6 328.37Z" fill="#1E6330"/>
<path d="M62.7896 122.05C49.2796 150.23 62.4096 184.62 62.4096 184.62C62.4096 184.62 97.4097 173.32 110.96 145.15C122.685 120.773 114.402 91.7315 111.959 84.3521C111.625 83.343 110.567 82.8365 109.571 83.2089C102.294 85.9308 74.4969 97.675 62.7896 122.05Z" fill="#FFDD0F" stroke="#1E6330" stroke-width="1.75" stroke-miterlimit="10"/>
<path d="M26.5703 78.6854C25.6205 78.2076 24.5141 78.5971 24.073 79.5644C20.849 86.6356 9.48658 114.6 18.4597 140.109C28.8297 169.589 62.4597 184.619 62.4597 184.619C62.4597 184.619 79.2496 151.859 68.8796 122.379C59.9061 96.8691 33.5153 82.1792 26.5703 78.6854Z" fill="#FFDD0F" stroke="#1E6330" stroke-width="1.75" stroke-miterlimit="10"/>
<path d="M106.94 140.641C77.4697 151.021 62.4297 184.641 62.4297 184.641C62.4297 184.641 95.1897 201.421 124.67 191.051C150.179 182.077 164.869 155.687 168.363 148.742C168.841 147.792 168.451 146.685 167.484 146.244C160.412 143.022 132.448 131.668 106.94 140.641Z" fill="#FFDD0F" stroke="#1E6330" stroke-width="1.75" stroke-miterlimit="10"/>
<path d="M22.9598 136.07C20.8887 135.089 18.7617 134.231 16.5898 133.5C17.0757 135.74 17.7002 137.948 18.4598 140.11C27.5798 166.03 54.6598 180.78 61.0598 183.96C61.9498 184.37 62.4298 184.62 62.4298 184.62C62.4298 184.62 62.2398 184.12 61.9398 183.21C59.4998 176.56 47.7898 148 22.9598 136.07Z" fill="#048333" stroke="#1E6330" stroke-width="1.75" stroke-miterlimit="10"/>
<path d="M66.1697 116.051C64.9324 117.983 63.8104 119.986 62.8097 122.051C50.9097 146.871 59.6797 176.491 61.9397 183.211C62.2697 184.111 62.4297 184.621 62.4297 184.621C62.4297 184.621 62.6597 184.121 63.0897 183.241C66.0897 176.751 77.9698 148.301 68.8498 122.381C68.0878 120.218 67.1927 118.104 66.1697 116.051Z" fill="#048333" stroke="#1E6330" stroke-width="1.75" stroke-miterlimit="10"/>
<path d="M62.4299 184.621C62.4299 184.621 62.2699 184.111 61.9399 183.211C62.2399 184.121 62.4299 184.621 62.4299 184.621Z" fill="#ADD57F" stroke="#0D2622" stroke-width="1.75" stroke-miterlimit="10"/>
<path d="M62.9297 186C62.6297 185.09 62.4297 184.59 62.4297 184.59C62.4297 184.59 62.5997 185.13 62.9297 186Z" fill="#ADD57F" stroke="#0D2622" stroke-width="1.75" stroke-miterlimit="10"/>
<path d="M63.8397 184.12C62.9497 184.45 62.4297 184.62 62.4297 184.62C62.4297 184.62 62.9297 184.84 63.8097 185.27C70.2997 188.27 98.7497 200.15 124.67 191.03C126.831 190.268 128.945 189.376 131 188.36C129.069 187.118 127.065 185.992 125 184.99C100.18 173.1 70.5597 181.86 63.8397 184.12Z" fill="#048333" stroke="#1E6330" stroke-width="1.75" stroke-miterlimit="10"/>
<path d="M63.0897 183.24C62.6797 184.14 62.4297 184.62 62.4297 184.62L63.8397 184.12C70.4897 181.68 99.0796 169.96 110.98 145.12C111.965 143.048 112.823 140.917 113.55 138.74C111.311 139.231 109.104 139.855 106.94 140.61C81.0197 149.76 66.2697 176.84 63.0897 183.24Z" fill="#048333" stroke="#1E6330" stroke-width="1.75" stroke-miterlimit="10"/>
<path d="M63.8397 184.119L62.4297 184.619C62.4297 184.619 62.9497 184.449 63.8397 184.119Z" fill="#ADD57F" stroke="#0D2622" stroke-width="1.75" stroke-miterlimit="10"/>
<path d="M63.0897 183.24C62.6597 184.12 62.4297 184.62 62.4297 184.62C62.4297 184.62 62.6797 184.14 63.0897 183.24Z" fill="#ADD57F" stroke="#0D2622" stroke-width="1.75" stroke-miterlimit="10"/>
<path d="M63.7897 185.269C62.9097 184.839 62.4097 184.619 62.4097 184.619L63.7897 185.269Z" fill="#ADD57F" stroke="#0D2622" stroke-width="1.75" stroke-miterlimit="10"/>
<path d="M62.4301 184.619C62.4301 184.619 61.92 184.779 61.02 185.109C61.93 184.809 62.4301 184.619 62.4301 184.619Z" fill="#ADD57F" stroke="#0D2622" stroke-width="1.75" stroke-miterlimit="10"/>
<path d="M62.4301 184.621C62.4301 184.621 61.9501 184.371 61.0601 183.961C61.9401 184.401 62.4301 184.621 62.4301 184.621Z" fill="#ADD57F" stroke="#0D2622" stroke-width="1.75" stroke-miterlimit="10"/>
<path d="M62.4298 184.619C62.4298 184.619 62.1898 185.099 61.7798 185.989C62.2098 185.109 62.4298 184.619 62.4298 184.619Z" fill="#ADD57F" stroke="#0D2622" stroke-width="1.75" stroke-miterlimit="10"/>
<path d="M67.3001 174.48C64.6118 173.191 61.5222 173.023 58.7097 174.011C55.8973 174.999 53.5919 177.063 52.3001 179.75C51.0153 182.439 50.8497 185.529 51.8395 188.341C52.8293 191.153 54.8937 193.457 57.5801 194.75C60.2696 196.037 63.3602 196.204 66.1729 195.214C68.9855 194.224 71.29 192.158 72.5801 189.47C73.2187 188.139 73.5887 186.695 73.669 185.221C73.7492 183.747 73.538 182.272 73.0476 180.88C72.5572 179.488 71.7973 178.206 70.811 177.108C69.8248 176.009 68.6317 175.116 67.3001 174.48Z" fill="#048333" stroke="#1E6330" stroke-width="1.75" stroke-miterlimit="10"/>
<path d="M270.748 120.32C265.48 122.95 253.472 129.138 238.333 138.321C237.142 139.044 237.043 140.734 238.139 141.594L248.088 149.4L233.617 143.22C232.415 142.706 231.037 142.811 229.931 143.509C215.524 152.592 201.656 162.505 188.398 173.197C187.401 174.001 187.415 175.522 188.422 176.313L214.748 197L180.789 182.508C179.387 181.909 177.764 182.158 176.618 183.164C165.82 192.636 155.825 202.984 146.735 214.103C145.333 215.817 145.633 218.343 147.374 219.711L176.218 242.39L140.797 227.276C139.056 226.532 137.027 227.109 135.977 228.685C131.128 235.969 126.942 243.674 123.468 251.71C121.406 256.535 119.666 261.49 118.259 266.543C117.835 268.069 118.392 269.691 119.637 270.669L145.868 291.27L117.98 279.355C116.784 278.844 115.427 279.591 115.245 280.878C112.872 297.673 113.897 314.783 118.268 331.19L144.818 352.04H261.348C263.762 349.373 266.075 346.54 268.288 343.54L238.048 330.63L273.618 335.63C276.84 330.434 279.658 324.998 282.048 319.37C285.845 310.295 288.72 300.861 290.628 291.21L252.188 274.79L292.488 280.52C294.716 264.12 295.386 247.546 294.488 231.02L258.238 215.54L293.828 220.6C292.323 202.08 289.651 183.674 285.828 165.49L269.438 158.49L284.798 160.67C281.206 144.204 276.388 129.15 274.019 121.739C273.582 120.375 272.043 119.707 270.748 120.32Z" fill="#164924"/>
<path d="M990.126 159.16C995.394 161.789 1007.4 167.978 1022.54 177.161C1023.73 177.884 1023.83 179.574 1022.74 180.433L1012.79 188.24L1027.26 182.059C1028.46 181.546 1029.84 181.651 1030.94 182.348C1045.35 191.432 1059.22 201.345 1072.48 212.037C1073.47 212.841 1073.46 214.362 1072.45 215.153L1046.13 235.84L1080.08 221.348C1081.49 220.749 1083.11 220.998 1084.26 222.004C1095.05 231.475 1105.05 241.824 1114.14 252.942C1115.54 254.657 1115.24 257.182 1113.5 258.551L1084.66 281.23L1120.08 266.115C1121.82 265.372 1123.85 265.949 1124.9 267.525C1129.75 274.808 1133.93 282.514 1137.41 290.55C1139.47 295.375 1141.21 300.33 1142.61 305.383C1143.04 306.908 1142.48 308.531 1141.24 309.509L1115.01 330.11L1142.89 318.195C1144.09 317.684 1145.45 318.431 1145.63 319.718C1148 336.513 1146.98 353.623 1142.61 370.03L1116.06 390.88H999.526C997.112 388.213 994.799 385.38 992.586 382.38L1022.83 369.47L987.256 374.47C984.034 369.274 981.216 363.838 978.826 358.21C975.029 349.135 972.154 339.701 970.246 330.05L1008.69 313.63L968.386 319.36C966.158 302.96 965.488 286.386 966.386 269.86L995.665 257.357C996.741 256.897 996.289 255.282 995.132 255.447L967.046 259.44C968.551 240.92 971.223 222.514 975.046 204.33L991.436 197.33L976.076 199.51C979.668 183.044 984.486 167.99 986.855 160.579C987.292 159.215 988.831 158.547 990.126 159.16Z" fill="#1E6330"/>
<path d="M21.6104 260.001C19.7727 264.321 16.4535 271.548 12.6066 282.964C12.3839 283.624 12.8916 284.304 13.5883 284.278L23.28 283.921L12.5521 287.231C11.6169 287.519 10.8804 288.245 10.5848 289.178C6.84093 300.994 3.79206 313.019 1.45381 325.191C1.33281 325.821 1.83003 326.398 2.47099 326.375L27 325.471L1.19737 333.431C0.465052 333.657 -0.074527 334.282 -0.186513 335.04C-1.01348 340.638 -1.63682 346.31 -2 351.991H117.07C115.63 348.591 114.007 345.258 112.2 341.991L83.54 350.821L108.28 335.271C101.918 325.249 94.6182 315.853 86.48 307.211L59.48 315.541L81.3401 301.811C72.3193 292.727 62.7555 284.2 52.7018 276.277C51.9315 275.67 50.9116 275.483 49.9745 275.772L39.25 279.081L47.4645 273.915C48.0539 273.545 48.0935 272.7 47.5396 272.278C39.0484 265.812 30.3306 259.823 25.5437 256.67C24.5091 255.988 23.1204 256.423 22.6387 257.564L21.6104 260.001Z" fill="#164924"/>
<path d="M203.79 250.54C209.23 278.63 222.79 314.82 239.33 352H357.14C359.81 303.14 359.75 254.87 353.29 221.5C342.26 164.558 273.398 137.924 260.589 133.432C259.315 132.986 257.913 133.258 256.898 134.148C246.692 143.106 192.723 193.595 203.79 250.54Z" fill="#048333"/>
<path d="M395.874 289.092C387.611 304.942 380.1 327.567 373.58 352.01H474.912C478.471 346.744 481.748 341.292 484.73 335.679C504.261 298.339 472.381 251 472.381 251C472.381 251 415.39 251.744 395.874 289.092Z" fill="#048333"/>
<path d="M59.34 351.999H212.22C199.22 336.299 186.5 322.619 174.79 312.619C135.136 278.794 71.19 300.183 62.4028 303.354C61.7501 303.589 61.3126 304.145 61.1915 304.828C58.4313 320.392 57.808 336.263 59.34 351.999Z" fill="#048333"/>
<path d="M277.19 352.001H284.35L221.71 309.641C222.54 311.811 223.39 314.001 224.25 316.191L277.19 352.001Z" fill="#34CB59"/>
<path d="M271.79 211.85L220.57 177.21C219.87 178.34 219.19 179.49 218.51 180.66L272.87 217.42L286.45 287.59L202.4 230.74C202.32 232.32 202.28 233.91 202.29 235.51L287.53 293.16L298.92 352H303L291.46 292.39L348.99 207C348.4 205.51 347.78 204 347.11 202.61L290.36 286.81L276.79 216.65L313.49 162.2C312.43 161.37 311.36 160.57 310.29 159.77L275.71 211.08L260.71 133.48C260.66 133.462 260.611 133.445 260.562 133.428C259.294 132.98 257.896 133.257 256.883 134.142C256.846 134.174 256.808 134.207 256.77 134.24L271.79 211.85Z" fill="#34CB59"/>
<path d="M316.98 352.001L358.72 290.061C358.72 287.701 358.69 285.367 358.63 283.061L312.15 352.061L316.98 352.001Z" fill="#34CB59"/>
<path d="M115.68 347.399L63.5597 302.939C63.1055 303.098 62.7177 303.237 62.4009 303.352C61.7676 303.583 61.3062 304.126 61.1839 304.789C61.1229 305.119 61.0505 305.524 60.9697 305.999L113.08 350.459L93.8796 351.999H121.07L119.99 351.079L115.41 293.779C114.06 293.779 112.73 293.829 111.41 293.879L115.68 347.399Z" fill="#34CB59"/>
<path d="M167.97 352L164.22 305.16C162.84 304.36 161.44 303.61 160.02 302.91L163.95 352H167.97Z" fill="#34CB59"/>
<path d="M385.756 352.01H388.904L380.971 326.598C380.436 328.26 379.91 329.94 379.394 331.638L385.756 352.01Z" fill="#34CB59"/>
<path d="M446.804 296.694L434.785 258.204C433.846 258.542 432.9 258.887 431.961 259.263L444.828 300.472L423.277 341.711L403.439 278.17C402.653 279.056 401.886 279.973 401.14 280.919L421.309 345.52L417.899 352.04H421.294L423.968 346.917L488.434 326.718C488.787 325.576 489.102 324.419 489.38 323.263L425.944 343.146L447.495 301.899L488.637 289.009C488.404 288.025 488.156 287.049 487.885 286.08L449.456 298.098L473.298 252.457C472.712 251.511 472.366 251 472.366 251C472.366 251 471.75 251 470.638 251.06L446.804 296.694Z" fill="#34CB59"/>
<path d="M539.93 317.133C534.139 314.245 527.358 315.487 524.666 316.17C524.002 316.338 523.657 317.03 523.921 317.662C524.993 320.223 528.073 326.389 533.859 329.282C541.267 332.986 550.311 329.906 550.311 329.906C550.311 329.906 547.351 320.837 539.93 317.133Z" fill="#164924"/>
<path d="M551.417 300.825H549.293V411H551.417V300.825Z" fill="#164924"/>
<path d="M556.476 217.095C555.312 216.892 554.113 217.018 553.016 217.46C551.92 217.901 550.968 218.64 550.268 219.593C549.569 218.639 548.617 217.9 547.52 217.459C546.423 217.017 545.224 216.891 544.059 217.095C543.237 217.239 542.452 217.543 541.748 217.991C541.044 218.439 540.435 219.021 539.957 219.705C539.478 220.388 539.139 221.159 538.959 221.974C538.778 222.789 538.761 223.631 538.906 224.452L543.816 252.298H556.72L561.63 224.452C561.775 223.631 561.757 222.789 561.577 221.974C561.397 221.159 561.057 220.388 560.579 219.705C560.1 219.021 559.492 218.439 558.788 217.991C558.084 217.543 557.298 217.239 556.476 217.095Z" fill="white"/>
<path d="M556.72 268.213H543.815L538.906 296.058C538.613 297.718 538.992 299.426 539.958 300.807C540.924 302.188 542.399 303.128 544.059 303.422C545.224 303.624 546.422 303.497 547.518 303.056C548.615 302.615 549.567 301.876 550.267 300.924C550.968 301.876 551.92 302.614 553.017 303.055C554.113 303.496 555.311 303.623 556.476 303.422C557.298 303.277 558.084 302.972 558.788 302.524C559.492 302.075 560.1 301.492 560.579 300.808C561.057 300.124 561.397 299.353 561.577 298.538C561.757 297.723 561.775 296.88 561.629 296.058L556.72 268.213Z" fill="white"/>
<path d="M507.095 254.059C506.892 255.224 507.018 256.422 507.46 257.519C507.901 258.616 508.64 259.568 509.593 260.268C508.639 260.967 507.9 261.919 507.459 263.016C507.017 264.113 506.891 265.312 507.095 266.477C507.239 267.299 507.545 268.084 507.993 268.788C508.442 269.492 509.025 270.101 509.709 270.579C510.393 271.058 511.164 271.397 511.979 271.577C512.794 271.757 513.637 271.775 514.459 271.63L542.304 266.72V253.809L514.459 248.9C512.798 248.608 511.089 248.987 509.708 249.955C508.327 250.922 507.387 252.399 507.095 254.059Z" fill="white"/>
<path d="M593.441 254.059C593.148 252.399 592.208 250.922 590.827 249.955C589.446 248.987 587.737 248.608 586.077 248.9L558.231 253.809V266.72L586.077 271.63C586.899 271.775 587.741 271.757 588.556 271.577C589.371 271.397 590.143 271.058 590.827 270.579C591.511 270.101 592.094 269.492 592.542 268.788C592.991 268.084 593.296 267.299 593.441 266.477C593.644 265.312 593.518 264.113 593.076 263.016C592.635 261.919 591.896 260.967 590.942 260.268C591.895 259.568 592.634 258.616 593.075 257.519C593.517 256.422 593.643 255.224 593.441 254.059Z" fill="white"/>
<path d="M524.128 225.347C523.162 226.025 522.403 226.958 521.937 228.042C521.47 229.127 521.314 230.319 521.486 231.487C520.319 231.314 519.127 231.47 518.044 231.937C516.96 232.403 516.028 233.162 515.352 234.129C514.872 234.812 514.532 235.583 514.351 236.398C514.17 237.213 514.151 238.056 514.296 238.878C514.441 239.7 514.747 240.486 515.196 241.19C515.645 241.894 516.229 242.502 516.914 242.98L540.074 259.22L549.225 250.1L532.985 226.94C532.021 225.554 530.547 224.608 528.886 224.309C527.225 224.011 525.514 224.384 524.128 225.347Z" fill="white"/>
<path d="M583.628 277.583L560.468 261.343L551.336 270.468L567.576 293.629C568.054 294.313 568.663 294.896 569.366 295.345C570.07 295.793 570.856 296.099 571.678 296.244C572.5 296.389 573.342 296.371 574.157 296.19C574.972 296.009 575.743 295.669 576.427 295.19C577.393 294.513 578.152 293.58 578.619 292.495C579.085 291.411 579.241 290.218 579.069 289.051C580.237 289.225 581.43 289.07 582.515 288.603C583.599 288.137 584.532 287.376 585.209 286.408C586.165 285.027 586.535 283.323 586.239 281.67C585.943 280.016 585.004 278.547 583.628 277.583Z" fill="white"/>
<path d="M516.914 277.583C516.229 278.061 515.645 278.669 515.196 279.373C514.747 280.076 514.441 280.862 514.296 281.684C514.151 282.506 514.17 283.349 514.351 284.164C514.532 284.979 514.872 285.75 515.352 286.433C516.026 287.402 516.958 288.163 518.042 288.63C519.126 289.097 520.319 289.251 521.486 289.076C521.313 290.243 521.469 291.436 521.936 292.52C522.402 293.605 523.161 294.538 524.128 295.215C524.812 295.695 525.584 296.034 526.399 296.215C527.214 296.396 528.057 296.414 528.88 296.269C529.702 296.124 530.488 295.819 531.192 295.37C531.897 294.921 532.506 294.338 532.985 293.654L549.225 270.493L540.074 261.343L516.914 277.583Z" fill="white"/>
<path d="M579.05 231.487C579.221 230.319 579.065 229.127 578.599 228.042C578.132 226.958 577.373 226.025 576.408 225.347C575.027 224.381 573.319 224.003 571.659 224.296C569.999 224.589 568.524 225.528 567.557 226.908L551.317 250.069L560.449 259.201L583.609 242.961C584.989 241.994 585.929 240.518 586.222 238.859C586.515 237.199 586.137 235.491 585.171 234.11C584.492 233.151 583.561 232.398 582.48 231.935C581.4 231.472 580.213 231.317 579.05 231.487Z" fill="white"/>
<path d="M550.268 226.895C550.001 226.896 549.745 227.004 549.556 227.193C549.368 227.383 549.262 227.639 549.262 227.906V292.629C549.262 292.895 549.368 293.151 549.557 293.34C549.745 293.528 550.001 293.634 550.268 293.634C550.535 293.634 550.79 293.528 550.979 293.34C551.167 293.151 551.273 292.895 551.273 292.629V227.906C551.273 227.639 551.168 227.383 550.979 227.193C550.791 227.004 550.535 226.896 550.268 226.895Z" fill="#8DE995"/>
<path d="M582.629 259.257H517.907C517.639 259.258 517.384 259.366 517.195 259.555C517.007 259.745 516.901 260.001 516.901 260.269C516.901 260.535 517.007 260.791 517.196 260.98C517.384 261.168 517.64 261.274 517.907 261.274H582.629C582.896 261.274 583.151 261.168 583.34 260.98C583.529 260.791 583.635 260.535 583.635 260.269C583.635 260.001 583.529 259.745 583.34 259.555C583.152 259.366 582.896 259.258 582.629 259.257Z" fill="#8DE995"/>
<path d="M528.1 236.67C527.91 236.481 527.653 236.374 527.385 236.374C527.117 236.374 526.86 236.481 526.67 236.67C526.576 236.764 526.502 236.875 526.451 236.997C526.4 237.119 526.374 237.25 526.374 237.382C526.374 237.514 526.4 237.645 526.451 237.768C526.502 237.89 526.576 238.001 526.67 238.094L572.435 283.859C572.529 283.955 572.641 284.03 572.764 284.082C572.887 284.133 573.02 284.16 573.153 284.159C573.286 284.159 573.417 284.132 573.539 284.081C573.662 284.029 573.772 283.954 573.865 283.859C573.959 283.766 574.033 283.655 574.084 283.533C574.135 283.411 574.161 283.28 574.161 283.147C574.161 283.015 574.135 282.884 574.084 282.762C574.033 282.64 573.959 282.529 573.865 282.435L528.1 236.67Z" fill="#8DE995"/>
<path d="M572.435 236.67L526.67 282.435C526.576 282.529 526.502 282.64 526.451 282.762C526.4 282.884 526.374 283.015 526.374 283.147C526.374 283.28 526.4 283.411 526.451 283.533C526.502 283.655 526.576 283.766 526.67 283.859C526.764 283.955 526.875 284.03 526.999 284.082C527.122 284.133 527.254 284.16 527.388 284.159C527.521 284.159 527.652 284.132 527.774 284.081C527.896 284.029 528.007 283.954 528.1 283.859L573.865 238.094C573.959 238.001 574.033 237.89 574.084 237.768C574.135 237.645 574.161 237.514 574.161 237.382C574.161 237.25 574.135 237.119 574.084 236.997C574.033 236.875 573.959 236.764 573.865 236.67C573.676 236.481 573.418 236.374 573.15 236.374C572.882 236.374 572.625 236.481 572.435 236.67Z" fill="#8DE995"/>
<path d="M565.487 266.571C568.969 258.167 564.978 248.532 556.573 245.05C548.169 241.569 538.534 245.56 535.053 253.964C531.572 262.369 535.563 272.004 543.967 275.485C552.371 278.966 562.006 274.975 565.487 266.571Z" fill="#048333"/>
<path d="M556.242 266.242C559.542 262.942 559.542 257.591 556.242 254.291C552.942 250.991 547.591 250.991 544.29 254.291C540.99 257.591 540.99 262.942 544.29 266.242C547.591 269.543 552.942 269.543 556.242 266.242Z" fill="#34CB59"/>
<path d="M1247.46 270.62C1249.37 275.11 1252.88 282.74 1256.92 294.95L1245.79 294.54L1256.52 297.85C1257.45 298.138 1258.19 298.864 1258.49 299.797C1262.23 311.613 1265.28 323.638 1267.62 335.81C1267.74 336.44 1267.24 337.018 1266.6 336.994L1242.07 336.09L1267.87 344.051C1268.61 344.277 1269.14 344.901 1269.26 345.659C1270.08 351.258 1270.71 356.929 1271.07 362.61H1152C1153.44 359.21 1155.06 355.877 1156.87 352.61L1185.53 361.44L1160.79 345.89C1167.15 335.868 1174.45 326.472 1182.59 317.83L1209.59 326.16L1187.73 312.43C1197.12 302.976 1207.1 294.125 1217.6 285.93L1229.82 289.7L1220.39 283.77C1229.86 276.495 1239.84 269.685 1244.52 266.64C1245.04 266.302 1245.73 266.521 1245.97 267.092L1247.46 270.62Z" fill="#1E6330"/>
<path d="M1146.2 257.877C1139.74 203.833 1139.02 153.941 1139 135H1142.28C1142.28 153.879 1143.01 203.615 1149.44 257.526C1155.28 306.404 1164.08 342.319 1174.91 361.385L1172.07 363C1164.37 349.405 1153.63 320.163 1146.2 257.877Z" fill="#1E6330"/>
<path d="M1197 115.419C1197 119.368 1195.81 123.225 1193.59 126.489C1191.36 129.753 1188.21 132.273 1184.54 133.719C1183.56 131.497 1182.18 129.478 1180.46 127.763C1178.08 125.372 1175.12 123.639 1171.86 122.736C1171.52 122.637 1171.16 122.552 1170.8 122.474L1142.52 115.497L1170.77 108.491C1174.6 107.66 1178.09 105.696 1180.79 102.854C1182.35 101.209 1183.62 99.3042 1184.52 97.2246C1188.19 98.6515 1191.34 101.151 1193.57 104.396C1195.79 107.642 1196.99 111.483 1197 115.419Z" fill="#FFDD0F"/>
<path d="M1180.37 75.4999C1183.16 78.2915 1185.05 81.8587 1185.79 85.7372C1186.52 89.6158 1186.07 93.6262 1184.5 97.2462C1182.24 96.3708 1179.83 95.9212 1177.41 95.9203C1174.03 95.9182 1170.72 96.7929 1167.78 98.4587C1167.47 98.643 1167.16 98.8274 1166.85 99.0259L1141.91 114.086L1156.97 89.1631C1159.09 85.8669 1160.17 82.0072 1160.07 78.0879C1160.01 75.821 1159.56 73.5813 1158.73 71.4726C1162.32 69.8955 1166.31 69.4363 1170.17 70.1545C1174.03 70.8727 1177.58 72.7351 1180.37 75.4999Z" fill="#FFDD0F"/>
<path d="M1184.5 133.719C1186.08 137.316 1186.55 141.307 1185.83 145.171C1185.11 149.034 1183.24 152.592 1180.47 155.38C1177.68 158.181 1174.12 160.077 1170.23 160.819C1166.35 161.562 1162.34 161.117 1158.71 159.542C1159.59 157.281 1160.04 154.877 1160.04 152.452C1160.04 149.077 1159.17 145.759 1157.51 142.823C1157.33 142.504 1157.14 142.199 1156.95 141.887L1141.89 116.957L1166.81 132.003C1170.1 134.131 1173.96 135.214 1177.88 135.108C1180.15 135.038 1182.39 134.567 1184.5 133.719Z" fill="#FFDD0F"/>
<path d="M1184.5 97.2456C1183.59 99.3252 1182.33 101.23 1180.77 102.875C1178.07 105.706 1174.59 107.662 1170.77 108.491L1142.5 115.475L1141.44 115.206C1141.36 115.199 1141.28 115.199 1141.21 115.206C1141.26 115.152 1141.31 115.09 1141.35 115.021L1141.91 114.092L1166.85 99.0324C1167.16 98.8338 1167.47 98.6495 1167.78 98.4651C1170.72 96.7993 1174.03 95.9246 1177.41 95.9268C1179.83 95.9254 1182.24 96.3726 1184.5 97.2456Z" fill="#FFF19F"/>
<path d="M1180.42 127.763C1182.14 129.478 1183.52 131.498 1184.5 133.719C1182.39 134.548 1180.15 134.999 1177.89 135.052C1173.97 135.157 1170.11 134.075 1166.82 131.947L1141.89 116.901L1141.33 115.972C1141.29 115.906 1141.24 115.842 1141.18 115.781C1141.26 115.791 1141.34 115.791 1141.42 115.781L1142.47 115.525L1170.75 122.502C1171.11 122.58 1171.46 122.665 1171.81 122.765C1175.07 123.658 1178.03 125.38 1180.42 127.763Z" fill="#FFF19F"/>
<path d="M1160.04 78.0885C1160.15 82.0078 1159.07 85.8674 1156.95 89.1637L1141.89 114.086L1140.96 114.647C1140.9 114.693 1140.83 114.745 1140.77 114.803C1140.78 114.72 1140.78 114.637 1140.77 114.554L1140.51 113.505L1147.49 85.2214C1147.57 84.8669 1147.66 84.5124 1147.76 84.165C1148.65 80.9107 1150.38 77.9465 1152.78 75.5643C1154.49 73.8471 1156.51 72.4644 1158.73 71.4873C1159.55 73.5929 1160 75.8276 1160.04 78.0885Z" fill="#FFF19F"/>
<path d="M1157.52 142.781C1159.18 145.717 1160.06 149.035 1160.05 152.41C1160.05 154.85 1159.6 157.269 1158.71 159.543C1156.63 158.639 1154.73 157.376 1153.09 155.813C1150.23 153.117 1148.26 149.623 1147.42 145.787L1140.43 117.511L1140.7 116.462C1140.71 116.384 1140.71 116.305 1140.7 116.228L1140.89 116.376L1141.82 116.937L1156.95 141.817C1157.15 142.129 1157.34 142.434 1157.51 142.753L1157.52 142.781Z" fill="#FFF19F"/>
<path d="M1158.71 159.542C1157.28 163.205 1154.79 166.353 1151.55 168.578C1148.3 170.802 1144.47 172 1140.54 172.015C1136.59 172.006 1132.74 170.812 1129.48 168.589C1126.22 166.365 1123.7 163.214 1122.25 159.542C1124.48 158.556 1126.51 157.161 1128.22 155.43C1130.61 153.048 1132.34 150.087 1133.24 146.836C1133.33 146.482 1133.43 146.127 1133.5 145.78L1140.48 117.489L1147.47 145.766C1148.31 149.602 1150.28 153.095 1153.14 155.792C1154.76 157.358 1156.65 158.627 1158.71 159.542Z" fill="#FFDD0F"/>
<path d="M1158.71 71.4721C1156.49 72.4492 1154.47 73.8319 1152.76 75.5491C1150.37 77.9313 1148.64 80.8955 1147.74 84.1497C1147.65 84.4972 1147.56 84.8588 1147.48 85.2062L1140.5 113.49L1133.52 85.2204C1132.68 81.3839 1130.7 77.8898 1127.85 75.1945C1126.21 73.6314 1124.3 72.369 1122.22 71.465C1123.65 67.8015 1126.15 64.6525 1129.39 62.429C1132.63 60.2054 1136.47 59.0105 1140.4 59C1144.35 58.9913 1148.22 60.1774 1151.48 62.403C1154.75 64.6286 1157.27 67.7898 1158.71 71.4721Z" fill="#FFDD0F"/>
<path d="M1140.23 116.426L1140.48 117.475L1133.5 145.766C1133.43 146.113 1133.34 146.475 1133.24 146.822C1132.34 150.078 1130.61 153.044 1128.22 155.43C1126.51 157.15 1124.48 158.535 1122.26 159.514C1121.43 157.404 1120.99 155.164 1120.93 152.899C1120.83 148.978 1121.9 145.115 1124.03 141.816L1139.08 116.894L1140.01 116.333L1140.2 116.185C1140.2 116.266 1140.21 116.347 1140.23 116.426Z" fill="#FFF19F"/>
<path d="M1133.51 85.2351L1140.48 113.505L1140.23 114.554C1140.22 114.636 1140.22 114.72 1140.23 114.802C1140.17 114.745 1140.1 114.692 1140.04 114.646L1139.11 114.086L1124.05 89.149C1123.85 88.8441 1123.66 88.5321 1123.49 88.2202C1121.82 85.2837 1120.95 81.9659 1120.96 78.5914C1120.95 76.166 1121.4 73.7613 1122.28 71.501C1124.36 72.405 1126.26 73.6674 1127.9 75.2305C1130.73 77.9294 1132.68 81.4147 1133.51 85.2351Z" fill="#FFF19F"/>
<path d="M1139.64 115.014C1139.68 115.083 1139.73 115.145 1139.79 115.199C1139.71 115.192 1139.63 115.192 1139.55 115.199L1138.49 115.468L1110.22 108.491C1109.86 108.42 1109.51 108.328 1109.16 108.236C1105.91 107.336 1102.95 105.609 1100.57 103.223C1098.85 101.508 1097.47 99.4883 1096.49 97.2671C1098.6 96.4388 1100.84 95.9876 1103.1 95.9341C1107.02 95.8264 1110.88 96.9065 1114.18 99.0326L1139.1 114.086L1139.64 115.014Z" fill="#FFF19F"/>
<path d="M1139.79 115.78C1139.73 115.841 1139.68 115.905 1139.64 115.971L1139.08 116.9L1114.14 131.96C1113.84 132.152 1113.52 132.343 1113.21 132.52C1110.28 134.184 1106.96 135.056 1103.58 135.052C1101.16 135.054 1098.75 134.605 1096.49 133.726C1097.39 131.646 1098.66 129.742 1100.22 128.103C1102.92 125.26 1106.42 123.296 1110.25 122.466L1138.51 115.489L1139.57 115.745C1139.64 115.765 1139.72 115.777 1139.79 115.78Z" fill="#FFF19F"/>
<path d="M1124.02 89.1487L1139.08 114.086L1114.16 99.0327C1110.86 96.9067 1107 95.8266 1103.08 95.9342C1100.81 95.9878 1098.57 96.439 1096.46 97.2672C1094.88 93.6678 1094.42 89.6762 1095.14 85.8117C1095.86 81.9471 1097.73 78.3886 1100.5 75.5989C1103.29 72.8078 1106.86 70.922 1110.74 70.1872C1114.62 69.4524 1118.63 69.9027 1122.25 71.4794C1121.37 73.7398 1120.92 76.1444 1120.92 78.5698C1120.92 81.9444 1121.79 85.2621 1123.45 88.1986C1123.64 88.5319 1123.82 88.8438 1124.02 89.1487Z" fill="#FFDD0F"/>
<path d="M1139.08 116.9L1124.03 141.816C1121.9 145.112 1120.82 148.972 1120.93 152.891C1120.98 155.157 1121.43 157.396 1122.25 159.507C1118.65 161.094 1114.66 161.558 1110.79 160.84C1106.92 160.121 1103.36 158.253 1100.57 155.479C1097.78 152.688 1095.89 149.121 1095.15 145.242C1094.42 141.363 1094.87 137.353 1096.44 133.733C1098.7 134.612 1101.11 135.061 1103.53 135.059C1106.91 135.064 1110.23 134.191 1113.16 132.528C1113.47 132.35 1113.79 132.159 1114.09 131.968L1139.08 116.9Z" fill="#FFDD0F"/>
<path d="M1110.22 108.491L1138.49 115.482L1110.23 122.459C1106.4 123.288 1102.9 125.253 1100.2 128.096C1098.64 129.735 1097.37 131.639 1096.47 133.719C1092.81 132.293 1089.67 129.802 1087.45 126.568C1085.22 123.334 1084.02 119.506 1084 115.581C1084 111.633 1085.19 107.776 1087.41 104.513C1089.64 101.25 1092.79 98.7324 1096.46 97.2881C1097.45 99.5093 1098.83 101.529 1100.55 103.244C1102.93 105.633 1105.89 107.363 1109.14 108.264C1109.5 108.342 1109.86 108.434 1110.22 108.491Z" fill="#FFDD0F"/>
<path d="M1141.18 115.2C1141.24 115.147 1141.29 115.084 1141.33 115.016L1141.89 114.087L1156.95 89.164C1159.07 85.8678 1160.15 82.0081 1160.04 78.0888C1159.99 75.8219 1159.54 73.5822 1158.7 71.4735C1157.26 67.7983 1154.75 64.6433 1151.48 62.4208C1148.22 60.1982 1144.37 59.0115 1140.42 59.0156C1136.49 59.0261 1132.65 60.221 1129.41 62.4446C1126.17 64.6681 1123.67 67.817 1122.25 71.4806C1121.37 73.7409 1120.92 76.1456 1120.92 78.571C1120.92 81.9455 1121.79 85.2633 1123.45 88.1998V88.1998C1123.63 88.5117 1123.81 88.8237 1124.01 89.1286L1139.07 114.066L1139.63 114.994C1139.67 115.063 1139.72 115.125 1139.78 115.179" stroke="#1E6330" stroke-width="1.24082" stroke-linejoin="round"/>
<path d="M1139.79 115.78C1139.73 115.841 1139.68 115.905 1139.64 115.972L1139.08 116.901L1124.02 141.816C1121.9 145.112 1120.82 148.972 1120.93 152.891C1120.98 155.157 1121.43 157.396 1122.25 159.507C1123.7 163.179 1126.22 166.33 1129.49 168.553C1132.75 170.776 1136.6 171.967 1140.55 171.972C1144.48 171.957 1148.31 170.765 1151.54 168.549C1154.78 166.332 1157.28 163.195 1158.71 159.542C1159.59 157.281 1160.04 154.877 1160.04 152.452C1160.04 149.077 1159.17 145.759 1157.51 142.823V142.823C1157.33 142.504 1157.14 142.199 1156.95 141.887L1141.89 116.957L1141.33 116.028C1141.28 115.962 1141.23 115.898 1141.18 115.837" stroke="#1E6330" stroke-width="1.24082" stroke-linejoin="round"/>
<path d="M1140.77 116.191L1140.96 116.34L1141.89 116.9L1166.82 131.946C1170.11 134.074 1173.97 135.157 1177.89 135.052C1180.16 134.998 1182.39 134.547 1184.5 133.719C1188.18 132.278 1191.34 129.761 1193.57 126.497C1195.8 123.232 1197 119.372 1197 115.419C1196.99 111.488 1195.79 107.653 1193.57 104.412C1191.34 101.171 1188.2 98.6736 1184.53 97.2459C1182.27 96.3704 1179.87 95.9209 1177.44 95.9199C1174.07 95.9178 1170.75 96.7925 1167.82 98.4583C1167.5 98.6427 1167.19 98.827 1166.89 99.0255L1141.95 114.086L1141.02 114.646C1140.95 114.692 1140.89 114.744 1140.83 114.802C1140.73 114.893 1140.66 115.004 1140.61 115.126C1140.56 115.248 1140.54 115.379 1140.54 115.511" stroke="#1E6330" stroke-width="1.24082" stroke-linejoin="round"/>
<path d="M1140.48 115.49C1140.49 115.359 1140.46 115.228 1140.41 115.107C1140.36 114.985 1140.29 114.874 1140.2 114.781C1140.14 114.724 1140.08 114.671 1140.01 114.625L1139.08 114.065L1114.16 99.0121C1110.86 96.886 1107 95.8059 1103.08 95.9136C1100.81 95.9671 1098.58 96.4183 1096.46 97.2466C1092.78 98.6936 1089.62 101.218 1087.4 104.489C1085.18 107.76 1083.99 111.627 1084 115.582C1084.01 119.513 1085.21 123.349 1087.44 126.59C1089.66 129.831 1092.81 132.328 1096.47 133.755C1098.73 134.634 1101.14 135.084 1103.56 135.081C1106.94 135.086 1110.26 134.213 1113.19 132.55V132.55C1113.5 132.372 1113.82 132.181 1114.12 131.99L1139.06 116.93L1139.99 116.369L1140.18 116.221" stroke="#1E6330" stroke-width="1.24082" stroke-linejoin="round"/>
<path d="M1140.5 115.512C1140.68 115.687 1140.93 115.783 1141.18 115.781C1141.25 115.792 1141.33 115.792 1141.41 115.781L1142.47 115.526L1170.77 108.492C1174.6 107.661 1178.09 105.697 1180.79 102.855C1182.35 101.211 1183.62 99.3053 1184.52 97.2257C1186.1 93.6056 1186.54 89.5953 1185.81 85.7167C1185.07 81.8381 1183.19 78.2709 1180.39 75.4794C1177.6 72.7109 1174.04 70.848 1170.17 70.1335C1166.3 69.4189 1162.31 69.8858 1158.71 71.4733C1156.49 72.4504 1154.47 73.8331 1152.76 75.5503C1150.37 77.9325 1148.64 80.8968 1147.74 84.151V84.151C1147.65 84.4984 1147.56 84.86 1147.48 85.2075L1140.5 113.491L1140.24 114.54C1140.23 114.623 1140.23 114.706 1140.24 114.789C1140.24 115.036 1140.33 115.274 1140.5 115.455" stroke="#1E6330" stroke-width="1.24082" stroke-linejoin="round"/>
<path d="M1140.48 115.489C1140.29 115.309 1140.04 115.212 1139.77 115.22C1139.7 115.213 1139.62 115.213 1139.54 115.22L1138.48 115.489L1110.21 122.466C1106.38 123.296 1102.89 125.26 1100.19 128.103C1098.62 129.743 1097.36 131.646 1096.46 133.726C1094.88 137.345 1094.43 141.357 1095.16 145.237C1095.89 149.117 1097.78 152.686 1100.57 155.479C1103.36 158.259 1106.92 160.134 1110.78 160.859C1114.65 161.583 1118.65 161.125 1122.25 159.542C1124.48 158.556 1126.51 157.161 1128.22 155.43C1130.61 153.047 1132.34 150.086 1133.24 146.836V146.836C1133.34 146.482 1133.43 146.127 1133.5 145.78L1140.48 117.489L1140.74 116.44C1140.75 116.362 1140.75 116.283 1140.74 116.206V116.206C1140.75 116.075 1140.73 115.946 1140.68 115.824C1140.63 115.702 1140.56 115.591 1140.48 115.497V115.497" stroke="#1E6330" stroke-width="1.24082" stroke-linejoin="round"/>
<path d="M1140.47 115.511C1140.38 115.606 1140.31 115.717 1140.26 115.839C1140.22 115.96 1140.19 116.09 1140.2 116.22V116.22C1140.19 116.298 1140.19 116.377 1140.2 116.454L1140.45 117.504L1147.44 145.78C1148.28 149.616 1150.26 153.11 1153.11 155.806C1154.74 157.37 1156.64 158.634 1158.71 159.543C1162.33 161.118 1166.34 161.568 1170.22 160.832C1174.1 160.095 1177.67 158.208 1180.46 155.416C1183.23 152.628 1185.09 149.07 1185.81 145.207C1186.53 141.343 1186.07 137.352 1184.49 133.755C1183.51 131.533 1182.13 129.513 1180.41 127.799C1178.03 125.408 1175.07 123.675 1171.81 122.772C1171.47 122.673 1171.11 122.587 1170.75 122.509L1142.47 115.532L1141.42 115.263C1141.34 115.256 1141.26 115.256 1141.18 115.263C1140.93 115.263 1140.69 115.36 1140.51 115.532" stroke="#1E6330" stroke-width="1.24082" stroke-linejoin="round"/>
<path d="M1096.46 97.268C1097.45 99.4892 1098.83 101.509 1100.55 103.224C1102.93 105.613 1105.89 107.343 1109.14 108.244V108.244C1109.49 108.336 1109.85 108.428 1110.21 108.499L1138.48 115.49L1139.54 115.746C1139.62 115.756 1139.7 115.756 1139.77 115.746C1140.02 115.746 1140.27 115.65 1140.45 115.476V115.476C1140.62 115.295 1140.71 115.057 1140.71 114.81C1140.72 114.727 1140.72 114.644 1140.71 114.561L1140.45 113.512L1133.47 85.2426C1132.63 81.4062 1130.65 77.912 1127.8 75.2168C1126.16 73.6537 1124.25 72.3913 1122.17 71.4872C1118.56 69.9105 1114.55 69.4602 1110.67 70.195C1106.79 70.9298 1103.22 72.8156 1100.43 75.6067C1097.67 78.4038 1095.82 81.9648 1095.11 85.8275C1094.41 89.6902 1094.88 93.6762 1096.46 97.268V97.268Z" stroke="#1E6330" stroke-width="1.24082" stroke-linejoin="round"/>
<path d="M1130.62 206.769C1121.91 201.157 1110.9 201.958 1106.49 202.578C1105.41 202.731 1104.74 203.772 1105.05 204.823C1106.31 209.088 1110.14 219.446 1118.85 225.058C1129.99 232.242 1144.92 228.916 1144.92 228.916C1144.92 228.916 1141.77 213.964 1130.62 206.769Z" fill="#1E6330"/>
<path d="M1174.62 262.058C1165.91 267.67 1154.9 266.869 1150.49 266.249C1149.41 266.096 1148.74 265.055 1149.05 264.004C1150.31 259.739 1154.14 249.381 1162.85 243.769C1173.99 236.585 1188.92 239.911 1188.92 239.911C1188.92 239.911 1185.77 254.863 1174.62 262.058Z" fill="#1E6330"/>
<path d="M754.267 248.8C759.707 276.89 773.268 313.08 789.808 350.26H907.617C910.287 301.4 910.227 253.13 903.767 219.76C892.738 162.817 823.876 136.184 811.067 131.692C809.793 131.245 808.39 131.517 807.376 132.408C797.17 141.365 743.201 191.854 754.267 248.8Z" fill="#048333"/>
<path d="M946.352 287.352C938.089 303.201 930.577 325.827 924.057 350.27H1025.39C1028.95 345.003 1032.23 339.552 1035.21 333.939C1054.74 296.599 1022.86 249.26 1022.86 249.26C1022.86 249.26 965.867 250.003 946.352 287.352Z" fill="#048333"/>
<path d="M609.818 350.259H762.698C749.698 334.559 736.977 320.879 725.267 310.879C685.613 277.054 621.668 298.442 612.88 301.614C612.228 301.849 611.79 302.404 611.669 303.088C608.909 318.652 608.286 334.522 609.818 350.259Z" fill="#048333"/>
<path d="M827.667 350.26H834.828L772.188 307.9C773.017 310.07 773.867 312.26 774.727 314.45L827.667 350.26Z" fill="#34CB59"/>
<path d="M822.268 210.11L771.048 175.47C770.348 176.6 769.668 177.75 768.988 178.92L823.348 215.68L836.928 285.85L752.878 229C752.798 230.58 752.758 232.17 752.768 233.77L838.008 291.42L849.398 350.26H853.478L841.938 290.65L899.468 205.26C898.878 203.77 898.258 202.26 897.588 200.87L840.838 285.07L827.268 214.91L863.968 160.46C862.908 159.63 861.838 158.83 860.768 158.03L826.188 209.34L811.188 131.74C811.138 131.722 811.088 131.705 811.04 131.688C809.771 131.24 808.374 131.517 807.36 132.402C807.323 132.434 807.286 132.467 807.248 132.5L822.268 210.11Z" fill="#34CB59"/>
<path d="M867.457 350.26L909.198 288.32C909.198 285.96 909.167 283.627 909.107 281.32L862.627 350.32L867.457 350.26Z" fill="#34CB59"/>
<path d="M666.157 345.659L614.037 301.199C613.583 301.358 613.195 301.497 612.878 301.612C612.245 301.842 611.784 302.386 611.661 303.048C611.6 303.379 611.528 303.784 611.447 304.259L663.557 348.719L644.357 350.259H671.547L670.467 349.339L665.887 292.039C664.537 292.039 663.207 292.089 661.887 292.139L666.157 345.659Z" fill="#34CB59"/>
<path d="M718.448 350.26L714.698 303.42C713.318 302.62 711.918 301.87 710.498 301.17L714.428 350.26H718.448Z" fill="#34CB59"/>
<path d="M936.234 350.27H939.381L931.449 324.857C930.913 326.52 930.387 328.2 929.872 329.898L936.234 350.27Z" fill="#34CB59"/>
<path d="M997.281 294.953L985.263 256.463C984.324 256.801 983.377 257.147 982.438 257.523L995.306 298.732L973.755 339.971L953.916 276.43C953.13 277.316 952.364 278.232 951.618 279.179L971.787 343.78L968.376 350.3H971.772L974.446 345.177L1038.91 324.978C1039.26 323.836 1039.58 322.679 1039.86 321.522L976.421 341.406L997.972 300.159L1039.11 287.269C1038.88 286.285 1038.63 285.308 1038.36 284.339L999.933 296.358L1023.78 250.717C1023.19 249.771 1022.84 249.26 1022.84 249.26C1022.84 249.26 1022.23 249.26 1021.12 249.32L997.281 294.953Z" fill="#34CB59"/>
<path d="M1245.06 96.2045C1244.87 96.2981 1244.7 96.429 1244.56 96.5894C1244.42 96.7498 1244.31 96.9366 1244.24 97.1386C1244.18 97.3406 1244.15 97.5538 1244.17 97.7658C1244.19 97.9777 1244.25 98.1839 1244.35 98.3725L1328.2 257.394V250.349L1247.3 96.9025C1247.09 96.5151 1246.74 96.2248 1246.32 96.0942C1245.9 95.9636 1245.45 96.0032 1245.06 96.2045Z" fill="#048333"/>
<path d="M1318.32 104.429L1327.5 132.188L1307.22 122.059C1306.98 123.137 1306.76 124.228 1306.52 125.328L1328.2 136.154V123.798L1321.45 103.435C1320.38 103.662 1319.33 103.995 1318.32 104.429Z" fill="#34CB59"/>
<path d="M1182.53 283.669C1182.52 283.884 1182.56 284.097 1182.64 284.297C1182.72 284.497 1182.83 284.68 1182.98 284.835C1183.13 284.991 1183.3 285.116 1183.5 285.203C1183.7 285.29 1183.91 285.337 1184.12 285.343L1328.2 290.733V287.497L1184.25 282.111C1184.03 282.098 1183.81 282.129 1183.61 282.2C1183.41 282.272 1183.22 282.384 1183.06 282.529C1182.9 282.674 1182.77 282.85 1182.68 283.046C1182.59 283.241 1182.54 283.453 1182.53 283.669Z" fill="#048333"/>
<path d="M1225.9 254.718C1209.43 254.107 1191.3 262.304 1178.07 270C1175.71 271.336 1173.74 273.253 1172.32 275.568C1170.91 277.884 1170.12 280.521 1170.01 283.231C1169.91 285.94 1170.5 288.631 1171.72 291.049C1172.95 293.468 1174.77 295.532 1177.02 297.048C1189.61 305.702 1207.04 315.211 1223.52 315.821C1254.11 316.953 1277.6 287.229 1277.6 287.229C1277.6 287.229 1256.49 255.85 1225.9 254.718Z" fill="#048333"/>
<path d="M1260.34 284.927L1232.46 255.438C1230.82 255.145 1229.16 254.936 1227.5 254.814C1227.55 254.945 1227.63 255.066 1227.72 255.175L1255.69 284.76L1232.54 283.901L1207.22 257.19C1206.14 257.499 1205.06 257.819 1203.99 258.152C1204.04 258.437 1204.17 258.701 1204.37 258.915L1227.89 283.725L1204.75 282.87L1187.65 264.841C1186.62 265.35 1185.61 265.864 1184.61 266.385L1200.1 282.68L1170.2 281.575C1170.05 282.647 1170.01 283.731 1170.07 284.811L1199.97 285.921L1183.21 301.069C1184.16 301.664 1185.13 302.253 1186.12 302.835L1204.64 286.092L1227.75 286.947L1201.72 310.412C1201.67 310.474 1201.62 310.543 1201.57 310.615C1202.69 311.077 1203.8 311.503 1204.93 311.905L1232.42 287.127L1255.53 287.982L1225.36 315.256C1225.19 315.412 1225.06 315.603 1224.97 315.816C1226.6 315.826 1228.23 315.752 1229.85 315.594L1260.2 288.14L1276.29 288.736C1277.12 287.784 1277.57 287.215 1277.57 287.215C1277.57 287.215 1277.14 286.582 1276.35 285.518L1260.34 284.927Z" fill="#34CB59"/>
<path d="M1219.95 168.985C1219.68 168.641 1219.29 168.414 1218.86 168.352C1218.43 168.29 1217.99 168.398 1217.64 168.652C1217.47 168.775 1217.32 168.931 1217.21 169.112C1217.1 169.293 1217.02 169.495 1216.99 169.705C1216.96 169.915 1216.97 170.129 1217.02 170.335C1217.07 170.541 1217.17 170.734 1217.3 170.903L1306.44 288.26C1306.59 288.464 1306.79 288.63 1307.02 288.743C1307.25 288.856 1307.51 288.914 1307.76 288.912C1308.12 288.913 1308.46 288.803 1308.74 288.597C1308.92 288.474 1309.06 288.317 1309.18 288.136C1309.29 287.955 1309.36 287.753 1309.39 287.543C1309.43 287.332 1309.42 287.118 1309.36 286.911C1309.31 286.705 1309.22 286.511 1309.09 286.342L1219.95 168.985Z" fill="#048333"/>
<path d="M1225.79 156.703C1214.56 152.621 1202.75 161.159 1203.49 172.822C1204.45 187.813 1207.74 207.03 1217.56 219.941C1235.79 243.928 1274.26 243.198 1274.26 243.198C1274.26 243.198 1286.17 207.515 1267.93 183.528C1258.12 170.617 1240.22 161.963 1225.79 156.703Z" fill="#048333"/>
<path d="M1271.45 188.978C1270.65 187.535 1269.78 186.137 1268.83 184.79C1268.77 184.921 1268.72 185.061 1268.7 185.206L1262.53 224.989L1248.74 206.845L1254.28 170.875C1253.36 170.231 1252.42 169.606 1251.47 168.998C1251.28 169.219 1251.16 169.486 1251.11 169.77L1245.98 203.193L1232.17 185.076L1235.87 160.784C1234.82 160.315 1233.77 159.867 1232.73 159.439L1229.39 181.415L1211.56 157.969C1210.61 158.518 1209.72 159.159 1208.9 159.883L1226.73 183.334L1204.12 180.056C1204.24 181.15 1204.38 182.256 1204.52 183.375L1229.51 186.995L1243.29 205.12L1208.25 199.994C1208.16 199.987 1208.07 199.987 1207.98 199.994C1208.32 201.131 1208.67 202.264 1209.06 203.382L1246.08 208.795L1259.86 226.93L1219.16 221.05C1218.93 221.017 1218.69 221.032 1218.46 221.096C1219.48 222.344 1220.56 223.537 1221.7 224.67L1262.65 230.591L1272.24 243.202C1273.52 243.239 1274.26 243.23 1274.26 243.23C1274.26 243.23 1274.5 242.504 1274.85 241.233L1265.3 228.673L1271.45 188.978Z" fill="#34CB59"/>
<path d="M1246.14 71.0615C1235.68 65.3709 1222.68 72.0692 1221.6 83.7092C1220.21 98.6683 1220.51 118.153 1228.21 132.363C1242.51 158.759 1280.65 163.705 1280.65 163.705C1280.65 163.705 1297.95 130.19 1283.64 103.79C1275.94 89.58 1259.6 78.3792 1246.14 71.0615Z" fill="#048333"/>
<path d="M1284.29 105.076C1284.13 105.245 1284.01 105.447 1283.94 105.668L1271.8 144.009L1260.98 124.048L1271.97 89.1463C1271.1 88.3281 1270.21 87.5284 1269.3 86.7379C1269.26 86.8159 1269.23 86.8962 1269.2 86.9783L1258.8 120.017L1247.98 100.065L1255.43 76.5263C1254.46 75.9115 1253.5 75.3152 1252.54 74.7374L1245.8 96.0341L1231.81 70.2256C1230.79 70.6347 1229.82 71.1409 1228.9 71.7372L1242.88 97.5411L1221.11 90.9908C1221.06 92.091 1221.03 93.2035 1221 94.3284L1245.07 101.568L1255.88 121.533L1222.76 111.613C1222.47 111.534 1222.17 111.534 1221.89 111.613C1222.04 112.713 1222.21 113.808 1222.41 114.899L1258.06 125.578L1268.88 145.548L1229.43 133.765C1229.28 133.723 1229.12 133.702 1228.97 133.705C1229.8 135.125 1230.72 136.499 1231.71 137.819L1271.04 149.547L1278.53 163.369C1279.66 163.572 1280.38 163.678 1280.57 163.706H1280.63C1280.63 163.683 1280.97 163.05 1281.48 161.922L1273.96 148.053L1286.18 109.482C1285.63 107.981 1285 106.51 1284.29 105.076Z" fill="#34CB59"/>
<path d="M1228.73 336.779C1212.97 343.353 1209.37 363.559 1221.94 374.93C1238.09 389.543 1260.94 406.277 1284.17 410.211C1299.97 412.883 1315.21 409.522 1328.2 404.201V335.832C1319.9 330.284 1310.32 325.86 1299.54 324.03C1276.29 320.096 1248.99 328.334 1228.73 336.779Z" fill="#048333"/>
<path d="M1271.78 324.183C1270.67 324.344 1269.56 324.525 1268.45 324.714C1268.46 325.027 1268.57 325.329 1268.75 325.583L1298.22 366.508L1263.61 360.642L1242.57 331.519C1241.49 331.892 1240.41 332.271 1239.34 332.656L1258.99 359.87L1215.07 352.427C1214.8 353.469 1214.61 354.529 1214.49 355.599L1258.44 363.041L1230.44 382.262C1231.31 382.974 1232.19 383.683 1233.08 384.389L1263.03 363.822L1297.63 369.684L1254.74 399.048L1254.68 399.094C1255.74 399.688 1256.8 400.268 1257.88 400.832L1302.26 370.461L1328.21 374.857V371.589L1302.83 367.289L1271.78 324.183Z" fill="#34CB59"/>
<path d="M1302.61 324.654L1328.2 360.291V354.674L1307.55 325.916C1305.93 325.431 1304.28 325.019 1302.61 324.654Z" fill="#34CB59"/>
<path d="M80.46 26.95L79.9 26.82L65.0701 23.15L79.9 19.4901C81.9152 19.042 83.7484 17.9965 85.16 16.4901C85.994 15.635 86.671 14.6398 87.16 13.55C85.9759 13.082 84.7133 12.8444 83.4401 12.85C81.6879 12.855 79.9664 13.3095 78.4401 14.17L77.9501 14.46L64.87 22.36L72.77 9.28003C73.8827 7.55389 74.4506 5.53308 74.4 3.48004C74.3695 2.29155 74.1327 1.11738 73.7001 0.0100098C72.5323 0.521658 71.4706 1.24752 70.5701 2.15002C69.3152 3.39832 68.4085 4.9531 67.9401 6.66003L67.79 7.21002L64.13 22.05L60.47 7.21002C60.023 5.19726 58.9771 3.36697 57.47 1.96002L57.13 1.65002C57.0884 1.60729 57.0413 1.57031 56.99 1.54004C56.9953 1.5238 56.9953 1.50629 56.99 1.49005C56.87 1.38005 56.73 1.28005 56.6 1.18005L56.47 1.09003L56.14 0.860046L55.96 0.740051L55.85 0.680054C55.6892 0.570582 55.5222 0.470368 55.35 0.380005L55.09 0.25C54.9182 0.156617 54.7414 0.0731466 54.5601 0C54.1058 1.18775 53.872 2.4484 53.87 3.72003C53.8663 5.49359 54.3248 7.23751 55.2001 8.78003L55.49 9.27002L63.4 22.35L50.3201 14.45C48.5887 13.3418 46.565 12.7776 44.51 12.83C43.3209 12.8551 42.1459 13.0922 41.04 13.53C41.5517 14.6978 42.2775 15.7595 43.1801 16.66C44.4331 17.9139 45.9908 18.8202 47.7001 19.29C47.881 19.3428 48.0645 19.3862 48.25 19.42L63.08 23.09L48.26 26.76C46.2427 27.2027 44.408 28.2491 43 29.76C42.1551 30.629 41.4772 31.6459 41 32.76C42.1856 33.2218 43.4476 33.4559 44.72 33.45C46.4721 33.445 48.1937 32.9905 49.72 32.13C49.8888 32.043 50.0524 31.9462 50.21 31.84L63.3 23.94L55.4 37.02C54.2837 38.7482 53.7156 40.7734 53.77 42.83C53.8064 44.0178 54.0431 45.191 54.47 46.3C55.6382 45.7848 56.6998 45.0556 57.6 44.15C58.848 42.8964 59.7535 41.3436 60.23 39.64C60.23 39.45 60.33 39.27 60.37 39.08L64.03 24.2401L67.6901 39.07C68.1357 41.0861 69.1817 42.92 70.6901 44.33C71.5669 45.1651 72.5819 45.8418 73.6901 46.33C74.1523 45.1442 74.3897 43.8828 74.39 42.61C74.3937 40.8365 73.9353 39.0926 73.0601 37.55L72.76 37.0601L64.86 23.98L77.9401 31.88C79.6702 32.9911 81.6946 33.5556 83.75 33.5C84.9357 33.4737 86.1073 33.2367 87.21 32.8C86.7057 31.6306 85.9828 30.5682 85.08 29.67C83.8059 28.373 82.2123 27.4347 80.46 26.95Z" fill="white"/>
</g>
<defs>
<clipPath id="clip0">
<rect width="1307" height="350" fill="white"/>
</clipPath>
</defs>
</svg>
