<svg width="462" height="618" viewBox="0 0 462 618" fill="none" xmlns="http://www.w3.org/2000/svg">
<g clip-path="url(#clip0)">
<path d="M-59.8538 -582.895C-324.034 -387.833 -380.088 -15.5672 -185.058 248.613C-122.909 332.858 -39.6143 399.196 56.4012 440.918C152.417 482.64 257.748 498.265 361.74 486.214" stroke="white" stroke-opacity="0.1" stroke-width="1.85213" stroke-miterlimit="10"/>
<path d="M587.21 301.706C571.909 206.133 533.516 115.739 475.363 38.3661C417.21 -39.0064 341.054 -101.019 253.503 -142.289C165.953 -183.56 69.6543 -202.841 -27.0364 -198.461C-123.727 -194.08 -217.888 -166.17 -301.348 -117.152" stroke="white" stroke-opacity="0.1" stroke-width="1.85213" stroke-miterlimit="10"/>
<path d="M228.331 -48.4834C132.19 -33.9091 41.0877 4.0152 -36.9961 61.9679C-115.08 119.921 -177.764 196.134 -219.559 283.934C-261.353 371.734 -280.983 468.442 -276.73 565.589C-272.477 662.736 -244.469 757.358 -195.161 841.169" stroke="white" stroke-opacity="0.1" stroke-width="1.85213" stroke-miterlimit="10"/>
<path d="M521.889 1201.01C786.102 1005.98 842.155 633.684 647.093 369.504C584.93 285.22 501.598 218.858 405.537 177.139C309.476 135.421 204.097 119.826 100.07 131.936" stroke="white" stroke-opacity="0.1" stroke-width="1.85213" stroke-miterlimit="10"/>
<path d="M1123.07 18.0919C1045.23 -87.3282 934.744 -164.085 808.789 -200.25C682.834 -236.415 548.46 -229.964 426.549 -181.898C304.638 -133.832 202.017 -46.8438 134.634 65.5488C67.2509 177.941 38.8788 309.444 53.9268 439.622" stroke="white" stroke-opacity="0.1" stroke-width="1.85213" stroke-miterlimit="10"/>
<path d="M-661 599.867C-465.97 864.047 -93.673 920.101 170.507 725.039C254.757 662.895 321.099 579.601 362.821 483.584C404.544 387.567 420.166 282.234 408.108 178.241" stroke="white" stroke-opacity="0.1" stroke-width="1.85213" stroke-miterlimit="10"/>
<path d="M-125.143 308.979C-109.862 404.577 -71.4755 495.001 -13.3175 572.397C44.8404 649.794 121.012 711.824 208.584 753.102C296.155 794.379 392.479 813.657 489.191 809.259C585.903 804.862 680.081 776.924 763.545 727.87" stroke="white" stroke-opacity="0.1" stroke-width="1.85213" stroke-miterlimit="10"/>
<path d="M231.967 665.157C327.548 649.87 417.954 611.486 495.338 553.338C572.723 495.191 634.747 419.036 676.028 331.484C717.309 243.932 736.599 147.628 732.224 50.9309C727.849 -45.7663 699.941 -139.935 650.922 -223.401" stroke="white" stroke-opacity="0.1" stroke-width="1.85213" stroke-miterlimit="10"/>
</g>
<defs>
<clipPath id="clip0">
<rect width="462" height="618" fill="white"/>
</clipPath>
</defs>
</svg>
