<svg width="462" height="618" fill="none" xmlns="http://www.w3.org/2000/svg"><g clip-path="url(#clip0)" stroke="#fff" stroke-opacity=".1" stroke-width="1.852" stroke-miterlimit="10"><path d="M-59.854-582.895c-264.18 195.062-320.234 567.328-125.204 831.508A594.455 594.455 0 00361.74 486.214M587.21 301.706a594.806 594.806 0 00-888.558-418.858"/><path d="M228.331-48.483A594.777 594.777 0 00-276.73 565.589a594.77 594.77 0 0081.569 275.58"/><path d="M521.889 1201.01c264.213-195.03 320.266-567.326 125.204-831.506A594.33 594.33 0 00100.07 131.936M1123.07 18.092A594.68 594.68 0 0053.927 439.622"/><path d="M-661 599.867c195.03 264.18 567.327 320.234 831.507 125.172a594.38 594.38 0 00237.601-546.798"/><path d="M-125.143 308.979a594.772 594.772 0 00333.727 444.123 594.77 594.77 0 00554.961-25.232"/><path d="M231.967 665.157a594.791 594.791 0 00263.371-111.819A594.8 594.8 0 00732.224 50.931a594.799 594.799 0 00-81.302-274.332"/></g><defs><clipPath id="clip0"><path fill="#fff" d="M0 0h462v618H0z"/></clipPath></defs></svg>