<svg width="462" height="618" fill="none" xmlns="http://www.w3.org/2000/svg"><g clip-path="url(#a)" stroke="#fff" stroke-opacity=".1" stroke-width="1.852" stroke-miterlimit="10"><path d="M-59.854-582.895c-264.18 195.062-320.234 567.328-125.204 831.508A594.455 594.455 0 0 0 361.74 486.214m225.47-184.508a594.806 594.806 0 0 0-888.558-418.858"/><path d="M228.331-48.483A594.777 594.777 0 0 0-276.73 565.589a594.77 594.77 0 0 0 81.569 275.58"/><path d="M521.889 1201.01c264.213-195.03 320.266-567.326 125.204-831.506A594.33 594.33 0 0 0 100.07 131.936m1023-113.844A594.68 594.68 0 0 0 53.927 439.622"/><path d="M-661 599.867c195.03 264.18 567.327 320.234 831.507 125.172a594.38 594.38 0 0 0 237.601-546.798"/><path d="M-125.143 308.979a594.772 594.772 0 0 0 333.727 444.123 594.77 594.77 0 0 0 554.961-25.232"/><path d="M231.967 665.157a594.791 594.791 0 0 0 263.371-111.819A594.8 594.8 0 0 0 732.224 50.931a594.799 594.799 0 0 0-81.302-274.332"/></g><defs><clipPath id="a"><path fill="#fff" d="M0 0h462v618H0z"/></clipPath></defs></svg>