<svg width="172" height="148" fill="none" xmlns="http://www.w3.org/2000/svg"><g clip-path="url(#clip0)"><path opacity=".1" fill-rule="evenodd" clip-rule="evenodd" d="M171.368 73.93c0 40.451-32.59 73.235-72.793 73.235s-72.794-32.784-72.794-73.236C25.781 33.48 58.372.69 98.575.69c40.203 0 72.793 32.79 72.793 73.24z" fill="url(#paint0_linear)"/><mask id="a" maskUnits="userSpaceOnUse" x="52" y="70" width="104" height="78"><path d="M155.17 128.283l-9.254-40.985c-2.427 5.802-8.377 10.53-18.756 11-25.835 1.167-21.971-27.29-21.946-27.467h-.009L90.577 82.587V70.831H69.124c-5.264 0-9.965 3.309-11.764 8.288l-4.812 13.31h22.449l12.028 47.433h29.628v7.725l15.29-4.862 12.346-.512c9.088-.453 12.201-7.397 10.881-13.93z" fill="#fff"/></mask><g mask="url(#a)"><path d="M155.17 128.283l-9.254-40.985c-2.427 5.802-8.377 10.53-18.756 11-25.835 1.167-21.971-27.29-21.946-27.467h-.009L90.577 82.587V70.831H69.124c-5.264 0-9.965 3.309-11.764 8.288l-4.812 13.31h22.449l12.028 47.433h29.628v7.725l15.29-4.862 12.346-.512c9.088-.453 12.201-7.397 10.881-13.93z" fill="#C6F8E3"/></g><path fill-rule="evenodd" clip-rule="evenodd" d="M105.825 39.94c-.194-.084-.404-.136-.609-.195a5.019 5.019 0 00-1.385-.216 5.024 5.024 0 00-2.718.805c-3.536-2.556-4.632-7.079-4.632-7.079-11.476 0-18.147 8.71-18.147 8.71v12.118c0 3.287 3.041 5.723 6.226 4.98l6.017-1.584v25.108l14.628-11.756.011-.008V49.527l.028-.009a5.088 5.088 0 003.665-4.882 5.107 5.107 0 00-3.084-4.696z" fill="#C98E7C"/><path fill-rule="evenodd" clip-rule="evenodd" d="M87.025 139.862L74.997 92.428H0l13.989 55.159h102.664v-7.725H87.025z" fill="#7CE0D6"/><path fill-rule="evenodd" clip-rule="evenodd" d="M106.797 122.741l-8.9 5.634v11.487h18.756l4.458-13.267-14.314-3.854z" fill="#C98E7C"/><path fill-rule="evenodd" clip-rule="evenodd" d="M121.318 127.661l-.237-1.226 19.658-3.854.237 1.226-19.658 3.854z" fill="#2C2C4E"/><path fill-rule="evenodd" clip-rule="evenodd" d="M132.073 125.083l-6.959-33.276 1.212-.26 6.96 33.276-1.213.26z" fill="#2C2C4E"/><path d="M96.395 47.684c-2.357 2.64-5.483 3.895-9.737 3.895" stroke="#2C2C4E" stroke-width="2"/><path fill-rule="evenodd" clip-rule="evenodd" d="M136.032 64.719c-13.355-4.073-17.069-21.367-25.284-32.656a16.084 16.084 0 00-4.132-4.69l-.027-.026v.005c-3.137-2.41-7.259-3.984-11.168-3.984-8.581 0-20.479 3.98-17.087 18.597 0 0 6.671-8.71 18.147-8.71 0 0 1.096 4.523 4.632 7.079a5.026 5.026 0 012.718-.805c.482 0 .941.09 1.385.216.205.06.415.111.609.195a5.107 5.107 0 013.084 4.697 5.088 5.088 0 01-3.665 4.882l-.028.008v21.296l-.002.008c-.025.177-3.983 30.139 21.852 28.971 10.379-.47 16.423-6.702 18.85-12.504 3.631-8.683-2.297-20.266-9.884-22.58z" fill="#2C2C4E"/><mask id="b" maskUnits="userSpaceOnUse" x="0" y="92" width="117" height="56"><path fill-rule="evenodd" clip-rule="evenodd" d="M87.025 139.434L74.997 92H0l13.989 55.159h102.664v-7.725H87.025z" fill="#7CE0D6"/></mask><g mask="url(#b)"><path d="M121 92H-47v56h168V92z" fill="#C6F8E3"/><path opacity=".4" d="M-10 113v35h131v-35H-10z" fill="#71EEB8"/><path opacity=".4" d="M-12.547 148H8.781v-21.438h-.013a21.27 21.27 0 00-15.074 6.282A21.486 21.486 0 00-12.546 148z" fill="#71EEB8"/><path opacity=".4" d="M121 92H-3v56h124V92z" fill="#71EEB8"/><path opacity=".4" d="M121 127H-10v21h131v-21z" fill="#71EEB8"/></g></g><defs><linearGradient id="paint0_linear" x1="171.368" y1=".69" x2="22.151" y2="4.487" gradientUnits="userSpaceOnUse"><stop stop-color="#AAF5D4"/><stop offset="1" stop-color="#7CE0D6"/></linearGradient><clipPath id="clip0"><path fill="#fff" d="M0 0h171.368v148H0z"/></clipPath></defs></svg>