<svg width="22" height="22" fill="none" xmlns="http://www.w3.org/2000/svg"><circle cx="11" cy="11" r="11" fill="url(#a)"/><path fill-rule="evenodd" clip-rule="evenodd" d="M16.854 10.07a.524.524 0 0 0 .122-.52.491.491 0 0 0-.39-.346l-3.56-.545-1.591-3.376A.483.483 0 0 0 11 5a.483.483 0 0 0-.435.283L8.974 8.659l-3.56.545a.492.492 0 0 0-.39.346.524.524 0 0 0 .123.52l2.575 2.626-.608 3.71a.52.52 0 0 0 .193.497.465.465 0 0 0 .51.039L11 15.189l3.183 1.753a.467.467 0 0 0 .51-.039.52.52 0 0 0 .193-.496l-.607-3.71 2.575-2.627zm-8.587 5.482L11 14.047l2.733 1.505-.523-3.194 2.266-2.312-3.127-.479L11 6.707l-1.349 2.86-3.127.479 2.266 2.312-.523 3.194zM16.14 9.37zm-1.474 6.696z" fill="#fff"/><defs><linearGradient id="a" x1="22" y1="0" x2="-.548" y2=".577" gradientUnits="userSpaceOnUse"><stop stop-color="#AAF5D4"/><stop offset="1" stop-color="#7CE0D6"/></linearGradient></defs></svg>