<svg width="128" height="129" viewBox="0 0 128 129" fill="none" xmlns="http://www.w3.org/2000/svg">
<circle cx="64.0001" cy="64.4998" r="63.7913" fill="#469766" fill-opacity="0.4"/>
<mask id="mask0_624_1045" style="mask-type:alpha" maskUnits="userSpaceOnUse" x="0" y="0" width="128" height="129">
<circle cx="64.0001" cy="64.4998" r="63.7913" fill="#FFF19F"/>
</mask>
<g mask="url(#mask0_624_1045)">
<path d="M78.8094 100.626C72.2481 107.33 67.1415 115.317 63.8094 124.086H63.9594C72.6826 120.755 80.6297 115.67 87.3094 109.146C93.8705 102.443 98.9801 94.4608 102.319 85.696C93.5367 88.9974 85.5322 94.0807 78.8094 100.626Z" fill="#1B714F"/>
<path d="M48.6194 100.626C41.8996 94.0819 33.8986 88.9987 25.1194 85.696C28.4515 94.4651 33.5581 102.452 40.1194 109.156C46.8093 115.658 54.7591 120.722 63.4794 124.036H63.6194C60.2812 115.285 55.1749 107.316 48.6194 100.626Z" fill="#1B714F"/>
<path d="M84.7394 59.676L83.3294 58.676L64.6694 85.096V50.156H62.9494V85.096L44.2894 58.676L42.8794 59.676L62.9494 88.086V129.196H64.6694V88.076L84.7394 59.676Z" fill="#1B714F"/>
<path d="M73.9094 38.8862H72.9094C72.9094 38.5662 72.9094 38.2562 72.9094 37.9762V37.8562C72.9094 37.5162 72.9094 37.1962 72.9094 36.8562H73.9094C73.9094 37.1562 73.9094 37.4762 73.9094 37.8062V37.8762C73.9494 38.1962 73.9294 38.5262 73.9094 38.8862Z" fill="#DFE3E9"/>
<path d="M72.8794 35.5262C72.8794 35.0462 72.8094 34.5962 72.7594 34.1962L73.7594 34.0762C73.8094 34.4962 73.8594 34.9562 73.8894 35.4662L72.8794 35.5262Z" fill="#DFE3E9"/>
<path d="M72.5694 32.866C72.5694 32.866 72.5694 32.786 72.5694 32.746L72.4794 32.826L71.7994 32.096C72.2794 31.646 72.5694 31.416 72.5694 31.416C72.636 31.3629 72.7145 31.3268 72.7982 31.3112C72.8819 31.2955 72.9682 31.3006 73.0494 31.326C73.1271 31.3541 73.1969 31.4006 73.2526 31.4616C73.3083 31.5225 73.3484 31.5961 73.3694 31.676C73.3694 31.676 73.4594 32.046 73.5794 32.676L72.5694 32.866Z" fill="#DFE3E9"/>
<path d="M70.1494 35.306L69.3794 34.696C69.7894 34.206 70.1794 33.766 70.5394 33.376L71.2694 34.056C70.9194 34.396 70.5494 34.826 70.1494 35.306Z" fill="#DFE3E9"/>
<path d="M68.1294 37.6962H68.0594C67.9652 37.682 67.8768 37.6416 67.8043 37.5798C67.7319 37.5179 67.6782 37.437 67.6494 37.3462C67.5594 37.0362 67.4594 36.7262 67.3494 36.4262L68.2894 36.0862L69.1094 36.6962C68.9194 36.9562 68.7294 37.2262 68.5494 37.5062C68.4992 37.5686 68.435 37.6183 68.3621 37.6513C68.2891 37.6844 68.2094 37.6997 68.1294 37.6962Z" fill="#DFE3E9"/>
<path d="M66.4495 34.246C66.1156 33.5599 65.7451 32.8923 65.3395 32.246L66.2095 31.696C66.6369 32.3831 67.0242 33.0943 67.3695 33.826L66.4495 34.246Z" fill="#DFE3E9"/>
<path d="M64.0294 30.2761C63.9494 30.1661 63.8794 30.0661 63.8094 29.9861C63.7394 30.0661 63.6694 30.1661 63.5894 30.2761L62.7894 29.6761C62.9921 29.3951 63.209 29.1248 63.4394 28.8661C63.4853 28.8164 63.541 28.7767 63.6029 28.7496C63.6649 28.7225 63.7318 28.7085 63.7994 28.7085C63.8671 28.7085 63.934 28.7225 63.9959 28.7496C64.0579 28.7767 64.1135 28.8164 64.1594 28.8661C64.401 29.1275 64.6248 29.4048 64.8294 29.6961L64.0294 30.2761Z" fill="#DFE3E9"/>
<path d="M61.2094 34.246L60.3094 33.806C60.6594 33.096 61.0494 32.376 61.4694 31.676L62.3294 32.196C61.9213 32.8598 61.5475 33.544 61.2094 34.246Z" fill="#DFE3E9"/>
<path d="M59.4894 37.6962C59.4082 37.6964 59.3282 37.6763 59.2566 37.6379C59.1851 37.5995 59.1242 37.5439 59.0794 37.4762C58.8927 37.1962 58.7027 36.9262 58.5094 36.6662L59.3194 36.0762L60.2594 36.4162C60.1594 36.7162 60.0494 37.0262 59.9594 37.3362C59.9324 37.4262 59.8805 37.5068 59.8098 37.5687C59.739 37.6306 59.6522 37.6713 59.5594 37.6862L59.4894 37.6962Z" fill="#DFE3E9"/>
<path d="M57.4694 35.3062C57.0794 34.8262 56.6994 34.4062 56.3494 34.0262L57.0794 33.3462C57.4394 33.7362 57.8394 34.1762 58.2394 34.6662L57.4694 35.3062Z" fill="#DFE3E9"/>
<path d="M55.0494 32.8661L54.0494 32.6961C54.1594 32.0461 54.2494 31.6961 54.2494 31.6961C54.2722 31.6155 54.3141 31.5416 54.3715 31.4806C54.429 31.4197 54.5003 31.3735 54.5794 31.3461C54.6591 31.3206 54.7438 31.3155 54.8259 31.3312C54.908 31.3469 54.9849 31.383 55.0494 31.4361C55.0494 31.4361 55.3394 31.6661 55.8194 32.1161L55.2094 32.8261L55.1194 32.7461C55.1194 32.7461 55.0594 32.8261 55.0494 32.8661Z" fill="#DFE3E9"/>
<path d="M54.7394 35.5262L53.7394 35.4562C53.7394 34.9562 53.8194 34.4562 53.8694 34.0762L54.8694 34.1862C54.8094 34.5862 54.7694 35.0362 54.7394 35.5262Z" fill="#DFE3E9"/>
<path d="M53.7095 38.8862C53.7095 38.5262 53.7095 38.1962 53.7095 37.8862V37.8062C53.7095 37.4762 53.7095 37.1562 53.7095 36.8562H54.7095C54.7095 37.1762 54.7095 37.4962 54.7095 37.8562C54.7095 37.8562 54.7095 37.9062 54.7095 37.9262C54.7095 38.2062 54.7095 38.5162 54.7095 38.8362L53.7095 38.8862Z" fill="#DFE3E9"/>
<path d="M64.7694 54.9061L64.6594 53.9061C65.2448 53.8391 65.8175 53.6876 66.3594 53.4561L66.7594 54.3761C66.124 54.6447 65.4542 54.8231 64.7694 54.9061ZM62.7694 54.9061C62.0818 54.8209 61.4089 54.6426 60.7694 54.3761L61.1594 53.4561C61.7059 53.6841 62.2814 53.8356 62.8694 53.9061L62.7694 54.9061ZM68.5394 53.3361L67.9094 52.5561C68.3874 52.1736 68.8232 51.7411 69.2094 51.2661L69.9794 51.8861C69.5419 52.4169 69.0491 52.8996 68.5094 53.3261L68.5394 53.3361ZM59.0394 53.3361C58.5148 52.9132 58.0386 52.4336 57.6194 51.9061L58.3994 51.2761C58.7737 51.7487 59.1997 52.178 59.6694 52.5561L59.0394 53.3361ZM71.0394 50.2561L70.2094 49.6961C70.513 49.1564 70.7835 48.5987 71.0194 48.0261L71.9394 48.4061C71.6849 49.0325 71.3875 49.6406 71.0494 50.2261L71.0394 50.2561ZM56.4594 50.2561C56.1405 49.6804 55.8567 49.086 55.6094 48.4761L56.5394 48.0961C56.7679 48.6735 57.0351 49.2348 57.3394 49.7761L56.4594 50.2561ZM72.5694 46.6561L71.6194 46.3561C71.7994 45.7761 71.9594 45.1661 72.1094 44.5361L73.1094 44.7661C72.9427 45.3861 72.766 45.9994 72.5794 46.6061L72.5694 46.6561ZM54.9594 46.6561C54.7794 46.0661 54.6094 45.4261 54.4594 44.7661L55.4594 44.5461C55.5994 45.1861 55.7594 45.7961 55.9294 46.3661L54.9594 46.6561ZM73.4794 42.7961L72.4794 42.6361C72.5894 41.9861 72.6794 41.3661 72.7394 40.7561L73.7394 40.8661C73.6794 41.4861 73.5894 42.1361 73.4794 42.7961ZM54.1094 42.7961C54.0094 42.1361 53.9194 41.4861 53.8594 40.8661L54.8594 40.7661C54.9194 41.3661 55.0094 41.9961 55.1094 42.6461L54.1094 42.7961Z" fill="#DFE3E9"/>
<path d="M103.489 46.6961L102.569 46.3061C102.574 46.2695 102.574 46.2326 102.569 46.1961H102.459L102.269 45.1961C102.919 45.0761 103.269 45.0361 103.269 45.0361C103.352 45.0281 103.435 45.0403 103.512 45.0717C103.588 45.103 103.656 45.1526 103.709 45.2161C103.763 45.2806 103.799 45.3575 103.814 45.4396C103.83 45.5217 103.825 45.6064 103.799 45.6861C103.799 45.6861 103.749 46.1161 103.489 46.6961Z" fill="#DFE3E9"/>
<path d="M99.2094 47.096L98.8994 46.146C99.5094 45.946 100.079 45.786 100.589 45.656L100.839 46.656C100.349 46.746 99.8094 46.906 99.2094 47.096Z" fill="#DFE3E9"/>
<path d="M96.5095 48.0861C96.3886 48.0873 96.2713 48.0447 96.1795 47.9661C96.1062 47.9037 96.0528 47.8212 96.0262 47.7287C95.9995 47.6362 96.0006 47.5379 96.0295 47.4461C96.1195 47.1361 96.1995 46.8161 96.2695 46.5061L97.2095 46.6961L97.5795 47.6261L96.6695 48.0061C96.6216 48.0426 96.5673 48.0697 96.5095 48.0861Z" fill="#DFE3E9"/>
<path d="M97.6594 44.336L96.6594 44.216C96.7494 43.446 96.7994 42.666 96.8194 41.896H97.8194C97.8094 42.696 97.7494 43.536 97.6594 44.336Z" fill="#DFE3E9"/>
<path d="M96.7595 39.5662C96.7595 39.4362 96.7595 39.3062 96.7595 39.2062L96.4095 39.3262L96.0695 38.3862C96.6795 38.1562 97.0695 38.0562 97.0695 38.0562C97.1439 38.0336 97.2226 38.0291 97.2991 38.0431C97.3756 38.057 97.4477 38.0889 97.5095 38.1362C97.5721 38.1822 97.623 38.2425 97.6578 38.312C97.6925 38.3816 97.7103 38.4584 97.7095 38.5362C97.7095 38.5362 97.7695 38.9362 97.8195 39.4862L96.7595 39.5662Z" fill="#DFE3E9"/>
<path d="M92.2094 41.3762L91.6794 40.5262C92.3594 40.1062 93.0694 39.7162 93.7994 39.3562L94.2394 40.2462C93.5494 40.5962 92.8694 40.9762 92.2094 41.3762Z" fill="#DFE3E9"/>
<path d="M89.2095 43.446C89.1436 43.461 89.0753 43.461 89.0095 43.446C88.923 43.4058 88.8493 43.3425 88.7964 43.2631C88.7435 43.1837 88.7134 43.0913 88.7095 42.996C88.7095 42.666 88.7095 42.336 88.7095 41.996L89.7095 41.936L90.3195 42.726C90.0695 42.926 89.8195 43.126 89.5695 43.346C89.4669 43.4246 89.3379 43.4605 89.2095 43.446Z" fill="#DFE3E9"/>
<path d="M88.5194 40.286C88.4494 39.666 88.3594 39.106 88.2594 38.606L89.2594 38.426C89.3494 38.946 89.4494 39.526 89.5294 40.156L88.5194 40.286Z" fill="#DFE3E9"/>
<path d="M87.8995 36.9562V36.8362L87.8195 36.9262L87.0795 36.2562C87.5295 35.7662 87.7995 35.5062 87.7995 35.5062C87.853 35.4545 87.9183 35.4166 87.9897 35.3957C88.0611 35.3748 88.1365 35.3716 88.2095 35.3862C88.2912 35.4058 88.3668 35.4452 88.4296 35.501C88.4924 35.5569 88.5405 35.6273 88.5695 35.7062C88.5695 35.7062 88.6895 36.0662 88.8495 36.7062L87.8995 36.9562Z" fill="#DFE3E9"/>
<path d="M86.0994 38.9962L85.2894 38.4062C85.5894 37.9962 85.8794 37.6362 86.1494 37.3062L86.9194 37.9362C86.6594 38.2562 86.3894 38.6062 86.0994 38.9962Z" fill="#DFE3E9"/>
<path d="M84.2894 41.7762L83.4194 41.2862C83.5994 40.9762 83.7694 40.6762 83.9394 40.4062V40.3462C84.1094 40.0662 84.2794 39.8062 84.4494 39.5562L85.2794 40.1062L84.7494 40.9362C84.7523 40.956 84.7523 40.9763 84.7494 40.9962C84.5994 41.2362 84.4494 41.4962 84.2894 41.7762Z" fill="#DFE3E9"/>
<path d="M88.2094 61.4061L88.0994 60.4061C88.6988 60.3365 89.2889 60.2024 89.8594 60.0061L90.1794 61.0061C89.5383 61.2071 88.8781 61.3411 88.2094 61.4061ZM86.1594 61.3561C85.4816 61.2289 84.8252 61.0067 84.2094 60.6961L84.6394 59.7961C85.1756 60.0521 85.7442 60.2338 86.3294 60.3361L86.1594 61.3561ZM92.0094 60.1561L91.5394 59.2761C92.0851 58.9738 92.6127 58.6399 93.1194 58.2761L93.6894 59.0861C93.1413 59.4817 92.5666 59.8393 91.9694 60.1561H92.0094ZM82.4894 59.6361C81.9579 59.2001 81.49 58.6919 81.0994 58.1261L81.9294 57.5561C82.2644 58.0482 82.6685 58.4894 83.1294 58.8661L82.4894 59.6361ZM95.2094 57.9161L94.5594 57.1561C95.0194 56.7661 95.4894 56.3361 95.9594 55.8861L96.6494 56.6061C96.2094 57.0761 95.6894 57.5161 95.2094 57.9161ZM80.1494 56.2961C79.9299 55.6481 79.7856 54.977 79.7194 54.2961L80.7194 54.1861C80.785 54.7843 80.9123 55.3741 81.0994 55.9461L80.1494 56.2961ZM98.0094 55.1961L97.2594 54.5261C97.6994 54.0394 98.1094 53.5594 98.4894 53.0861L99.2694 53.7061C98.8794 54.1961 98.4594 54.6961 98.0094 55.1961ZM80.6694 52.3661L79.6694 52.3161C79.7131 51.6456 79.7932 50.9779 79.9094 50.3161L80.9094 50.4961C80.7875 51.1133 80.7073 51.7381 80.6694 52.3661ZM81.3194 48.6961L80.3194 48.4261C80.4894 47.8161 80.6894 47.1861 80.9194 46.5661L81.8594 46.9061C81.6794 47.5161 81.4894 48.1261 81.3194 48.6961ZM82.5994 45.1461L81.6794 44.7561C81.9494 44.1361 82.2294 43.5461 82.5094 42.9861L83.3994 43.4361C83.1294 43.9861 82.8594 44.5661 82.5994 45.1561V45.1461Z" fill="#DFE3E9"/>
<path d="M100.469 52.136L99.6494 51.556C99.8394 51.296 100.009 51.046 100.169 50.806V50.746C100.359 50.466 100.529 50.186 100.699 49.916L101.549 50.436C101.389 50.706 101.229 50.966 101.049 51.246V51.306C100.869 51.566 100.669 51.846 100.469 52.136Z" fill="#DFE3E9"/>
<path d="M102.279 49.2362L101.399 48.7562C101.639 48.3262 101.839 47.9262 102.019 47.5562L102.919 47.9962C102.729 48.3762 102.519 48.7862 102.279 49.2362Z" fill="#DFE3E9"/>
<path d="M43.8094 42.346L43.3494 41.556V41.496L42.7794 40.696L43.6094 40.146L44.1194 40.936C44.1227 40.9592 44.1227 40.9828 44.1194 41.006C44.2894 41.276 44.4594 41.566 44.6394 41.876L43.8094 42.346Z" fill="#DFE3E9"/>
<path d="M41.9994 39.566C41.7194 39.176 41.4394 38.826 41.1794 38.506L41.9594 37.876C42.2194 38.206 42.5094 38.566 42.8094 38.976L41.9994 39.566Z" fill="#DFE3E9"/>
<path d="M40.2095 37.516L39.2095 37.266C39.3695 36.636 39.4895 36.266 39.4895 36.266C39.5193 36.1866 39.5675 36.1153 39.63 36.058C39.6926 36.0006 39.7678 35.9588 39.8495 35.936C39.9309 35.9166 40.0159 35.9183 40.0964 35.9411C40.1769 35.9638 40.2503 36.0068 40.3095 36.066C40.3095 36.066 40.5895 36.316 41.0295 36.806L40.2895 37.476L40.2095 37.406V37.516Z" fill="#DFE3E9"/>
<path d="M39.5795 40.8461L38.5795 40.7261C38.6495 40.0861 38.7495 39.5061 38.8395 38.9861L39.8395 39.1661C39.7395 39.6961 39.6495 40.2361 39.5795 40.8461Z" fill="#DFE3E9"/>
<path d="M38.8794 44.0061C38.7589 44.0056 38.6422 43.9631 38.5494 43.8861L37.7994 43.2661L38.4194 42.4861L39.4194 42.5461C39.4194 42.8561 39.4194 43.1861 39.4194 43.5461C39.4172 43.6405 39.3877 43.7323 39.3344 43.8104C39.2812 43.8885 39.2065 43.9495 39.1194 43.9861C39.0427 44.0144 38.9598 44.0213 38.8794 44.0061Z" fill="#DFE3E9"/>
<path d="M35.8894 41.946C35.2394 41.546 34.5494 41.166 33.8894 40.816L34.3294 39.916C35.0587 40.2734 35.7696 40.6673 36.4594 41.096L35.8894 41.946Z" fill="#DFE3E9"/>
<path d="M31.3395 40.126L30.3395 40.056C30.3995 39.396 30.4595 39.056 30.4595 39.056C30.4702 38.9935 30.4934 38.9339 30.5278 38.8806C30.5622 38.8273 30.607 38.7816 30.6595 38.746C30.8795 38.586 30.9495 38.586 32.0695 39.006L31.7195 39.946L31.3695 39.816C31.3628 39.896 31.3528 39.9994 31.3395 40.126Z" fill="#DFE3E9"/>
<path d="M30.4394 44.8961C30.3453 44.0926 30.2919 43.2849 30.2794 42.4761H31.2794C31.2889 43.2515 31.339 44.0259 31.4294 44.7961L30.4394 44.8961Z" fill="#DFE3E9"/>
<path d="M31.5894 48.696C31.523 48.7055 31.4557 48.7055 31.3894 48.696C31.0794 48.556 30.7794 48.436 30.4794 48.316L30.8494 47.386L31.8494 47.166C31.9194 47.476 31.9994 47.786 32.0894 48.106C32.1188 48.1962 32.1202 48.2932 32.0934 48.3843C32.0666 48.4753 32.0129 48.5561 31.9394 48.616C31.8894 48.6521 31.8326 48.6778 31.7725 48.6916C31.7124 48.7053 31.6501 48.7068 31.5894 48.696Z" fill="#DFE3E9"/>
<path d="M28.8794 47.6961C28.2994 47.5061 27.7494 47.3561 27.2494 47.2261L27.5094 46.2261C28.0194 46.3561 28.5894 46.5261 29.1894 46.7161L28.8794 47.6961Z" fill="#DFE3E9"/>
<path d="M24.6094 47.2861C24.4687 46.9594 24.3452 46.6256 24.2394 46.2861C24.2096 46.2077 24.2013 46.1228 24.2154 46.0402C24.2295 45.9575 24.2654 45.8802 24.3194 45.8161C24.3791 45.7611 24.4512 45.7214 24.5296 45.7005C24.608 45.6796 24.6903 45.6781 24.7694 45.6961C24.7694 45.6961 25.1394 45.6961 25.7694 45.8661L25.5794 46.8661H25.4694C25.4694 46.8661 25.4694 46.9361 25.4694 46.9761L24.6094 47.2861Z" fill="#DFE3E9"/>
<path d="M25.8194 49.796C25.5794 49.356 25.3694 48.936 25.1794 48.556L26.0794 48.116C26.2594 48.486 26.4594 48.886 26.6994 49.316L25.8194 49.796Z" fill="#DFE3E9"/>
<path d="M27.6394 52.6961C27.4294 52.4061 27.2294 52.1261 27.0594 51.8561V51.7961L26.5594 50.9961L27.4094 50.4761C27.5794 50.7461 27.7494 51.0261 27.9394 51.3061V51.3661C28.0994 51.6061 28.2694 51.8561 28.4594 52.1061L27.6394 52.6961Z" fill="#DFE3E9"/>
<path d="M39.8994 61.9762C39.2185 61.8931 38.5482 61.7389 37.8994 61.5162L38.2294 60.5762C38.7997 60.7736 39.3899 60.9077 39.9894 60.9762L39.8994 61.9762ZM41.8994 61.9262L41.7394 60.9262C42.3247 60.8289 42.8935 60.6506 43.4294 60.3962L43.8594 61.2962C43.2564 61.597 42.6131 61.8092 41.9494 61.9262H41.8994ZM36.0994 60.6962C35.5192 60.3981 34.9581 60.0641 34.4194 59.6962L34.9994 58.8762C35.5016 59.2468 36.0296 59.581 36.5794 59.8762L36.0994 60.6962ZM45.6294 60.2162L44.9894 59.4462C45.4514 59.0683 45.8616 58.6312 46.2094 58.1462L47.0294 58.7162C46.6358 59.2826 46.1646 59.7909 45.6294 60.2262V60.2162ZM32.8694 58.4662C32.3894 58.0662 31.8694 57.6162 31.4294 57.1462L32.1294 56.4362C32.5894 56.8862 33.0594 57.3162 33.5194 57.7062L32.8694 58.4662ZM47.9394 56.8862L46.9994 56.5662C47.1947 55.9925 47.3255 55.3988 47.3894 54.7962L48.3894 54.9162C48.3152 55.5879 48.1643 56.2489 47.9394 56.8862ZM30.0794 55.6962C29.6294 55.1962 29.2094 54.6962 28.8094 54.2162L29.5894 53.5862C29.9694 54.0562 30.3794 54.5862 30.8194 55.0262L30.0794 55.6962ZM47.4294 52.9262C47.3906 52.3225 47.3171 51.7215 47.2094 51.1262L48.2094 50.9462C48.332 51.6071 48.4122 52.2751 48.4494 52.9462L47.4294 52.9262ZM46.7894 49.2562C46.6194 48.6762 46.4294 48.0762 46.2094 47.4662L47.1494 47.1262C47.3794 47.7562 47.5794 48.3862 47.7494 48.9862L46.7894 49.2562ZM45.5094 45.7562C45.2494 45.1562 44.9794 44.5762 44.7094 44.0362L45.6094 43.5862C45.8794 44.1462 46.1594 44.7462 46.4294 45.3562L45.5094 45.7562Z" fill="#DFE3E9"/>
<path d="M68.6295 50.0261C68.9078 49.0519 69.0161 48.0371 68.9495 47.0261C67.6166 47.4931 66.4184 48.2793 65.4595 49.3161C65.2262 47.9312 64.6599 46.6237 63.8095 45.5061C62.9496 46.6435 62.386 47.9768 62.1695 49.3861C61.2029 48.3302 59.9903 47.5298 58.6395 47.0561C58.5766 48.067 58.6848 49.0812 58.9595 50.0561C57.9824 49.7948 56.9676 49.7034 55.9595 49.7861C56.5234 51.3967 57.5712 52.7938 58.9595 53.7861C60.3989 54.6238 62.059 55.004 63.7195 54.8761H63.8695C65.5496 54.9857 67.2225 54.5736 68.6595 53.6961C70.0478 52.7038 71.0956 51.3067 71.6595 49.6961C70.638 49.6298 69.6127 49.7415 68.6295 50.0261Z" fill="#1B714F"/>
<path d="M89.9695 58.6962C90.7191 58.0261 91.3512 57.2352 91.8394 56.3562C90.4636 56.0255 89.027 56.0427 87.6595 56.4062C88.2115 55.1106 88.4381 53.6995 88.3195 52.2962C86.9839 52.7954 85.792 53.6163 84.8494 54.6862C84.6065 53.2776 84.0114 51.9532 83.1194 50.8362C82.5308 51.6446 82.0844 52.5476 81.7995 53.5062C81.1203 52.7647 80.3186 52.1456 79.4295 51.6762C79.0399 53.3439 79.1797 55.0916 79.8294 56.6762C80.5996 58.1054 81.7757 59.2745 83.2095 60.0362L83.2895 60.0862H83.3395C84.6818 61.0963 86.3007 61.672 87.9795 61.7362C89.6752 61.6514 91.3031 61.0435 92.6395 59.9962C91.8264 59.42 90.9244 58.9809 89.9695 58.6962Z" fill="#1B714F"/>
<path d="M48.8771 52.529C47.9911 53.0031 47.1929 53.6254 46.5171 54.369C46.2278 53.4071 45.7781 52.501 45.1871 51.689C44.2962 52.8104 43.7013 54.1377 43.4571 55.549C42.5182 54.475 41.3252 53.6533 39.9871 53.159C39.8688 54.559 40.0954 55.9667 40.6471 57.259C39.2731 56.9094 37.8343 56.9026 36.4571 57.239C36.9451 58.1238 37.581 58.9186 38.3371 59.589C37.3574 59.8881 36.437 60.355 35.6171 60.969C36.9603 62.0108 38.5896 62.6179 40.2871 62.709C41.9637 62.6412 43.5793 62.0619 44.9171 61.049H44.9671L45.0471 60.989C46.5138 60.197 47.7036 58.9758 48.4571 57.489C49.1031 55.918 49.2498 54.1862 48.8771 52.529Z" fill="#1B714F"/>
</g>
</svg>
