<svg width="48" height="48" viewBox="0 0 48 48" fill="none" xmlns="http://www.w3.org/2000/svg">
<circle opacity="0.9" cx="24" cy="24" r="24" fill="#031A3A"/>
<path fill-rule="evenodd" clip-rule="evenodd" d="M17.4545 22.9091C18.057 22.9091 18.5454 23.3975 18.5454 24C18.5454 26.0115 19.4362 27.2938 20.5598 28.129C21.727 28.9966 23.1569 29.3805 24.0905 29.4583C24.6559 29.5054 25.0908 29.9781 25.0908 30.5455C25.0908 31.1128 24.6559 31.5855 24.0905 31.6326C23.1569 31.7104 21.727 32.0943 20.5598 32.9619C19.4362 33.7971 18.5454 35.0794 18.5454 37.0909C18.5454 37.6934 18.057 38.1818 17.4545 38.1818C16.852 38.1818 16.3636 37.6934 16.3636 37.0909C16.3636 35.0794 15.4727 33.7971 14.3491 32.9619C13.182 32.0943 11.752 31.7104 10.8184 31.6326C10.253 31.5855 9.81812 31.1128 9.81812 30.5455C9.81812 29.9781 10.253 29.5054 10.8184 29.4583C11.752 29.3805 13.182 28.9966 14.3491 28.129C15.4727 27.2938 16.3636 26.0115 16.3636 24C16.3636 23.3975 16.852 22.9091 17.4545 22.9091ZM17.4545 27.9572C16.9604 28.7359 16.334 29.3722 15.6507 29.8801C15.3108 30.1327 14.9575 30.3535 14.5999 30.5455C14.9575 30.7374 15.3108 30.9582 15.6507 31.2108C16.334 31.7187 16.9604 32.355 17.4545 33.1337C17.9485 32.355 18.575 31.7187 19.2582 31.2108C19.5981 30.9582 19.9514 30.7374 20.3091 30.5455C19.9514 30.3535 19.5981 30.1327 19.2582 29.8801C18.575 29.3722 17.9485 28.7359 17.4545 27.9572Z" fill="#7CE0D6"/>
<path fill-rule="evenodd" clip-rule="evenodd" d="M29.4545 7.63637C30.057 7.63637 30.5454 8.12478 30.5454 8.72728C30.5454 11.9388 31.9817 14.0166 33.7871 15.3586C35.6361 16.733 37.8842 17.3351 39.3633 17.4583C39.9287 17.5054 40.3636 17.9781 40.3636 18.5455C40.3636 19.1128 39.9287 19.5855 39.3633 19.6326C37.8842 19.7559 35.6361 20.3579 33.7871 21.7323C31.9817 23.0744 30.5454 25.1521 30.5454 28.3636C30.5454 28.9661 30.057 29.4546 29.4545 29.4546C28.852 29.4546 28.3636 28.9661 28.3636 28.3636C28.3636 25.1521 26.9273 23.0744 25.1219 21.7323C23.2729 20.3579 21.0248 19.7559 19.5457 19.6326C18.9803 19.5855 18.5454 19.1128 18.5454 18.5455C18.5454 17.9781 18.9803 17.5054 19.5457 17.4583C21.0248 17.3351 23.2729 16.733 25.1219 15.3586C26.9273 14.0166 28.3636 11.9388 28.3636 8.72728C28.3636 8.12478 28.852 7.63637 29.4545 7.63637ZM29.4545 13.5604C28.7028 15.0477 27.6252 16.2163 26.4235 17.1096C25.6234 17.7043 24.77 18.1769 23.9216 18.5455C24.77 18.9141 25.6234 19.3866 26.4235 19.9813C27.6252 20.8746 28.7028 22.0432 29.4545 23.5305C30.2062 22.0432 31.2838 20.8746 32.4855 19.9813C33.2856 19.3866 34.139 18.9141 34.9874 18.5455C34.139 18.1769 33.2856 17.7043 32.4855 17.1096C31.2838 16.2163 30.2062 15.0477 29.4545 13.5604Z" fill="#7CE0D6"/>
</svg>
