<svg width="21" height="21" fill="none" xmlns="http://www.w3.org/2000/svg"><g filter="url(#filter0_d)"><circle cx="10.5" cy="9.5" r="7.5" fill="#F5A623"/></g><path d="M11.152 7.93c0 .553-.02 1.06-.06 1.52-.04.46-.09.923-.15 1.39h-.86c-.067-.467-.12-.93-.16-1.39-.04-.467-.06-.973-.06-1.52V6.07h1.29v1.86zm.15 4.41a.754.754 0 01-.23.57.793.793 0 01-.57.22.815.815 0 01-.57-.22.754.754 0 01-.23-.57c0-.233.076-.423.23-.57.16-.153.35-.23.57-.23.226 0 .416.077.57.23.153.147.23.337.23.57z" fill="#fff"/><defs><filter id="filter0_d" x="0" y="0" width="21" height="21" filterUnits="userSpaceOnUse" color-interpolation-filters="sRGB"><feFlood flood-opacity="0" result="BackgroundImageFix"/><feColorMatrix in="SourceAlpha" values="0 0 0 0 0 0 0 0 0 0 0 0 0 0 0 0 0 0 127 0"/><feOffset dy="1"/><feGaussianBlur stdDeviation="1.5"/><feColorMatrix values="0 0 0 0 0 0 0 0 0 0 0 0 0 0 0 0 0 0 0.15 0"/><feBlend in2="BackgroundImageFix" result="effect1_dropShadow"/><feBlend in="SourceGraphic" in2="effect1_dropShadow" result="shape"/></filter></defs></svg>